<?xml version="1.0" encoding="UTF-8"?>
<svg xmlns="http://www.w3.org/2000/svg" xmlns:xlink="http://www.w3.org/1999/xlink" width="120px" height="50px" viewBox="0 0 120 50" version="1.1">
<g id="surface1">
<path style=" stroke:none;fill-rule:nonzero;fill:rgb(0%,0%,0%);fill-opacity:1;" d="M 8.246094 32.945312 C 8.246094 32.394531 8.320312 31.859375 8.46875 31.347656 C 8.621094 30.835938 8.847656 30.378906 9.148438 29.972656 C 9.449219 29.570312 9.824219 29.25 10.277344 29.011719 C 10.730469 28.769531 11.25 28.648438 11.84375 28.648438 C 12.210938 28.648438 12.617188 28.703125 13.058594 28.816406 C 13.503906 28.925781 13.921875 29.085938 14.3125 29.304688 C 14.703125 29.519531 15.027344 29.792969 15.289062 30.128906 C 15.546875 30.460938 15.679688 30.84375 15.679688 31.273438 C 15.679688 31.476562 15.644531 31.632812 15.574219 31.738281 C 15.503906 31.84375 15.367188 31.898438 15.152344 31.898438 L 15.019531 31.871094 C 15.253906 32.507812 15.457031 33.160156 15.628906 33.824219 C 15.800781 34.492188 15.96875 35.160156 16.128906 35.828125 C 16.195312 35.957031 16.246094 36.074219 16.277344 36.175781 C 16.308594 36.277344 16.324219 36.378906 16.324219 36.476562 C 16.324219 36.605469 16.289062 36.710938 16.214844 36.796875 C 16.140625 36.882812 16.046875 36.945312 15.929688 36.988281 C 15.8125 37.027344 15.6875 37.054688 15.5625 37.074219 C 15.4375 37.089844 15.324219 37.097656 15.226562 37.097656 C 14.878906 37.097656 14.613281 37.035156 14.441406 36.914062 C 14.265625 36.792969 14.136719 36.625 14.0625 36.414062 C 13.984375 36.203125 13.9375 35.964844 13.921875 35.699219 C 13.90625 35.433594 13.871094 35.167969 13.824219 34.898438 C 13.726562 35.21875 13.597656 35.527344 13.4375 35.828125 C 13.28125 36.128906 13.09375 36.398438 12.878906 36.640625 C 12.660156 36.878906 12.40625 37.070312 12.113281 37.214844 C 11.820312 37.355469 11.492188 37.425781 11.125 37.425781 C 10.589844 37.425781 10.136719 37.273438 9.769531 36.964844 C 9.40625 36.652344 9.109375 36.273438 8.886719 35.820312 C 8.660156 35.371094 8.5 34.886719 8.398438 34.375 C 8.296875 33.863281 8.246094 33.386719 8.246094 32.945312 Z M 9.976562 32.777344 C 9.976562 33.078125 10 33.394531 10.039062 33.726562 C 10.078125 34.0625 10.148438 34.390625 10.242188 34.714844 C 10.335938 35.042969 10.453125 35.347656 10.601562 35.636719 C 10.746094 35.925781 10.929688 36.179688 11.148438 36.402344 C 11.546875 35.96875 11.84375 35.445312 12.035156 34.828125 C 12.226562 34.207031 12.398438 33.613281 12.546875 33.039062 C 12.699219 32.464844 12.867188 31.972656 13.058594 31.5625 C 13.25 31.148438 13.546875 30.945312 13.945312 30.945312 C 14.199219 30.945312 14.410156 30.988281 14.578125 31.078125 C 14.5 30.875 14.363281 30.679688 14.175781 30.488281 C 13.988281 30.296875 13.78125 30.121094 13.546875 29.960938 C 13.316406 29.804688 13.078125 29.671875 12.828125 29.570312 C 12.582031 29.46875 12.347656 29.417969 12.125 29.417969 C 12.0625 29.417969 11.984375 29.429688 11.902344 29.449219 C 11.816406 29.46875 11.75 29.472656 11.699219 29.457031 C 11.367188 29.554688 11.089844 29.722656 10.875 29.960938 C 10.660156 30.203125 10.484375 30.484375 10.351562 30.808594 C 10.214844 31.136719 10.121094 31.46875 10.0625 31.8125 C 10.007812 32.152344 9.976562 32.476562 9.976562 32.777344 Z M 18.824219 29.527344 C 18.824219 29.195312 18.882812 28.914062 19 28.6875 C 19.117188 28.457031 19.371094 28.34375 19.75 28.34375 C 19.898438 28.34375 20.082031 28.367188 20.300781 28.410156 C 20.519531 28.457031 20.648438 28.570312 20.679688 28.746094 C 20.761719 29.226562 20.804688 29.75 20.8125 30.308594 C 20.820312 30.871094 20.851562 31.402344 20.898438 31.898438 C 21.085938 31.53125 21.328125 31.136719 21.621094 30.710938 C 21.914062 30.289062 22.246094 29.898438 22.621094 29.539062 C 22.996094 29.183594 23.402344 28.886719 23.839844 28.648438 C 24.28125 28.414062 24.726562 28.296875 25.183594 28.296875 C 25.214844 28.296875 25.277344 28.308594 25.367188 28.332031 C 25.457031 28.355469 25.539062 28.390625 25.617188 28.4375 C 25.695312 28.480469 25.742188 28.53125 25.757812 28.589844 C 25.773438 28.644531 25.730469 28.699219 25.625 28.746094 C 25.589844 28.84375 25.523438 28.902344 25.414062 28.925781 C 25.308594 28.945312 25.214844 28.953125 25.136719 28.953125 C 25.085938 28.953125 25.007812 28.933594 24.902344 28.894531 C 24.300781 29.210938 23.789062 29.644531 23.363281 30.1875 C 22.941406 30.734375 22.597656 31.335938 22.328125 32 C 22.058594 32.664062 21.863281 33.363281 21.742188 34.101562 C 21.621094 34.835938 21.558594 35.554688 21.558594 36.253906 C 21.558594 36.605469 21.480469 36.816406 21.320312 36.890625 C 21.160156 36.960938 20.90625 37 20.558594 37 C 20.371094 37 20.171875 36.980469 19.964844 36.9375 C 19.757812 36.898438 19.613281 36.765625 19.53125 36.546875 C 19.386719 36.085938 19.265625 35.550781 19.171875 34.949219 C 19.078125 34.347656 19.007812 33.726562 18.957031 33.085938 C 18.910156 32.449219 18.875 31.820312 18.855469 31.203125 C 18.835938 30.582031 18.824219 30.023438 18.824219 29.527344 Z M 27.5 29.394531 C 27.5 28.824219 27.527344 28.085938 27.578125 27.171875 C 27.632812 26.261719 27.695312 25.320312 27.769531 24.351562 C 27.839844 23.382812 27.933594 22.46875 28.042969 21.601562 C 28.152344 20.734375 28.273438 20.070312 28.402344 19.605469 C 28.453125 19.402344 28.566406 19.277344 28.75 19.238281 C 28.933594 19.199219 29.117188 19.175781 29.304688 19.175781 C 29.558594 19.175781 29.777344 19.222656 29.960938 19.3125 C 30.140625 19.402344 30.234375 19.597656 30.234375 19.898438 C 30.234375 21.378906 30.140625 22.863281 29.960938 24.347656 C 29.777344 25.832031 29.675781 27.316406 29.660156 28.796875 C 29.914062 28.414062 30.238281 28.128906 30.636719 27.9375 C 31.035156 27.746094 31.457031 27.648438 31.90625 27.648438 C 32.523438 27.648438 33.058594 27.773438 33.503906 28.027344 C 33.953125 28.28125 34.316406 28.605469 34.589844 29.003906 C 34.867188 29.402344 35.074219 29.863281 35.207031 30.390625 C 35.34375 30.914062 35.410156 31.449219 35.410156 31.996094 C 35.410156 32.296875 35.378906 32.671875 35.316406 33.125 C 35.257812 33.574219 35.164062 34.050781 35.042969 34.550781 C 34.921875 35.050781 34.765625 35.550781 34.578125 36.042969 C 34.390625 36.535156 34.171875 36.976562 33.914062 37.367188 C 33.65625 37.757812 33.363281 38.070312 33.027344 38.3125 C 32.695312 38.550781 32.328125 38.671875 31.929688 38.671875 C 31.847656 38.671875 31.742188 38.660156 31.605469 38.636719 C 31.472656 38.609375 31.339844 38.574219 31.203125 38.523438 C 31.070312 38.476562 30.957031 38.414062 30.867188 38.335938 C 30.777344 38.257812 30.734375 38.164062 30.734375 38.050781 C 30.734375 37.917969 30.8125 37.828125 30.972656 37.773438 C 31.132812 37.722656 31.257812 37.695312 31.355469 37.695312 C 31.722656 37.53125 32.046875 37.191406 32.332031 36.675781 C 32.617188 36.160156 32.855469 35.589844 33.046875 34.972656 C 33.238281 34.355469 33.382812 33.742188 33.480469 33.136719 C 33.578125 32.53125 33.628906 32.035156 33.628906 31.652344 C 33.628906 31.433594 33.59375 31.140625 33.53125 30.773438 C 33.464844 30.40625 33.363281 30.046875 33.230469 29.6875 C 33.097656 29.328125 32.914062 29.019531 32.679688 28.757812 C 32.449219 28.5 32.175781 28.367188 31.855469 28.367188 C 31.476562 28.367188 31.167969 28.566406 30.941406 28.960938 C 30.714844 29.355469 30.535156 29.816406 30.40625 30.339844 C 30.273438 30.867188 30.1875 31.40625 30.140625 31.964844 C 30.097656 32.523438 30.074219 32.960938 30.074219 33.277344 C 30.074219 33.480469 30.109375 33.679688 30.179688 33.878906 C 30.246094 34.078125 30.328125 34.28125 30.417969 34.480469 C 30.507812 34.679688 30.585938 34.882812 30.65625 35.089844 C 30.722656 35.296875 30.757812 35.503906 30.757812 35.707031 C 30.757812 35.804688 30.714844 35.882812 30.628906 35.949219 C 30.546875 36.015625 30.445312 36.066406 30.332031 36.109375 C 30.21875 36.148438 30.097656 36.175781 29.972656 36.1875 C 29.84375 36.199219 29.75 36.207031 29.683594 36.207031 C 29.21875 36.207031 28.898438 36.097656 28.71875 35.875 C 28.539062 35.65625 28.386719 35.347656 28.257812 34.949219 C 27.972656 34.046875 27.773438 33.128906 27.664062 32.195312 C 27.554688 31.265625 27.5 30.332031 27.5 29.394531 Z M 37.90625 33.445312 C 37.90625 32.878906 37.972656 32.207031 38.097656 31.433594 C 38.222656 30.660156 38.4375 29.925781 38.738281 29.234375 C 39.039062 28.542969 39.4375 27.957031 39.929688 27.472656 C 40.421875 26.988281 41.039062 26.746094 41.789062 26.746094 C 42.488281 26.746094 43.015625 26.945312 43.363281 27.351562 C 43.714844 27.753906 43.890625 28.296875 43.890625 28.980469 C 43.890625 29.425781 43.804688 29.917969 43.640625 30.449219 C 43.472656 30.984375 43.234375 31.488281 42.925781 31.964844 C 42.617188 32.441406 42.25 32.835938 41.828125 33.15625 C 41.402344 33.472656 40.929688 33.628906 40.410156 33.628906 L 40.09375 33.605469 C 40.09375 33.824219 40.125 34.121094 40.191406 34.492188 C 40.253906 34.859375 40.351562 35.230469 40.476562 35.59375 C 40.605469 35.960938 40.765625 36.285156 40.964844 36.558594 C 41.164062 36.835938 41.40625 36.976562 41.691406 36.976562 C 42.105469 36.976562 42.503906 36.808594 42.886719 36.476562 C 43.269531 36.140625 43.632812 35.769531 43.976562 35.363281 C 44.316406 34.957031 44.632812 34.585938 44.925781 34.253906 C 45.21875 33.917969 45.488281 33.753906 45.734375 33.753906 C 45.863281 33.753906 45.996094 33.773438 46.136719 33.8125 C 46.273438 33.855469 46.351562 33.96875 46.367188 34.15625 C 46.367188 34.269531 46.335938 34.363281 46.277344 34.4375 C 46.214844 34.507812 46.160156 34.589844 46.109375 34.679688 C 45.859375 35.113281 45.585938 35.523438 45.285156 35.914062 C 44.988281 36.304688 44.652344 36.65625 44.28125 36.976562 C 43.90625 37.292969 43.496094 37.542969 43.054688 37.726562 C 42.609375 37.910156 42.121094 38 41.582031 38 C 40.882812 38 40.300781 37.875 39.835938 37.628906 C 39.371094 37.378906 39 37.046875 38.714844 36.628906 C 38.429688 36.207031 38.222656 35.722656 38.097656 35.175781 C 37.972656 34.625 37.90625 34.050781 37.90625 33.445312 Z M 40.09375 32.519531 L 40.433594 32.824219 C 40.597656 32.972656 40.761719 33.003906 40.921875 32.921875 C 41.085938 32.839844 41.230469 32.691406 41.363281 32.476562 C 41.492188 32.261719 41.613281 31.996094 41.722656 31.675781 C 41.832031 31.359375 41.929688 31.035156 42.015625 30.699219 C 42.101562 30.367188 42.164062 30.042969 42.203125 29.722656 C 42.246094 29.40625 42.265625 29.140625 42.265625 28.929688 L 42.265625 28.515625 C 42.265625 28.515625 42.253906 28.367188 42.230469 28.078125 C 42.203125 27.78125 42.160156 27.667969 42.101562 27.726562 C 42.039062 27.789062 41.945312 27.730469 41.8125 27.550781 C 41.773438 27.542969 41.738281 27.539062 41.703125 27.539062 C 41.425781 27.539062 41.191406 27.714844 40.996094 28.0625 C 40.785156 28.453125 40.613281 28.929688 40.484375 29.484375 C 40.351562 30.042969 40.257812 30.617188 40.203125 31.203125 C 40.144531 31.789062 40.109375 32.226562 40.09375 32.519531 Z M 48.109375 32.652344 C 48.109375 31.90625 48.195312 31.171875 48.371094 30.449219 C 48.546875 29.730469 48.695312 29.011719 48.816406 28.296875 C 48.847656 28.109375 48.976562 27.992188 49.203125 27.949219 C 49.425781 27.902344 49.613281 27.882812 49.769531 27.882812 C 50.039062 27.882812 50.253906 27.921875 50.414062 28.003906 C 50.480469 28.035156 50.542969 28.070312 50.597656 28.113281 C 50.65625 28.152344 50.683594 28.207031 50.683594 28.273438 C 50.683594 28.972656 50.601562 29.65625 50.433594 30.320312 C 50.265625 30.988281 50.183594 31.699219 50.183594 32.445312 C 50.183594 32.699219 50.203125 32.9375 50.238281 33.160156 C 50.277344 33.382812 50.308594 33.605469 50.34375 33.824219 L 50.414062 34.179688 C 50.414062 34.246094 50.421875 34.300781 50.429688 34.351562 C 50.4375 34.398438 50.449219 34.457031 50.464844 34.523438 C 50.464844 34.667969 50.359375 34.769531 50.152344 34.820312 C 49.945312 34.875 49.765625 34.898438 49.609375 34.898438 C 49.375 34.898438 49.15625 34.851562 48.957031 34.757812 C 48.757812 34.664062 48.601562 34.503906 48.488281 34.277344 L 48.316406 33.921875 C 48.21875 33.734375 48.171875 33.527344 48.171875 33.292969 C 48.171875 33.0625 48.148438 32.847656 48.109375 32.652344 Z M 48.890625 25.304688 L 48.890625 25.074219 C 48.890625 24.691406 48.984375 24.347656 49.175781 24.046875 C 49.367188 23.746094 49.65625 23.597656 50.039062 23.597656 C 50.085938 23.597656 50.132812 23.601562 50.179688 23.609375 C 50.222656 23.617188 50.269531 23.621094 50.320312 23.621094 C 50.414062 23.636719 50.542969 23.675781 50.703125 23.738281 C 50.863281 23.796875 50.941406 23.894531 50.941406 24.023438 L 50.941406 24.046875 C 50.910156 24.113281 50.886719 24.179688 50.878906 24.25 C 50.871094 24.320312 50.851562 24.378906 50.820312 24.425781 L 50.84375 24.402344 C 50.746094 24.652344 50.667969 24.859375 50.605469 25.011719 C 50.542969 25.167969 50.476562 25.289062 50.402344 25.382812 C 50.332031 25.476562 50.238281 25.546875 50.128906 25.585938 C 50.019531 25.625 49.863281 25.648438 49.660156 25.648438 C 49.625 25.648438 49.570312 25.644531 49.488281 25.632812 C 49.40625 25.625 49.320312 25.609375 49.226562 25.585938 C 49.132812 25.5625 49.054688 25.527344 48.988281 25.488281 C 48.921875 25.449219 48.890625 25.386719 48.890625 25.304688 Z M 52.9375 25.195312 C 52.9375 25.082031 53.0625 24.984375 53.304688 24.902344 C 53.550781 24.820312 53.824219 24.753906 54.136719 24.699219 C 54.445312 24.648438 54.742188 24.609375 55.03125 24.585938 C 55.320312 24.5625 55.519531 24.539062 55.625 24.523438 C 55.625 24.304688 55.632812 24.082031 55.648438 23.859375 C 55.664062 23.636719 55.710938 23.433594 55.78125 23.261719 C 55.855469 23.085938 55.972656 22.945312 56.132812 22.839844 C 56.289062 22.734375 56.511719 22.679688 56.796875 22.679688 C 57.03125 22.679688 57.210938 22.710938 57.332031 22.765625 C 57.457031 22.824219 57.585938 22.941406 57.722656 23.121094 C 57.757812 23.21875 57.773438 23.3125 57.773438 23.402344 L 57.773438 23.808594 C 57.773438 23.808594 57.765625 23.949219 57.75 24.230469 C 58.050781 24.199219 58.347656 24.160156 58.644531 24.113281 C 58.941406 24.070312 59.242188 24.046875 59.542969 24.046875 C 59.761719 24.046875 59.914062 24.050781 59.996094 24.058594 C 60.074219 24.066406 60.15625 24.164062 60.238281 24.351562 C 60.304688 24.539062 60.222656 24.683594 60 24.78125 C 59.777344 24.878906 59.507812 24.953125 59.195312 25 C 58.882812 25.046875 58.570312 25.085938 58.261719 25.109375 C 57.953125 25.132812 57.765625 25.148438 57.699219 25.148438 C 57.601562 26.546875 57.503906 27.933594 57.402344 29.308594 C 57.296875 30.683594 57.246094 32.078125 57.246094 33.496094 C 57.246094 34.132812 57.269531 34.785156 57.308594 35.460938 C 57.351562 36.136719 57.464844 36.777344 57.652344 37.378906 C 57.699219 37.566406 57.78125 37.738281 57.894531 37.902344 C 58.007812 38.066406 58.066406 38.242188 58.066406 38.429688 C 58.066406 38.542969 58.019531 38.632812 57.929688 38.695312 C 57.84375 38.761719 57.734375 38.816406 57.609375 38.859375 C 57.480469 38.90625 57.355469 38.933594 57.230469 38.941406 C 57.101562 38.949219 57 38.953125 56.917969 38.953125 C 56.40625 38.953125 56.015625 38.761719 55.746094 38.378906 C 55.476562 37.996094 55.285156 37.539062 55.167969 37.003906 C 55.046875 36.472656 54.984375 35.925781 54.976562 35.363281 C 54.96875 34.800781 54.964844 34.347656 54.964844 33.996094 C 54.964844 33.28125 54.980469 32.546875 55.007812 31.800781 C 55.035156 31.050781 55.070312 30.308594 55.113281 29.578125 C 55.152344 28.84375 55.210938 28.128906 55.28125 27.429688 C 55.355469 26.730469 55.441406 26.078125 55.539062 25.476562 C 55.253906 25.507812 54.976562 25.546875 54.703125 25.585938 C 54.429688 25.625 54.152344 25.648438 53.867188 25.648438 C 53.800781 25.648438 53.714844 25.644531 53.605469 25.632812 C 53.496094 25.625 53.390625 25.605469 53.292969 25.574219 C 53.195312 25.542969 53.113281 25.496094 53.042969 25.4375 C 52.972656 25.382812 52.9375 25.300781 52.9375 25.195312 Z M 62.273438 29.796875 C 62.273438 29.464844 62.371094 29.175781 62.566406 28.9375 C 62.761719 28.695312 63 28.5 63.28125 28.351562 C 63.5625 28.199219 63.867188 28.089844 64.203125 28.015625 C 64.535156 27.941406 64.84375 27.90625 65.128906 27.90625 C 65.347656 27.90625 65.640625 27.9375 66.007812 28.003906 C 66.375 28.066406 66.734375 28.164062 67.082031 28.296875 C 67.433594 28.425781 67.734375 28.597656 67.992188 28.808594 C 68.25 29.019531 68.375 29.269531 68.375 29.554688 C 68.375 29.683594 68.328125 29.800781 68.230469 29.902344 C 68.132812 30.003906 68.03125 30.054688 67.925781 30.054688 C 67.707031 30.054688 67.507812 29.984375 67.328125 29.839844 C 67.148438 29.699219 66.960938 29.546875 66.769531 29.386719 C 66.582031 29.230469 66.371094 29.078125 66.144531 28.9375 C 65.914062 28.792969 65.660156 28.722656 65.375 28.722656 C 65.089844 28.722656 64.832031 28.816406 64.597656 28.996094 C 64.367188 29.179688 64.25 29.421875 64.25 29.722656 C 64.25 30.21875 64.425781 30.707031 64.777344 31.183594 C 65.125 31.660156 65.511719 32.160156 65.929688 32.683594 C 66.347656 33.210938 66.734375 33.761719 67.082031 34.339844 C 67.433594 34.917969 67.609375 35.554688 67.609375 36.253906 C 67.609375 36.554688 67.542969 36.808594 67.417969 37.019531 C 67.292969 37.226562 67.125 37.394531 66.917969 37.523438 C 66.710938 37.65625 66.476562 37.753906 66.214844 37.824219 C 65.957031 37.894531 65.703125 37.925781 65.460938 37.925781 C 65.191406 37.925781 64.878906 37.863281 64.519531 37.738281 C 64.160156 37.613281 63.824219 37.445312 63.507812 37.238281 C 63.1875 37.03125 62.921875 36.789062 62.707031 36.511719 C 62.492188 36.234375 62.382812 35.945312 62.382812 35.644531 C 62.382812 35.5 62.488281 35.40625 62.695312 35.363281 C 62.902344 35.324219 63.054688 35.304688 63.152344 35.304688 C 63.199219 35.304688 63.277344 35.320312 63.378906 35.351562 C 63.480469 35.382812 63.578125 35.421875 63.675781 35.460938 C 63.773438 35.503906 63.863281 35.546875 63.9375 35.59375 C 64.015625 35.644531 64.046875 35.699219 64.03125 35.753906 C 64.113281 35.851562 64.238281 35.996094 64.402344 36.1875 C 64.570312 36.378906 64.738281 36.535156 64.902344 36.652344 C 65.070312 36.769531 65.21875 36.8125 65.34375 36.78125 C 65.46875 36.746094 65.53125 36.5625 65.53125 36.230469 C 65.53125 35.59375 65.363281 35.011719 65.019531 34.480469 C 64.679688 33.945312 64.304688 33.425781 63.902344 32.917969 C 63.5 32.40625 63.128906 31.902344 62.785156 31.402344 C 62.445312 30.902344 62.273438 30.367188 62.273438 29.796875 Z M 62.273438 29.796875 "/>
<path style=" stroke:none;fill-rule:nonzero;fill:rgb(78.039216%,19.607843%,38.039216%);fill-opacity:1;" d="M 73.375 34.277344 L 73.375 33.128906 C 73.375 32.714844 73.386719 32.125 73.40625 31.367188 C 73.425781 30.605469 73.453125 29.769531 73.484375 28.863281 C 73.515625 27.957031 73.5625 27.011719 73.621094 26.023438 C 73.675781 25.039062 73.742188 24.109375 73.816406 23.234375 C 73.886719 22.359375 73.976562 21.578125 74.078125 20.886719 C 74.179688 20.195312 74.292969 19.683594 74.425781 19.347656 C 74.507812 19.160156 74.640625 19.042969 74.828125 18.992188 C 75.015625 18.945312 75.199219 18.921875 75.378906 18.921875 C 75.660156 18.921875 75.914062 18.984375 76.128906 19.109375 C 76.34375 19.234375 76.453125 19.464844 76.453125 19.800781 L 76.230469 20.042969 C 75.945312 21.921875 75.761719 23.8125 75.683594 25.707031 C 75.601562 27.605469 75.542969 29.5 75.511719 31.398438 C 75.714844 31.078125 75.945312 30.769531 76.199219 30.460938 C 76.457031 30.15625 76.742188 29.886719 77.054688 29.652344 C 77.367188 29.414062 77.707031 29.226562 78.070312 29.082031 C 78.429688 28.941406 78.828125 28.871094 79.257812 28.871094 C 79.8125 28.871094 80.269531 29.035156 80.632812 29.371094 C 80.996094 29.703125 81.292969 30.136719 81.53125 30.671875 C 81.765625 31.203125 81.941406 31.800781 82.054688 32.457031 C 82.167969 33.117188 82.253906 33.777344 82.316406 34.4375 C 82.378906 35.09375 82.421875 35.71875 82.445312 36.308594 C 82.46875 36.898438 82.507812 37.390625 82.554688 37.78125 C 82.398438 37.992188 82.171875 38.097656 81.871094 38.097656 L 81.835938 38.097656 C 81.703125 38.097656 81.5625 38.082031 81.40625 38.050781 C 81.253906 38.015625 81.152344 37.933594 81.101562 37.804688 L 81.125 37.828125 C 81.011719 37.578125 80.933594 37.214844 80.894531 36.738281 C 80.855469 36.261719 80.820312 35.734375 80.796875 35.164062 C 80.773438 34.589844 80.730469 34 80.667969 33.398438 C 80.609375 32.796875 80.515625 32.25 80.394531 31.761719 C 80.273438 31.273438 80.09375 30.871094 79.855469 30.554688 C 79.621094 30.238281 79.304688 30.070312 78.90625 30.054688 L 78.832031 30.054688 C 78.351562 30.054688 77.949219 30.199219 77.625 30.492188 C 77.28125 30.800781 77.003906 31.210938 76.792969 31.714844 C 76.582031 32.21875 76.417969 32.78125 76.304688 33.398438 C 76.191406 34.015625 76.101562 34.613281 76.042969 35.1875 C 75.980469 35.761719 75.933594 36.28125 75.902344 36.75 C 75.871094 37.21875 75.828125 37.5625 75.78125 37.78125 C 75.730469 37.96875 75.585938 38.09375 75.347656 38.152344 C 75.105469 38.214844 74.902344 38.246094 74.730469 38.246094 C 74.332031 38.246094 74.003906 38.128906 73.753906 37.902344 C 73.566406 37.457031 73.457031 36.898438 73.425781 36.230469 C 73.390625 35.5625 73.375 34.914062 73.375 34.277344 Z M 85.054688 32.652344 C 85.054688 31.90625 85.140625 31.171875 85.316406 30.449219 C 85.492188 29.730469 85.640625 29.011719 85.761719 28.296875 C 85.792969 28.109375 85.921875 27.992188 86.144531 27.949219 C 86.371094 27.902344 86.558594 27.882812 86.714844 27.882812 C 86.980469 27.882812 87.199219 27.921875 87.359375 28.003906 C 87.425781 28.035156 87.488281 28.070312 87.542969 28.113281 C 87.601562 28.152344 87.628906 28.207031 87.628906 28.273438 C 87.628906 28.972656 87.546875 29.65625 87.378906 30.320312 C 87.210938 30.988281 87.128906 31.699219 87.128906 32.445312 C 87.128906 32.699219 87.148438 32.9375 87.183594 33.160156 C 87.21875 33.382812 87.253906 33.605469 87.289062 33.824219 L 87.359375 34.179688 C 87.359375 34.246094 87.363281 34.300781 87.371094 34.351562 C 87.378906 34.398438 87.394531 34.457031 87.410156 34.523438 C 87.410156 34.667969 87.304688 34.769531 87.097656 34.820312 C 86.890625 34.875 86.710938 34.898438 86.554688 34.898438 C 86.320312 34.898438 86.101562 34.851562 85.902344 34.757812 C 85.703125 34.664062 85.546875 34.503906 85.433594 34.277344 L 85.261719 33.921875 C 85.164062 33.734375 85.113281 33.527344 85.113281 33.292969 C 85.113281 33.0625 85.09375 32.847656 85.054688 32.652344 Z M 85.835938 25.304688 L 85.835938 25.074219 C 85.835938 24.691406 85.929688 24.347656 86.121094 24.046875 C 86.3125 23.746094 86.597656 23.597656 86.980469 23.597656 C 87.03125 23.597656 87.078125 23.601562 87.121094 23.609375 C 87.167969 23.617188 87.214844 23.621094 87.261719 23.621094 C 87.359375 23.636719 87.488281 23.675781 87.648438 23.738281 C 87.804688 23.796875 87.886719 23.894531 87.886719 24.023438 L 87.886719 24.046875 C 87.851562 24.113281 87.832031 24.179688 87.824219 24.25 C 87.816406 24.320312 87.796875 24.378906 87.761719 24.425781 L 87.789062 24.402344 C 87.691406 24.652344 87.609375 24.859375 87.550781 25.011719 C 87.488281 25.167969 87.421875 25.289062 87.347656 25.382812 C 87.273438 25.476562 87.183594 25.546875 87.074219 25.585938 C 86.964844 25.625 86.808594 25.648438 86.605469 25.648438 C 86.570312 25.648438 86.515625 25.644531 86.433594 25.632812 C 86.351562 25.625 86.265625 25.609375 86.171875 25.585938 C 86.078125 25.5625 85.996094 25.527344 85.933594 25.488281 C 85.867188 25.449219 85.835938 25.386719 85.835938 25.304688 Z M 90.382812 37.28125 C 90.382812 37.042969 90.394531 36.796875 90.414062 36.535156 C 90.433594 36.273438 90.453125 36.03125 90.46875 35.804688 L 90.542969 33.972656 C 90.625 32.507812 90.722656 31.066406 90.839844 29.652344 C 90.960938 28.234375 91.058594 26.800781 91.140625 25.355469 C 91.1875 24.554688 91.226562 23.773438 91.25 23.003906 C 91.273438 22.234375 91.3125 21.453125 91.359375 20.65625 C 91.328125 20.589844 91.3125 20.542969 91.3125 20.519531 C 91.3125 20.40625 91.355469 20.316406 91.441406 20.25 C 91.523438 20.1875 91.625 20.132812 91.738281 20.085938 C 91.851562 20.042969 91.972656 20.011719 92.097656 19.996094 C 92.226562 19.980469 92.320312 19.96875 92.386719 19.96875 L 92.667969 19.96875 C 92.917969 20.003906 93.101562 20.082031 93.214844 20.207031 C 93.328125 20.335938 93.402344 20.484375 93.433594 20.660156 C 93.46875 20.835938 93.476562 21.023438 93.460938 21.222656 C 93.445312 21.421875 93.433594 21.605469 93.433594 21.777344 C 93.433594 22.957031 93.40625 24.160156 93.351562 25.382812 C 93.292969 26.609375 93.226562 27.839844 93.15625 29.070312 C 93.082031 30.304688 93.015625 31.535156 92.953125 32.769531 C 92.890625 34.003906 92.863281 35.222656 92.863281 36.425781 L 92.863281 37.28125 C 92.863281 37.664062 92.753906 37.914062 92.539062 38.039062 C 92.324219 38.160156 92.023438 38.21875 91.640625 38.21875 C 91.308594 38.21875 91.015625 38.148438 90.761719 38 C 90.511719 37.855469 90.382812 37.613281 90.382812 37.28125 Z M 95.984375 27.84375 C 95.984375 27.761719 96.046875 27.695312 96.171875 27.636719 C 96.296875 27.578125 96.449219 27.539062 96.625 27.515625 C 96.796875 27.492188 96.964844 27.46875 97.125 27.453125 C 97.28125 27.4375 97.402344 27.429688 97.484375 27.429688 C 97.515625 27.210938 97.5625 26.914062 97.625 26.539062 C 97.6875 26.164062 97.761719 25.761719 97.851562 25.335938 C 97.941406 24.910156 98.050781 24.480469 98.1875 24.046875 C 98.320312 23.617188 98.484375 23.226562 98.675781 22.875 C 98.867188 22.527344 99.089844 22.238281 99.351562 22.015625 C 99.613281 21.792969 99.917969 21.679688 100.265625 21.679688 L 100.242188 21.679688 C 100.355469 21.664062 100.46875 21.652344 100.578125 21.644531 C 100.6875 21.636719 100.800781 21.632812 100.914062 21.632812 C 101.183594 21.632812 101.472656 21.683594 101.789062 21.789062 C 102.101562 21.894531 102.390625 22.042969 102.660156 22.234375 C 102.929688 22.425781 103.15625 22.65625 103.335938 22.925781 C 103.519531 23.195312 103.613281 23.476562 103.613281 23.78125 C 103.613281 24.015625 103.554688 24.269531 103.433594 24.542969 C 103.316406 24.816406 103.113281 24.953125 102.820312 24.953125 C 102.722656 24.953125 102.621094 24.925781 102.519531 24.878906 C 102.417969 24.828125 102.320312 24.777344 102.234375 24.71875 C 102.265625 24.53125 102.28125 24.34375 102.28125 24.15625 C 102.28125 24.058594 102.277344 23.964844 102.269531 23.875 C 102.246094 23.59375 102.183594 23.34375 102.085938 23.125 C 101.988281 22.910156 101.847656 22.738281 101.664062 22.613281 C 101.480469 22.488281 101.265625 22.441406 101.011719 22.472656 C 100.679688 22.523438 100.429688 22.726562 100.261719 23.082031 C 100.09375 23.441406 99.976562 23.867188 99.914062 24.359375 C 99.847656 24.851562 99.808594 25.351562 99.792969 25.859375 C 99.773438 26.371094 99.742188 26.78125 99.695312 27.101562 C 100.074219 27.132812 100.398438 27.148438 100.664062 27.148438 L 101.660156 27.148438 C 101.722656 27.148438 101.835938 27.152344 101.996094 27.160156 C 102.152344 27.167969 102.308594 27.183594 102.457031 27.210938 C 102.609375 27.234375 102.742188 27.277344 102.859375 27.335938 C 102.980469 27.398438 103.039062 27.476562 103.039062 27.574219 C 103.039062 27.65625 103.003906 27.726562 102.941406 27.789062 C 102.875 27.851562 102.796875 27.894531 102.703125 27.917969 C 102.609375 27.941406 102.511719 27.957031 102.410156 27.964844 C 102.308594 27.972656 102.222656 27.976562 102.160156 27.976562 C 101.875 27.976562 101.632812 27.964844 101.433594 27.941406 C 101.234375 27.917969 101.042969 27.894531 100.859375 27.875 C 100.675781 27.855469 100.484375 27.84375 100.285156 27.84375 C 100.085938 27.84375 99.851562 27.871094 99.582031 27.929688 C 99.503906 28.832031 99.4375 29.726562 99.386719 30.617188 C 99.339844 31.503906 99.316406 32.398438 99.316406 33.300781 C 99.316406 34.71875 99.359375 36.105469 99.449219 37.464844 C 99.539062 38.824219 99.703125 40.203125 99.9375 41.601562 C 99.96875 41.730469 100 41.878906 100.023438 42.046875 C 100.046875 42.214844 100.058594 42.375 100.058594 42.53125 C 100.058594 42.675781 100.015625 42.796875 99.925781 42.890625 C 99.835938 42.984375 99.722656 43.050781 99.589844 43.089844 C 99.457031 43.132812 99.316406 43.160156 99.175781 43.175781 C 99.03125 43.191406 98.902344 43.199219 98.789062 43.199219 C 98.328125 43.199219 98 43.128906 97.8125 42.988281 C 97.625 42.84375 97.492188 42.558594 97.410156 42.125 C 97.207031 40.980469 97.078125 39.820312 97.019531 38.652344 C 96.964844 37.484375 96.933594 36.308594 96.933594 35.121094 C 96.933594 33.957031 96.976562 32.792969 97.0625 31.632812 C 97.148438 30.476562 97.257812 29.320312 97.386719 28.171875 C 97.320312 28.171875 97.210938 28.179688 97.050781 28.1875 C 96.890625 28.195312 96.734375 28.195312 96.574219 28.1875 C 96.414062 28.179688 96.277344 28.148438 96.160156 28.101562 C 96.042969 28.050781 95.984375 27.964844 95.984375 27.84375 Z M 104.988281 33.445312 C 104.988281 32.878906 105.050781 32.207031 105.175781 31.433594 C 105.304688 30.660156 105.515625 29.925781 105.816406 29.234375 C 106.117188 28.542969 106.515625 27.957031 107.007812 27.472656 C 107.5 26.988281 108.121094 26.746094 108.871094 26.746094 C 109.570312 26.746094 110.09375 26.945312 110.445312 27.351562 C 110.792969 27.753906 110.96875 28.296875 110.96875 28.980469 C 110.96875 29.425781 110.886719 29.917969 110.71875 30.449219 C 110.550781 30.984375 110.3125 31.488281 110.003906 31.964844 C 109.695312 32.441406 109.328125 32.835938 108.90625 33.15625 C 108.484375 33.472656 108.011719 33.628906 107.488281 33.628906 L 107.171875 33.605469 C 107.171875 33.824219 107.203125 34.121094 107.269531 34.492188 C 107.335938 34.859375 107.429688 35.230469 107.558594 35.59375 C 107.683594 35.960938 107.847656 36.285156 108.046875 36.558594 C 108.246094 36.835938 108.488281 36.976562 108.773438 36.976562 C 109.1875 36.976562 109.585938 36.808594 109.96875 36.476562 C 110.351562 36.140625 110.710938 35.769531 111.054688 35.363281 C 111.394531 34.957031 111.714844 34.585938 112.007812 34.253906 C 112.300781 33.917969 112.566406 33.753906 112.8125 33.753906 C 112.941406 33.753906 113.078125 33.773438 113.214844 33.8125 C 113.351562 33.855469 113.429688 33.96875 113.445312 34.15625 C 113.445312 34.269531 113.417969 34.363281 113.355469 34.4375 C 113.292969 34.507812 113.238281 34.589844 113.191406 34.679688 C 112.9375 35.113281 112.664062 35.523438 112.367188 35.914062 C 112.070312 36.304688 111.734375 36.65625 111.359375 36.976562 C 110.984375 37.292969 110.578125 37.542969 110.132812 37.726562 C 109.6875 37.910156 109.199219 38 108.660156 38 C 107.960938 38 107.378906 37.875 106.917969 37.628906 C 106.453125 37.378906 106.078125 37.046875 105.792969 36.628906 C 105.507812 36.207031 105.304688 35.722656 105.175781 35.175781 C 105.050781 34.625 104.988281 34.050781 104.988281 33.445312 Z M 107.171875 32.519531 L 107.515625 32.824219 C 107.675781 32.972656 107.839844 33.003906 108.003906 32.921875 C 108.164062 32.839844 108.3125 32.691406 108.441406 32.476562 C 108.570312 32.261719 108.691406 31.996094 108.800781 31.675781 C 108.910156 31.359375 109.007812 31.035156 109.09375 30.699219 C 109.179688 30.367188 109.242188 30.042969 109.285156 29.722656 C 109.324219 29.40625 109.34375 29.140625 109.34375 28.929688 L 109.34375 28.515625 C 109.34375 28.515625 109.332031 28.367188 109.308594 28.078125 C 109.285156 27.78125 109.242188 27.667969 109.179688 27.726562 C 109.121094 27.789062 109.023438 27.730469 108.894531 27.550781 C 108.851562 27.542969 108.816406 27.539062 108.785156 27.539062 C 108.507812 27.539062 108.269531 27.714844 108.074219 28.0625 C 107.863281 28.453125 107.691406 28.929688 107.5625 29.484375 C 107.433594 30.042969 107.339844 30.617188 107.28125 31.203125 C 107.226562 31.789062 107.1875 32.226562 107.171875 32.519531 Z M 107.171875 32.519531 "/>
</g>
</svg>
