<svg xmlns="http://www.w3.org/2000/svg" xmlns:xlink="http://www.w3.org/1999/xlink" viewBox="0 0 3840 2160"><defs><style>.cls-1{fill:url(#linear-gradient);}.cls-2{fill:url(#linear-gradient-2);}.cls-3{fill:url(#linear-gradient-3);}.cls-4{fill:none;}.cls-5{isolation:isolate;}.cls-6{fill:url(#radial-gradient);}.cls-7{fill:url(#radial-gradient-2);}.cls-8{fill:#6165d7;opacity:0.19;}.cls-22,.cls-25,.cls-28,.cls-33,.cls-37,.cls-53,.cls-59,.cls-8,.cls-80,.cls-87,.cls-94{mix-blend-mode:multiply;}.cls-9{clip-path:url(#clip-path);}.cls-10{opacity:0.5;}.cls-10,.cls-23,.cls-84{mix-blend-mode:soft-light;}.cls-11,.cls-23{fill:#fff;}.cls-12{clip-path:url(#clip-path-2);}.cls-13{clip-path:url(#clip-path-3);}.cls-14,.cls-15,.cls-16,.cls-17,.cls-19{opacity:0.61;}.cls-14{fill:url(#linear-gradient-7);}.cls-15{fill:url(#linear-gradient-8);}.cls-16{fill:url(#linear-gradient-9);}.cls-17{fill:url(#linear-gradient-10);}.cls-18,.cls-22{fill:#d8dee8;}.cls-19{fill:url(#linear-gradient-11);}.cls-20{fill:#97a6b7;}.cls-21{fill:url(#linear-gradient-12);}.cls-22,.cls-25,.cls-28,.cls-33,.cls-37,.cls-53,.cls-59,.cls-80,.cls-84,.cls-87,.cls-94{opacity:0.3;}.cls-23{opacity:0.6;}.cls-24{fill:url(#linear-gradient-13);}.cls-25{fill:url(#linear-gradient-14);}.cls-26{fill:url(#linear-gradient-15);}.cls-27{fill:url(#linear-gradient-16);}.cls-28{fill:url(#linear-gradient-17);}.cls-29{fill:url(#linear-gradient-18);}.cls-30{fill:url(#linear-gradient-19);}.cls-31{clip-path:url(#clip-path-4);}.cls-32{fill:url(#linear-gradient-20);}.cls-33{fill:url(#linear-gradient-21);}.cls-34{fill:url(#linear-gradient-22);}.cls-35{fill:url(#linear-gradient-23);}.cls-36{fill:url(#linear-gradient-25);}.cls-38{fill:url(#linear-gradient-26);}.cls-39{fill:url(#linear-gradient-27);}.cls-40{fill:url(#linear-gradient-28);}.cls-41{fill:url(#linear-gradient-29);}.cls-42{fill:url(#linear-gradient-30);}.cls-43{fill:url(#linear-gradient-31);}.cls-44{fill:url(#linear-gradient-32);}.cls-45{fill:url(#linear-gradient-33);}.cls-46{fill:url(#linear-gradient-34);}.cls-47{fill:url(#linear-gradient-35);}.cls-48{fill:url(#linear-gradient-36);}.cls-49{fill:url(#linear-gradient-37);}.cls-50{fill:url(#linear-gradient-38);}.cls-51{fill:url(#linear-gradient-39);}.cls-52{fill:url(#linear-gradient-40);}.cls-53{fill:url(#linear-gradient-41);}.cls-54{fill:url(#linear-gradient-42);}.cls-55{fill:url(#linear-gradient-43);}.cls-56{fill:url(#linear-gradient-44);}.cls-57{fill:url(#linear-gradient-45);}.cls-58{fill:url(#linear-gradient-46);}.cls-59{fill:url(#linear-gradient-47);}.cls-60{fill:url(#linear-gradient-48);}.cls-61{fill:url(#linear-gradient-49);}.cls-62{fill:url(#linear-gradient-50);}.cls-63{fill:url(#linear-gradient-51);}.cls-64{fill:url(#linear-gradient-52);}.cls-65{fill:url(#linear-gradient-53);}.cls-66{fill:url(#linear-gradient-54);}.cls-67{fill:url(#linear-gradient-55);}.cls-68{fill:url(#linear-gradient-56);}.cls-69{fill:url(#linear-gradient-57);}.cls-70{fill:url(#linear-gradient-58);}.cls-71{fill:url(#linear-gradient-59);}.cls-72{fill:url(#linear-gradient-60);}.cls-73{fill:url(#linear-gradient-61);}.cls-74{fill:url(#linear-gradient-62);}.cls-75{fill:#26264f;}.cls-76{fill:url(#linear-gradient-63);}.cls-77{fill:#9b305e;}.cls-78{fill:url(#linear-gradient-64);}.cls-79{fill:url(#linear-gradient-65);}.cls-80{fill:url(#linear-gradient-66);}.cls-81{fill:url(#linear-gradient-67);}.cls-82{fill:url(#linear-gradient-68);}.cls-83{fill:url(#linear-gradient-69);}.cls-84{fill:#f4f7fa;}.cls-85{fill:url(#linear-gradient-70);}.cls-86{fill:url(#linear-gradient-71);}.cls-87{fill:url(#linear-gradient-72);}.cls-88{fill:url(#linear-gradient-73);}.cls-89{fill:url(#linear-gradient-74);}.cls-90{fill:url(#linear-gradient-75);}.cls-91{fill:url(#linear-gradient-76);}.cls-92{fill:url(#linear-gradient-77);}.cls-93{fill:url(#linear-gradient-78);}.cls-94{fill:url(#linear-gradient-79);}</style><linearGradient id="linear-gradient" x1="2600.79" y1="986.06" x2="3114.26" y2="986.06" gradientUnits="userSpaceOnUse"><stop offset="0" stop-color="#aa80f9"/><stop offset="1" stop-color="#6165d7"/></linearGradient><linearGradient id="linear-gradient-2" x1="3066.23" y1="929.94" x2="2896.65" y2="1385.12" gradientUnits="userSpaceOnUse"><stop offset="0" stop-color="#e38ddd"/><stop offset="1" stop-color="#9571f6"/></linearGradient><linearGradient id="linear-gradient-3" x1="2638.7" y1="1336.84" x2="3077.06" y2="1336.84" gradientUnits="userSpaceOnUse"><stop offset="0" stop-color="#ff9085"/><stop offset="1" stop-color="#fb6fbb"/></linearGradient><radialGradient id="radial-gradient" cx="773" cy="-860.93" r="3810.15" gradientUnits="userSpaceOnUse"><stop offset="0.11" stop-color="#e692d0"/><stop offset="0.62" stop-color="#a958cc"/><stop offset="1" stop-color="#6e3bc7"/></radialGradient><radialGradient id="radial-gradient-2" cx="891.74" cy="-571" r="3953.84" xlink:href="#radial-gradient"/><clipPath id="clip-path"><path class="cls-1" d="M2600.79,1396.18c39.64-37.2,91.95-97.62,115.62-183,31.05-112-14.45-168.66-9.32-358.35,3.25-119.93,6.72-203.6,67.19-248.36,47.38-35.07,124.09-42,170.65-9.53,38.71,27,61.1,84.51,67.94,125.55,5.57,33.44,1.09,57.72,20.37,75.34,19.7,18,41,7.81,59.39,21.15,37.36,27,15.73,116.62,12.23,131.09-38.89,161-187.28,269.66-252.58,316.26C2798.29,1304.81,2714.77,1356.15,2600.79,1396.18Z"/></clipPath><clipPath id="clip-path-2"><path class="cls-2" d="M2614.35,1387c77.09,37.76,180.68,74.86,295.67,77.61,29.35.7,210.64,5,225.7-71.22,5.31-26.87-14.49-41-8-77.09,7.66-42.71,40.37-50.14,79.36-89.19,23.27-23.3,91.36-91.5,64.1-160.53-16.29-41.25-65.89-80.94-113.12-91.47-69.27-15.44-119.87,34.87-204,121.47-74.58,76.77-77.55,103-132.22,157.35C2781.24,1294.22,2716.68,1345.56,2614.35,1387Z"/></clipPath><clipPath id="clip-path-3"><path class="cls-3" d="M2640.25,1471.08c-1.72-14-10.59-96.58,45.34-153.16,46.82-47.36,113.62-50.76,129.09-51.55,62.3-3.16,80.46,24.07,117.35,7.27,43.79-19.94,42.17-69.28,78.25-74,24.89-3.23,52,16.82,61.9,39.31,17.37,39.47-14.15,95.85-54.8,120.86-56,34.45-99.18-9.18-165.87,26.66-38.75,20.83-35.91,41.87-76.36,64.84C2728.17,1478,2676.79,1476.62,2640.25,1471.08Z"/></clipPath><linearGradient id="linear-gradient-7" x1="2298.23" y1="419.38" x2="2281.76" y2="753.09" gradientTransform="translate(-165.39)" xlink:href="#linear-gradient-2"/><linearGradient id="linear-gradient-8" x1="1828.22" y1="887.73" x2="2283.71" y2="887.73" gradientTransform="translate(-165.39)" xlink:href="#linear-gradient-2"/><linearGradient id="linear-gradient-9" x1="2816.11" y1="733.11" x2="2610.12" y2="420" gradientTransform="translate(-165.39)" xlink:href="#linear-gradient-2"/><linearGradient id="linear-gradient-10" x1="2850.56" y1="507.22" x2="3447.64" y2="507.22" gradientTransform="translate(-165.39)" xlink:href="#linear-gradient-2"/><linearGradient id="linear-gradient-11" x1="3260.9" y1="710.57" x2="3716.39" y2="710.57" gradientTransform="translate(-165.39)" xlink:href="#linear-gradient-2"/><linearGradient id="linear-gradient-12" x1="2751.62" y1="1378.57" x2="2751.62" y2="1497.05" gradientTransform="translate(-165.39)" gradientUnits="userSpaceOnUse"><stop offset="0.49" stop-color="#ebeff2"/><stop offset="1" stop-color="#fff"/></linearGradient><linearGradient id="linear-gradient-13" x1="-419.36" y1="1231.77" x2="-614.24" y2="1461.6" gradientTransform="translate(2416.03)" gradientUnits="userSpaceOnUse"><stop offset="0" stop-color="#311944"/><stop offset="1" stop-color="#893976"/></linearGradient><linearGradient id="linear-gradient-14" x1="-443.37" y1="1211.42" x2="-638.24" y2="1441.24" xlink:href="#linear-gradient-13"/><linearGradient id="linear-gradient-15" x1="220.74" y1="1068.6" x2="63.44" y2="1254.12" gradientTransform="matrix(-1, 0, 0, 1, 1890.29, 0)" xlink:href="#linear-gradient-13"/><linearGradient id="linear-gradient-16" x1="-329.38" y1="810.06" x2="-149.54" y2="1804.81" gradientTransform="translate(2416.03)" xlink:href="#linear-gradient"/><linearGradient id="linear-gradient-17" x1="-390.92" y1="811.88" x2="-208.84" y2="1819.01" gradientTransform="translate(2416.03)" xlink:href="#linear-gradient"/><linearGradient id="linear-gradient-18" x1="-426.49" y1="950.3" x2="-784.73" y2="1372.79" gradientTransform="matrix(-1, 0, 0, 1, 1890.29, 0)" xlink:href="#linear-gradient-2"/><linearGradient id="linear-gradient-19" x1="-401.4" y1="1156.34" x2="-746.75" y2="1165.14" gradientTransform="matrix(-1, 0, 0, 1, 1890.29, 0)" xlink:href="#linear-gradient-13"/><clipPath id="clip-path-4"><path class="cls-4" d="M2495.9,1486.44c18.9,0,37.48-7.93,55.21-23.58,18-15.92,34.38-38.95,48.52-68.45,29.73-62,46.11-144.71,46.11-232.86s-16.38-170.86-46.11-232.87c-14.14-29.5-30.47-52.53-48.52-68.45-17.73-15.64-36.31-23.58-55.21-23.58s-37.49,7.94-55.22,23.58c-18,15.92-34.37,38.95-48.52,68.45-29.73,62-46.11,144.71-46.11,232.87s16.38,170.85,46.11,232.86c14.15,29.5,30.47,52.53,48.52,68.45C2458.41,1478.51,2477,1486.44,2495.9,1486.44Z"/></clipPath><linearGradient id="linear-gradient-20" x1="-88.63" y1="841.48" x2="28.79" y2="1490.97" gradientTransform="translate(2416.03)" gradientUnits="userSpaceOnUse"><stop offset="0" stop-color="#ffc444"/><stop offset="1" stop-color="#f36f56"/></linearGradient><linearGradient id="linear-gradient-21" x1="-20.92" y1="925.15" x2="65.72" y2="1404.38" xlink:href="#linear-gradient-20"/><linearGradient id="linear-gradient-22" x1="-2747.63" y1="-314.27" x2="-3707.35" y2="2085.04" gradientTransform="matrix(-1, 0, 0, 1, -293.71, 0)" xlink:href="#linear-gradient-13"/><linearGradient id="linear-gradient-23" x1="-3341.78" y1="604.13" x2="-2900.93" y2="1421.76" gradientTransform="matrix(-1, 0, 0, 1, -293.71, 0)" xlink:href="#linear-gradient-3"/><linearGradient id="linear-gradient-25" x1="-2497.32" y1="243.17" x2="-2084.58" y2="1008.68" gradientTransform="matrix(-0.99, -0.15, -0.15, 0.99, 586.56, -9.61)" xlink:href="#linear-gradient-3"/><linearGradient id="linear-gradient-26" x1="-3461.02" y1="649.59" x2="-3025.66" y2="1523.26" gradientTransform="matrix(-1, 0, 0, 1, -293.71, 0)" xlink:href="#linear-gradient-3"/><linearGradient id="linear-gradient-27" x1="3430.62" y1="548.12" x2="3596.18" y2="587.23" gradientTransform="translate(-165.39)" xlink:href="#linear-gradient"/><linearGradient id="linear-gradient-28" x1="-3696.93" y1="503.17" x2="-3554.99" y2="766.42" gradientTransform="matrix(-1, 0, 0, 1, -293.71, 0)" xlink:href="#linear-gradient"/><linearGradient id="linear-gradient-29" x1="-3738.53" y1="520.56" x2="-3599.44" y2="799.68" gradientTransform="matrix(-1, 0, 0, 1, -293.71, 0)" xlink:href="#linear-gradient"/><linearGradient id="linear-gradient-30" x1="3523.34" y1="825.62" x2="3632.3" y2="950.33" gradientTransform="translate(-165.39)" xlink:href="#linear-gradient-20"/><linearGradient id="linear-gradient-31" x1="-3805.4" y1="845.17" x2="-3592.7" y2="1239.67" gradientTransform="matrix(-1, 0, 0, 1, -293.71, 0)" xlink:href="#linear-gradient-20"/><linearGradient id="linear-gradient-32" x1="-3864.65" y1="866.08" x2="-3654.92" y2="1286.97" gradientTransform="matrix(-1, 0, 0, 1, -293.71, 0)" xlink:href="#linear-gradient-20"/><linearGradient id="linear-gradient-33" x1="3212.18" y1="1093.07" x2="3394.02" y2="1102.81" gradientTransform="translate(-165.39)" xlink:href="#linear-gradient"/><linearGradient id="linear-gradient-34" x1="-3465.86" y1="1019.59" x2="-3309.62" y2="1309.37" gradientTransform="matrix(-1, 0, 0, 1, -293.71, 0)" xlink:href="#linear-gradient"/><linearGradient id="linear-gradient-35" x1="-3511.06" y1="1036.76" x2="-3357.17" y2="1345.58" gradientTransform="matrix(-1, 0, 0, 1, -293.71, 0)" xlink:href="#linear-gradient-2"/><linearGradient id="linear-gradient-36" x1="3423.21" y1="1216.04" x2="3428.04" y2="1244.16" gradientTransform="translate(-165.39)" xlink:href="#linear-gradient-20"/><linearGradient id="linear-gradient-37" x1="-1666.45" y1="2228.97" x2="-1661.62" y2="2257.09" gradientTransform="matrix(-0.92, 0.39, 0.39, 0.92, 929.72, -200.18)" xlink:href="#linear-gradient-20"/><linearGradient id="linear-gradient-38" x1="-2141.73" y1="2021.06" x2="-2103.85" y2="2241.88" gradientTransform="matrix(-0.96, 0.28, 0.28, 0.96, 731.39, -111.57)" xlink:href="#linear-gradient-3"/><linearGradient id="linear-gradient-39" x1="-3539.22" y1="1808.63" x2="-3539.22" y2="1704.8" gradientTransform="matrix(-1, 0.04, 0.04, 1, -273.32, -13.01)" xlink:href="#linear-gradient-20"/><linearGradient id="linear-gradient-40" x1="-3548.91" y1="1609.14" x2="-3557.36" y2="1799.28" gradientTransform="matrix(-1, 0.04, 0.04, 1, -273.32, -13.01)" xlink:href="#linear-gradient-13"/><linearGradient id="linear-gradient-41" x1="-3548.91" y1="1609.14" x2="-3557.36" y2="1799.28" gradientTransform="matrix(-1, 0.04, 0.04, 1, -273.32, -13.01)" xlink:href="#linear-gradient-13"/><linearGradient id="linear-gradient-42" x1="-3530.64" y1="1809.16" x2="-3548.01" y2="1751.89" gradientTransform="matrix(-1, 0.04, 0.04, 1, -273.32, -13.01)" xlink:href="#linear-gradient-3"/><linearGradient id="linear-gradient-43" x1="-221.12" y1="2997.2" x2="-221.12" y2="2905.18" gradientTransform="matrix(-0.65, 0.76, 0.76, 0.65, 922.91, -206.63)" xlink:href="#linear-gradient-20"/><linearGradient id="linear-gradient-44" x1="-214.72" y1="3000.68" x2="-232.09" y2="2943.4" gradientTransform="matrix(-0.65, 0.76, 0.76, 0.65, 922.91, -206.63)" xlink:href="#linear-gradient-3"/><linearGradient id="linear-gradient-45" x1="3566.21" y1="1507.94" x2="3388.99" y2="1499.88" gradientTransform="translate(-165.39)" xlink:href="#linear-gradient-13"/><linearGradient id="linear-gradient-46" x1="3495.79" y1="1229.41" x2="3539.86" y2="1486.37" gradientTransform="translate(-165.39)" xlink:href="#linear-gradient-3"/><linearGradient id="linear-gradient-47" x1="6222.34" y1="2316.26" x2="6308.15" y2="2492.71" gradientTransform="translate(-3308.11 362.71) rotate(-12.03)" xlink:href="#linear-gradient-3"/><linearGradient id="linear-gradient-48" x1="-3528.32" y1="1426.1" x2="-3548.13" y2="1458.16" gradientTransform="matrix(-1, 0.04, 0.04, 1, -273.32, -13.01)" xlink:href="#linear-gradient-20"/><linearGradient id="linear-gradient-49" x1="3421.66" y1="1259.47" x2="3459.53" y2="1480.29" gradientTransform="translate(-165.39)" xlink:href="#linear-gradient-3"/><linearGradient id="linear-gradient-50" x1="-3638.38" y1="1560.37" x2="-3558.26" y2="1389.19" gradientTransform="matrix(-1, 0.04, 0.04, 1, -273.32, -13.01)" gradientUnits="userSpaceOnUse"><stop offset="0" stop-color="#444b8c"/><stop offset="1" stop-color="#26264f"/></linearGradient><linearGradient id="linear-gradient-51" x1="-4414.64" y1="1150.7" x2="-4393.93" y2="1198.35" gradientTransform="matrix(-1, 0, 0, 1, -1345.49, 0)" xlink:href="#linear-gradient-20"/><linearGradient id="linear-gradient-52" x1="-4361.68" y1="1184.93" x2="-4277.69" y2="1378.25" gradientTransform="matrix(-1, 0, 0, 1, -1345.49, 0)" xlink:href="#linear-gradient-2"/><linearGradient id="linear-gradient-53" x1="-1626.63" y1="1381.33" x2="-1598.74" y2="1269.75" gradientTransform="matrix(-1, 0, 0, 1, 1263.59, 0)" xlink:href="#linear-gradient-2"/><linearGradient id="linear-gradient-54" x1="-1790.77" y1="1192.36" x2="-1777.54" y2="1204.13" gradientTransform="matrix(-0.99, -0.14, -0.14, 0.99, 1257.3, 208.44)" xlink:href="#linear-gradient-50"/><linearGradient id="linear-gradient-55" x1="-2703.29" y1="1204.13" x2="-2703.29" y2="1181.08" gradientTransform="matrix(-0.99, -0.14, -0.14, 0.99, 341.1, 78.93)" xlink:href="#linear-gradient-20"/><linearGradient id="linear-gradient-56" x1="-1789.44" y1="1190.86" x2="-1776.21" y2="1202.63" gradientTransform="matrix(-0.99, -0.14, -0.14, 0.99, 1257.3, 208.44)" xlink:href="#linear-gradient-50"/><linearGradient id="linear-gradient-57" x1="-1693.66" y1="1647.14" x2="-1680.43" y2="1658.91" gradientTransform="matrix(-1, 0, 0, 1, 1263.59, 0)" xlink:href="#linear-gradient-50"/><linearGradient id="linear-gradient-58" x1="-2606.23" y1="1658.94" x2="-2606.23" y2="1635.88" gradientTransform="matrix(-1, 0, 0, 1, 338.28, 0)" xlink:href="#linear-gradient-20"/><linearGradient id="linear-gradient-59" x1="4087.75" y1="1669.51" x2="4001.46" y2="1321.1" gradientTransform="translate(-1142.16)" xlink:href="#linear-gradient-50"/><linearGradient id="linear-gradient-60" x1="-4337.52" y1="1164.73" x2="-4244.99" y2="1377.68" gradientTransform="matrix(-1, 0, 0, 1, -1345.49, 0)" xlink:href="#linear-gradient-2"/><linearGradient id="linear-gradient-61" x1="-1692.33" y1="1645.65" x2="-1679.1" y2="1657.42" gradientTransform="matrix(-1, 0, 0, 1, 1263.59, 0)" xlink:href="#linear-gradient-50"/><linearGradient id="linear-gradient-62" x1="-727.48" y1="2455.07" x2="-658.93" y2="2541.31" gradientTransform="matrix(-0.97, 0.26, 0.26, 0.97, 1596.3, -966.7)" xlink:href="#linear-gradient-20"/><linearGradient id="linear-gradient-63" x1="-722.84" y1="2450.71" x2="-651.18" y2="2540.87" gradientTransform="matrix(-0.97, 0.26, 0.26, 0.97, 1596.3, -966.7)" xlink:href="#linear-gradient-20"/><linearGradient id="linear-gradient-64" x1="-2392.14" y1="1045.47" x2="-2216.12" y2="1045.47" gradientTransform="matrix(-1, 0, 0, 1, -138.34, 0)" xlink:href="#linear-gradient-50"/><linearGradient id="linear-gradient-65" x1="5396.36" y1="115.57" x2="5403.97" y2="252.53" gradientTransform="matrix(0.96, 0.29, -0.29, 0.96, -3025.33, -444.94)" xlink:href="#linear-gradient-50"/><linearGradient id="linear-gradient-66" x1="-2309.4" y1="1052.09" x2="-2133.37" y2="1052.09" gradientTransform="matrix(-1, 0, 0, 1, -138.34, 0)" gradientUnits="userSpaceOnUse"><stop offset="0" stop-color="#444b8c"/><stop offset="1" stop-color="#3e4177"/></linearGradient><linearGradient id="linear-gradient-67" x1="2245.98" y1="1255.32" x2="2251.65" y2="1272.67" gradientTransform="translate(-165.39)" gradientUnits="userSpaceOnUse"><stop offset="0" stop-color="#311944"/><stop offset="1" stop-color="#a03976"/></linearGradient><linearGradient id="linear-gradient-68" x1="-2298.15" y1="936.18" x2="-2140.32" y2="1127.95" gradientTransform="matrix(-1, 0, 0, 1, -138.34, 0)" xlink:href="#linear-gradient-50"/><linearGradient id="linear-gradient-69" x1="2735.91" y1="1436.97" x2="2703.69" y2="1378.05" gradientTransform="translate(-894.27 392.99) rotate(-23.05)" xlink:href="#linear-gradient-50"/><linearGradient id="linear-gradient-70" x1="2875.04" y1="972.16" x2="2853.52" y2="934.09" gradientTransform="matrix(0.99, -0.15, 0.15, 0.99, -784, 143.28)" xlink:href="#linear-gradient-67"/><linearGradient id="linear-gradient-71" x1="2274.33" y1="686.81" x2="2002" y2="1135.36" gradientTransform="translate(-165.39)" xlink:href="#linear-gradient-20"/><linearGradient id="linear-gradient-72" x1="2142.81" y1="772.64" x2="2350.89" y2="772.64" gradientTransform="translate(-165.39)" xlink:href="#linear-gradient-20"/><linearGradient id="linear-gradient-73" x1="228.11" y1="209.47" x2="-7.79" y2="407.02" gradientTransform="matrix(-0.92, -0.4, -0.4, 0.92, 1988.38, 424.63)" xlink:href="#linear-gradient-50"/><linearGradient id="linear-gradient-74" x1="2260.36" y1="678.32" x2="1988.02" y2="1126.88" gradientTransform="translate(-165.39)" xlink:href="#linear-gradient-20"/><linearGradient id="linear-gradient-75" x1="2123.69" y1="595.34" x2="1851.35" y2="1043.9" gradientTransform="translate(-165.39)" xlink:href="#linear-gradient-20"/><linearGradient id="linear-gradient-76" x1="-235.1" y1="913.65" x2="-268.91" y2="791.38" gradientTransform="matrix(-1, 0.03, 0.03, 1, 1693.53, -96.28)" xlink:href="#linear-gradient-67"/><linearGradient id="linear-gradient-77" x1="-149.04" y1="725.79" x2="-256.2" y2="814.97" gradientTransform="matrix(-1, 0.03, 0.03, 1, 1693.53, -96.28)" xlink:href="#linear-gradient-67"/><linearGradient id="linear-gradient-78" x1="488.86" y1="10.55" x2="432.76" y2="80.32" gradientTransform="translate(2000.14 414.27) rotate(120.16)" xlink:href="#linear-gradient-67"/><linearGradient id="linear-gradient-79" x1="1922.74" y1="908.16" x2="2110.64" y2="908.16" gradientTransform="translate(-165.39)" xlink:href="#linear-gradient-20"/></defs><g class="cls-5"><g id="Background"><rect class="cls-6" width="3840" height="2160"/><path class="cls-7" d="M3840,959.55c-420,395.38-738.56,449.07-944.42,432.45-664-53.62-750.91-886.84-1508.73-1003-501.76-76.91-931.37,218.93-1243-62C68.64,259.22,25.29,181.87,0,124.37V2160H3840Z"/></g><g id="Illustration"><path class="cls-8" d="M2594.55,1441.37c-247.05,3.81-525,30.6-526.71,70.75-1.11,26.21,121.47,42,119.88,68.79-3.13,53.09-455.8,34.74-461.85,88.44-6.81,60.34,547.57,247.63,1006.66,102.32,14.23-4.5,47.4-19,96.46-31.82,135.18-35.21,206.24-15.76,377.61-21.6,87.13-3,274.48-9.37,280.72-51,3.16-21.1-41.37-44.22-68.62-57.67C3070.35,1437.66,2665.72,1440.27,2594.55,1441.37Z"/><path class="cls-8" d="M2172,1647.73c-217.66,23.21-333.06.3-336.07,21.62-4.06,28.69,203.73,78.49,220.37,82.43,186.33,44.12,492,82.58,516.12,10,11.46-34.47-43.24-85.6-84-110.07C2407.68,1603.18,2333.64,1630.5,2172,1647.73Z"/><path class="cls-8" d="M2531.66,1457.09c-138.32.53-319.39,22.46-320.35,53.07-.91,28.74,157,62.7,292.83,68.79,184.38,8.25,380-32.55,379.32-64.86S2684.31,1456.52,2531.66,1457.09Z"/><path class="cls-1" d="M2600.79,1396.18c39.64-37.2,91.95-97.62,115.62-183,31.05-112-14.45-168.66-9.32-358.35,3.25-119.93,6.72-203.6,67.19-248.36,47.38-35.07,124.09-42,170.65-9.53,38.71,27,61.1,84.51,67.94,125.55,5.57,33.44,1.09,57.72,20.37,75.34,19.7,18,41,7.81,59.39,21.15,37.36,27,15.73,116.62,12.23,131.09-38.89,161-187.28,269.66-252.58,316.26C2798.29,1304.81,2714.77,1356.15,2600.79,1396.18Z"/><g class="cls-9"><g class="cls-10"><path class="cls-11" d="M2555.27,1425.36l-.74-1.93c68.9-26.18,128.18-57.4,176.2-92.78,70.86-52.22,115-112.14,131.12-178.1,12.64-51.64,8.17-105.09,2-179-5-59-13.78-100.44-21.57-137-10.17-47.65-18.2-85.28-12.61-139.85,5.67-55.39,23.94-110.45,54.28-163.66l1.79,1c-30.2,53-48.38,107.75-54,162.85-5.55,54.25,2.45,91.74,12.57,139.21,7.81,36.58,16.65,78,21.61,137.21,3.07,36.65,5.72,68.29,6.05,97.61.35,32.09-2.21,58.18-8.07,82.11-16.27,66.44-60.64,126.75-131.9,179.27C2683.78,1367.8,2624.34,1399.11,2555.27,1425.36Z"/><path class="cls-11" d="M2860.79,931.06l-1.06-.46c-.4-.17-39.55-17.52-78.71-57.82A287.17,287.17,0,0,1,2726,793c-16.89-36.59-26-77.1-27-120.39l2.06-.05c1,43,10,83.24,26.81,119.58a285.1,285.1,0,0,0,54.63,79.21c35.29,36.32,70.51,53.83,77,56.88,14.15-47.11,34.32-90.46,60-128.84a422.91,422.91,0,0,1,72.13-82.71c46.29-40.74,85.56-56.22,86-56.37l.74,1.92c-.39.15-39.37,15.53-85.4,56.06a421.07,421.07,0,0,0-71.74,82.3c-25.72,38.51-45.91,82-60,129.37Z"/><path class="cls-11" d="M2870.31,1091l-.42-.62c-.39-.57-39.24-57.16-89.3-106.28-49.9-49-166.61-66-167.78-66.12l.29-2c1.18.17,118.55,17.26,168.93,66.69,47.38,46.49,84.75,99.65,89.13,106,28.07-8.46,58.84-30.71,91.47-66.14,26.38-28.65,54-65.92,82.11-110.77a1431.68,1431.68,0,0,0,81.28-150l1.87.85a1434,1434,0,0,1-81.4,150.23c-28.18,45-55.88,82.33-82.35,111.08-33.16,36-64.48,58.53-93.11,66.93Z"/><path class="cls-11" d="M2752.57,1317.55l1-1.78c17.25-30,23.59-61.32,18.83-93.15-3.81-25.5-14.7-51.39-32.38-76.95-30.16-43.6-70.14-71.46-70.54-71.74l1.17-1.69c.4.28,40.65,28.32,71,72.21,17.87,25.83,28.89,52,32.76,77.83,4.74,31.68-1.34,62.85-18.06,92.71,11-1.51,64.87-9.74,133.14-33.55a727.32,727.32,0,0,0,125.14-57c47.8-27.72,89.7-60.25,124.54-96.7l153-160.12,1.49,1.42-153,160.12c-35,36.6-77,69.26-125,97.08a729.41,729.41,0,0,1-125.51,57.13c-61.18,21.33-115.43,31.5-135.57,33.89Z"/></g></g><path class="cls-2" d="M2614.35,1387c77.09,37.76,180.68,74.86,295.67,77.61,29.35.7,210.64,5,225.7-71.22,5.31-26.87-14.49-41-8-77.09,7.66-42.71,40.37-50.14,79.36-89.19,23.27-23.3,91.36-91.5,64.1-160.53-16.29-41.25-65.89-80.94-113.12-91.47-69.27-15.44-119.87,34.87-204,121.47-74.58,76.77-77.55,103-132.22,157.35C2781.24,1294.22,2716.68,1345.56,2614.35,1387Z"/><g class="cls-12"><g class="cls-10"><path class="cls-11" d="M2615.77,1385.09a475.37,475.37,0,0,1-100.18-10.62,515,515,0,0,1-103.25-34.18c-49.33-22.3-96.48-52.58-140.13-90l1.34-1.57c43.5,37.31,90.48,67.49,139.64,89.7a512.34,512.34,0,0,0,102.83,34c60.16,12.94,122.32,14,184.77,3.16,57-9.9,114.79-29.79,171.86-59.13,125.73-64.62,220.8-159.92,278.41-228.49,40-47.54,66.17-108.83,77.94-182.17l2,.33c-11.83,73.71-38.2,135.34-78.39,183.17-57.74,68.71-153,164.22-279,229-57.25,29.42-115.27,49.38-172.45,59.32A498.73,498.73,0,0,1,2615.77,1385.09Z"/><path class="cls-11" d="M3023.65,1217.15l-.22-.9c-.08-.37-8.74-37.77-6.4-87.39,2.16-45.84,14.4-111.8,60.47-165.77l1.57,1.33c-45.69,53.53-57.84,119-60,164.53-2.12,45.08,4.87,80,6.16,85.92,216.37-27.59,273.7-150.92,286.13-188.1a17.12,17.12,0,0,1,.62-1.74l1.85.91c-.07.14-.29.79-.52,1.48-12.54,37.53-70.44,162.1-288.76,189.61Z"/><path class="cls-11" d="M3076.05,1387.21a292.51,292.51,0,0,1-77.36-10.84c-40.8-11.2-82.53-31.12-124.05-59.19l-.45-.31v-.55c0-.29.27-29.47,9.41-73.58A571.23,571.23,0,0,1,2947.4,1075l72.41-125.37,1.78,1-72.4,125.37a569,569,0,0,0-63.57,167.11c-8.41,40.6-9.28,68.43-9.36,72.62,41.14,27.77,82.48,47.47,122.88,58.57,32.43,8.91,64.32,12.34,94.81,10.17,51.9-3.68,82.1-22.55,82.4-22.74l1.11,1.74c-.3.19-30.85,19.3-83.23,23Q3085.21,1387.22,3076.05,1387.21Z"/></g></g><path class="cls-3" d="M2640.25,1471.08c-1.72-14-10.59-96.58,45.34-153.16,46.82-47.36,113.62-50.76,129.09-51.55,62.3-3.16,80.46,24.07,117.35,7.27,43.79-19.94,42.17-69.28,78.25-74,24.89-3.23,52,16.82,61.9,39.31,17.37,39.47-14.15,95.85-54.8,120.86-56,34.45-99.18-9.18-165.87,26.66-38.75,20.83-35.91,41.87-76.36,64.84C2728.17,1478,2676.79,1476.62,2640.25,1471.08Z"/><g class="cls-13"><g class="cls-10"><path class="cls-11" d="M2623.14,1503.56l-.88-.54a863.55,863.55,0,0,1,60-84.66c43.36-53.91,65.12-81,93.42-94.1,36.77-17.07,67.59-9.16,97.4-1.5,26.69,6.85,51.9,13.33,80.37,2.55,45.11-17.08,77.39-71.34,95.95-161.26l1,.2c-18.63,90.3-51.12,144.81-96.58,162-28.79,10.9-54.15,4.38-81-2.51-29.63-7.62-60.27-15.49-96.71,1.43-28.08,13-49.78,40-93,93.8A862.46,862.46,0,0,0,2623.14,1503.56Z"/><path class="cls-11" d="M2998.24,1327.67h-.61c-21.67-.11-34.08-5.83-34.2-5.89l-.16-.07-.08-.16c-23.65-45.47.66-116.9.91-117.62l1,.34c-.24.71-24.36,71.56-1.05,116.65,1.49.65,13.52,5.63,33.68,5.72h.54c19.86,0,51.58-4.87,90.86-27.81l.52.89C3050.15,1322.77,3018.24,1327.67,2998.24,1327.67Z"/><path class="cls-11" d="M2935.44,1409.12c-25.69-55.22-158.26-83.61-159.6-83.89l-.45-.1,0-.46c2-20.45,24-37.26,63.61-48.6a353.18,353.18,0,0,1,59.73-11.08l.08,1c-1.17.09-116.94,10.22-122.34,58.3a528,528,0,0,1,69.81,21c33.6,12.84,76.5,34.25,90,63.38Z"/><path class="cls-11" d="M2853.89,1439a78.49,78.49,0,0,0-44.25-37.43c-15.59-5.42-34.13-7.14-55.12-5.11-35.79,3.47-66.66,16.84-67,17l-.56.25-.14-.6c-9.77-39.46,2.74-78.81,15-104.87a247.83,247.83,0,0,1,29.13-47.57l.8.66a245.14,245.14,0,0,0-29,47.37c-12.08,25.78-24.46,64.62-15,103.58,4.37-1.83,33.41-13.58,66.69-16.81,21.14-2.05,39.84-.32,55.58,5.15a79.49,79.49,0,0,1,44.82,37.91Z"/></g></g><path class="cls-8" d="M3188.32,1645.59c-311.93-7.89-370.24-11.78-371.27-3.2-1.41,11.78,106.28,37.16,196.91,46.74,88.75,9.39,157.49,3.24,215.63-2.27,64.83-6.14,163.69-20.07,163.12-29.48C3392.28,1650.22,3334.39,1649.29,3188.32,1645.59Z"/><path class="cls-14" d="M2345.46,590.89l-433.82-27c-48-3-87.52,28.85-87.52,71.15s39.5,78.07,87.52,79.85L2345.46,731c40.75,1.52,73.35-28.23,73.35-66.43S2386.21,593.43,2345.46,590.89Z"/><path class="cls-15" d="M2061.18,838.56l-332.42-15.89c-36.22-1.73-65.93,24.34-65.93,58.26s29.71,62.18,65.93,63.14l332.42,8.77c31.71.84,57.14-23.8,57.14-55S2092.89,840.08,2061.18,838.56Z"/><path class="cls-16" d="M2622.36,465.11l.85,15.58c.25,4.57-3.87,8.16-9.21,8l-9.75-.26a86.07,86.07,0,0,1-5.18,21.46l8.31,4.18c4.77,2.4,6.63,7.5,4.17,11.41l-8.39,13.34c-2.47,3.92-8.35,5.18-13.14,2.8l-7.93-3.94a104.58,104.58,0,0,1-17.85,15.93l4.7,6.46c2.94,4,1.61,9.12-3,11.36l-15.66,7.68a11.38,11.38,0,0,1-13.71-3.23l-4.58-6.24a137.77,137.77,0,0,1-26.26,5.74l.4,7.1c.26,4.66-4,8.4-9.6,8.34l-19-.17c-5.6-.06-10.37-3.9-10.63-8.59l-.41-7.15a155.25,155.25,0,0,1-27.55-6.49l-4,6.24c-2.61,4.05-8.84,5.38-13.92,3l-17.36-8.28c-5.12-2.43-7.13-7.71-4.48-11.79l4.23-6.5a136.77,136.77,0,0,1-20.88-17.12l-8.08,3.79c-4.89,2.29-11.42.76-14.57-3.43L2349.09,520c-3.16-4.21-1.73-9.48,3.2-11.76l8.58-4a99.09,99.09,0,0,1-8.21-22.73l-10.66-.29c-5.87-.16-10.86-4.18-11.14-9l-.93-16.38c-.28-4.81,4.27-8.55,10.14-8.36l11.29.38a85.79,85.79,0,0,1,6.33-21.7L2347.32,421c-5.22-2.6-7.26-8-4.56-12l9.17-13.75c2.68-4,9.06-5.17,14.24-2.57l10.82,5.45a106.84,106.84,0,0,1,18.46-14.79l-6.69-9.12c-3.12-4.26-1.7-9.46,3.16-11.6l16.53-7.29a12.33,12.33,0,0,1,14.33,3.84l6.76,9.29a139.09,139.09,0,0,1,25.14-4.37l-.59-10.44c-.26-4.71,4.1-8.3,9.74-8l19.12,1c5.59.28,10.32,4.31,10.58,9l.58,10.36a155.28,155.28,0,0,1,25.2,6.7l5.57-8.56c2.53-3.89,8.55-5,13.43-2.41l16.59,8.68c4.85,2.54,6.75,7.74,4.24,11.62l-5.37,8.33a136,136,0,0,1,19,15.93l9.55-4.41a11.38,11.38,0,0,1,13.51,3.61l9.89,13.93a7.27,7.27,0,0,1-2.94,11.21l-9,4.24a100.32,100.32,0,0,1,8.13,21.31l10.32.34C2617.58,456.69,2622.11,460.54,2622.36,465.11Zm-66.61,7.36c-1.93-34.88-37.05-64.54-79-66.25-42.56-1.74-75.87,25.87-73.84,61.67s38.53,65.42,81,66.23C2525.74,534.92,2557.67,507.32,2555.75,472.47Z"/><path class="cls-17" d="M3208.61,455.12,2773,419.39c-48.22-4-87.87,27.08-87.87,69.38s39.65,78.86,87.87,81.62l435.57,24.88c40.91,2.34,73.64-26.75,73.64-64.95S3249.52,458.48,3208.61,455.12Z"/><path class="cls-18" d="M3070.91,694l.62,12.1c.18,3.55-2.81,6.45-6.68,6.48l-7.06.05A72.68,72.68,0,0,1,3054,729.4l6,3c3.45,1.74,4.8,5.66,3,8.76L3057,751.79a7.25,7.25,0,0,1-9.5,2.5l-5.74-2.87a81.36,81.36,0,0,1-12.89,12.81l3.4,4.9a6.06,6.06,0,0,1-2.15,8.88l-11.28,6.32a7.69,7.69,0,0,1-9.88-2.18l-3.29-4.73a94.5,94.5,0,0,1-18.85,5.05l.28,5.49c.18,3.6-2.89,6.59-6.88,6.67l-13.63.29c-4,.09-7.41-2.77-7.6-6.39l-.29-5.51a102.23,102.23,0,0,1-19.65-4.37l-2.87,4.9c-1.86,3.19-6.29,4.35-9.91,2.6l-12.34-6c-3.63-1.76-5-5.78-3.17-9l3-5.11A94,94,0,0,1,2899,753.43l-5.72,3.11a8.16,8.16,0,0,1-10.31-2.28l-7.6-10.73a6.1,6.1,0,0,1,2.26-9.11l6.06-3.26a78.13,78.13,0,0,1-5.81-17.24l-7.52.05c-4.14,0-7.66-2.92-7.86-6.6l-.66-12.55c-.19-3.68,3-6.67,7.16-6.68l8,0a72.59,72.59,0,0,1,4.47-16.84l-7.33-3.66c-3.68-1.84-5.12-5.91-3.22-9.09l6.48-10.83c1.9-3.17,6.41-4.24,10.07-2.39l7.65,3.86a82.15,82.15,0,0,1,13.09-11.92l-4.74-6.82a6,6,0,0,1,2.24-9l11.73-6.12a8.11,8.11,0,0,1,10.18,2.51l4.81,7a95.25,95.25,0,0,1,17.92-4.15l-.42-8c-.18-3.63,2.93-6.54,7-6.5l13.68.15c4,0,7.38,3,7.57,6.62l.41,8a100.92,100.92,0,0,1,18.08,4.4l4-6.8c1.82-3.1,6.14-4.12,9.65-2.3l11.95,6.22c3.5,1.82,4.86,5.79,3.06,8.88l-3.87,6.63a93.66,93.66,0,0,1,13.73,11.79l6.9-3.72a7.66,7.66,0,0,1,9.76,2.41l7.16,10.53a6,6,0,0,1-2.12,8.8l-6.54,3.56a78.19,78.19,0,0,1,5.88,16.33l7.48,0C3067.45,687.52,3070.73,690.39,3070.91,694Zm-48.16,7.54c-1.38-27-26.65-49-56.71-49-30.36-.09-54.05,22.14-52.61,49.64s27.41,49.42,57.72,49C3001.16,750.67,3024.13,728.47,3022.75,701.49Z"/><path class="cls-19" d="M3493.85,661.41l-332.41-15.89c-36.22-1.73-65.93,24.34-65.93,58.25s29.71,62.19,65.93,63.15l332.41,8.77c31.72.84,57.15-23.8,57.15-55S3525.57,662.92,3493.85,661.41Z"/><path class="cls-18" d="M3449.42,1040.69l.49,10.3a5.49,5.49,0,0,1-5.32,5.7l-5.62.24a67.36,67.36,0,0,1-3,14.43l4.79,2.43a5.43,5.43,0,0,1,2.4,7.39l-4.84,9.18a5.68,5.68,0,0,1-7.56,2.38l-4.56-2.3a70.43,70.43,0,0,1-10.24,11.25l2.69,4.09a5.44,5.44,0,0,1-1.7,7.62l-9,5.67a5.75,5.75,0,0,1-7.85-1.61l-2.61-3.94a73.06,73.06,0,0,1-15,4.78l.22,4.67a5.67,5.67,0,0,1-5.45,5.85l-10.82.59a5.63,5.63,0,0,1-6-5.25l-.23-4.68a73.94,73.94,0,0,1-15.58-3.22l-2.27,4.25a6,6,0,0,1-7.84,2.46l-9.78-4.77a5.47,5.47,0,0,1-2.51-7.54l2.37-4.42a72.46,72.46,0,0,1-11.72-10.39l-4.52,2.79a6.07,6.07,0,0,1-8.16-1.67l-6-8.93a5.47,5.47,0,0,1,1.79-7.79l4.79-2.93a67.47,67.47,0,0,1-4.59-14.5l-5.95.24a5.85,5.85,0,0,1-6.21-5.4l-.52-10.64a5.72,5.72,0,0,1,5.66-5.87l6.3-.23a66.46,66.46,0,0,1,3.53-14.43l-5.79-2.91a5.57,5.57,0,0,1-2.55-7.64l5.12-9.38a6,6,0,0,1,8-2.3l6.05,3.07a70.91,70.91,0,0,1,10.36-10.5l-3.75-5.66a5.42,5.42,0,0,1,1.77-7.73l9.28-5.53a6,6,0,0,1,8.07,1.85l3.81,5.78a73.74,73.74,0,0,1,14.2-4l-.33-6.82a5.53,5.53,0,0,1,5.51-5.72l10.84-.25a5.81,5.81,0,0,1,6,5.42l.33,6.79a73.49,73.49,0,0,1,14.35,3.25l3.17-5.91a5.7,5.7,0,0,1,7.67-2.22l9.49,5a5.52,5.52,0,0,1,2.43,7.48l-3.07,5.75a72.79,72.79,0,0,1,10.91,9.67l5.49-3.35a5.73,5.73,0,0,1,7.76,1.78l5.7,8.78a5.39,5.39,0,0,1-1.69,7.56l-5.2,3.2a68.25,68.25,0,0,1,4.68,13.76l5.95-.22A5.62,5.62,0,0,1,3449.42,1040.69Zm-38.31,7.72c-1.1-23-21.17-41-45-40.23-24.08.75-42.83,20.3-41.7,43.64s21.71,41.31,45.75,40.17C3394,1090.86,3412.21,1071.35,3411.11,1048.41Z"/><path class="cls-18" d="M3195.72,824l-371.85-6.11c-40.68-.66-74.06,27.94-74.06,63.89s33.38,64.94,74.06,64.74l371.85-1.85c35.34-.18,63.66-27,63.66-60S3231.06,824.61,3195.72,824Z"/><path class="cls-18" d="M2630.32,1049l.62,11.2c.18,3.28-2.81,6.14-6.67,6.39l-7.05.45a65.76,65.76,0,0,1-3.75,15.81l6,2.48c3.45,1.42,4.8,5,3,8l-6.07,10.16c-1.78,3-6,4.27-9.49,2.86l-5.72-2.34a85.27,85.27,0,0,1-12.86,12.6l3.39,4.36c2.11,2.72,1.15,6.46-2.14,8.36l-11.26,6.49c-3.31,1.91-7.72,1.25-9.85-1.47l-3.28-4.2a104.73,104.73,0,0,1-18.8,5.74l.29,5.07c.18,3.32-2.88,6.26-6.85,6.57l-13.58,1c-4,.3-7.39-2.16-7.58-5.5l-.28-5.09a104.82,104.82,0,0,1-19.57-3l-2.85,4.7c-1.85,3-6.27,4.38-9.86,3l-12.28-4.85c-3.61-1.42-5-5.06-3.16-8.13l3-4.89a84.37,84.37,0,0,1-14.73-10.9l-5.69,3.2c-3.44,1.94-8,1.25-10.25-1.53l-7.55-9.51c-2.22-2.79-1.22-6.62,2.24-8.56l6-3.36a65.19,65.19,0,0,1-5.77-15.63l-7.48.48c-4.11.27-7.61-2.27-7.8-5.67l-.66-11.56c-.19-3.4,3-6.35,7.11-6.6l7.92-.47a66.6,66.6,0,0,1,4.44-15.85l-7.28-3c-3.66-1.49-5.09-5.17-3.2-8.23l6.44-10.39c1.88-3,6.37-4.29,10-2.79l7.61,3.14a86.84,86.84,0,0,1,13-11.79l-4.72-6c-2.2-2.82-1.2-6.62,2.23-8.48l11.67-6.35c3.41-1.85,7.95-1.08,10.13,1.74l4.79,6.16A104.49,104.49,0,0,1,2510,988l-.41-7.42c-.19-3.35,2.91-6.22,6.92-6.42l13.62-.65c4-.19,7.36,2.35,7.54,5.69l.41,7.38a104.15,104.15,0,0,1,18,3l4-6.53c1.81-3,6.13-4.18,9.63-2.69l11.91,5.07c3.49,1.48,4.85,5.09,3.05,8.06l-3.86,6.36a85.26,85.26,0,0,1,13.7,10.14l6.89-3.84c3.28-1.83,7.64-1.08,9.74,1.67l7.15,9.36c2.09,2.74,1.14,6.45-2.12,8.28l-6.53,3.67a65.87,65.87,0,0,1,5.87,14.82l7.47-.45C2626.86,1043.26,2630.14,1045.73,2630.32,1049Zm-48.07,9.75c-1.38-25-26.57-43.86-56.52-42.22-30.23,1.67-53.8,23.61-52.37,49s27.27,44.22,57.46,42.12C2560.72,1105.58,2583.63,1083.7,2582.25,1058.76Z"/><path class="cls-18" d="M3054.94,994.37l-334.11,4.49c-36.24.48-65.94,26.4-65.94,57.87s29.7,56,65.94,54.88L3054.94,1101c32-1,57.72-25.47,57.72-54.61S3087,993.93,3054.94,994.37Z"/><path class="cls-20" d="M2695.19,1491.49a50.42,50.42,0,0,1-33.42-38l-24.84-122.94-212.49,7.54-26.15,128.08c-3.66,17.94,11,35.93,27.88,42.54l88.9,34.78a115.61,115.61,0,0,0,52,7.54L2754.93,1535a11.65,11.65,0,0,0,10.54-10.32c.63-5.54,4.48-11.76-.75-13.5Z"/><path class="cls-21" d="M2697.29,1484a50,50,0,0,1-33.38-37.47l-24.82-121.4-207.31,7.46-26.12,126.47a37,37,0,0,0,22.89,42l88.81,34.35a116.69,116.69,0,0,0,51.92,7.44L2757,1527a11.58,11.58,0,0,0,2.63-22.54Z"/><path class="cls-20" d="M1990.24,1412.31c-23,1.37-41.89-13.58-41.89-33.33V667c0-19.76,18.85-35,41.89-34l31.25,21L3055.9,679.11a32.2,32.2,0,0,1,30.61,31.79v605.58c0,16.8-13.7,31.29-30.61,32.3Z"/><path class="cls-11" d="M1999.82,1412.31c-23,1.37-41.89-13.58-41.89-33.33V667c0-19.76,18.85-35,41.89-34l1065.65,46.18a32.2,32.2,0,0,1,30.62,31.79v605.58c0,16.8-13.7,31.29-30.62,32.3Z"/><path class="cls-22" d="M3065.47,693.36,1999.82,649.52c-12.32-.51-22.33,7.63-22.33,18.18v710.2c0,10.55,10,18.53,22.33,17.82l1065.65-61.19a17.54,17.54,0,0,0,16.4-17.27V710.36A17.19,17.19,0,0,0,3065.47,693.36Z"/><path class="cls-18" d="M1999.82,1335.23c-4.79.24-8.7-2.91-8.7-7v-660c0-4.1,3.91-7.29,8.7-7.1l1065.65,42.21a6.71,6.71,0,0,1,6.41,6.63v565.89a6.79,6.79,0,0,1-6.41,6.69Z"/><path class="cls-23" d="M2954.22,1304.71c-89.65-55.46-27-213.14-127.71-292.36-101.51-79.88-244.34,18.09-315.44-64.63-53-61.59,9-136-41.55-193.88-79.28-90.84-282.22,34.09-375.45-55.4-13.24-12.7-26.6-32-34.2-62.91l-60-2.6c-23-1-41.89,14.26-41.89,34v712c0,19.75,18.85,34.7,41.89,33.33l1065.65-63.53c16.92-1,30.62-15.5,30.62-32.3v-10.76C3025.33,1329.73,2982.07,1321.93,2954.22,1304.71Z"/><path class="cls-24" d="M1964.91,1582.14a69.35,69.35,0,0,1-59.15-42.11l-144.17-346.28a60.53,60.53,0,0,1,33.24-79.87c31.78-12.75,81.32,2.26,94.79,34.13l147.89,350c14,33-1.78,69.09-34.94,80.44C1994.4,1581.29,1973.22,1582.67,1964.91,1582.14Z"/><path class="cls-25" d="M1794.83,1113.88c31.78-12.75,81.32,2.26,94.79,34.13l135.23,320c-22.64-5.81-49.43-5.29-75.15-27.84-42.81-37.54-21.75-85.65-55.68-128.5-15.51-19.59-44.21-40.22-102.64-46.42l-29.79-71.55A60.53,60.53,0,0,1,1794.83,1113.88Z"/><path class="cls-26" d="M1708,1045.16a26.71,26.71,0,0,1,3.69.26l89.12-1v231.72l-86.06-1.18a27.39,27.39,0,0,1-6.75.86c-30.54,0-55.3-51.64-55.3-115.34S1677.5,1045.16,1708,1045.16Z"/><path class="cls-27" d="M1800.85,1044.44c-33.76,77.16-33.76,154,0,231.72l662.9,213.13,6.85-650.35Z"/><path class="cls-28" d="M2284.8,1298.12c-63-23.87-82.61-115.32-155.79-118.39-57.41-2.42-74.71,53.33-131,47.32-57.59-6.16-67.26-68.25-131.76-90.13-29.32-10-60-8.11-89.77.3q-6,69.12,24.34,138.94l662.9,213.13-39.21-220.82C2359.18,1306.6,2315.36,1309.7,2284.8,1298.12Z"/><ellipse class="cls-29" cx="2495.9" cy="1161.55" rx="161.25" ry="336.3"/><path class="cls-30" d="M2495.9,1486.44c18.9,0,37.48-7.93,55.21-23.58,18-15.92,34.38-38.95,48.52-68.45,29.73-62,46.11-144.71,46.11-232.86s-16.38-170.86-46.11-232.87c-14.14-29.5-30.47-52.53-48.52-68.45-17.73-15.64-36.31-23.58-55.21-23.58s-37.49,7.94-55.22,23.58c-18,15.92-34.37,38.95-48.52,68.45-12.43,25.93-22.53,55.47-30.07,87.52-10.49,44.6,19.84,91.16,19.84,142.46,0,54.54-29.61,109.89-17.78,156.65,7.28,28.81,16.68,55.46,28,79.1,14.15,29.5,30.47,52.53,48.52,68.45C2458.41,1478.51,2477,1486.44,2495.9,1486.44Z"/><g class="cls-31"><path class="cls-32" d="M2509.17,1166c0,85.2-56.42,152.85-125,151.13-67.56-1.7-121.56-70.21-121.56-153s54-150.5,121.56-151.16C2452.75,1012.23,2509.17,1080.75,2509.17,1166Z"/><path class="cls-33" d="M2498.33,1164.57c0,63.27-27.49,113.51-60.92,112.23-32.92-1.26-59.23-52.14-59.23-113.64s26.31-111.76,59.23-112.25C2470.84,1050.42,2498.33,1101.3,2498.33,1164.57Z"/></g><path class="cls-34" d="M2621.41,1056.69s45-28,71.26-71.73c-39.88-45.47-63.3-101.35-63.3-160.9,0-142.81,134.6-262.64,308-267.89,177.36-5.36,328.49,110.06,336.23,260.24v.15c.1,1.86.17,3.73.22,5.61,0,.27,0,.54,0,.82,0,1.84.07,3.68.07,5.53a231.88,231.88,0,0,1-1.37,25.26c-.38,3.55-.85,7.09-1.4,10.6q-1.64,10.53-4.22,20.77-1.29,5.11-2.8,10.15c-.68,2.24-1.38,4.46-2.12,6.68-17.36,52-52.73,97.1-99.85,130.74-1,.72-2,1.43-3,2.13a327.9,327.9,0,0,1-52.42,29.67c-1.16.53-2.33,1-3.51,1.57q-12.33,5.4-25.26,9.92-5.53,1.93-11.17,3.7-3.77,1.17-7.56,2.27-5.7,1.65-11.5,3.12-3.85,1-7.76,1.88a382.42,382.42,0,0,1-102.59,9.23c-2.63-.12-5.24-.27-7.86-.43l-2.27-.17c-1.86-.13-3.72-.26-5.57-.42l-2.46-.23c-1.8-.16-3.6-.33-5.38-.52l-2.3-.26q-2.79-.3-5.56-.65l-2-.26q-3-.39-5.92-.82l-1.5-.23c-2.17-.32-4.32-.67-6.47-1l-.87-.15c-2.42-.42-4.83-.85-7.22-1.31h0a366.83,366.83,0,0,1-58.26-16.17l.07-.06q-16.41-6.09-31.8-13.62C2767.26,1079.31,2703.91,1115,2621.41,1056.69Z"/><path class="cls-35" d="M2606.26,823.07c0,142.81,134.61,264.51,308,272.15,182.1,8,336.55-111.65,336.55-267.69s-154.45-277.85-336.55-272.34C2740.87,560.43,2606.26,680.27,2606.26,823.07Z"/><path class="cls-35" d="M2606.26,823.07c0,142.81,134.61,264.51,308,272.15,182.1,8,336.55-111.65,336.55-267.69s-154.45-277.85-336.55-272.34C2740.87,560.43,2606.26,680.27,2606.26,823.07Z"/><path class="cls-36" d="M2780.19,1048.74s-74.81,82.63-181.89,7c0,0,85.69-53.21,89.52-127.71Z"/><path class="cls-11" d="M2737.65,753c13-37.17,45.6-63.85,84.08-64.31,50.81-.62,92.53,44.63,92.53,101,0-56.42,42.21-102.67,95-103.31,41-.49,76.34,26.61,90.69,65.45,55,140.16-185.65,263.14-185.65,263.14S2688.59,884.78,2737.65,753Z"/><g class="cls-37"><path class="cls-38" d="M2837,1023.77c38.18-78-.41-152.65,51.3-203.3,53.31-52.22,123.76-3,201.13-46.17,30.34-16.94,64.38-49.6,89.87-117,44.7,46.67,71.51,105.83,71.51,170.28,0,156-154.45,275.72-336.55,267.69a375.36,375.36,0,0,1-113.65-22.65A166.33,166.33,0,0,0,2837,1023.77Z"/></g><path class="cls-39" d="M3374.9,486.81c54.52,1.67,100.32,35,109.24,77.1l0,.17q.73,3.46,1.12,7c0,.16,0,.32.05.47.11,1.1.2,2.21.26,3.32l0,.6c0,1.14.09,2.28.09,3.42,0,49-50,86.08-110.82,82.93-1.62-.08-3.23-.2-4.83-.34l-.47,0c-1.51-.14-3-.31-4.52-.49l-.69-.09c-1.45-.18-2.89-.39-4.32-.62l-.81-.13c-1.41-.24-2.8-.49-4.19-.77l-.84-.17c-1.38-.28-2.75-.58-4.11-.91l-.78-.19c-1.35-.33-2.69-.67-4-1l-.72-.21c-1.19-.34-2.38-.69-3.56-1.06l-.89-.28c-1.2-.39-2.38-.79-3.56-1.21l-.77-.26h0c-40.44-14.59-68.88-47.42-68.88-84.14C3267,522.16,3314.93,485,3374.9,486.81Z"/><path class="cls-40" d="M3255.41,569.86c0,47.7,48,88.85,107.94,91.95,60.85,3.15,110.83-34,110.83-82.93s-50-90.2-110.83-92.07C3303.39,485,3255.41,522.16,3255.41,569.86Z"/><path class="cls-11" d="M3363.35,517.06c21.66.75,39.31,19,39.31,40.86,0,14.13-16.55,46.28-28.16,67.09-4.82,8.63-17.46,8-22.26-1-11.51-21.79-27.82-55.1-27.82-69.1A37.44,37.44,0,0,1,3363.35,517.06Zm0,60.43a20.1,20.1,0,0,0,21.06-20.29,22.07,22.07,0,0,0-21.06-21.93,20.1,20.1,0,0,0-20.95,20.29A22.09,22.09,0,0,0,3363.35,577.49Z"/><g class="cls-37"><path class="cls-41" d="M3336.89,638.23c13.13-25.16-.15-49.85,17.61-65.76,18.13-16.25,41.8.51,67.42-12.35,9.95-5,21-14.88,29.3-35.83,14.39,15.4,23,34.36,23,54.59,0,49-50,86.08-110.83,82.93a135.8,135.8,0,0,1-39.07-7.8A53.58,53.58,0,0,0,3336.89,638.23Z"/></g><path class="cls-42" d="M3629.5,938.13c.05.53.1,1.07.14,1.6l.09,1.32c0,.64.07,1.29.09,1.93,0,.35,0,.71,0,1.06,0,1,.05,2,.05,3a99.85,99.85,0,0,1-.87,13.1,102.51,102.51,0,0,1-5.46,22.05c-.37,1-.76,2-1.17,3a112.1,112.1,0,0,1-5.59,11.85,127.05,127.05,0,0,1-17.6,24.53c-1.55,1.69-3.14,3.36-4.78,5s-3.33,3.24-5.07,4.82a160.67,160.67,0,0,1-23,17.25q-1.56,1-3.15,1.92-3.18,1.89-6.48,3.66a187,187,0,0,1-24.35,10.89c-2.43.89-4.9,1.74-7.39,2.54s-5,1.55-7.56,2.25-5.12,1.37-7.72,2a209.46,209.46,0,0,1-44.89,5.48c-1.33,0-2.66,0-4,0h-1.27l-2.69,0-1.45-.05c-.83,0-1.67,0-2.5-.09l-1.48-.07L3449,1077l-1.43-.1-2.5-.19-1.35-.11-2.59-.25-1.21-.12-2.75-.32-1-.12-3-.4-.7-.1q-1.75-.25-3.48-.54l-.21,0a193.31,193.31,0,0,1-21.53-4.81l0,0c-59.32-17-100.82-61-100.82-113.24,0-67.87,70.13-126.1,158.41-130.14,85.25-3.89,156.62,43.94,164.35,108.81l.15,1.27C3629.41,937.13,3629.46,937.63,3629.5,938.13Z"/><path class="cls-43" d="M3295.86,956.69c0,67.88,68.61,121.94,155,120.73,88.35-1.25,161.48-59.61,161.48-130.34s-73.13-124.65-161.48-120.53C3364.47,830.59,3295.86,888.82,3295.86,956.69Z"/><path class="cls-11" d="M3404.78,886v120.09c0,7.71,6.52,12.52,12.16,9l100.57-63.13c6.27-3.94,6.27-15.09,0-18.64l-100.57-57C3411.3,873.05,3404.78,878.26,3404.78,886Z"/><g class="cls-37"><path class="cls-44" d="M3412.63,1046.16c18.93-37.29-.21-71.3,25.42-95.91,26.21-25.16,60.53-3.58,97.82-24.75,14.51-8.24,30.71-23.67,42.8-54.76,21.07,20.66,33.65,47.12,33.65,76.34,0,70.73-73.13,129.09-161.48,130.34a191.65,191.65,0,0,1-56.36-7.47A84.51,84.51,0,0,0,3412.63,1046.16Z"/></g><path class="cls-45" d="M3129.09,1191.59l-1.07-.08-1.93-.15-1.07-.1-1.92-.2-1-.11-2-.24-.92-.12-2.08-.28-.79-.12c-.75-.11-1.5-.23-2.24-.36l-.59-.09c-.84-.15-1.68-.29-2.51-.45l-.3-.06a152,152,0,0,1-19.23-4.92h0c-44.81-14.74-76-49-76-87.85,0-50.59,52.84-92,119.7-92.48,65-.48,119.7,37.67,125.55,86.81,0,.26.07.53.1.8l.12,1.21.09,1.15c0,.34.05.69.07,1s.06,1,.08,1.43l0,.81c0,.76,0,1.52,0,2.29,0,25.8-13.44,48.81-35.11,65.42-1.4,1.07-2.83,2.12-4.3,3.13s-3,2-4.49,3c-.77.48-1.54,1-2.32,1.42q-2.34,1.41-4.78,2.71t-5,2.53q-2.13,1-4.32,2a142.39,142.39,0,0,1-26.21,8.56q-2.65.6-5.37,1.11a159.31,159.31,0,0,1-34.23,2.55c-1,0-2-.07-3-.12l-.94-.06Z"/><path class="cls-46" d="M3009.12,1096.45c0,50.58,51.89,93.29,117.57,95.45,67.59,2.22,123.84-39.12,123.84-92.39s-56.25-96-123.84-95.54C3061,1004.47,3009.12,1045.86,3009.12,1096.45Z"/><path class="cls-11" d="M3166.67,1162.85l-5.31-35.6,16.58.31v-18.29l-19.84-.29-3.26-22.21,17.35.18v-18.47l-20.2-.13-5.07-34.39-18,0,5,34.26-18.27-.11-5.19-34.13-17.69,0,5.15,34-15.82-.09V1086l18.6.19,3.18,22-16.45-.25v17.94l19.44.37,5,35.18,18,.47-5-35.32,18.35.35,5.06,35.46Zm-45-54.42-3.21-22,18.3.19,3.23,22.12Z"/><g class="cls-37"><path class="cls-47" d="M3097.59,1167.16c14.41-27.26-.16-53.35,19.35-70.93,20-18,46.23-.73,74.79-15.42,11.14-5.73,23.58-16.82,32.88-39.84,16.22,16.21,25.92,36.53,25.92,58.54,0,53.27-56.25,94.61-123.84,92.39a151.17,151.17,0,0,1-42.9-7.59A59.07,59.07,0,0,0,3097.59,1167.16Z"/></g><path class="cls-48" d="M3249.34,1227.21a15.85,15.85,0,0,0,5-6.55c1.31-3.37.38-4.87,2-7,2.09-2.67,6.36-3.82,9.28-2.51a3.76,3.76,0,0,1,1.85,1.46c1.3,2.19-1.59,6-3.9,8-1.74,1.52-2.45,1.41-4.29,2.71a17.71,17.71,0,0,0-5.88,7.46Z"/><path class="cls-49" d="M3345.92,1208.76a15.78,15.78,0,0,1-7.13-4.09c-2.53-2.59-2.26-4.33-4.6-5.63a8.34,8.34,0,0,0-9.53,1.31,3.78,3.78,0,0,0-1.13,2.06c-.34,2.53,3.81,4.91,6.73,5.88,2.19.72,2.81.34,5,.82a17.65,17.65,0,0,1,8.32,4.57Z"/><path class="cls-50" d="M3336.69,1211.9c-1.28,6.1,5.32,11.54,10.08,16.87,9.56,10.7,19.56,29.79,15.89,46.18-2,9-8.44,18.63-17.51,23.21-9.77,4.94-15.63.45-25.79,6.31-.75.43-13.6,8-14,18.34-.47,12.68,18.19,26.18,34.15,27.21,29.2,1.89,64.38-36.94,62.74-75.47-1.78-42-46.85-75.24-59.82-69.6A10.73,10.73,0,0,0,3336.69,1211.9Z"/><polygon class="cls-51" points="3323.7 1646.24 3322.65 1656.86 3327.6 1655.97 3330.93 1645.98 3323.7 1646.24"/><path class="cls-52" d="M3353.86,1449.88a267.73,267.73,0,0,1-5.66,48.2c-3,14.18-4.75,16.63-5.68,26.44-2,21.34,4.84,24.4,6.1,48.52,1.4,26.63-5.69,47.8-8.47,55.87a152.16,152.16,0,0,1-6.9,16.72c-2.44,2.13-6.17,1.32-10.11.52-1.45-24.16-3.26-46.9-4.71-71.06q-7-54.51-14-109Z"/><path class="cls-53" d="M3323.14,1646.15c-1.45-24.16-3.26-46.9-4.71-71.06q-7-54.51-14-109l49.46-16.19c0,1.25-.1,2.45-.15,3.68-23.13,20.08-27.66,36-27.43,46.85.27,13.16,7.47,19.69,6.07,38.77-1,13.65-5.11,16.06-5.11,28.37,0,15.86,6.81,24.77,10.12,33.94,3.21,8.85,4.35,21.4-1.84,39.24-.82,1.84-1.58,3.49-2.27,4.9C3330.81,1647.76,3327.08,1647,3323.14,1646.15Z"/><path class="cls-54" d="M3325.55,1660.49c2.35-2.91,4.5-2.69,4.89-4.66a4,4,0,0,0-2.12-4.11c-2-1-4.41.67-5,1-3.66,2.5-2.57,6.26-6,8a9.41,9.41,0,0,0-3,1.85c-.49.48-1.71,1.67-1.4,2.46s2.57.84,4.67.76c2.52-.09,3.78-.13,5-.91C3324.27,1663.79,3323.75,1662.73,3325.55,1660.49Z"/><polygon class="cls-55" points="3320.58 1569.57 3329.83 1573.2 3332.53 1568.95 3325.3 1564.09 3320.58 1569.57"/><path class="cls-56" d="M3334.71,1575.44c-.54-3.69,1.07-5.12-.11-6.75a4,4,0,0,0-4.45-1.23c-2.08.83-2.51,3.69-2.6,4.34-.65,4.38,2.85,6.13,1.75,9.84a9.36,9.36,0,0,0-.65,3.43c0,.69.07,2.39.86,2.7s2.36-1.32,3.73-2.91c1.64-1.91,2.46-2.87,2.7-4.28C3336.27,1578.63,3335.13,1578.29,3334.71,1575.44Z"/><path class="cls-57" d="M3280.53,1433.1c-17.24,35.16-23.1,64.48-25.31,83.62-1.42,12.31-1.29,19.93,2.26,27.57,12.69,27.39,57,29.19,63.73,29.38q3.33-6.8,6.65-13.6c-4.08-7.56-11.19-18.06-23.37-25.72-9.37-5.89-13-4.63-15.37-8.59-9.38-15.88,41.27-50.28,33.7-73.17C3320.2,1444.66,3310.13,1436.63,3280.53,1433.1Z"/><path class="cls-58" d="M3317.9,1306.71c-18.64,3.2-32.82,6.53-39.16,16.29-6.68,10.31,4,18.07,6.84,40.68,4.43,34.63-15.48,47.56-9.75,82.42a88.43,88.43,0,0,0,3.88,15.08,35.77,35.77,0,0,0,14.72,18.3,93.19,93.19,0,0,0,18.65,9c18.89,6.61,28.21,2.76,53.63,4.22,41.58,2.37,47.81,14.43,66.59,7,19-7.5,32.73-27.75,28.7-36.4-2.41-5.19-10-1.95-20.93-8.31-14.06-8.2-11.7-19.39-23.1-29-16.39-13.79-32.15.14-46.17-11.85-14.17-12.13-15.87-41.63-9.84-59.19,3.93-11.47,4-23.94,6.93-35.71a7.67,7.67,0,0,0-.17-4.31c-2.33-6.76-14.71-8.06-24.06-9A106.79,106.79,0,0,0,3317.9,1306.71Z"/><path class="cls-59" d="M3431.12,1486.6c-5.76-3.84-2.64-14.72-11.17-20.49-7.91-5.36-14.08,1.65-25.74-1.92-15-4.59-14.18-19-28.51-23.59-10.31-3.3-13.42,3.28-28.29,3.56s-34.3-5.84-46.62-21.57a52.89,52.89,0,0,1-9.75-20.42c-4,12.83-8.28,25.22-5.21,43.93a89.46,89.46,0,0,0,5.42,19.13,26.48,26.48,0,0,0,9.41,11.74,92.7,92.7,0,0,0,22.42,11.52c18.89,6.61,28.21,2.76,53.63,4.22,41.58,2.37,47.81,14.43,66.59,7,12.13-4.79,22.1-14.79,26.68-23.64C3443.55,1488,3435.3,1489.38,3431.12,1486.6Z"/><path class="cls-60" d="M3307.13,1274.46s-5.13,9.64-5.45,16.41,7.3,6.27,7.3,6.27l-.28,4.27a9.24,9.24,0,0,1-6,8l-3,1.11s19.66,4.21,30.39-3.37l-3.09-.31a9.24,9.24,0,0,1-8.3-8.26l-.19-1.83S3321.87,1275.72,3307.13,1274.46Z"/><path class="cls-61" d="M3258.72,1229.13c2.92,5.52-1.93,12.56-5,19-6.24,12.92-10.58,34-2.53,48.77,4.39,8,13.24,15.58,23.23,17.49,10.75,2,15.14-3.89,26.52-1.05.84.21,15.3,4,18.49,13.77,3.95,12.06-10.26,30.18-25.32,35.57-27.55,9.87-72.07-17.75-81.12-55.24-9.86-40.81,24.28-85.24,38.3-83.39A10.69,10.69,0,0,1,3258.72,1229.13Z"/><path class="cls-62" d="M3310.21,1284.05c1-.08,1.85-1.37,2.55-1s.65,2.28,0,3.6a4.71,4.71,0,0,1-1.84,2,12.65,12.65,0,0,1,2.2,5c.92,4.88-1.68,8.81-2.76,11.11-4.87,10.37,2.71,26.76,11,35,6.76,6.72,9.91,4,13.94,9.51,7.86,10.7-3,22.45,1.08,36.85,6.17,21.88,40.73,28.4,42.17,28.65l1.53.25c15.5,2.47,39,6.2,55.55-6.53,12.38-9.52,18.06-26.09,17.12-40.68-.24-3.84-1.41-18.41-13.28-30.31-1.89-1.89-13.05-13-28.13-13.17-8-.08-9.6,2.74-15.71,1-8.36-2.38-13.51-10-16.71-14.7-5.88-8.68-3.49-10.53-7.72-14.8-8.29-8.36-18-1.8-26.86-9.17s-3.46-17.14-11.88-23.44c-8.69-6.49-25.31-4.22-28.86,3.51C3300.59,1273.38,3307.09,1284.31,3310.21,1284.05Z"/><path class="cls-63" d="M3052.64,1183.84s4.05-21.17,8.1-27.48,11.62-10.36,11.62-10.36,1.58,2.6-3.44,8.06-.84,6,0,7.75-1,8.07-4.57,10.32-5,14.53-5,14.53Z"/><path class="cls-64" d="M3064.35,1181.14l-13.06-2.25a206,206,0,0,1-46.28,58.24c-14.69,12.74-24.18,21-39.76,25.09-23,6.1-42.92-1.06-45.5,5.41-1.27,3.16,3.12,6.58,10.13,15,20.43,24.44,18.5,37.59,29.73,41.22,9.28,3,18.62-3.45,34.47-14.76,14.41-10.28,32.48-23.17,47.75-47.75C3062.31,1228.36,3064.36,1195.92,3064.35,1181.14Z"/><path class="cls-65" d="M2872.45,1270.26c-2.12.8-34.4,13.64-41,47.34-.54,2.72-5.72,31.67,13.91,52.12,22,22.94,64.41,22.37,81.24,3.2a34.51,34.51,0,0,0,7.15-13.59l-4.43-11.78c-5.41-6.54-12.78-8.08-16.71-9-9.7-2.39-17,1.93-22.58-2.75-3.07-2.59-3.68-6.31-4.22-9.64-1.86-11.33,4.53-18.3,5-25.29.35-5.23,2.18-16.67-4.64-24.14C2881.81,1272,2875.83,1270.67,2872.45,1270.26Z"/><path class="cls-66" d="M2859.87,1645.81c-.38-2.07-7.08-4-10.39-1.17-1.65,1.38-2.78,4.17-1.83,5.44.34.46-1.08,1.27.29,1.28C2852.45,1651.41,2860.24,1647.87,2859.87,1645.81Z"/><path class="cls-67" d="M2852.85,1646.57l-6.89-1c3.19-3.84,2.6-16.08,2.6-16.08l7.33,1.64s-.84,3.36-2.26,8.31A32.33,32.33,0,0,0,2852.85,1646.57Z"/><path class="cls-68" d="M2853.46,1645.72s-8.3-1.91-9.19-.27-1.6,6,3.67,5.91S2853.93,1647.11,2853.46,1645.72Z"/><path class="cls-69" d="M2954.41,1653.59c-.66-2-7.56-2.92-10.46.29-1.43,1.6-2.17,4.53-1,5.64.41.41-.88,1.41.47,1.24C2947.84,1660.18,2955.07,1655.58,2954.41,1653.59Z"/><path class="cls-70" d="M2947.56,1655.32h-7c2.63-4.25.33-16.29.33-16.29l7.48.6s-.35,3.44-1.07,8.55A33.14,33.14,0,0,0,2947.56,1655.32Z"/><path class="cls-71" d="M2965.6,1392.18a323,323,0,0,1,10.79,49.38c8.45,61.48-9.52,63.44-6.16,131.57,1.07,21.75-18.84,71.9-20.6,73a22,22,0,0,1-2.75.1,26.92,26.92,0,0,1-7-1.17c-3.16-.54-14.53-31.34-11.89-49.65,1.86-13,1.32-26.88.24-54.7-.18-4.51-11.71-87.7-11.71-87.7-3.51,30.79-7.54,57-11,77.24-11.24,65.18-47.78,104.63-49.69,105.26-.37.16-3.8,1.4-6.6-.45a4.58,4.58,0,0,1-1.68-1.88c-1-.77.29-65.07,11.44-113.47,16.17-70.25,9.13-86.68,14.25-118.06C2877.63,1374.51,2965.6,1392.18,2965.6,1392.18Z"/><path class="cls-72" d="M2900.25,1264.77c10.74-.31,35.43-4.1,49,8.13.23.21-2.55,1.7-1.18,3.31a88.77,88.77,0,0,1,9.6,13.78,92.3,92.3,0,0,1,8.07,20,171.08,171.08,0,0,1,6.37,34.83c2.48,32.68,0,47.77-2.22,58-9.71,5-34.73,13.91-64.55,9.48a101,101,0,0,1-32.18-10.6c7.74-23.42,1.67-36-1.19-47.51-4.08-16.48-4.15-15.23-7.51-28.32-5.55-21.59-6.46-43.65-2.65-48.17C2872.12,1265.5,2890.64,1265.06,2900.25,1264.77Z"/><path class="cls-73" d="M2948.05,1654.39s-8.48-.73-9.14,1-.73,6.21,4.46,5.34S2948.71,1655.71,2948.05,1654.39Z"/><path class="cls-74" d="M2922.82,1244.65c1.76-6.29-1.32-12.12-2-13.38-2.85-5.25-3.58-6-4.94-6.88l-1.89-1.17-.23-.08a21.86,21.86,0,0,0-6.18-.38c-2.68.57-5.52,11.47-4.71,26.87-.11.59-.22,1.18-.32,1.78-.42,2.43-.76,4.82-1,7.15a6,6,0,0,1-3.83,4.92c-14.21,5.37-14.18,1.08-15.65,5.7-.81,2.52,15.34,6.58,23.28,5.66,17.87.13,32.4-1.77,30.84-4.58-.69-1.25-14.54-4.87-18.43-8.45-3.57-3.29-3.28-6.68-3.57-9.1C2915.25,1252.15,2921.52,1249.28,2922.82,1244.65Z"/><path class="cls-75" d="M2919.53,1218.85c0,4.77-2.26,9.87-3.41,10.69a7.78,7.78,0,0,0-1.73,1.88,2.76,2.76,0,0,0-.27.57c-1,3,3.74,6.55,2.81,7.89-.67,1-3.92-.33-4.3.52s2.33,2.43,1.92,3.39c-.31.71-2,.06-3,1.16-.52.54-.37,1-.92,2.65a15.27,15.27,0,0,1-1.1,2.56c-1.64,2.81-6.32,3.83-7.22,2.71-.25-.32,0-.58-.29-1.63a8.08,8.08,0,0,0-.91-2.09c-1-1.61-3.3-2.76-5.65-4.45-4.36-3.14-5.55-5.82-5.9-6.72a7.76,7.76,0,0,1-.26-.74c-1.14-3.52-1.14-8.69.44-11.87,2.65-5.32,8.63-2.79,13.52-8.07,5.64-6.08,2.28-14.4,5.34-15.32C2912,1201,2919.56,1210,2919.53,1218.85Z"/><path class="cls-76" d="M2915.22,1238.76c-1.17-1.61-3.23-.1-3.24,2s2,4.25,4,3.83S2916.79,1240.92,2915.22,1238.76Z"/><path class="cls-77" d="M2876.62,1386.83h0a.3.3,0,0,1-.26-.33c1.27-11.43-1.09-19.73-3.18-27-.52-1.81-1-3.51-1.43-5.22-2.32-9.35-3.33-13-4.4-16.78-.7-2.49-1.43-5.06-2.55-9.37a.3.3,0,0,1,.21-.36.29.29,0,0,1,.36.21c1.12,4.3,1.85,6.87,2.55,9.36,1.07,3.83,2.09,7.44,4.4,16.8.43,1.7.91,3.39,1.42,5.19,2.11,7.38,4.49,15.74,3.21,27.29A.3.3,0,0,1,2876.62,1386.83Z"/><path class="cls-75" d="M2914.27,1235.28l2.71,3.53s2.93,4.33,4.64,2c1.39-1.94,1.75-1.9,1.84-1.81a0,0,0,0,1,0,0s-.2-1-.41-1.8a15.89,15.89,0,0,1,2.33,5c.58,2.2,1.21,4.55,0,6.82a6.8,6.8,0,0,1-4,3.12s-1,.22-5.24-.52c0,0,4.63-3.36,4.7-4.16.19-2.17-2.82-3.35-5.06-7.8A18.24,18.24,0,0,1,2914.27,1235.28Z"/><path class="cls-78" d="M2027.53,946.77c58.86,14.29,97.64,37.23,120.28,53.46,12.27,8.79,17.94,14.28,21,22.27,17.44,45.56-72.15,114.45-81.69,121.67L2074.61,1115c9.25-50.81,24.67-66.75,37.56-71.49,3.61-1.33,9.67-2.75,9.55-4.46-.28-4-34.31,1.72-66.82-10.18s-65-41.89-59.19-61.73C1996.77,963.51,2001.22,953,2027.53,946.77Z"/><path class="cls-79" d="M2084.61,1279.79s-5.48,2-5.5,6.28,5.55,23.43,11.6,30.21,6.59-3.34,6.22-9.86-2-21.1-3.46-23.93S2084.61,1279.79,2084.61,1279.79Z"/><path class="cls-80" d="M2102.2,1013.38c10.7-.21,35.76-2.2,42.43,10.18,5.57,10.34-4.19,26-10.18,35.64-16.31,26.2-32.13,28.88-43.28,45-4.31,6.23-8.22,14.93-9.47,27.36l-7.09-16.54c9.25-50.81,24.67-66.75,37.56-71.49,3.61-1.33,9.67-2.75,9.55-4.46-.28-4-34.31,1.72-66.82-10.18-29.56-10.82-59.15-36.7-59.76-56.23C2042,1006.21,2077.17,1013.87,2102.2,1013.38Z"/><path class="cls-81" d="M2081.44,1261.38c.33,6.67.89,12.26,1.4,16.4,1.13,9.18,2.17,12.81,3.6,16.11,1.24,2.88,4.34,9.17,5.83,8.73s-.05-7.4-1.22-26.77c-.17-2.81-.69-11.75-.69-11.75Z"/><path class="cls-82" d="M1993.59,950.59a264.75,264.75,0,0,1,68.73,59.4c15.11,18.53,38.1,46.72,46.42,88.76,4.43,22.41,2.25,42.51-2.3,81.8a820.93,820.93,0,0,1-16.05,92.47l-7.82,3.14a167.63,167.63,0,0,1-19.4-59.13c-5.36-42.5,10.54-56,2.91-86.16-6.61-26.11-25.77-42.12-64.09-74.14-31.48-26.32-60.5-41.93-71.28-74.74-1.83-5.58-3.38-12.41-.4-18.67C1936.74,949.83,1961.33,945.12,1993.59,950.59Z"/><path class="cls-83" d="M2143.73,602.37l16.64-7.08a4.57,4.57,0,0,1,6.15,2.87l13,42.64a4.56,4.56,0,0,1-2.58,5.53l-16.12,6.86a4.57,4.57,0,0,1-6.13-2.81L2141.17,608A4.57,4.57,0,0,1,2143.73,602.37Z"/><path class="cls-84" d="M2160,630c-2.31-8.13,2.17-15.18-2.35-23.48a20,20,0,0,0-5.06-6l-6.77,2.88a4.25,4.25,0,0,0-2.39,5.22l12.66,39.64a4.26,4.26,0,0,0,5.73,2.63l13.21-5.62C2165.14,640.26,2161.31,634.74,2160,630Z"/><path class="cls-85" d="M2179.85,653.71c-2-4.85-2.31-7.45-2.2-8.94,0-.19.08-1,.13-2,.08-1.74.07-3.09,0-4a55.89,55.89,0,0,0-.57-9.29c-.49-2.51-1.2-6.16-2.53-6.29-1.78-.17-4.4,4.91-5.52,9.66-1.45,6.18.38,8.63-1.39,12.93a15.8,15.8,0,0,1-7,7.42,6.39,6.39,0,0,0,2.72,1.25c1.37.26,2.16-.11,4.26.18a14.4,14.4,0,0,1,1.56.31C2170.88,655.28,2173.78,655.22,2179.85,653.71Z"/><path class="cls-86" d="M2180.57,651.79c-4.68,0-8.78,3.38-13.47,3.38-4.29,30.75-12,41.27-21.72,51-31.28,31.26-72.62,18.76-138.14,45.56a281.9,281.9,0,0,0-58,32.2c13.06,15.85,39.63,42.33,78.83,48.47,69.29,10.86,136.77-48.25,155.18-111.71C2192,690.6,2183.83,667,2180.57,651.79Z"/><path class="cls-87" d="M2085.17,796.87c4.54-4.71,5.2-9.14,15.42-23.19a76.77,76.77,0,0,1,9.56-10.73c26.16-24.73,47.91-19.22,66.11-38.2a54.92,54.92,0,0,0,9.24-13.11c-.65,3-1.37,6-2.26,9-18.41,63.46-85.89,122.57-155.18,111.71-20.33-3.19-37.23-11.85-50.65-21.66a117.11,117.11,0,0,1,36.34-10.86C2049.48,795.34,2072.53,810,2085.17,796.87Z"/><path class="cls-88" d="M1911.33,741c10.06,1.55,25.19,7.77,44.14,1.85,5.71-1.78,25.92-8.1,30.71-26.33,4.21-16-7.24-29.91-8.66-31.58-8.17-9.64-19-12.3-31-15.1-15.61-3.63-22.08-1.45-33.45-2.6-28.12-2.85-31.27-20.48-57.4-29.06-33.41-11-45.48,12.19-73.32,2.27-31.25-11.13-25.63-43.73-54.27-60.53-39.75-23.32-121.44-2.1-140.24,51.1-10.85,30.73-1.49,74.26,23.48,95.77,14.54,12.54,33.5,17.54,34.51,30.5.72,9.22-9.89,12.07-14.29,26-5.68,17.93,4.74,36,6.42,38.92,15.6,27.09,69.92,37.11,114.54,24.21C1833,823.17,1856.63,732.65,1911.33,741Z"/><path class="cls-89" d="M1902.16,747.94a711.92,711.92,0,0,1,77.22-7.5c62-2.63,60.38.14,71.86-2.6,10.59-2.52-5.79,29.69-12.73,59a157.19,157.19,0,0,0-1.44,63.71c2.49,14.26,6.79,25.35,15.4,47.52,15,38.52,23.05,46.67,18.2,57.81-7.07,16.24-33.18,19.37-37.77,19.83-23.26,2.31-30.17-10.51-50-9.76-23,.87-25.7,18.63-55.45,34.74-35.13,19-83.45,22.54-109.35,1-10-8.33-17.47-20.77-14.4-25.49,4.17-6.43,24.06,7.33,41.68-1.92,11.67-6.12,9.15-15.42,22.52-26.84,16.09-13.75,27.74-7.12,38.71-16.08,17.1-14,8.22-46,1.76-100A903.22,903.22,0,0,1,1902.16,747.94Z"/><path class="cls-90" d="M1902.16,747.94c-32.34,6.43-39,42.07-72,53.81-20,7.12-51.57,6.12-102.08-30.19L1710.63,783c12.15,37.54,33.22,56.48,43.34,64.28,57.82,44.52,152.59,28.82,197.42-23.38a124,124,0,0,0,24.22-44.69C1956.35,761.43,1929.35,742.53,1902.16,747.94Z"/><path class="cls-91" d="M1965.08,709.85s-2.14,22.3-10.19,27.62-21.34,5.49-22.75,7.33,42.51,16.94,68,3.13l10.58-7.9c-8.52.28-19.48,0-23.88-2.36a37.19,37.19,0,0,1-12.37-10.8l-.26-12.3Z"/><path class="cls-92" d="M1964.06,717.76s5.56,7.18,13.85,3.88c7.43-2.95,2.4-22.21-3.62-24.25a10.54,10.54,0,0,0-8,1.34c-1.68,1.12-6.1,6.94-3.29,13.24-1.91-.5-3.57,0-4,1-.5,1.21,1.16,2.78,1.53,3.14A6.4,6.4,0,0,0,1964.06,717.76Z"/><path class="cls-93" d="M1723.21,774.77l-4-5.6s11.88-28-1.6-30.21-8.76,4.59-6.78,7.88,1.33,15-.39,18.87,3.9,14.87,3.9,14.87Z"/><path class="cls-94" d="M1870.56,1001.85c7.29-6.73.1-16.73,8-26.85,7.22-9.25,17.12-5.85,31.51-12.37,17.3-7.84,29.12-24.59,33.64-38.35,3.23-9.82,2-15.75-9.19-61.92-10.64-44-13.39-54.69-19.33-55.28-10.81-1.08-15.28,33-35.69,36.09-11.53,1.71-14.64-8.5-30-11.8-26-5.59-40.41,18.8-66.87,21.91-6.77.79-15.2.25-25.3-3.61,43.41,31,105.76,29.92,152.88,6,6.06,45.4,12,73.06-3.57,85.76-11,9-22.62,2.33-38.71,16.08-13.37,11.42-10.85,20.72-22.52,26.84-17.62,9.25-37.51-4.51-41.68,1.92-2.78,4.28,3.13,14.88,11.71,23a46.23,46.23,0,0,1,13.49-5.51C1848.16,999.35,1862,1009.78,1870.56,1001.85Z"/></g></g></svg>