<svg width="1440" height="1534" viewBox="0 0 1440 1534" fill="none" xmlns="http://www.w3.org/2000/svg">
<g opacity="0.48">
<path d="M1284.22 642.597C1281.85 647.991 1283.51 656.797 1283.69 666.968C1283.85 676.705 1283.79 676.341 1283.67 687.05C1283.56 695.899 1281.62 704.672 1279.67 713.431C1278.99 716.488 1278.36 719.004 1277.92 720.717C1283.08 720.968 1288.24 721.219 1293.41 721.47C1293.12 718.652 1292.76 714.274 1292.66 708.908C1292.35 693.356 1294.62 691.708 1293.41 683.031C1291.62 670.269 1293.8 648.104 1291.41 644.591C1290.18 642.789 1285.95 642.675 1284.22 642.597Z" fill="url(#paint0_linear)"/>
<path d="M1288.66 542C1281.95 542.095 1277.28 555.835 1272.01 571.814C1258.83 611.796 1252.1 632.194 1266.35 644.172C1272.77 649.567 1282.99 649.545 1289.33 649.532C1295.88 649.518 1304.67 649.499 1310.64 644.842C1327.73 631.508 1312.04 587.671 1305.64 569.805C1300.73 556.093 1295.52 541.904 1288.66 542Z" fill="url(#paint1_linear)"/>
<path d="M1350.54 644.996C1348.17 650.39 1351.92 656.797 1352.1 666.968C1352.27 676.705 1352.2 676.341 1352.08 687.05C1351.98 695.899 1350.03 704.672 1348.08 713.431C1347.4 716.488 1346.77 719.004 1346.33 720.717C1351.49 720.968 1363.48 721.219 1368.65 721.471C1368.36 718.652 1366.67 713.189 1366.56 707.823C1366.26 692.271 1363.03 691.708 1361.82 683.031C1360.03 670.269 1362.21 648.104 1359.82 644.591C1358.59 642.789 1352.27 645.074 1350.54 644.996Z" fill="url(#paint2_linear)"/>
<path d="M1357.07 542C1350.36 542.095 1345.69 555.835 1340.42 571.814C1331.47 598.969 1320.51 632.194 1334.76 644.172C1341.18 649.567 1351.4 649.545 1357.74 649.532C1364.29 649.518 1373.08 649.499 1379.05 644.842C1396.14 631.508 1380.72 588.44 1374.05 569.805C1369.15 556.093 1363.93 541.904 1357.07 542Z" fill="url(#paint3_linear)"/>
<path d="M1325.61 721.47L1374.07 722C1374.07 722 1382.44 715.801 1387.05 707.132C1390.84 699.994 1392.08 691.18 1383.98 682.772C1376.4 678.283 1371.1 691.482 1371.1 691.482C1371.1 691.482 1374.55 670.322 1363.72 667.389C1352.9 664.456 1349.36 677.497 1349.36 677.497C1349.36 677.497 1344.13 668.882 1332.9 675.042C1321.68 681.201 1331.65 691.482 1331.65 691.482C1331.65 691.482 1319.67 681.552 1310.58 690.271C1301.49 698.99 1310.58 709.918 1310.58 709.918C1310.58 709.918 1298.51 712.563 1306.54 721.716L1325.61 721.47Z" fill="#D8D0FF"/>
<path d="M1387.05 707.132C1382.44 715.801 1374.07 722 1374.07 722H1385.51C1387.18 719.339 1390.27 712.957 1389.26 708.719C1389.06 707.885 1388.26 707.382 1387.05 707.132Z" fill="#D8D0FF"/>
<path d="M1263.14 722L1318.23 721.502C1326.84 712.111 1328.67 702.503 1325.45 699.295C1322.89 696.738 1316.73 697.84 1310.88 700.691C1314.65 695.031 1314.55 688.182 1311.02 684.071C1308.49 681.14 1303.58 678.855 1299.49 680.579C1296 682.054 1294.61 685.825 1294.49 686.166C1293.25 689.718 1294.24 692.922 1293.8 693.009C1293.27 693.115 1292.87 688.142 1289.5 683.791C1288.28 682.226 1285.61 678.783 1281.44 678.484C1277.51 678.201 1272.32 680.717 1271.59 685.328C1270.86 689.896 1275.02 693.292 1275.2 693.428C1274.82 692.962 1272.16 689.822 1268.12 689.937C1263.71 690.062 1259.77 693.986 1260.06 696.92C1260.41 700.358 1266.54 702.169 1266.17 703.066C1265.87 703.802 1262.06 701.787 1257.7 702.926C1256.76 703.172 1252.02 704.552 1250.48 709.071C1249.54 711.853 1249.94 715.452 1252.01 717.591C1255.05 720.729 1263.14 722 1263.14 722Z" fill="#B5A7F8"/>
</g>
<path fill-rule="evenodd" clip-rule="evenodd" d="M1617.29 1311.2C1362.47 794.381 1333.18 598.157 994.949 516.388C656.716 434.62 690.14 557.355 383.559 439.336C76.9782 321.317 426.039 -8.10268 501.581 -240.106C577.124 -472.11 302.803 -671.781 302.803 -671.781L-149.551 323.512C-149.551 323.512 2.01428 607.519 206.729 662.372C410.87 717.071 815.61 620.67 962.325 638.14C1302.63 678.663 1489.62 1276.99 1489.62 1276.99C1489.62 1276.99 1872.11 1828.02 1617.29 1311.2Z" fill="url(#paint4_linear)"/>
<path d="M1491.42 1308.9C1381.7 1082.45 1289.29 775.703 1065.38 695.139C841.473 614.574 556.004 793.02 174.827 705.76C-206.35 618.499 -355.271 342.226 -355.271 342.226" stroke="#0091FF"/>
<path d="M1489.61 1315.66C1379.88 1089.22 1287.48 782.465 1063.57 701.9C839.662 621.336 554.192 799.781 173.015 712.521C-208.162 625.261 -357.083 348.987 -357.083 348.987" stroke="#32C5FF" stroke-width="2"/>
<defs>
<linearGradient id="paint0_linear" x1="1285.84" y1="642.597" x2="1285.84" y2="721.47" gradientUnits="userSpaceOnUse">
<stop stop-color="#512BEF"/>
<stop offset="1" stop-color="#512BEF" stop-opacity="0"/>
</linearGradient>
<linearGradient id="paint1_linear" x1="1288.37" y1="542" x2="1288.37" y2="649.533" gradientUnits="userSpaceOnUse">
<stop stop-color="#512BEF"/>
<stop offset="1" stop-color="#512BEF" stop-opacity="0"/>
</linearGradient>
<linearGradient id="paint2_linear" x1="1357.49" y1="643.897" x2="1357.49" y2="721.471" gradientUnits="userSpaceOnUse">
<stop stop-color="#B5A8F8"/>
<stop offset="1" stop-color="#B5A8F8" stop-opacity="0"/>
</linearGradient>
<linearGradient id="paint3_linear" x1="1357.36" y1="542" x2="1357.36" y2="649.533" gradientUnits="userSpaceOnUse">
<stop stop-color="#B5A8F8"/>
<stop offset="1" stop-color="#B5A8F8" stop-opacity="0"/>
</linearGradient>
<linearGradient id="paint4_linear" x1="13.4999" y1="-150.5" x2="1480.5" y2="951.977" gradientUnits="userSpaceOnUse">
<stop stop-color="#3C11EE"/>
<stop offset="0.39855" stop-color="#B3A5F7"/>
<stop offset="0.881733" stop-color="#F5F8FC"/>
</linearGradient>
</defs>
</svg>
