<svg width="1440" height="1792" viewBox="0 0 1440 1792" fill="none" xmlns="http://www.w3.org/2000/svg">
<path fill-rule="evenodd" clip-rule="evenodd" d="M1613.14 1575.2C1233.24 1141.94 1154.16 959.985 806.289 968.544C458.418 977.102 522.469 1087 195.789 1052.36C-130.891 1017.71 121.016 609.169 133.938 365.519C146.859 121.869 -169.793 0.000610352 -169.793 0.000610352L-349.133 1078.46C-349.133 1078.46 -129.226 1313.56 82.7111 1313.56C294.053 1313.56 660.051 1115.69 806.289 1094.59C1145.48 1045.66 1480.96 1575.2 1480.96 1575.2C1480.96 1575.2 1993.04 2008.46 1613.14 1575.2Z" fill="url(#paint0_linear)"/>
<path d="M1490.96 1605.55C1326.37 1415.22 1157.72 1142.84 920.587 1122.97C683.456 1103.11 453.899 1349.36 63.1251 1363.73C-327.648 1378.09 -543 1149.78 -543 1149.78" stroke="#0091FF"/>
<path d="M1490.96 1612.55C1326.37 1422.22 1157.72 1149.84 920.587 1129.97C683.456 1110.11 453.899 1356.36 63.1251 1370.73C-327.648 1385.09 -543 1156.78 -543 1156.78" stroke="#32C5FF" stroke-width="2"/>
<defs>
<linearGradient id="paint0_linear" x1="793.716" y1="529.067" x2="677.879" y2="1458.29" gradientUnits="userSpaceOnUse">
<stop stop-color="#3C11EE"/>
<stop offset="0.466774" stop-color="#B3A5F7"/>
<stop offset="1" stop-color="#F5F8FC"/>
</linearGradient>
</defs>
</svg>
