<svg xmlns="http://www.w3.org/2000/svg" width="120" height="100" viewBox="0 0 120 100">
    <g fill="none" fill-rule="nonzero">
        <path fill="#D3FFEE" d="M31.24 76C42.48 72 63.477 53 82 53c18.523 0 26.93-25 11.283-39C80.4 2.473 56.441 9.89 42 15 29.65 19.37 5.073 20.889 4.11 47 2.892 80 20 80 31.24 76zM81.085 78.085c24.4-6.265 15.471-10.753 1.979-13.706-13.493-2.952-26.379 19.972-1.98 13.706z"/>
        <g fill="#4B5AB8">
            <path d="M29 29v55h84V29H29zm-1-2h86a1 1 0 0 1 1 1v57a1 1 0 0 1-1 1H28a1 1 0 0 1-1-1V28a1 1 0 0 1 1-1z"/>
            <path d="M8 65v1a1 1 0 0 0-1-1h1zm0 0V10h39v18h2V9a1 1 0 0 0-1-1H7a1 1 0 0 0-1 1v57a1 1 0 0 0 1 1h21v-2H8zm39-55V9a1 1 0 0 0 1 1h-1zm0 0v18h2V9a1 1 0 0 0-1-1H7a1 1 0 0 0-1 1v57a1 1 0 0 0 1 1h21v-2H8V10h39zM8 10H7a1 1 0 0 0 1-1v1z"/>
            <path d="M12.5 56.5a1 1 0 0 1 0-2H28a1 1 0 0 1 0 2H12.5zM12.5 46.5a1 1 0 0 1 0-2H28a1 1 0 0 1 0 2H12.5zM12.5 36.5a1 1 0 0 1 0-2H28a1 1 0 0 1 0 2H12.5zM12.5 26.5a1 1 0 0 1 0-2H35a1 1 0 0 1 0 2H12.5zM12.5 16.5a1 1 0 1 1 0-2H41a1 1 0 0 1 0 2H12.5zM56 19v8h32v-8H56zm-1-2h34a1 1 0 0 1 1 1v10a1 1 0 0 1-1 1H55a1 1 0 0 1-1-1V18a1 1 0 0 1 1-1z"/>
            <path d="M62 57v2H34l-7-31h88l-7 31H82v-2h24.39l6.125-28h-83.03l6.125 28H62z"/>
            <path d="M64 54v8h16v-8H64zm-1-2h18a1 1 0 0 1 1 1v10a1 1 0 0 1-1 1H63a1 1 0 0 1-1-1V53a1 1 0 0 1 1-1z"/>
        </g>
    </g>
</svg>
