<svg class="single-step__number-decor single-step__number-decor--three d-none position-absolute" xmlns="http://www.w3.org/2000/svg" viewBox="0 0 114 110"><title>Decor</title><path d="M13.85,14.82a13.45,13.45,0,0,0-9.53,23l67.86,67.7a13.11,13.11,0,0,0,9.44,4,13.88,13.88,0,0,0,9.39-3.7A13.23,13.23,0,0,0,95.21,96V28.27A13.49,13.49,0,0,0,81.73,14.82Zm0-.29H81.73A13.76,13.76,0,0,1,95.51,28.27h0V96a13.76,13.76,0,0,1-13.75,13.77h-.13A13.54,13.54,0,0,1,72,105.71L4.11,38a13.74,13.74,0,0,1,9.74-23.46Z" style="fill: #5ad9ac;stroke: #5ad9ac;stroke-miterlimit: 10;stroke-width: 0.25px"/><path d="M15.74,11.46A13.87,13.87,0,0,0,7.11,35.63l73.82,66a13.6,13.6,0,0,0,10,3.58,14.46,14.46,0,0,0,9.51-4.33,13.59,13.59,0,0,0,3.8-10.3L100.59,20.9A13.94,13.94,0,0,0,85.89,7.79L15.73,11.47Zm0-.28L85.88,7.5a14.21,14.21,0,0,1,15,13.37v0l3.65,69.68A14.18,14.18,0,0,1,91.1,105.49h-.17a14,14,0,0,1-10.18-3.64l-73.82-66c-9.43-8.44-3.88-24,8.8-24.67Z" style="fill: #5ad9ac;stroke: #5ad9ac;stroke-miterlimit: 10;stroke-width: 0.25px"/><path d="M17.58,8.36A14.2,14.2,0,0,0,5.2,18.61,14,14,0,0,0,10,33.71L89.71,97.57a14.15,14.15,0,0,0,10.5,3.13,15,15,0,0,0,9.61-5,14,14,0,0,0,3.38-10.81l-7.51-71.46A14.4,14.4,0,0,0,89.82.76L17.59,8.36Zm0-.29L89.78.48a14.66,14.66,0,0,1,16.18,13v0L113.47,85a14.65,14.65,0,0,1-13.11,16h-.12a14.51,14.51,0,0,1-10.71-3.21L9.79,33.92C-.41,25.75,4.49,9.44,17.55,8.07Z" style="fill: #5ad9ac;stroke: #5ad9ac;stroke-miterlimit: 10;stroke-width: 0.25px"/></svg>