<svg class="single-step__number-decor single-step__number-decor--one d-none position-absolute" xmlns="http://www.w3.org/2000/svg" viewBox="0 0 132 102"><title>Decor</title><path d="M126.86,22.11a13.45,13.45,0,0,0-13.36-21L19.12,17.88a13.11,13.11,0,0,0-8.67,5.45,13.91,13.91,0,0,0-2.36,9.82,13.23,13.23,0,0,0,5.6,9L69.17,81a13.49,13.49,0,0,0,18.75-3.31l38.94-55.61Zm.23.16L88.16,77.88A13.77,13.77,0,0,1,69,81.28L13.53,42.44a13.74,13.74,0,0,1-3.41-19.13l.09-.13a13.48,13.48,0,0,1,8.85-5.57L113.46.84a13.74,13.74,0,0,1,13.63,21.43Z" style="fill: #5ad9ac;stroke: #5ad9ac;stroke-miterlimit: 10;stroke-width: 0.25px"/><path d="M127.44,31.76A13.87,13.87,0,0,0,114.86,9.39L16.61,21.79A13.67,13.67,0,0,0,7.36,27a14.52,14.52,0,0,0-3,10,13.62,13.62,0,0,0,5.27,9.63l55,43a13.94,13.94,0,0,0,19.53-2.47l43.26-55.37Zm.22.16L84.41,87.29a14.19,14.19,0,0,1-19.92,2.52h0l-55-43A14.21,14.21,0,0,1,7.08,26.86l.06-.07a14,14,0,0,1,9.43-5.29L114.82,9.1c12.56-1.58,20.67,12.82,12.85,22.83Z" style="fill: #5ad9ac;stroke: #5ad9ac;stroke-miterlimit: 10;stroke-width: 0.25px"/><path d="M127.75,42.67a14.21,14.21,0,0,0,2.34-15.9,14,14,0,0,0-13.65-8l-102,5.9a14.12,14.12,0,0,0-9.9,4.69A14.94,14.94,0,0,0,.74,39.45,14,14,0,0,0,5.46,49.74l53.4,48.09a14.39,14.39,0,0,0,20.29-1.18l48.6-54Zm.21.2-48.59,54A14.66,14.66,0,0,1,58.67,98L5.27,50a14.74,14.74,0,0,1,9.18-25.59l102-5.9c13-.75,20.31,14.64,11.53,24.4Z" style="fill: #5ad9ac;stroke: #5ad9ac;stroke-miterlimit: 10;stroke-width: 0.25px"/></svg>