<svg width="48" height="48" viewBox="0 0 24 24" fill="none" xmlns="http://www.w3.org/2000/svg" data-reactroot="">
<path fill="#7D55FF" d="M11.7201 3C11.5492 3 11.3742 3.00854 11.17 3.01875C11.1534 3.01958 11.1367 3.02 11.1201 3.02C10.9807 3.02 10.8417 3.03377 10.6448 3.05451C10.61 3.05817 10.575 3.06 10.5401 3.06H10.5359C10.3914 3.07671 10.2404 3.10024 10.066 3.12776C10.0473 3.13072 10.0285 3.13315 10.0096 3.13504C9.87737 3.14826 9.7495 3.17386 9.55361 3.21309C9.5422 3.21538 9.53056 3.21771 9.51867 3.22009C9.16539 3.29264 8.8196 3.38356 8.47121 3.49358L8.44814 3.50056C8.10364 3.60029 7.7775 3.71546 7.46622 3.85381C7.45667 3.85806 7.44705 3.86215 7.43738 3.86609C6.94436 4.06695 6.47816 4.30086 6.04472 4.57508L6.02549 4.58694C4.76014 5.34799 3.66343 6.35448 2.81549 7.54888C2.49579 7.99922 1.87154 8.10512 1.4212 7.78541C0.97086 7.46571 0.864961 6.84146 1.18467 6.39112C2.19456 4.96858 3.49443 3.77713 4.98506 2.87884C5.52428 2.53859 6.08989 2.25631 6.66843 2.01977C7.06863 1.8428 7.47372 1.70099 7.88041 1.5828C8.28748 1.45466 8.6972 1.34695 9.11914 1.2604L9.12396 1.25941C9.14101 1.256 9.15861 1.25246 9.1767 1.24882C9.34475 1.21495 9.55605 1.17237 9.78008 1.14814C9.95969 1.11978 10.1655 1.08759 10.3754 1.06549C10.4102 1.06183 10.4451 1.06 10.4801 1.06H10.4875C10.6564 1.0423 10.8669 1.02163 11.0933 1.02009C11.2836 1.01058 11.4999 1 11.7201 1H11.7401C12.0552 1 12.3946 1.01024 12.7328 1.04331C13.051 1.0649 13.3592 1.09696 13.6667 1.13938C13.6866 1.14213 13.7065 1.14548 13.7262 1.14942L13.8581 1.1758C14.1695 1.22642 14.4913 1.28833 14.8192 1.37131C14.9353 1.39313 15.0393 1.42471 15.0743 1.43534C15.0792 1.43682 15.0828 1.43789 15.0848 1.43848C15.6158 1.5902 15.9233 2.14369 15.7716 2.67472C15.6199 3.20576 15.0664 3.51325 14.5354 3.36152C14.5139 3.35539 14.4906 3.34851 14.4784 3.34495C14.4654 3.34114 14.4578 3.33896 14.4524 3.33749C14.4214 3.33254 14.3906 3.32613 14.3602 3.31828C14.0888 3.24823 13.8107 3.19399 13.5208 3.14724C13.5085 3.14525 13.4962 3.14303 13.484 3.14058L13.3641 3.11662C13.1067 3.08176 12.8495 3.05551 12.5836 3.03779C12.5726 3.03705 12.5616 3.03613 12.5506 3.03504C12.2944 3.00942 12.0197 3 11.7401 3H11.7201Z" clip-rule="evenodd" fill-rule="evenodd" undefined="0" transform="translate(2,2)"></path><path fill="#C4B6FF" d="M11.7201 3C11.5492 3 11.3742 3.00854 11.17 3.01875C11.1534 3.01958 11.1367 3.02 11.1201 3.02C10.9807 3.02 10.8417 3.03377 10.6448 3.05451C10.61 3.05817 10.575 3.06 10.5401 3.06H10.5359C10.3914 3.07671 10.2404 3.10024 10.066 3.12776C10.0473 3.13072 10.0285 3.13315 10.0096 3.13504C9.87737 3.14826 9.7495 3.17386 9.55361 3.21309C9.5422 3.21538 9.53056 3.21771 9.51867 3.22009C9.16539 3.29264 8.8196 3.38356 8.47121 3.49358L8.44814 3.50056C8.10364 3.60029 7.7775 3.71546 7.46622 3.85381C7.45667 3.85806 7.44705 3.86215 7.43738 3.86609C6.94436 4.06695 6.47816 4.30086 6.04472 4.57508L6.02549 4.58694C4.76014 5.34799 3.66343 6.35448 2.81549 7.54888C2.49579 7.99922 1.87154 8.10512 1.4212 7.78541C0.97086 7.46571 0.864961 6.84146 1.18467 6.39112C2.19456 4.96858 3.49443 3.77713 4.98506 2.87884C5.52428 2.53859 6.08989 2.25631 6.66843 2.01977C7.06863 1.8428 7.47372 1.70099 7.88041 1.5828C8.28748 1.45466 8.6972 1.34695 9.11914 1.2604L9.12396 1.25941C9.14101 1.256 9.15861 1.25246 9.1767 1.24882C9.34475 1.21495 9.55605 1.17237 9.78008 1.14814C9.95969 1.11978 10.1655 1.08759 10.3754 1.06549C10.4102 1.06183 10.4451 1.06 10.4801 1.06H10.4875C10.6564 1.0423 10.8669 1.02163 11.0933 1.02009C11.2836 1.01058 11.4999 1 11.7201 1H11.7401C12.0552 1 12.3946 1.01024 12.7328 1.04331C13.051 1.0649 13.3592 1.09696 13.6667 1.13938C13.6866 1.14213 13.7065 1.14548 13.7262 1.14942L13.8581 1.1758C14.1695 1.22642 14.4913 1.28833 14.8192 1.37131C14.9353 1.39313 15.0393 1.42471 15.0743 1.43534C15.0792 1.43682 15.0828 1.43789 15.0848 1.43848C15.6158 1.5902 15.9233 2.14369 15.7716 2.67472C15.6199 3.20576 15.0664 3.51325 14.5354 3.36152C14.5139 3.35539 14.4906 3.34851 14.4784 3.34495C14.4654 3.34114 14.4578 3.33896 14.4524 3.33749C14.4214 3.33254 14.3906 3.32613 14.3602 3.31828C14.0888 3.24823 13.8107 3.19399 13.5208 3.14724C13.5085 3.14525 13.4962 3.14303 13.484 3.14058L13.3641 3.11662C13.1067 3.08176 12.8495 3.05551 12.5836 3.03779C12.5726 3.03705 12.5616 3.03613 12.5506 3.03504C12.2944 3.00942 12.0197 3 11.7401 3H11.7201Z" clip-rule="evenodd" fill-rule="evenodd" undefined="1"></path>
<path fill="#7D55FF" d="M17.6422 3.50908C17.9519 3.05183 18.5737 2.93226 19.0309 3.24201C19.3483 3.45702 19.6524 3.6887 19.9331 3.90384C20.0054 3.95076 20.0619 4.00004 20.1022 4.0403C20.1117 4.04987 20.1209 4.05944 20.1298 4.06899C20.9105 4.73519 21.6088 5.49141 22.2243 6.33561C22.4628 6.65414 22.6717 6.98571 22.8576 7.29543C23.1417 7.76901 22.9881 8.38327 22.5146 8.66742C22.041 8.95156 21.4267 8.798 21.1426 8.32442C20.9695 8.03598 20.7999 7.76966 20.6201 7.52992L20.6117 7.51875C20.0683 6.77267 19.4535 6.11236 18.7669 5.53563C18.7513 5.52257 18.7362 5.50906 18.7215 5.49512C18.437 5.2771 18.1753 5.07807 17.9092 4.89784C17.452 4.58809 17.3324 3.96632 17.6422 3.50908Z" clip-rule="evenodd" fill-rule="evenodd" undefined="0" transform="translate(2,2)"></path><path fill="#C4B6FF" d="M17.6422 3.50908C17.9519 3.05183 18.5737 2.93226 19.0309 3.24201C19.3483 3.45702 19.6524 3.6887 19.9331 3.90384C20.0054 3.95076 20.0619 4.00004 20.1022 4.0403C20.1117 4.04987 20.1209 4.05944 20.1298 4.06899C20.9105 4.73519 21.6088 5.49141 22.2243 6.33561C22.4628 6.65414 22.6717 6.98571 22.8576 7.29543C23.1417 7.76901 22.9881 8.38327 22.5146 8.66742C22.041 8.95156 21.4267 8.798 21.1426 8.32442C20.9695 8.03598 20.7999 7.76966 20.6201 7.52992L20.6117 7.51875C20.0683 6.77267 19.4535 6.11236 18.7669 5.53563C18.7513 5.52257 18.7362 5.50906 18.7215 5.49512C18.437 5.2771 18.1753 5.07807 17.9092 4.89784C17.452 4.58809 17.3324 3.96632 17.6422 3.50908Z" clip-rule="evenodd" fill-rule="evenodd" undefined="1"></path>
<path fill="#7D55FF" d="M11.71 6C11.4735 6 11.2562 6.00924 11.0592 6.03288C10.5108 6.09868 10.013 5.7075 9.94716 5.15915C9.88136 4.61079 10.2725 4.11293 10.8209 4.04712C11.1239 4.01076 11.4266 4 11.71 4C12.2377 4 12.7476 4.04499 13.2574 4.12091L13.2643 4.12194C15.8982 4.53314 18.222 5.95757 19.797 8.10936L19.7986 8.11152C21.0749 9.86516 21.7311 11.9335 21.72 14.0652C21.7172 14.6175 21.2671 15.0629 20.7148 15.06C20.1626 15.0571 19.7172 14.6071 19.7201 14.0548C19.7289 12.347 19.2054 10.6957 18.1823 9.28955C16.918 7.56289 15.0635 6.42801 12.9592 6.09857C12.5302 6.03482 12.1213 6 11.71 6Z" clip-rule="evenodd" fill-rule="evenodd" undefined="0" transform="translate(2,2)"></path><path fill="#C4B6FF" d="M11.71 6C11.4735 6 11.2562 6.00924 11.0592 6.03288C10.5108 6.09868 10.013 5.7075 9.94716 5.15915C9.88136 4.61079 10.2725 4.11293 10.8209 4.04712C11.1239 4.01076 11.4266 4 11.71 4C12.2377 4 12.7476 4.04499 13.2574 4.12091L13.2643 4.12194C15.8982 4.53314 18.222 5.95757 19.797 8.10936L19.7986 8.11152C21.0749 9.86516 21.7311 11.9335 21.72 14.0652C21.7172 14.6175 21.2671 15.0629 20.7148 15.06C20.1626 15.0571 19.7172 14.6071 19.7201 14.0548C19.7289 12.347 19.2054 10.6957 18.1823 9.28955C16.918 7.56289 15.0635 6.42801 12.9592 6.09857C12.5302 6.03482 12.1213 6 11.71 6Z" clip-rule="evenodd" fill-rule="evenodd" undefined="1"></path>
<path fill="#7D55FF" d="M20.2613 17.1098C20.7862 17.2817 21.0722 17.8466 20.9003 18.3714C20.5002 19.5927 19.889 21.0481 18.9694 22.5279C18.6779 22.997 18.0613 23.1409 17.5922 22.8494C17.1231 22.5579 16.9791 21.9414 17.2707 21.4723C18.0911 20.1521 18.6398 18.8474 18.9997 17.7488C19.1716 17.2239 19.7365 16.9378 20.2613 17.1098Z" clip-rule="evenodd" fill-rule="evenodd" undefined="0" transform="translate(2,2)"></path><path fill="#C4B6FF" d="M20.2613 17.1098C20.7862 17.2817 21.0722 17.8466 20.9003 18.3714C20.5002 19.5927 19.889 21.0481 18.9694 22.5279C18.6779 22.997 18.0613 23.1409 17.5922 22.8494C17.1231 22.5579 16.9791 21.9414 17.2707 21.4723C18.0911 20.1521 18.6398 18.8474 18.9997 17.7488C19.1716 17.2239 19.7365 16.9378 20.2613 17.1098Z" clip-rule="evenodd" fill-rule="evenodd" undefined="1"></path>
<path fill="#7D55FF" d="M7.98366 5.7458C8.26207 6.22278 8.10111 6.83514 7.62413 7.11356C5.66707 8.25591 4.2537 10.224 3.83488 12.6033C3.73913 13.1472 3.22058 13.5105 2.67666 13.4148C2.13273 13.319 1.76942 12.8005 1.86516 12.2566C2.38634 9.29584 4.15297 6.82393 6.61591 5.38628C7.09288 5.10787 7.70524 5.26883 7.98366 5.7458Z" clip-rule="evenodd" fill-rule="evenodd" undefined="0" transform="translate(2,2)"></path><path fill="#C4B6FF" d="M7.98366 5.7458C8.26207 6.22278 8.10111 6.83514 7.62413 7.11356C5.66707 8.25591 4.2537 10.224 3.83488 12.6033C3.73913 13.1472 3.22058 13.5105 2.67666 13.4148C2.13273 13.319 1.76942 12.8005 1.86516 12.2566C2.38634 9.29584 4.15297 6.82393 6.61591 5.38628C7.09288 5.10787 7.70524 5.26883 7.98366 5.7458Z" clip-rule="evenodd" fill-rule="evenodd" undefined="1"></path>
<path fill="#7D55FF" d="M17.5414 12.2882C18.0891 12.2172 18.5907 12.6036 18.6617 13.1513C18.7443 13.7887 18.7323 14.4455 18.6273 15.0886C18.4327 16.319 17.7094 19.6037 15.2231 22.6342C14.8728 23.0611 14.2427 23.1233 13.8157 22.773C13.3887 22.4227 13.3266 21.7926 13.6769 21.3656C15.8488 18.7184 16.4862 15.8256 16.6522 14.7739L16.6531 14.7684C16.7277 14.3124 16.7355 13.8501 16.6783 13.4085C16.6073 12.8607 16.9937 12.3592 17.5414 12.2882Z" clip-rule="evenodd" fill-rule="evenodd" undefined="0" transform="translate(2,2)"></path><path fill="#C4B6FF" d="M17.5414 12.2882C18.0891 12.2172 18.5907 12.6036 18.6617 13.1513C18.7443 13.7887 18.7323 14.4455 18.6273 15.0886C18.4327 16.319 17.7094 19.6037 15.2231 22.6342C14.8728 23.0611 14.2427 23.1233 13.8157 22.773C13.3887 22.4227 13.3266 21.7926 13.6769 21.3656C15.8488 18.7184 16.4862 15.8256 16.6522 14.7739L16.6531 14.7684C16.7277 14.3124 16.7355 13.8501 16.6783 13.4085C16.6073 12.8607 16.9937 12.3592 17.5414 12.2882Z" clip-rule="evenodd" fill-rule="evenodd" undefined="1"></path>
<path fill="#7D55FF" d="M5.01392 11.9868C5.88175 9.04987 8.56751 7 11.71 7C12.0582 7 12.4333 7.02213 12.7991 7.08272C14.2197 7.30504 15.5047 7.94756 16.5203 8.91646C16.9199 9.29769 16.9348 9.93068 16.5536 10.3303C16.1724 10.7299 15.5394 10.7448 15.1398 10.3635C14.4166 9.67362 13.5035 9.21652 12.4862 9.05809L12.4756 9.05645C12.2432 9.01771 11.9802 9 11.71 9C9.45665 9 7.5453 10.4648 6.92953 12.5618L6.92247 12.5848C6.86074 12.7777 6.81331 12.9808 6.78097 13.195C6.77971 13.2044 6.77856 13.2121 6.77778 13.2172C6.77551 13.2319 6.77315 13.2455 6.77117 13.2564C6.76705 13.279 6.76196 13.3044 6.75603 13.3317C6.74407 13.3869 6.727 13.4576 6.70379 13.5401C6.65762 13.7043 6.58447 13.9247 6.47343 14.1679C6.25802 14.6396 5.86042 15.2824 5.15589 15.7067C4.68276 15.9916 4.06826 15.839 3.78336 15.3659C3.49847 14.8927 3.65106 14.2782 4.12419 13.9933C4.34966 13.8576 4.52707 13.6154 4.65415 13.3371C4.71436 13.2053 4.75434 13.0845 4.77848 12.9986C4.79042 12.9562 4.79782 12.9247 4.80152 12.9076C4.80174 12.9066 4.80194 12.9056 4.80213 12.9048C4.84916 12.5904 4.91949 12.2841 5.01392 11.9868Z" clip-rule="evenodd" fill-rule="evenodd" undefined="0" transform="translate(2,2)"></path><path fill="#C4B6FF" d="M5.01392 11.9868C5.88175 9.04987 8.56751 7 11.71 7C12.0582 7 12.4333 7.02213 12.7991 7.08272C14.2197 7.30504 15.5047 7.94756 16.5203 8.91646C16.9199 9.29769 16.9348 9.93068 16.5536 10.3303C16.1724 10.7299 15.5394 10.7448 15.1398 10.3635C14.4166 9.67362 13.5035 9.21652 12.4862 9.05809L12.4756 9.05645C12.2432 9.01771 11.9802 9 11.71 9C9.45665 9 7.5453 10.4648 6.92953 12.5618L6.92247 12.5848C6.86074 12.7777 6.81331 12.9808 6.78097 13.195C6.77971 13.2044 6.77856 13.2121 6.77778 13.2172C6.77551 13.2319 6.77315 13.2455 6.77117 13.2564C6.76705 13.279 6.76196 13.3044 6.75603 13.3317C6.74407 13.3869 6.727 13.4576 6.70379 13.5401C6.65762 13.7043 6.58447 13.9247 6.47343 14.1679C6.25802 14.6396 5.86042 15.2824 5.15589 15.7067C4.68276 15.9916 4.06826 15.839 3.78336 15.3659C3.49847 14.8927 3.65106 14.2782 4.12419 13.9933C4.34966 13.8576 4.52707 13.6154 4.65415 13.3371C4.71436 13.2053 4.75434 13.0845 4.77848 12.9986C4.79042 12.9562 4.79782 12.9247 4.80152 12.9076C4.80174 12.9066 4.80194 12.9056 4.80213 12.9048C4.84916 12.5904 4.91949 12.2841 5.01392 11.9868Z" clip-rule="evenodd" fill-rule="evenodd" undefined="1"></path>
<path fill="#7D55FF" d="M9.73802 13.6947C9.6876 14.0201 9.19554 16.7899 6.67977 18.2802C6.20461 18.5617 5.59121 18.4047 5.30972 17.9296C5.02823 17.4544 5.18523 16.841 5.66039 16.5595C7.35725 15.5543 7.7297 13.5959 7.76171 13.3878L7.7624 13.3833C8.10807 11.203 10.1454 9.7062 12.3342 10.0518C14.5161 10.3879 16.0005 12.4435 15.6687 14.6206L15.6672 14.6302C15.4624 15.891 14.5486 20.0163 10.6972 22.8094C10.2501 23.1337 9.62478 23.0341 9.30055 22.587C8.97631 22.1399 9.07591 21.5146 9.523 21.1904C12.7265 18.8671 13.5153 15.3997 13.6922 14.3147C13.8575 13.2143 13.1037 12.1932 12.0285 12.0283L12.0235 12.0276C10.9338 11.8548 9.91302 12.5969 9.73802 13.6947Z" clip-rule="evenodd" fill-rule="evenodd" undefined="0" transform="translate(2,2)"></path><path fill="#C4B6FF" d="M9.73802 13.6947C9.6876 14.0201 9.19554 16.7899 6.67977 18.2802C6.20461 18.5617 5.59121 18.4047 5.30972 17.9296C5.02823 17.4544 5.18523 16.841 5.66039 16.5595C7.35725 15.5543 7.7297 13.5959 7.76171 13.3878L7.7624 13.3833C8.10807 11.203 10.1454 9.7062 12.3342 10.0518C14.5161 10.3879 16.0005 12.4435 15.6687 14.6206L15.6672 14.6302C15.4624 15.891 14.5486 20.0163 10.6972 22.8094C10.2501 23.1337 9.62478 23.0341 9.30055 22.587C8.97631 22.1399 9.07591 21.5146 9.523 21.1904C12.7265 18.8671 13.5153 15.3997 13.6922 14.3147C13.8575 13.2143 13.1037 12.1932 12.0285 12.0283L12.0235 12.0276C10.9338 11.8548 9.91302 12.5969 9.73802 13.6947Z" clip-rule="evenodd" fill-rule="evenodd" undefined="1"></path>
<path fill="#7D55FF" d="M11.8681 13.0125C12.4135 13.0997 12.7848 13.6125 12.6976 14.1579C12.6098 14.7066 11.9414 18.6453 8.22155 20.8592C7.74696 21.1417 7.13325 20.9859 6.8508 20.5113C6.56834 20.0368 6.72409 19.423 7.19868 19.1406C10.0988 17.4145 10.6505 14.2932 10.7227 13.8419C10.8099 13.2966 11.3228 12.9252 11.8681 13.0125Z" clip-rule="evenodd" fill-rule="evenodd" undefined="0" transform="translate(2,2)"></path><path fill="#C4B6FF" d="M11.8681 13.0125C12.4135 13.0997 12.7848 13.6125 12.6976 14.1579C12.6098 14.7066 11.9414 18.6453 8.22155 20.8592C7.74696 21.1417 7.13325 20.9859 6.8508 20.5113C6.56834 20.0368 6.72409 19.423 7.19868 19.1406C10.0988 17.4145 10.6505 14.2932 10.7227 13.8419C10.8099 13.2966 11.3228 12.9252 11.8681 13.0125Z" clip-rule="evenodd" fill-rule="evenodd" undefined="1"></path>
</svg>
