<svg width="48" height="48" viewBox="0 0 24 24" fill="none" xmlns="http://www.w3.org/2000/svg" data-reactroot="">
<path stroke-linejoin="round" stroke-linecap="round" stroke-miterlimit="10" stroke-width="1" stroke="#221b38" d="M2 6.97C2.93 5.66 4.13 4.56 5.51 3.73C6 3.42 6.52 3.16 7.06 2.94C7.42 2.78 7.79 2.65 8.17 2.54C8.55 2.42 8.93 2.32 9.32 2.24C9.52 2.2 9.71 2.16 9.91 2.14C10.1 2.11 10.29 2.08 10.48 2.06C10.5 2.06 10.52 2.06 10.54 2.06C10.73 2.04 10.92 2.02 11.12 2.02C11.32 2.01 11.52 2 11.72 2H11.74C12.04 2 12.35 2.01 12.65 2.04C12.95 2.06 13.24 2.09 13.53 2.13C13.58 2.14 13.63 2.15 13.68 2.16C13.99 2.21 14.3 2.27 14.61 2.35C14.68 2.36 14.74 2.38 14.81 2.4"></path>
<path stroke-linejoin="round" stroke-linecap="round" stroke-miterlimit="10" stroke-width="1" stroke="#221b38" d="M18.47 4.06995C18.78 4.27995 19.08 4.50995 19.38 4.73995C19.39 4.73995 19.4 4.74995 19.41 4.76995C20.16 5.39995 20.83 6.11995 21.42 6.92995C21.63 7.20995 21.82 7.50995 22 7.80995"></path>
<path stroke-linejoin="round" stroke-linecap="round" stroke-miterlimit="10" stroke-width="1" stroke="#221b38" d="M10.9399 5.04C11.1899 5.01 11.4499 5 11.7099 5C12.1799 5 12.6399 5.04 13.1099 5.11C15.4799 5.48 17.5699 6.76 18.9899 8.7C20.1399 10.28 20.7299 12.14 20.7199 14.06"></path>
<path stroke-linejoin="round" stroke-linecap="round" stroke-miterlimit="10" stroke-width="1" stroke="#221b38" d="M19.9501 18.0601C19.5701 19.2201 18.9901 20.6001 18.1201 22.0001"></path>
<path stroke-linejoin="round" stroke-linecap="round" stroke-miterlimit="10" stroke-width="1" stroke="#221b38" d="M2.8501 12.43C3.3201 9.76 4.9101 7.54 7.1201 6.25"></path>
<path stroke-linejoin="round" stroke-linecap="round" stroke-miterlimit="10" stroke-width="1" stroke="#221b38" d="M17.67 13.28C17.74 13.82 17.73 14.38 17.64 14.93C17.46 16.07 16.78 19.16 14.45 22"></path>
<path stroke-linejoin="round" stroke-linecap="round" stroke-miterlimit="10" stroke-width="1" stroke="#221b38" d="M15.8299 9.64C14.9599 8.81 13.8599 8.26 12.6399 8.07C12.3399 8.02 12.0199 8 11.7099 8C9.00989 8 6.70989 9.76 5.96989 12.28C5.88989 12.53 5.82989 12.79 5.78989 13.06C5.78989 13.08 5.56989 14.29 4.63989 14.85"></path>
<path fill="#C4B6FF" d="M6.16992 17.4201C8.27992 16.1701 8.70992 13.8001 8.74992 13.5401C9.00992 11.9001 10.5399 10.7801 12.1799 11.0401C13.8099 11.2901 14.9299 12.8301 14.6799 14.4701C14.4899 15.6401 13.6399 19.4401 10.1099 22.0001" undefined="0" transform="translate(2,2)"></path><path fill="none" d="M6.16992 17.4201C8.27992 16.1701 8.70992 13.8001 8.74992 13.5401C9.00992 11.9001 10.5399 10.7801 12.1799 11.0401C13.8099 11.2901 14.9299 12.8301 14.6799 14.4701C14.4899 15.6401 13.6399 19.4401 10.1099 22.0001" undefined="1"></path>
<path stroke-linejoin="round" stroke-linecap="round" stroke-miterlimit="10" stroke-width="1" stroke="#221b38" d="M6.16992 17.4201C8.27992 16.1701 8.70992 13.8001 8.74992 13.5401C9.00992 11.9001 10.5399 10.7801 12.1799 11.0401C13.8099 11.2901 14.9299 12.8301 14.6799 14.4701C14.4899 15.6401 13.6399 19.4401 10.1099 22.0001"></path>
<path stroke-linejoin="round" stroke-linecap="round" stroke-miterlimit="10" stroke-width="1" stroke="#221b38" d="M11.71 14C11.63 14.5 11.02 18.03 7.70996 20"></path>
</svg>
