<svg xmlns="http://www.w3.org/2000/svg" xmlns:xlink="http://www.w3.org/1999/xlink" viewBox="0 0 913.92 633.42"><defs><style>.cls-1,.cls-75,.cls-80,.cls-95{fill:none;}.cls-2{isolation:isolate;}.cls-3,.cls-56,.cls-59{fill:#fff;}.cls-4{clip-path:url(#clip-path);}.cls-5{clip-path:url(#clip-path-2);}.cls-6{fill:url(#Degradado_sin_nombre_101);}.cls-7{fill:url(#Degradado_sin_nombre_3);}.cls-8{fill:#4a2e24;}.cls-9{fill:#6b4334;}.cls-10{fill:url(#Degradado_sin_nombre_163);}.cls-11{fill:url(#Degradado_sin_nombre_163-2);}.cls-12{fill:url(#Degradado_sin_nombre_163-3);}.cls-13{fill:url(#Degradado_sin_nombre_3-2);}.cls-14{fill:url(#Degradado_sin_nombre_3-3);}.cls-15{fill:url(#Degradado_sin_nombre_3-4);}.cls-16{fill:url(#Degradado_sin_nombre_3-5);}.cls-17{fill:url(#Degradado_sin_nombre_3-6);}.cls-18{fill:url(#Degradado_sin_nombre_3-7);}.cls-19{fill:url(#Degradado_sin_nombre_3-8);}.cls-20{fill:url(#Degradado_sin_nombre_3-9);}.cls-21{fill:url(#Degradado_sin_nombre_3-10);}.cls-22{fill:url(#Degradado_sin_nombre_163-4);}.cls-23{fill:url(#Degradado_sin_nombre_163-5);}.cls-24{fill:url(#Degradado_sin_nombre_163-6);}.cls-25{fill:url(#Degradado_sin_nombre_163-7);}.cls-26{fill:url(#Degradado_sin_nombre_163-8);}.cls-27{fill:url(#Degradado_sin_nombre_163-9);}.cls-28{fill:url(#Degradado_sin_nombre_163-10);}.cls-29{fill:url(#Degradado_sin_nombre_3-11);}.cls-30{fill:url(#Degradado_sin_nombre_3-12);}.cls-31{fill:url(#Degradado_sin_nombre_3-13);}.cls-32{fill:url(#Degradado_sin_nombre_3-14);}.cls-33{fill:url(#Degradado_sin_nombre_3-15);}.cls-34{fill:url(#Degradado_sin_nombre_3-16);}.cls-35{fill:url(#Degradado_sin_nombre_3-17);}.cls-36{fill:url(#Degradado_sin_nombre_3-18);}.cls-37{fill:url(#Degradado_sin_nombre_3-19);}.cls-38{fill:url(#Degradado_sin_nombre_163-11);}.cls-39{fill:url(#Degradado_sin_nombre_163-12);}.cls-40{fill:url(#Degradado_sin_nombre_163-13);}.cls-41{fill:url(#Degradado_sin_nombre_163-14);}.cls-42{fill:url(#Degradado_sin_nombre_163-15);}.cls-43{fill:url(#Degradado_sin_nombre_163-16);}.cls-44{fill:url(#Degradado_sin_nombre_163-17);}.cls-45{fill:url(#Degradado_sin_nombre_163-18);}.cls-46{fill:url(#Degradado_sin_nombre_163-19);}.cls-47{fill:url(#Degradado_sin_nombre_163-20);}.cls-48{fill:url(#Degradado_sin_nombre_163-21);}.cls-49{fill:url(#Degradado_sin_nombre_163-22);}.cls-50{fill:url(#Degradado_sin_nombre_163-23);}.cls-51{fill:url(#Degradado_sin_nombre_163-24);}.cls-52{fill:url(#Degradado_sin_nombre_163-25);}.cls-53{fill:url(#Degradado_sin_nombre_163-26);}.cls-54{fill:url(#Degradado_sin_nombre_163-27);}.cls-55{fill:url(#Degradado_sin_nombre_197);}.cls-56{opacity:0.3;}.cls-127,.cls-137,.cls-56,.cls-59{mix-blend-mode:overlay;}.cls-57{fill:url(#Degradado_sin_nombre_196);}.cls-58{fill:url(#Degradado_sin_nombre_205);}.cls-137,.cls-59{opacity:0.2;}.cls-60{fill:url(#Degradado_sin_nombre_197-2);}.cls-61{fill:#e9ff96;}.cls-62,.cls-85{fill:#b3b3b3;}.cls-123,.cls-138,.cls-62,.cls-79,.cls-94,.cls-98{mix-blend-mode:multiply;}.cls-63{fill:#ff9175;}.cls-64{fill:#b37554;}.cls-65{fill:#8c5131;}.cls-66{fill:#d69978;}.cls-67{fill:#fff2e6;}.cls-68{fill:#d66245;}.cls-69,.cls-98{fill:#ccc;}.cls-70,.cls-94{fill:#f2f2f2;}.cls-71{fill:#ffc0b0;}.cls-72{fill:#ffdad1;}.cls-73{fill:#ffed75;}.cls-74{fill:#ffd1a3;}.cls-75{stroke:#c27a6d;stroke-linejoin:round;}.cls-75,.cls-80{stroke-linecap:round;stroke-width:2px;}.cls-76{fill:#3b2626;}.cls-77{fill:#d4556e;}.cls-78{fill:#b32e48;}.cls-79{fill:#cca7a7;}.cls-80{stroke:#ff9175;}.cls-80,.cls-95{stroke-miterlimit:10;}.cls-81{fill:#1f242e;}.cls-82{fill:#7e8491;}.cls-83{fill:url(#Degradado_sin_nombre_171);}.cls-84{fill:#9097a6;}.cls-86{fill:url(#Degradado_sin_nombre_171-2);}.cls-87{fill:url(#Degradado_sin_nombre_171-3);}.cls-88{fill:url(#Degradado_sin_nombre_171-4);}.cls-89{fill:url(#Degradado_sin_nombre_171-5);}.cls-90{fill:url(#Degradado_sin_nombre_132);}.cls-91{fill:url(#Degradado_sin_nombre_143);}.cls-92{fill:url(#Degradado_sin_nombre_206);}.cls-93{fill:url(#Degradado_sin_nombre_196-2);}.cls-95{stroke:#e9ff96;}.cls-96{fill:url(#Degradado_sin_nombre_206-2);}.cls-97{fill:url(#Degradado_sin_nombre_196-3);}.cls-99{fill:url(#Degradado_sin_nombre_163-28);}.cls-100{fill:url(#Degradado_sin_nombre_163-29);}.cls-101{fill:#92eb7c;}.cls-102{fill:url(#Degradado_sin_nombre_163-30);}.cls-103{fill:url(#Degradado_sin_nombre_163-31);}.cls-104{fill:url(#Degradado_sin_nombre_322);}.cls-105{fill:url(#Degradado_sin_nombre_321);}.cls-106{fill:#8bd96f;}.cls-107{fill:#459431;}.cls-108{fill:url(#Degradado_sin_nombre_163-32);}.cls-109{fill:#044a27;}.cls-110{fill:url(#Degradado_sin_nombre_150);}.cls-111{fill:url(#Degradado_sin_nombre_108);}.cls-112{fill:url(#Degradado_sin_nombre_163-33);}.cls-113{fill:url(#Degradado_sin_nombre_163-34);}.cls-114{fill:url(#Degradado_sin_nombre_108-2);}.cls-115{fill:url(#Degradado_sin_nombre_150-2);}.cls-116{fill:url(#Degradado_sin_nombre_163-35);}.cls-117{fill:url(#Degradado_sin_nombre_163-36);}.cls-118{fill:url(#Degradado_sin_nombre_150-3);}.cls-119{fill:url(#Degradado_sin_nombre_108-3);}.cls-120{fill:url(#Degradado_sin_nombre_206-3);}.cls-121{fill:url(#Degradado_sin_nombre_196-4);}.cls-122{fill:url(#Degradado_sin_nombre_150-4);}.cls-124{fill:url(#Degradado_sin_nombre_108-4);}.cls-125{fill:#912d39;}.cls-126{fill:url(#Degradado_sin_nombre_337);}.cls-127,.cls-137{fill:#ffffa3;}.cls-127{opacity:0.5;}.cls-128{fill:#bf3b4b;}.cls-129{fill:url(#Degradado_sin_nombre_337-2);}.cls-130{fill:url(#Degradado_sin_nombre_337-3);}.cls-131{fill:url(#Degradado_sin_nombre_333);}.cls-132{fill:url(#Degradado_sin_nombre_333-2);}.cls-133{clip-path:url(#clip-path-3);}.cls-134{opacity:0.4;}.cls-135{fill:#900;}.cls-136{clip-path:url(#clip-path-4);}.cls-138{fill:#ebc0c0;}.cls-139{fill:url(#Degradado_sin_nombre_150-5);}.cls-140{fill:url(#Degradado_sin_nombre_143-2);}.cls-141{fill:url(#Degradado_sin_nombre_108-5);}.cls-142{fill:url(#Degradado_sin_nombre_150-6);}</style><clipPath id="clip-path" transform="translate(52.85 41.8)"><rect class="cls-1" width="861.07" height="501.59"/></clipPath><clipPath id="clip-path-2" transform="translate(52.85 41.8)"><rect class="cls-1" x="-0.7" width="315.37" height="496.5"/></clipPath><linearGradient id="Degradado_sin_nombre_101" x1="209.83" y1="336.94" x2="209.83" y2="64.11" gradientUnits="userSpaceOnUse"><stop offset="0" stop-color="#c2d4a1"/><stop offset="1" stop-color="#195e30"/></linearGradient><linearGradient id="Degradado_sin_nombre_3" x1="180.09" y1="239.34" x2="108.58" y2="-24.59" gradientUnits="userSpaceOnUse"><stop offset="0" stop-color="#337a21"/><stop offset="1" stop-color="#003018"/></linearGradient><linearGradient id="Degradado_sin_nombre_163" x1="319.26" y1="1.15" x2="201.19" y2="262.24" gradientUnits="userSpaceOnUse"><stop offset="0" stop-color="#459431"/><stop offset="1" stop-color="#044a27"/></linearGradient><linearGradient id="Degradado_sin_nombre_163-2" x1="189.52" y1="350.55" x2="223.26" y2="234.87" xlink:href="#Degradado_sin_nombre_163"/><linearGradient id="Degradado_sin_nombre_163-3" x1="103.2" y1="259.15" x2="66.5" y2="191.24" xlink:href="#Degradado_sin_nombre_163"/><linearGradient id="Degradado_sin_nombre_3-2" x1="114.44" y1="163.75" x2="304.31" y2="-145.72" xlink:href="#Degradado_sin_nombre_3"/><linearGradient id="Degradado_sin_nombre_3-3" x1="153.93" y1="234.73" x2="219.89" y2="31.29" xlink:href="#Degradado_sin_nombre_3"/><linearGradient id="Degradado_sin_nombre_3-4" x1="224.51" y1="231.29" x2="414.38" y2="-78.19" xlink:href="#Degradado_sin_nombre_3"/><linearGradient id="Degradado_sin_nombre_3-5" x1="235.49" y1="261.17" x2="301.45" y2="57.74" xlink:href="#Degradado_sin_nombre_3"/><linearGradient id="Degradado_sin_nombre_3-6" x1="264.9" y1="270.71" x2="330.86" y2="67.27" xlink:href="#Degradado_sin_nombre_3"/><linearGradient id="Degradado_sin_nombre_3-7" x1="152.78" y1="187.28" x2="342.66" y2="-122.19" xlink:href="#Degradado_sin_nombre_3"/><linearGradient id="Degradado_sin_nombre_3-8" x1="383.48" y1="180.13" x2="351.66" y2="30.45" gradientTransform="translate(-0.35 5.38) rotate(-0.96)" xlink:href="#Degradado_sin_nombre_3"/><linearGradient id="Degradado_sin_nombre_3-9" x1="192.38" y1="247.2" x2="258.34" y2="43.76" xlink:href="#Degradado_sin_nombre_3"/><linearGradient id="Degradado_sin_nombre_3-10" x1="188.33" y1="209.09" x2="378.2" y2="-100.39" xlink:href="#Degradado_sin_nombre_3"/><linearGradient id="Degradado_sin_nombre_163-4" x1="190.35" y1="41.59" x2="190.35" y2="41.59" xlink:href="#Degradado_sin_nombre_163"/><linearGradient id="Degradado_sin_nombre_163-5" x1="316.45" y1="113.49" x2="333.56" y2="-28.25" xlink:href="#Degradado_sin_nombre_163"/><linearGradient id="Degradado_sin_nombre_163-6" x1="247.75" y1="106.4" x2="283.42" y2="53.13" xlink:href="#Degradado_sin_nombre_163"/><linearGradient id="Degradado_sin_nombre_163-7" x1="342.33" y1="152.42" x2="348.68" y2="38.54" xlink:href="#Degradado_sin_nombre_163"/><linearGradient id="Degradado_sin_nombre_163-8" x1="190.35" y1="2.2" x2="369.45" y2="2.2" xlink:href="#Degradado_sin_nombre_163"/><linearGradient id="Degradado_sin_nombre_163-9" x1="190.35" y1="41.1" x2="369.45" y2="41.1" xlink:href="#Degradado_sin_nombre_163"/><linearGradient id="Degradado_sin_nombre_163-10" x1="206.74" y1="48.78" x2="289.28" y2="-10.83" xlink:href="#Degradado_sin_nombre_163"/><linearGradient id="Degradado_sin_nombre_3-11" x1="-62.45" y1="147.08" x2="100.62" y2="-118.71" gradientTransform="matrix(-0.99, -0.15, -0.15, 0.99, 141.22, 5.33)" xlink:href="#Degradado_sin_nombre_3"/><linearGradient id="Degradado_sin_nombre_3-12" x1="-28.54" y1="208.04" x2="28.11" y2="33.32" gradientTransform="matrix(-0.99, -0.15, -0.15, 0.99, 141.22, 5.33)" xlink:href="#Degradado_sin_nombre_3"/><linearGradient id="Degradado_sin_nombre_3-13" x1="32.08" y1="205.09" x2="195.16" y2="-60.71" gradientTransform="matrix(-0.99, -0.15, -0.15, 0.99, 141.22, 5.33)" xlink:href="#Degradado_sin_nombre_3"/><linearGradient id="Degradado_sin_nombre_3-14" x1="41.51" y1="230.76" x2="98.16" y2="56.03" gradientTransform="matrix(-0.99, -0.15, -0.15, 0.99, 141.22, 5.33)" xlink:href="#Degradado_sin_nombre_3"/><linearGradient id="Degradado_sin_nombre_3-15" x1="66.77" y1="238.95" x2="123.42" y2="64.22" gradientTransform="matrix(-0.99, -0.15, -0.15, 0.99, 141.22, 5.33)" xlink:href="#Degradado_sin_nombre_3"/><linearGradient id="Degradado_sin_nombre_3-16" x1="-29.52" y1="167.29" x2="133.56" y2="-98.51" gradientTransform="matrix(-0.99, -0.15, -0.15, 0.99, 141.22, 5.33)" xlink:href="#Degradado_sin_nombre_3"/><linearGradient id="Degradado_sin_nombre_3-17" x1="169.5" y1="157.35" x2="142.17" y2="28.79" gradientTransform="matrix(-0.99, -0.17, -0.17, 0.99, 141.56, 11.2)" xlink:href="#Degradado_sin_nombre_3"/><linearGradient id="Degradado_sin_nombre_3-18" x1="4.48" y1="218.75" x2="61.14" y2="44.02" gradientTransform="matrix(-0.99, -0.15, -0.15, 0.99, 141.22, 5.33)" xlink:href="#Degradado_sin_nombre_3"/><linearGradient id="Degradado_sin_nombre_3-19" x1="1" y1="186.02" x2="164.08" y2="-79.78" gradientTransform="matrix(-0.99, -0.15, -0.15, 0.99, 141.22, 5.33)" xlink:href="#Degradado_sin_nombre_3"/><linearGradient id="Degradado_sin_nombre_163-11" x1="111.05" y1="103.91" x2="125.74" y2="-17.82" gradientTransform="matrix(-0.99, -0.15, -0.15, 0.99, 141.22, 5.33)" xlink:href="#Degradado_sin_nombre_163"/><linearGradient id="Degradado_sin_nombre_163-12" x1="52.04" y1="97.83" x2="82.68" y2="52.07" gradientTransform="matrix(-0.99, -0.15, -0.15, 0.99, 141.22, 5.33)" xlink:href="#Degradado_sin_nombre_163"/><linearGradient id="Degradado_sin_nombre_163-13" x1="133.27" y1="137.35" x2="138.73" y2="39.54" gradientTransform="matrix(-0.99, -0.15, -0.15, 0.99, 141.22, 5.33)" xlink:href="#Degradado_sin_nombre_163"/><linearGradient id="Degradado_sin_nombre_163-14" x1="2.74" y1="8.34" x2="156.57" y2="8.34" gradientTransform="matrix(-0.99, -0.15, -0.15, 0.99, 141.22, 5.33)" xlink:href="#Degradado_sin_nombre_163"/><linearGradient id="Degradado_sin_nombre_163-15" x1="2.74" y1="41.74" x2="156.57" y2="41.74" gradientTransform="matrix(-0.99, -0.15, -0.15, 0.99, 141.22, 5.33)" xlink:href="#Degradado_sin_nombre_163"/><linearGradient id="Degradado_sin_nombre_163-16" x1="16.82" y1="48.34" x2="87.71" y2="-2.86" gradientTransform="matrix(-0.99, -0.15, -0.15, 0.99, 141.22, 5.33)" xlink:href="#Degradado_sin_nombre_163"/><linearGradient id="Degradado_sin_nombre_163-17" x1="-57.84" y1="139.28" x2="7.12" y2="244.27" xlink:href="#Degradado_sin_nombre_163"/><linearGradient id="Degradado_sin_nombre_163-18" x1="-6.7" y1="142.3" x2="83.73" y2="311.3" xlink:href="#Degradado_sin_nombre_163"/><linearGradient id="Degradado_sin_nombre_163-19" x1="37.33" y1="118.74" x2="127.76" y2="287.74" xlink:href="#Degradado_sin_nombre_163"/><linearGradient id="Degradado_sin_nombre_163-20" x1="2.35" y1="102.04" x2="67.31" y2="207.02" xlink:href="#Degradado_sin_nombre_163"/><linearGradient id="Degradado_sin_nombre_163-21" x1="413.29" y1="177.57" x2="319.12" y2="482.77" xlink:href="#Degradado_sin_nombre_163"/><linearGradient id="Degradado_sin_nombre_163-22" x1="392.75" y1="171.23" x2="298.58" y2="476.43" xlink:href="#Degradado_sin_nombre_163"/><linearGradient id="Degradado_sin_nombre_163-23" x1="335.81" y1="153.67" x2="241.64" y2="458.86" xlink:href="#Degradado_sin_nombre_163"/><linearGradient id="Degradado_sin_nombre_163-24" x1="196.41" y1="466.31" x2="208.32" y2="272.3" xlink:href="#Degradado_sin_nombre_163"/><linearGradient id="Degradado_sin_nombre_163-25" x1="240.75" y1="124.34" x2="146.58" y2="429.53" xlink:href="#Degradado_sin_nombre_163"/><linearGradient id="Degradado_sin_nombre_163-26" x1="299.52" y1="486.56" x2="321.65" y2="405.44" xlink:href="#Degradado_sin_nombre_163"/><linearGradient id="Degradado_sin_nombre_163-27" x1="296.53" y1="141.55" x2="202.36" y2="446.74" xlink:href="#Degradado_sin_nombre_163"/><linearGradient id="Degradado_sin_nombre_197" x1="218.06" y1="295" x2="339.85" y2="218.37" gradientTransform="translate(-76.81 155.11) rotate(-25.49)" gradientUnits="userSpaceOnUse"><stop offset="0.26" stop-color="#bdff6b"/><stop offset="0.5" stop-color="#82d16f"/><stop offset="1" stop-color="#217c31"/></linearGradient><linearGradient id="Degradado_sin_nombre_196" x1="262.2" y1="239.59" x2="429.81" y2="239.59" gradientTransform="translate(-76.81 155.11) rotate(-25.49)" gradientUnits="userSpaceOnUse"><stop offset="0.13" stop-color="#c2de5d"/><stop offset="0.56" stop-color="#82d16f"/><stop offset="1" stop-color="#4a9358"/></linearGradient><linearGradient id="Degradado_sin_nombre_205" x1="222.78" y1="466.66" x2="421.33" y2="319.16" gradientUnits="userSpaceOnUse"><stop offset="0.04" stop-color="#82d16f"/><stop offset="1" stop-color="#237d25"/></linearGradient><linearGradient id="Degradado_sin_nombre_197-2" x1="427.07" y1="280.72" x2="258.02" y2="435.03" gradientTransform="matrix(1, 0, 0, 1, 0, 0)" xlink:href="#Degradado_sin_nombre_197"/><linearGradient id="Degradado_sin_nombre_171" x1="182.56" y1="206.82" x2="175.04" y2="216.38" gradientUnits="userSpaceOnUse"><stop offset="0" stop-color="#fff"/><stop offset="1" stop-color="#fff" stop-opacity="0"/></linearGradient><linearGradient id="Degradado_sin_nombre_171-2" x1="164.1" y1="184.59" x2="115.55" y2="228.22" xlink:href="#Degradado_sin_nombre_171"/><linearGradient id="Degradado_sin_nombre_171-3" x1="170.08" y1="191.25" x2="121.53" y2="234.87" xlink:href="#Degradado_sin_nombre_171"/><linearGradient id="Degradado_sin_nombre_171-4" x1="245.21" y1="184.59" x2="196.66" y2="228.22" xlink:href="#Degradado_sin_nombre_171"/><linearGradient id="Degradado_sin_nombre_171-5" x1="251.19" y1="191.25" x2="202.64" y2="234.87" xlink:href="#Degradado_sin_nombre_171"/><linearGradient id="Degradado_sin_nombre_132" x1="524.07" y1="86.77" x2="217.35" y2="424.88" gradientTransform="translate(-21.39 10.09) rotate(-3.06)" gradientUnits="userSpaceOnUse"><stop offset="0.26" stop-color="#a7e15e"/><stop offset="0.5" stop-color="#77bf65"/><stop offset="1" stop-color="#279139"/></linearGradient><linearGradient id="Degradado_sin_nombre_143" x1="435.97" y1="203.32" x2="129.25" y2="541.43" gradientTransform="translate(-21.39 10.09) rotate(-3.06)" gradientUnits="userSpaceOnUse"><stop offset="0.13" stop-color="#c5e15e"/><stop offset="0.56" stop-color="#77bf65"/><stop offset="1" stop-color="#55a865"/></linearGradient><linearGradient id="Degradado_sin_nombre_206" x1="245.77" y1="696.15" x2="-73.16" y2="15.02" gradientTransform="matrix(1, -0.06, 0.06, 1, -26.32, 8.88)" gradientUnits="userSpaceOnUse"><stop offset="0" stop-color="#bdff6b"/><stop offset="0.31" stop-color="#82d16f"/><stop offset="1" stop-color="#217c31"/></linearGradient><linearGradient id="Degradado_sin_nombre_196-2" x1="130.59" y1="683.74" x2="56.42" y2="390.78" gradientTransform="translate(-56.63 23.58) rotate(-7.24)" xlink:href="#Degradado_sin_nombre_196"/><linearGradient id="Degradado_sin_nombre_206-2" x1="718.7" y1="1021" x2="194.62" y2="-98.25" gradientTransform="matrix(-0.34, -0.94, -0.94, 0.34, 1161.4, 761.63)" xlink:href="#Degradado_sin_nombre_206"/><linearGradient id="Degradado_sin_nombre_196-3" x1="534.18" y1="1026.51" x2="412" y2="543.89" gradientTransform="matrix(-0.28, -0.96, -0.96, 0.28, 1159.61, 795.17)" xlink:href="#Degradado_sin_nombre_196"/><linearGradient id="Degradado_sin_nombre_163-28" x1="112.68" y1="572.46" x2="-18.64" y2="424.58" xlink:href="#Degradado_sin_nombre_163"/><linearGradient id="Degradado_sin_nombre_163-29" x1="-6.97" y1="308.48" x2="115.52" y2="520.37" xlink:href="#Degradado_sin_nombre_163"/><linearGradient id="Degradado_sin_nombre_163-30" x1="67.45" y1="395.74" x2="126.76" y2="536.2" gradientTransform="translate(-152.81 70.93) rotate(-23.23)" xlink:href="#Degradado_sin_nombre_163"/><linearGradient id="Degradado_sin_nombre_163-31" x1="126.36" y1="520.74" x2="5.01" y2="329.16" gradientTransform="translate(-152.81 70.93) rotate(-23.23)" xlink:href="#Degradado_sin_nombre_163"/><linearGradient id="Degradado_sin_nombre_322" x1="251.76" y1="220.69" x2="-54.96" y2="558.81" gradientTransform="matrix(-0.91, 0.41, 0.41, 0.91, -97.08, 34.85)" gradientUnits="userSpaceOnUse"><stop offset="0.26" stop-color="#41a11f"/><stop offset="0.5" stop-color="#308729"/><stop offset="1" stop-color="#107020"/></linearGradient><linearGradient id="Degradado_sin_nombre_321" x1="163.65" y1="337.24" x2="-143.07" y2="675.36" gradientTransform="matrix(-0.91, 0.41, 0.41, 0.91, -97.08, 34.85)" gradientUnits="userSpaceOnUse"><stop offset="0.13" stop-color="#92d959"/><stop offset="0.56" stop-color="#308729"/><stop offset="1" stop-color="#347a42"/></linearGradient><linearGradient id="Degradado_sin_nombre_163-32" x1="284.84" y1="322.27" x2="281.2" y2="515.85" xlink:href="#Degradado_sin_nombre_163"/><linearGradient id="Degradado_sin_nombre_150" x1="305.87" y1="338.73" x2="333.57" y2="393.11" gradientUnits="userSpaceOnUse"><stop offset="0" stop-color="#4fa952"/><stop offset="1" stop-color="#b6eb7c"/></linearGradient><linearGradient id="Degradado_sin_nombre_108" x1="287.41" y1="357.08" x2="344.1" y2="376.62" gradientUnits="userSpaceOnUse"><stop offset="0" stop-color="#92eb7c"/><stop offset="1" stop-color="#d7eb7c"/></linearGradient><linearGradient id="Degradado_sin_nombre_163-33" x1="90.18" y1="356.13" x2="149.48" y2="496.59" xlink:href="#Degradado_sin_nombre_163"/><linearGradient id="Degradado_sin_nombre_163-34" x1="149.09" y1="481.13" x2="27.74" y2="289.56" xlink:href="#Degradado_sin_nombre_163"/><linearGradient id="Degradado_sin_nombre_108-2" x1="69.41" y1="334.68" x2="55.66" y2="397.94" xlink:href="#Degradado_sin_nombre_108"/><linearGradient id="Degradado_sin_nombre_150-2" x1="49.89" y1="407.88" x2="56.46" y2="344.19" xlink:href="#Degradado_sin_nombre_150"/><linearGradient id="Degradado_sin_nombre_163-35" x1="160.46" y1="454.69" x2="244.42" y2="321.3" xlink:href="#Degradado_sin_nombre_163"/><linearGradient id="Degradado_sin_nombre_163-36" x1="178.5" y1="399.49" x2="306.65" y2="263.84" xlink:href="#Degradado_sin_nombre_163"/><linearGradient id="Degradado_sin_nombre_150-3" x1="250.92" y1="314.6" x2="280.92" y2="370.37" xlink:href="#Degradado_sin_nombre_150"/><linearGradient id="Degradado_sin_nombre_108-3" x1="244.21" y1="295.45" x2="274.21" y2="351.22" xlink:href="#Degradado_sin_nombre_108"/><linearGradient id="Degradado_sin_nombre_206-3" x1="281.38" y1="657.45" x2="64.1" y2="193.42" gradientTransform="matrix(1, 0, 0, 1, 0, 0)" xlink:href="#Degradado_sin_nombre_206"/><linearGradient id="Degradado_sin_nombre_196-4" x1="200.58" y1="653.11" x2="150.05" y2="453.52" gradientTransform="matrix(1, -0.07, 0.07, 1, -31.74, 13.07)" xlink:href="#Degradado_sin_nombre_196"/><linearGradient id="Degradado_sin_nombre_150-4" x1="171.65" y1="566.47" x2="501.42" y2="334.94" xlink:href="#Degradado_sin_nombre_150"/><linearGradient id="Degradado_sin_nombre_108-4" x1="324.44" y1="532.3" x2="550.68" y2="350.97" xlink:href="#Degradado_sin_nombre_108"/><linearGradient id="Degradado_sin_nombre_337" x1="446.96" y1="388.68" x2="456.49" y2="332.54" gradientTransform="translate(71.19 -48.81) rotate(10.5)" gradientUnits="userSpaceOnUse"><stop offset="0" stop-color="#e8485b"/><stop offset="0.91" stop-color="#ffbb5b"/></linearGradient><linearGradient id="Degradado_sin_nombre_337-2" x1="456.28" y1="390.99" x2="465.82" y2="334.84" gradientTransform="translate(124.04 -7.02) rotate(10.5)" xlink:href="#Degradado_sin_nombre_337"/><linearGradient id="Degradado_sin_nombre_337-3" x1="446.76" y1="388.65" x2="456.29" y2="332.5" gradientTransform="translate(124.04 -7.02) rotate(10.5)" xlink:href="#Degradado_sin_nombre_337"/><linearGradient id="Degradado_sin_nombre_333" x1="451.5" y1="390.04" x2="441.28" y2="414.26" gradientTransform="translate(71.19 -48.81) rotate(10.5)" gradientUnits="userSpaceOnUse"><stop offset="0" stop-color="#e8485b"/><stop offset="1" stop-color="#ff915b"/></linearGradient><linearGradient id="Degradado_sin_nombre_333-2" x1="442.32" y1="384.57" x2="412.44" y2="434.11" xlink:href="#Degradado_sin_nombre_333"/><clipPath id="clip-path-3" transform="translate(52.85 41.8)"><path class="cls-1" d="M448.61,422c-1.26-4.61-6.65-7.08-9.49-8.09a35.55,35.55,0,0,0-18.67,12.87c-4.83,6.32-8.47,17.43-8.57,25.38,0,0,17.95,1.14,24.5-2.19S452.26,435.3,448.61,422Z"/></clipPath><clipPath id="clip-path-4" transform="translate(52.85 41.8)"><path class="cls-1" d="M420.45,426.75a35.55,35.55,0,0,1,18.67-12.87c-1.07-.38-1.78-.55-1.78-.55-15-5.41-32.17,10.59-31.69,25,.16,4.86,6.23,13.78,6.23,13.78C412,444.18,415.62,433.07,420.45,426.75Z"/></clipPath><linearGradient id="Degradado_sin_nombre_150-5" x1="118.37" y1="521.47" x2="251.26" y2="374.47" xlink:href="#Degradado_sin_nombre_150"/><linearGradient id="Degradado_sin_nombre_143-2" x1="317.76" y1="321.11" x2="108.15" y2="597.82" gradientTransform="matrix(1, 0, 0, 1, 0, 0)" xlink:href="#Degradado_sin_nombre_143"/><linearGradient id="Degradado_sin_nombre_108-5" x1="65.49" y1="383.79" x2="51.74" y2="447.04" gradientTransform="matrix(0.92, -0.39, -0.04, 0.89, 3.05, 82.12)" xlink:href="#Degradado_sin_nombre_108"/><linearGradient id="Degradado_sin_nombre_150-6" x1="45.97" y1="456.98" x2="52.54" y2="393.29" gradientTransform="matrix(0.92, -0.39, -0.04, 0.89, 3.05, 82.12)" xlink:href="#Degradado_sin_nombre_150"/></defs><g class="cls-2"><g id="OBJECTS"><rect class="cls-3" x="52.85" y="41.8" width="861.07" height="501.59"/><g class="cls-4"><g class="cls-5"><rect class="cls-6" x="52.14" y="39.31" width="315.37" height="498.99"/><path class="cls-7" d="M192.42,2.7A64.24,64.24,0,0,0,142.61-15c-19,1.63-37.1-2.58-54.93,7.7-22.4,12.91-36.38,39.16-34.62,65,.25,3.6,1,7.55,3.81,9.8A5.91,5.91,0,0,0,64.36,67c-3.25,9.41,3.15,21.24,12.86,23.56l-.88.53A16,16,0,0,0,100.22,80c3.15,9.89,14.07,16.13,24.21,15.75,7.07-.27,22.09-11.48,19.56-20.19,1.76,6.06,9.44,9,15.42,7s10.1-7.73,11.86-13.79,1.5-12.49,1.25-18.79c-.13,2.95,2.85,5.39,5.81,5.41s5.66-1.83,7.49-4.15c4.93-6.22,4.42-14.84,2.83-22.16-1-4.36-5.25-15.63-9.21-17.78,3,1.61,6.11,3.27,9.49,3.17s6.92-2.66,6.81-6C195.66,6.18,194,4.29,192.42,2.7Z" transform="translate(52.85 41.8)"/><polygon class="cls-8" points="266.06 23.93 244.61 139.53 252.24 185.33 259.87 245.11 270.68 267.37 292.31 260.38 267.5 183.42 265.48 162.59 255.34 140.01 277.92 17.44 266.06 23.93"/><path class="cls-9" d="M205.73,80.64,216,25.05c-2,1.19-4.08,2.34-6.15,3.47L198.6,84.11C201,83,203.43,81.92,205.73,80.64Z" transform="translate(52.85 41.8)"/><path class="cls-9" d="M214.66,141.62l-1.45-14.85c-2.62.87-5.27,1.69-7.91,2.53l5.64,82.07,6.9,14.21,21.62-7Z" transform="translate(52.85 41.8)"/><path class="cls-9" d="M211.92,119.2l-8-17.93c-1.84,1.51-3.66,3-5.49,4.54l6.24,16A71.19,71.19,0,0,1,211.92,119.2Z" transform="translate(52.85 41.8)"/><path class="cls-10" d="M154,126.24a15.69,15.69,0,0,1,2.38.62c6.81,2.34,11.89,8,16.64,13.36-.5-7.62-6.14-24.83,5.42-27.18,4.38-.89,8.59,2.15,11.56,5.5a40.44,40.44,0,0,1,9.74,31.09c-1.51-4.15-1.78-8.95.27-12.86s6.77-6.55,11-5.32,6.79,6.91,4.23,10.5c-1.39-2.48.62-5.91,3.4-6.48s5.67,1.23,7,3.73a12.67,12.67,0,0,1,.87,8.31c1.86-5,3.84-10,7.19-14.13s8.33-7.24,13.64-7.07c20.32.66,20.57,38.3,6.76,46.8,3.49-2.45,8.58-1.79,11.84,1s4.78,7.15,4.74,11.41a28.6,28.6,0,0,1-3.4,12.2,8.87,8.87,0,0,1,9.24-5.18c5.89.91,8.86,7.85,6.9,13.15a16.87,16.87,0,0,1,31-9.17c7.25-.88,14,4.65,17,11.31,3.42,7.61,4.69,19.75,2.66,27.88-2.41,9.62-10.2,17-18.65,22.19-14,8.53-30.42,12.38-46.75,12.77s-32.6-2.57-48.36-6.88c-13.33-3.65-26.64-8.43-38-16.48-10.4-7.38-15.41-12.58-21.15-24.34a248.29,248.29,0,0,1-23.51-80.09c-.36-3.08-.65-6.29.42-9.21C140.25,127.63,147.57,125.1,154,126.24Z" transform="translate(52.85 41.8)"/><polygon class="cls-8" points="301.88 300.53 327.92 231.76 297.87 129.62 319.24 25.46 326.58 26.8 308.56 128.28 336.6 209.06 329.92 142.97 325.25 113.59 359.3 12.78 384.67 20.79 339.27 110.25 345.27 126.28 377.32 70.19 385.33 81.55 375.32 106.92 350.62 145.64 347.28 229.76 319.52 300.38 301.88 300.53"/><path class="cls-9" d="M277.7,149.83l-4.13-11.89q-2.32,3.1-4.72,6.14l3.91,12.28C274.5,154.25,276.11,152.05,277.7,149.83Z" transform="translate(52.85 41.8)"/><path class="cls-9" d="M275.19,164l4.6,14.42,4-11.15-3.46-10C278.66,159.58,276.93,161.8,275.19,164Z" transform="translate(52.85 41.8)"/><path class="cls-9" d="M287.83,175.49a88.17,88.17,0,0,0,6.8,7.53l.65-16.42a113,113,0,0,1-9-21.51l2,28.87Z" transform="translate(52.85 41.8)"/><path class="cls-9" d="M285.08,184.72l-1.59,5.37-.5,1.23c2.52,2.07,5.11,4.06,7.82,5.87l2.47-6.28C290.51,188.9,287.8,186.81,285.08,184.72Z" transform="translate(52.85 41.8)"/><path class="cls-9" d="M280,198.66l-24.12,60,10.75-.09L288,204.33C285.27,202.57,282.63,200.66,280,198.66Z" transform="translate(52.85 41.8)"/><path class="cls-11" d="M170.85,153.75a35.2,35.2,0,0,1,9,28.87,66.33,66.33,0,0,1,7.07-32.8c2.64-5.22,8.59-10.74,13.5-7.57,2.78,1.8,3.45,5.53,3.62,8.84a72,72,0,0,1-5.46,31.64A14.68,14.68,0,0,1,209,168.46a28.1,28.1,0,0,1,4.46,22.7c1.34-11.61,15.29-19,26.48-15.65,23.93,7.25,15.64,29.9,11.56,47.49,3.93-6.15,9.07-11.75,15.63-15s14.7-3.73,21.07-.14c8.55,4.81,12,15.73,11.2,25.52-1.46,18.59-15.63,34.78-33,41.49s-37.29,4.84-54.58-2.12c-15-6-28.65-16-37.27-29.67a57,57,0,0,1-8.88-33.93c.38-5.42,1.23-9.16.36-14.27-1.09-6.4-2.44-12-2-18.65C164.15,173.79,170.42,153.29,170.85,153.75Z" transform="translate(52.85 41.8)"/><path class="cls-12" d="M-6,189.16a9.51,9.51,0,0,1,7.11,4.18,17.29,17.29,0,0,1,10.66-13.89,17.28,17.28,0,0,1,17.25,3c-8.24-21,7.14-46.85,30.27-47.5,12-.34,24.24,7.9,26.81,19.64,1.56-2.6,6.49-1.28,6.54,1.76,8-14.83,27.36-22.37,43.26-16.84,12.91,4.49,20.76,16.07,23.54,29,2.9,13.43,8.32,25.94,10.66,39.67,1.82,10.7,2.46,22.62-3.89,31.42-4.84,6.71-12.82,10.26-20.44,13.48-16.86,7.1-34.1,14.07-52.3,15.86-28.32,2.79-56.18-7.11-82.87-17-20.88-7.72-48.86-31.57-30.14-55.75,2.5-3.23,5.87-6,9.87-6.85A11.28,11.28,0,0,1-6,189.16Z" transform="translate(52.85 41.8)"/><polygon class="cls-8" points="124.5 34.85 100.08 73.7 88.89 148.29 73.97 170.67 70.99 93.09 83.61 34.85 61.08 34.85 57.56 89.36 59.05 189.32 60.54 281.81 75.46 299.72 76.21 192.3 102.32 163.96 108.28 75.19 139.85 34.85 124.5 34.85"/><path class="cls-9" d="M23.17,177.61l.13-17.55q-4.23,4.37-8.35,8.82L15.07,186Q19,181.7,23.17,177.61Z" transform="translate(52.85 41.8)"/><path class="cls-9" d="M15.14,195.9l.4,53.52,7.08,8.5.49-70.43C20.35,190.2,17.68,193,15.14,195.9Zm2.86,28a.7.7,0,0,1,0-1.4A.7.7,0,0,1,18,223.86Z" transform="translate(52.85 41.8)"/><path class="cls-9" d="M14.09,123.35v3.1l1.17,8.62,5.87-6.2-.55-14.16C18.3,117.51,16.12,120.37,14.09,123.35Z" transform="translate(52.85 41.8)"/><polygon class="cls-9" points="208.47 63.83 207.08 77.22 209.04 76.08 208.47 63.83"/><polygon class="cls-8" points="164.46 270.3 151.33 150.98 162.91 58.7 173.34 35.53 186.08 33.6 171.02 65.65 161.37 150.6 176.81 120.09 191.74 89.65 184.96 50.35 189.21 49.2 194.82 84.24 206.43 75.5 208.47 63.83 209.04 76.08 197.91 87.72 182.61 128.59 163.69 158.71 186.48 273.41 164.46 270.3"/><path class="cls-9" d="M123.33,179.76l-6.86-34.5a78,78,0,0,0-6.4,7.8l5.45,34.62A92.61,92.61,0,0,1,123.33,179.76Z" transform="translate(52.85 41.8)"/><path class="cls-9" d="M114.28,134.21l-3.44-17.3L105,121,108,139.67Q111.12,136.93,114.28,134.21Z" transform="translate(52.85 41.8)"/><path class="cls-9" d="M110.9,88.37,112.25,78h-6.48l-.55,8.92Q108.1,87.52,110.9,88.37Z" transform="translate(52.85 41.8)"/><path class="cls-9" d="M104.83,93.25l-.41,6.75,4.73,1.76.87-6.69Q107.4,94.26,104.83,93.25Z" transform="translate(52.85 41.8)"/><path class="cls-9" d="M129.23,87.63l.53-.84,6.53-17.42h-3.51l-6.72,16.22-.16.26Z" transform="translate(52.85 41.8)"/><path class="cls-9" d="M114.47,105l-4.63,7.75,1,4.2,6.06-9.65C116.08,106.5,115.27,105.74,114.47,105Z" transform="translate(52.85 41.8)"/><path class="cls-9" d="M120.78,101.08l3.44-5.47-3-2L118,99.07Z" transform="translate(52.85 41.8)"/><polygon class="cls-9" points="191.29 105.4 197.91 87.72 193.85 91.31 188.01 105.4 191.29 105.4"/><path class="cls-9" d="M121.59,211.19c-.7.47-1.43.92-2.16,1.36L122.17,230l11.46,1.63-5.13-25.81C126.48,208.1,124.35,210.23,121.59,211.19Z" transform="translate(52.85 41.8)"/><path class="cls-13" d="M229.6-35.73a127.49,127.49,0,0,0-24.25,11,100.48,100.48,0,0,0-18.47,13.83C185.33-9.38,174.54,4.57,173.1,5.62c3-1.52,57.35-29,102.55-42.12Z" transform="translate(52.85 41.8)"/><path class="cls-14" d="M275.65-36.5C230.45-23.38,176.1,4.1,173.1,5.62c-.06,0-.11.08-.14.07A130.27,130.27,0,0,0,257.71-8.46l39.5-28.4Z" transform="translate(52.85 41.8)"/><path class="cls-15" d="M363.53-19.66a44.08,44.08,0,0,0-6.18-10.45c-15,7.69-40.33,29.15-57,88.62-5.08,34,.21,66.48,10.05,99.13l0-1.83S298.92,39.15,363.53-19.66Z" transform="translate(52.85 41.8)"/><path class="cls-16" d="M357.35-30.11a35,35,0,0,0-6.74-6.47C271.74,33.63,241.54,160.65,241.54,160.65a190.67,190.67,0,0,0,55.28-87.91c1-4.59,2.2-9.32,3.57-14.23C317-1,342.35-22.42,357.35-30.11Z" transform="translate(52.85 41.8)"/><path class="cls-17" d="M337,67.53c-.14-1.17-.26-2.34-.37-3.51-3-34.55,15.78-65.06,28-80.95-.24-.66-.45-1.32-.71-2-.11-.26-.23-.5-.34-.76-64.61,58.81-53.12,175.47-53.12,175.47l0,1.83c.26.84.5,1.67.75,2.5A194.69,194.69,0,0,0,337,67.53Z" transform="translate(52.85 41.8)"/><path class="cls-18" d="M319.71-37.23l-22.5.37-39.5,28.4A164.51,164.51,0,0,0,194.18,91.92S249.35-.68,319.71-37.23Z" transform="translate(52.85 41.8)"/><path class="cls-19" d="M336.58,64c.11,1.17.23,2.34.37,3.51.09-4,.07-8-.1-12.05A140.11,140.11,0,0,0,342,91.25a202.21,202.21,0,0,0,7.44,20.7,141,141,0,0,0,24,36.9c4.64-45.61.44-91.61-3.76-137.27-.89-9.64-1.84-19.42-5.09-28.51C352.36-1,333.59,29.47,336.58,64Z" transform="translate(52.85 41.8)"/><path class="cls-20" d="M333.22-37.46l-13.51.23C249.35-.68,194.18,91.92,194.18,91.92A191.16,191.16,0,0,0,277.58,25c-.59,1-1.14,2.11-1.72,3.16C298.11-1.59,326.21-30.39,333.22-37.46Z" transform="translate(52.85 41.8)"/><path class="cls-21" d="M350.61-36.58c-.54-.39-1.07-.79-1.62-1.14l-15.77.26c-7,7.07-35.11,35.87-57.36,65.59a278.28,278.28,0,0,0-34.32,132.52S271.74,33.63,350.61-36.58Z" transform="translate(52.85 41.8)"/><path class="cls-22" d="M190.35,41.59" transform="translate(52.85 41.8)"/><path class="cls-1" d="M341.8-27.25q8-3.24,16.91-6.3s-7.52-.78-20.75.79a63.32,63.32,0,0,1,6.76,2.93Z" transform="translate(52.85 41.8)"/><path class="cls-23" d="M345-26.84,301.68,53.73,307,81.61a343,343,0,0,0,26.39,74S309.82,49.87,353.92-24a56.26,56.26,0,0,0-6.93-4.6Z" transform="translate(52.85 41.8)"/><path class="cls-24" d="M347-28.61c-.75-.42-1.51-.83-2.27-1.22C265.91,38.72,237.35,93.29,230.5,108.26c5.17-2.21,17.78-6.54,19.5-7.4A140.32,140.32,0,0,0,271.08,88c13.66-10.11,22.47-19.45,30.6-34.22L345-26.84Z" transform="translate(52.85 41.8)"/><path class="cls-25" d="M333.34,155.62q15.6-57.68,31.19-115.36c3.79-14,7.51-33,2.5-47.21-2.37-6.73-7.2-12.48-13.11-17.06C309.82,49.87,333.34,155.62,333.34,155.62Z" transform="translate(52.85 41.8)"/><path class="cls-26" d="M330.94-34.85c-17.1-3.89-42.4-2.94-59.29,3.17-20,7.23-38.51,26.58-53.25,41.29a320.46,320.46,0,0,0-28.05,32c63.82-56.68,119-71,147.61-74.35A56.22,56.22,0,0,0,330.94-34.85Z" transform="translate(52.85 41.8)"/><path class="cls-27" d="M283.06,5.44l.72-.48A169.29,169.29,0,0,0,228.3,109.45c0-.19.87-.62,2.2-1.19,6.76-14.78,34.73-68.18,111.3-135.51C305.86-12.67,285.3,3.62,283.06,5.44Z" transform="translate(52.85 41.8)"/><path class="cls-28" d="M344.72-29.83A63.32,63.32,0,0,0,338-32.76c-28.57,3.37-83.79,17.67-147.61,74.35A219.14,219.14,0,0,0,283.06,5.44c2.24-1.82,22.8-18.11,58.74-32.69Z" transform="translate(52.85 41.8)"/><path class="cls-29" d="M109-24.25a108.65,108.65,0,0,1,19.1,12.59A85.63,85.63,0,0,1,141.9,2.53C143,4,150.32,17.25,151.4,18.34,149.06,16.65,106.59-13.89,70-31Z" transform="translate(52.85 41.8)"/><path class="cls-30" d="M70-31c36.61,17.13,79.08,47.67,81.42,49.36a.3.3,0,0,0,.11.07,111.88,111.88,0,0,1-70-23.26L51.73-34.19Z" transform="translate(52.85 41.8)"/><path class="cls-31" d="M-6.83-28.4A38,38,0,0,1-.2-36.45C11.51-27.93,30.16-6.36,36.37,46.31c-.2,29.55-9,56.39-21.69,82.79l.27-1.55S40.19,30.08-6.83-28.4Z" transform="translate(52.85 41.8)"/><path class="cls-32" d="M-.2-36.45A30.27,30.27,0,0,1,6.38-41C64,29,72.75,140.8,72.75,140.8A163.85,163.85,0,0,1,37.51,58.87c-.26-4-.63-8.21-1.14-12.56C30.16-6.36,11.51-27.93-.2-36.45Z" transform="translate(52.85 41.8)"/><path class="cls-33" d="M4.15,49.12c.27-1,.54-2,.78-2.94,7.12-28.92-4.75-57.3-13-72.41.29-.52.56-1.06.87-1.57.12-.21.25-.4.38-.6,47,58.48,21.78,156,21.78,156l-.27,1.55c-.33.67-.64,1.35-1,2A167.31,167.31,0,0,1,4.15,49.12Z" transform="translate(52.85 41.8)"/><path class="cls-34" d="M32.69-37.49l19,3.3L81.48-4.85a141.36,141.36,0,0,1,40.59,93.62S87.54,2.86,32.69-37.49Z" transform="translate(52.85 41.8)"/><path class="cls-35" d="M4.93,46.18c-.24,1-.51,2-.78,2.94.46-3.43,1-6.83,1.68-10.22A120.31,120.31,0,0,1-3.26,68.57a176.16,176.16,0,0,1-9.07,16.59A121.32,121.32,0,0,1-37.6,113.28c2.12-39.33,11.79-77.8,21.41-116,2-8.06,4.14-16.23,8.11-23.52C.18-11.12,12.05,17.26,4.93,46.18Z" transform="translate(52.85 41.8)"/><path class="cls-36" d="M21.25-39.48l11.44,2C87.54,2.86,122.07,88.77,122.07,88.77A164.24,164.24,0,0,1,60.18,20.88c.36,1,.69,1.94,1,2.91C46.29-4.38,26.26-32.55,21.25-39.48Z" transform="translate(52.85 41.8)"/><path class="cls-37" d="M6.38-41c.51-.26,1-.53,1.53-.76l13.34,2.32c5,6.93,25,35.1,40,63.27a239,239,0,0,1,11.53,117S64,29,6.38-41Z" transform="translate(52.85 41.8)"/><path class="cls-38" d="M9.82-32,35.91,42.09,27.74,65a294.72,294.72,0,0,1-32.22,59.3s34-86.61,6.38-155.16a48.17,48.17,0,0,1,6.49-3Z" transform="translate(52.85 41.8)"/><path class="cls-39" d="M8.39-33.8c.7-.26,1.39-.5,2.09-.73C68.26,34.1,85.25,84.2,89.07,97.81,85,95.25,74.85,89.89,73.51,88.94A121.26,121.26,0,0,1,57.34,75.19C47.09,64.8,40.85,55.7,35.91,42.09L9.82-32Z" transform="translate(52.85 41.8)"/><path class="cls-40" d="M-4.48,124.34q-5.58-51-11.15-102c-1.36-12.4-2-29,4.15-40.39,2.9-5.4,7.76-9.64,13.38-12.74C29.52,37.73-4.48,124.34-4.48,124.34Z" transform="translate(52.85 41.8)"/><path class="cls-41" d="M22.84-37c15-1,36.37,3.14,49.9,10.57,16,8.79,29.14,27.66,39.7,42.11A274.28,274.28,0,0,1,132,46.56C85.37-10,40.4-29.47,16.61-36.13A49.66,49.66,0,0,1,22.84-37Z" transform="translate(52.85 41.8)"/><path class="cls-42" d="M58.13,3.58l-.55-.5a145.42,145.42,0,0,1,33.21,96c0-.17-.66-.64-1.72-1.3C85.3,84.37,68.66,35.34,12.62-32,41.18-14.81,56.47,1.74,58.13,3.58Z" transform="translate(52.85 41.8)"/><path class="cls-43" d="M10.48-34.53a55.35,55.35,0,0,1,6.13-1.6C40.4-29.47,85.37-10,132,46.56a188.05,188.05,0,0,1-73.86-43C56.47,1.74,41.18-14.81,12.62-32,11.9-32.82,11.21-33.67,10.48-34.53Z" transform="translate(52.85 41.8)"/><path class="cls-44" d="M-3.79,278.6H60.52L-3.79,214.29Z" transform="translate(52.85 41.8)"/><path class="cls-45" d="M62.6,239.5,58.08,235l-9.67-9.61A177.68,177.68,0,0,0,28.7,207.2L10,225.21l10.24-24.37A177.41,177.41,0,0,0-.9,188c-.92-.47-1.89-.94-2.89-1.36v27.63L60.52,278.6H93.63c1.53,0,7,.89,8.16-.09Z" transform="translate(52.85 41.8)"/><path class="cls-46" d="M94.35,196.81l-21.56-5.2L92.44,190c-.74-2.49-1.5-5-2.31-7.42a141,141,0,0,0-14.87-31.45l-17.39-2.58,13.2-3.5c-7.59-10.4-16.81-19.45-27.57-25.47l58.29,158.89a3.74,3.74,0,0,0,1.08-1.68c1.42-3.82.34-11.6.32-14.77A260.94,260.94,0,0,0,94.35,196.81Z" transform="translate(52.85 41.8)"/><path class="cls-47" d="M36.07,179.52l24,2.43-22.29,9.91a137.57,137.57,0,0,0,10.64,33.53l53.38,53.12L43.5,119.62A139.65,139.65,0,0,0,36.07,179.52Z" transform="translate(52.85 41.8)"/><path class="cls-48" d="M251.28,418.22s25-78.85,114.59-65.8c36.59,5.32,60.12,14.34,75.18,23.14.27-.27.39-.47.33-.57A105.06,105.06,0,0,0,364,323.5S264.9,330.3,251.28,418.22Z" transform="translate(52.85 41.8)"/><path class="cls-49" d="M243.63,411s22-96.64,105.88-120.09c0,0,44.36-3.42,78.37,20.85-17.27-15-38-26.8-60.63-29.88-19.6-2.67-40.69,2-56,14.28C311.29,296.12,240.08,369.75,243.63,411Z" transform="translate(52.85 41.8)"/><path class="cls-50" d="M245.05,385.38S280,245.83,362,191.6a174.63,174.63,0,0,0-75.26,48.14S228.71,308.63,245.05,385.38Z" transform="translate(52.85 41.8)"/><path class="cls-51" d="M175.69,445.54h30.7c-.15-17.71,1.17-45.08,6-87.16a328.47,328.47,0,0,1,25.69-95c4.15-26.73,2.08-47.7-1.77-72C236.28,191.37,149.64,337.51,175.69,445.54Z" transform="translate(52.85 41.8)"/><path class="cls-52" d="M208.77,215.38c-27.1,39.47-51.67,81.21-68.19,126.3-10.07,27.49-23.59,68-22.52,103.86h57.63c-26.05-108,60.59-254.17,60.59-254.17C231.86,192.35,212.15,210.46,208.77,215.38Z" transform="translate(52.85 41.8)"/><path class="cls-53" d="M225.91,445.54h84.27c8-3.21,16-6.59,23.87-10.32,8.95-4.24,100.73-53.4,107-59.66-15.06-8.8-38.59-17.82-75.18-23.14-89.63-13.05-114.59,65.8-114.59,65.8C264.9,330.3,364,323.5,364,323.5a331.27,331.27,0,0,1,64.66-11.11l-.78-.67c-34-24.27-78.37-20.85-78.37-20.85C265.66,314.32,243.63,411,243.63,411c-3.55-41.21,67.66-114.84,67.66-114.84l23.88-29.87A178.78,178.78,0,0,0,362,191.6c-82,54.23-117,193.78-117,193.78-16.34-76.75,41.72-145.64,41.72-145.64.29-2.57.47-5.36.51-8.25.12-9.69-1.34-20.57-5.41-28.35C211.34,329,220.55,418.26,225.91,445.54Z" transform="translate(52.85 41.8)"/><path class="cls-54" d="M206.39,445.54h19.52c-5.36-27.28-14.57-116.51,56-242.4a115.49,115.49,0,0,0-28.12,29.12c-4.09,7.11-8.3,15.08-12.42,23.85a114.39,114.39,0,0,0-4.84,16.14c.61-3.06,1.11-6,1.56-8.91a328.47,328.47,0,0,0-25.69,95C207.56,400.46,206.24,427.83,206.39,445.54Z" transform="translate(52.85 41.8)"/></g><path class="cls-55" d="M249.51,256.71l17.62,10.5c42.14-58.2,131.8-113,131.8-113C294,209.2,249.51,256.71,249.51,256.71Z" transform="translate(52.85 41.8)"/><path class="cls-56" d="M294.7,222.11l7.93,2.17s24.84-23.44,43.81-36.86A397.64,397.64,0,0,0,294.7,222.11Z" transform="translate(52.85 41.8)"/><path class="cls-57" d="M398.93,154.22s-89.66,54.79-131.8,113l26.8,16Z" transform="translate(52.85 41.8)"/><path class="cls-1" d="M410.18,370.8s-.82-.88-2.4-2.27C408.78,369.79,409.66,370.71,410.18,370.8Z" transform="translate(52.85 41.8)"/><path class="cls-58" d="M407.78,368.53c-9.1-8-43.68-33.31-94.94-7.2-50,25.47-92.91,67-123.9,114.53,6.21,14.4,20.56,25.32,36.3,17.46,28.26-14.11,54.09-30.31,76.39-53,15.75-16,29.38-34.2,46.69-48.5l.9-.73L337.7,359.06l17.07,27.82c16.24-11.63,35.9-19.25,55.41-16.08C409.66,370.71,408.78,369.79,407.78,368.53Z" transform="translate(52.85 41.8)"/><path class="cls-56" d="M355.66,379.07s8.54-6.43,14.9-8.17c7.34-2,14.9-3.63,22.48-2.84-1.57-.17-5.29-4.15-6.85-5.09-13.12-7.86-28.49-8.53-43.19-4.47C346.2,365.83,355.66,379.07,355.66,379.07Z" transform="translate(52.85 41.8)"/><path class="cls-59" d="M304.59,415a100,100,0,0,1-26,19.94l-18.19-31.51c-.8-1.38,9.53-10.57,10.78-11.65,2.63-2.29,9-8.8,12.62-7.29s7.88,10.81,10.1,14.11Q299.4,406.67,304.59,415Z" transform="translate(52.85 41.8)"/><path class="cls-56" d="M342.81,389.19a200.74,200.74,0,0,0-27.38,19.05,197.75,197.75,0,0,1-16.78-32c-.51-1.25,12.25-7.8,13.65-8.45,4.83-2.27,15.42-7,20.79-7.45C335.73,367.36,340.07,383.5,342.81,389.19Z" transform="translate(52.85 41.8)"/><path class="cls-60" d="M312.84,361.33c51.26-26.11,85.84-.84,94.94,7.2-2.14-2.71-4.86-7-5.86-8A80.2,80.2,0,0,0,391.07,351c-59.92-43.46-148.84,18.74-185.86,65.77-9.75,12.39-18.56,26.53-19.46,42.27a34,34,0,0,0,.11,5,39.7,39.7,0,0,0,3.08,11.77C219.93,428.35,262.85,386.8,312.84,361.33Z" transform="translate(52.85 41.8)"/><path class="cls-59" d="M255.37,395.35l22.71-17.9-9.45-13.76s-17.9,8.62-24.86,20.89Z" transform="translate(52.85 41.8)"/><polygon class="cls-56" points="379.86 383.16 382.9 391.06 348.24 406.87 342.16 393.19 379.86 383.16"/><path class="cls-56" d="M336.07,342l3.68,6.62s16.55-4.42,37.52.73C377.27,349.36,360.72,338.33,336.07,342Z" transform="translate(52.85 41.8)"/><path class="cls-61" d="M410.18,370.8a56.65,56.65,0,0,0-10.88-8.7,71.87,71.87,0,0,0-12.46-6.25A77.54,77.54,0,0,0,373.45,352c-1.13-.25-2.29-.36-3.44-.55l-1.72-.25c-.57-.09-1.15-.11-1.73-.17l-3.47-.3-3.48-.09a96.26,96.26,0,0,0-27.52,3.66,137.67,137.67,0,0,0-25.9,10.13,224.37,224.37,0,0,0-45.7,31.61q-10.34,9.4-20.41,19.06c-3.35,3.23-6.68,6.48-9.92,9.8s-6.47,6.67-9.38,10.23l-1.55-1.27c3-3.63,6.31-7,9.6-10.28s6.66-6.54,10-9.75q10.17-9.6,20.61-18.9a225.7,225.7,0,0,1,46.26-31.4,139,139,0,0,1,26.16-10,96.81,96.81,0,0,1,27.72-3.43l3.5.12,3.48.33c.58.07,1.17.1,1.74.19l1.73.27c1.15.2,2.32.33,3.46.59a77.16,77.16,0,0,1,13.4,3.95A72.14,72.14,0,0,1,399.36,362,56.59,56.59,0,0,1,410.18,370.8Z" transform="translate(52.85 41.8)"/><path class="cls-61" d="M186.21,462.25c.89-15.73,9.71-29.88,19.46-42.27,37-47,125.94-109.23,185.86-65.76a78.17,78.17,0,0,1,10.84,9.48,15,15,0,0,1,1,1.29c1.81,1.35,3.29,2.57,4.38,3.54-2.14-2.71-4.86-7-5.86-8A80.2,80.2,0,0,0,391.07,351c-59.92-43.46-148.84,18.74-185.86,65.77-9.75,12.39-18.56,26.53-19.46,42.27a34,34,0,0,0,.11,5c.1,1.06.26,2.12.46,3.18A33.79,33.79,0,0,1,186.21,462.25Z" transform="translate(52.85 41.8)"/><path class="cls-62" d="M342.78,338.35l-1.41-2c-51.87,1.68-108.5,45.28-136.16,80.42-9.75,12.39-18.56,26.53-19.46,42.27a34,34,0,0,0,.11,5,39.7,39.7,0,0,0,3.08,11.77l.16.34c17.51-11.45,47.56-33.59,89.84-73.41l-8.76-26,18.48,16.72C305,377.76,323.07,359.49,342.78,338.35Z" transform="translate(52.85 41.8)"/><polygon class="cls-63" points="104.23 294.79 32.81 336.97 48.22 374.56 116.41 335.44 104.23 294.79"/><polygon class="cls-63" points="365.56 294.79 436.98 336.97 414.25 374.56 346.06 335.44 365.56 294.79"/><polygon class="cls-64" points="173.84 255.47 116.15 277.28 70.73 303.17 83.45 342.69 153.86 472.16 229.75 486.24 305.63 472.16 376.05 342.69 388.76 303.17 343.34 277.28 285.65 255.47 173.84 255.47"/><path class="cls-65" d="M293.75,325.05c-9.21-8.25-21-9.68-32.38-5.19a83.75,83.75,0,0,0-24.08,14.46c-6.81,5.86-12.53,12.72-18.43,19.46-12.69,14.5-27.29,29.33-33.3,48.11a.75.75,0,0,1-1.36.17,182.31,182.31,0,0,0-25-38.1,244.07,244.07,0,0,0-64.16-53.85,143.82,143.82,0,0,0-20-10.1,109.51,109.51,0,0,0-21.32-5.43c-8.77-1.44-17.61-2.31-26.37-3.71l3.23,10L101,430.36l75.89,14.08,75.89-14.08,50.73-93.28A52.63,52.63,0,0,0,293.75,325.05Z" transform="translate(52.85 41.8)"/><polygon class="cls-66" points="182.17 287.36 295.71 293.6 379.15 333.04 388.76 303.17 343.34 277.28 285.65 255.47 173.84 255.47 116.15 277.28 70.73 303.17 79.53 330.52 126.53 306.76 182.17 287.36"/><polygon class="cls-67" points="116.15 281.66 173.84 259.85 285.65 259.85 343.34 281.66 387.57 306.87 388.76 303.17 343.34 277.28 285.65 255.47 173.84 255.47 116.15 277.28 70.73 303.17 71.92 306.87 116.15 281.66"/><polygon class="cls-63" points="183.95 340.8 229.52 392.49 265.27 339.99 283.97 335.31 283.97 265.58 167.28 265.58 167.28 335.72 183.95 340.8"/><path class="cls-68" d="M123.54,285.79c6,10.79,17.18,19.52,28.52,24.69a56.09,56.09,0,0,0,33.78,3.88,61.35,61.35,0,0,0,21.48-8.67l5.1-7.5,6-1.48a60.53,60.53,0,0,0,12.76-19.58V223.79H114.44v24.66C116.29,261.23,117.26,274.45,123.54,285.79Z" transform="translate(52.85 41.8)"/><polygon class="cls-65" points="229.52 392.49 265.58 351.29 285.83 345.95 292.89 375.28 298.46 339.63 295.45 328.2 265.27 339.99 229.52 392.49"/><polygon class="cls-65" points="229.52 392.49 184.51 353.3 163.93 359.07 142.59 373.88 148.62 345.01 162.92 331.21 175.72 333.47 187.27 341 229.52 392.49"/><path class="cls-69" d="M119.31,264.77l8.09-51.16-27.17,20.51L84.71,327.07l29.81-29.78L133,302.76l43.64,47.93L125,285Zm126.21-35.65-17.26-11.81-1.72,60.94L214.18,290l-37.5,60.7,36.13-49.34L241,295.9l10.45,29.53Z" transform="translate(52.85 41.8)"/><polygon class="cls-70" points="172.13 306.57 180.25 255.41 153.08 275.91 145.56 320.96 172.13 306.57"/><polygon class="cls-70" points="298.37 270.92 281.1 259.11 279.87 302.77 291.34 307.24 301.84 327.58 298.37 270.92"/><path class="cls-71" d="M232.6,273.88s-3,25.45-54.85,25.45c-49.45,0-54.85-25.45-54.85-25.45V169H232.6Z" transform="translate(52.85 41.8)"/><path class="cls-72" d="M207.07,169V277.16h-27v22.13c49.57-.76,52.51-25.41,52.51-25.41V169Z" transform="translate(52.85 41.8)"/><path class="cls-3" d="M228,169v104.9s-2.76,23.1-47.91,25.27v.14c49.57-.76,52.51-25.41,52.51-25.41V169Z" transform="translate(52.85 41.8)"/><path class="cls-63" d="M232.6,253.36V187.27l-10.22-1.35-3.88,3.22v.41a32.58,32.58,0,0,0-31.87,25.85l-3.11-1a6.91,6.91,0,0,0-11.25,0l-3.11,1a32.62,32.62,0,0,0-23.56-24.77v-1.49l-3.88-3.22L122.9,188.4v68.42l7.29-2.93a32.53,32.53,0,0,0,39.23-26.47l6.84-2.25a6.19,6.19,0,0,0,3.27,0l6.84,2.25a32.55,32.55,0,0,0,44,25Z" transform="translate(52.85 41.8)"/><path class="cls-68" d="M232.6,198V169H122.9v29A322,322,0,0,0,232.6,198Z" transform="translate(52.85 41.8)"/><path class="cls-64" d="M233.05,165.2V141.68a55.18,55.18,0,1,0-110.35,0V165.2Z" transform="translate(52.85 41.8)"/><path class="cls-65" d="M156.2,143.29V98.6a45.41,45.41,0,0,0-27.36,37.7v7Z" transform="translate(52.85 41.8)"/><path class="cls-66" d="M177.88,86.5c.14.41,2.13,68.93,2.4,68.67,1.33,17.21,3.36,10,3.36,10h49.41V141.68A55.17,55.17,0,0,0,177.88,86.5Z" transform="translate(52.85 41.8)"/><path class="cls-67" d="M177.88,86.5a.66.66,0,0,0,0,.11,55.16,55.16,0,0,1,51.14,55v23.53l4,0V141.68A55.17,55.17,0,0,0,177.88,86.5Z" transform="translate(52.85 41.8)"/><rect class="cls-73" x="175.54" y="189.11" width="110.36" height="17.88"/><path class="cls-64" d="M272.56,178.23h0a320.53,320.53,0,0,1-189.36,0h0l39.5-23H233.05Z" transform="translate(52.85 41.8)"/><path class="cls-65" d="M138.29,184.38a363.67,363.67,0,0,1-40.08-6.27L132.35,158l22.31.39S138.22,184.37,138.29,184.38Z" transform="translate(52.85 41.8)"/><path class="cls-66" d="M233.05,155.2H180.23q6.3,18.48,12.62,37a317.94,317.94,0,0,0,79.71-13.94h0Z" transform="translate(52.85 41.8)"/><path class="cls-74" d="M195.22,158.49l-5.95.11,11.1,26.46c3.11,0,6.42-.07,9.81-.28C205.31,176,200,167.35,195.22,158.49Z" transform="translate(52.85 41.8)"/><path class="cls-74" d="M215.43,184.38a363.26,363.26,0,0,0,40.07-6.27L221.37,158l-22.31.39S215.49,184.37,215.43,184.38Z" transform="translate(52.85 41.8)"/><path class="cls-67" d="M268.85,179.32c1.24-.37,2.48-.71,3.71-1.09h0l-39.51-23h-5.56Z" transform="translate(52.85 41.8)"/><polygon class="cls-3" points="234.01 287.68 240.02 287.68 236.92 259.99 230.91 259.99 234.01 287.68"/><path class="cls-75" d="M185.1,220.19c.49,8.28,2.17,19.28,3.08,24.74a2.36,2.36,0,0,1-.05,1.42c-.42.89-1.65.92-2.62.79a43.58,43.58,0,0,1-10.34-2.73" transform="translate(52.85 41.8)"/><path class="cls-76" d="M157.75,256.09s32.79-7.27,53.2-5.62c0,0,.12,3.52.48,12.17,0,0,.37,16.79-11.88,16.87,0,0-33.67.72-34.51.44s-8.13-1.69-7.57-8.42S157.75,256.09,157.75,256.09Z" transform="translate(52.85 41.8)"/><path class="cls-77" d="M189.55,271.2c-9.65-.8-20.85,1-28.9,6.9A15.09,15.09,0,0,0,165,280c.84.28,34.51-.44,34.51-.44a9.89,9.89,0,0,0,7.91-3.62C201.94,273,195.25,271.67,189.55,271.2Z" transform="translate(52.85 41.8)"/><path class="cls-78" d="M207.22,276.13l.24-.24c-5.52-2.9-12.21-4.22-17.91-4.69-8.44-.7-18.05.66-25.71,4.93Z" transform="translate(52.85 41.8)"/><path class="cls-3" d="M211.21,257.23c-.19-4.73-.26-6.76-.26-6.76-16-1.29-39.49,2.88-49,4.75v6.54S187,264.58,211.21,257.23Z" transform="translate(52.85 41.8)"/><path class="cls-69" d="M211.12,253.48a21.89,21.89,0,0,0-.17-3c-16-1.29-39.49,2.88-49,4.75v3.15C179.85,258.86,201.92,256.49,211.12,253.48Z" transform="translate(52.85 41.8)"/><path class="cls-71" d="M218.5,183.45l3.88-3.22,19.22,2.53,18.46,14.42,6.68,45.2s90.51,41.25,111.63,49.27a19.83,19.83,0,0,1,8.91,6.74c10.53,14.33,11.88,23.21,11.88,23.21s-3,22.17-13.15,23.21c-36.73,3.78-48.62-13.5-129.5-87.34l-13.65-5.67L218.5,242Z" transform="translate(52.85 41.8)"/><path class="cls-72" d="M241.07,187.93l13.84,12.67,8,48.6,136.28,72.63c0-.13,0-.23,0-.23s-1.35-8.88-11.88-23.21a19.83,19.83,0,0,0-8.91-6.74c-21.12-8-111.63-49.27-111.63-49.27l-6.68-45.2L241.6,182.76l-19.22-2.53v5.69Z" transform="translate(52.85 41.8)"/><path class="cls-3" d="M387.28,298.39a19.83,19.83,0,0,0-8.91-6.74c-21.12-8-111.63-49.27-111.63-49.27l-6.68-45.2L241.6,182.76l-19.22-2.53V182l17.36,2.29,18.46,14.41,6.69,45.2s90.5,41.26,111.62,49.27a19.72,19.72,0,0,1,8.91,6.75c7.18,9.76,10.08,17,11.21,20.61l2.52,1.34c0-.13,0-.23,0-.23S397.81,312.72,387.28,298.39Z" transform="translate(52.85 41.8)"/><path class="cls-79" d="M371.65,305.32c3-4.21,6.14-8.37,9.36-12.44a19.78,19.78,0,0,0-2.64-1.23c-4.94-1.88-13.67-5.57-24.15-10.12Q349,286.65,344.06,292c-5.75,6.2-11.36,12.61-16.62,19.23-1.67,2.1-3.36,4.31-4.93,6.62,10.29,8.89,18.58,15.27,26.2,19.63,4.1-6.18,8.44-12.22,12.82-18.22.8-1.11-8.82-12.28-8.82-12.28s12.51,7.22,13.15,6.35C367.8,310.65,369.74,308,371.65,305.32Z" transform="translate(52.85 41.8)"/><path class="cls-80" d="M248.67,246.25a50.56,50.56,0,0,1-3.75-22.77" transform="translate(52.85 41.8)"/><path class="cls-71" d="M145.6,183.45l-3.88-3.22-19.22,2.53L104,197.18l-6.68,45.2S6.86,283.63-14.27,291.65a19.74,19.74,0,0,0-8.9,6.74c-10.54,14.33-11.89,23.21-11.89,23.21S-38.7,336.27-29,347.08a13.56,13.56,0,0,0,16.5,2.84c48-25.72,61.74-42.07,120.08-92.45l13.65-5.67L145.6,242Z" transform="translate(52.85 41.8)"/><path class="cls-80" d="M114.27,246.25A50.56,50.56,0,0,0,118,223.48" transform="translate(52.85 41.8)"/><polygon class="cls-72" points="175.35 224.56 179.43 229.66 198.68 231.76 198.56 225.33 194.57 222.03 175.35 224.56"/><path class="cls-72" d="M79.54,250.46C52.08,262.89.94,285.88-14.27,291.65a19.74,19.74,0,0,0-8.9,6.74c-10.54,14.33-11.89,23.21-11.89,23.21s0,.1,0,.23L79.23,258.58Z" transform="translate(52.85 41.8)"/><rect class="cls-81" x="159.96" y="201.79" width="11.49" height="30.21" transform="translate(373.09 33.69) rotate(71.86)"/><rect class="cls-81" x="184.33" y="201.79" width="11.49" height="30.21" transform="translate(508.21 145.56) rotate(108.14)"/><circle class="cls-3" cx="230.74" cy="254.04" r="6.95"/><circle class="cls-82" cx="230.74" cy="254.54" r="6.95"/><path class="cls-83" d="M183.05,212.75a5.16,5.16,0,1,1-5.15-5.16A5.16,5.16,0,0,1,183.05,212.75Z" transform="translate(52.85 41.8)"/><circle class="cls-3" cx="137.92" cy="215.42" r="32.56" transform="matrix(0.82, -0.58, 0.58, 0.82, -46.06, 160.57)"/><circle class="cls-84" cx="137.29" cy="216.42" r="32.56" transform="translate(-18.66 109.59) rotate(-22.17)"/><circle class="cls-81" cx="190.14" cy="258.22" r="30.91"/><circle class="cls-3" cx="137.67" cy="215.66" r="25.89" transform="translate(-51.16 341.44) rotate(-76.61)"/><circle class="cls-82" cx="137.29" cy="216.42" r="25.89" transform="translate(-59.98 202.26) rotate(-45)"/><circle class="cls-85" cx="137.29" cy="216.42" r="23.83" transform="translate(-18.89 109.91) rotate(-22.25)"/><path class="cls-81" d="M145.73,216.42a8.44,8.44,0,1,1-8.44-8.44A8.44,8.44,0,0,1,145.73,216.42Z" transform="translate(52.85 41.8)"/><path class="cls-3" d="M146.17,211.83a4,4,0,1,1-4-4A4,4,0,0,1,146.17,211.83Z" transform="translate(52.85 41.8)"/><path class="cls-86" d="M152.8,198.37a24.08,24.08,0,0,0-7.13-4.23L115,224.81a24,24,0,0,0,4.24,7.12Z" transform="translate(52.85 41.8)"/><path class="cls-87" d="M157.28,203.56a23.78,23.78,0,0,0-2.23-2.95l-33.58,33.57a25,25,0,0,0,3,2.24Z" transform="translate(52.85 41.8)"/><circle class="cls-3" cx="219.03" cy="215.42" r="32.56" transform="translate(-12.24 140.35) rotate(-22.17)"/><circle class="cls-84" cx="218.4" cy="216.42" r="32.56" transform="translate(-12.67 140.19) rotate(-22.17)"/><circle class="cls-81" cx="271.24" cy="258.22" r="30.91"/><circle class="cls-3" cx="218.78" cy="215.66" r="25.89" transform="translate(-33.1 296.42) rotate(-51.88)"/><circle class="cls-82" cx="218.4" cy="216.42" r="25.89" transform="translate(18.59 433.44) rotate(-79.48)"/><circle class="cls-85" cx="218.4" cy="216.42" r="23.83" transform="translate(-12.85 140.63) rotate(-22.25)"/><path class="cls-81" d="M226.84,216.42A8.44,8.44,0,1,1,218.4,208,8.44,8.44,0,0,1,226.84,216.42Z" transform="translate(52.85 41.8)"/><path class="cls-3" d="M226,211.83a4,4,0,1,1-4-4A4,4,0,0,1,226,211.83Z" transform="translate(52.85 41.8)"/><path class="cls-88" d="M233.9,198.37a23.91,23.91,0,0,0-7.12-4.23l-30.67,30.67a24.16,24.16,0,0,0,4.23,7.12Z" transform="translate(52.85 41.8)"/><path class="cls-89" d="M238.39,203.56a22.9,22.9,0,0,0-2.24-2.95l-33.57,33.57a24.88,24.88,0,0,0,2.95,2.24Q222,220,238.39,203.56Z" transform="translate(52.85 41.8)"/><path class="cls-61" d="M217.86,382.06V382l-.66.45Z" transform="translate(52.85 41.8)"/><path class="cls-9" d="M124,95.88l5-7.76-4.64-2.45-4.56,8C121.2,94.4,122.64,95.15,124,95.88Z" transform="translate(52.85 41.8)"/><path class="cls-9" d="M117,98.79l-5.3,9.33,3.17,2.25,5.64-8.83C119.33,100.66,118.17,99.74,117,98.79Z" transform="translate(52.85 41.8)"/><path class="cls-90" d="M300.25,289.45l4,5.89-10-1.89a236.69,236.69,0,0,0-59.18,59L245,361.8l-15.13-1.65c-2.91,4.45-5.76,9.06-8.53,13.9-32.77,57.19-37.48,82.69-34,93.88l1.85-5.5c95.7-181.94,191.72-203.85,206-206.16l0,0S350,257.52,300.25,289.45Z" transform="translate(52.85 41.8)"/><path class="cls-91" d="M289.31,355.57l20.21,14.58C324,352.66,340,332.5,357.21,309.31l-8.56-9.6L361.12,304q16.29-22.08,34.1-47.77c-14.3,2.31-110.32,24.22-206,206.16l-1.85,5.5c3.54,11.27,15.44,8,15.44,8s34.48-20.73,98.1-95.55Z" transform="translate(52.85 41.8)"/><path class="cls-59" d="M344.16,285.17s11.22-10.83,41.2-24.23l-26,36Z" transform="translate(52.85 41.8)"/><path class="cls-56" d="M282.91,306.87a93.24,93.24,0,0,1,8.76-6.59,33.22,33.22,0,0,0,6.9,3.19c-1.77,2.29-24.14,25.46-23.32,26.18-2.59-2.24-4.42-5.11-6.46-7.85A93.72,93.72,0,0,1,282.91,306.87Z" transform="translate(52.85 41.8)"/><path class="cls-56" d="M308,289.48a50.28,50.28,0,0,1,3.86,4.13c11.37-8.56,23.53-16.08,35.5-23.85C344.39,271.69,330.58,274.24,308,289.48Z" transform="translate(52.85 41.8)"/><path class="cls-61" d="M287.71,355.13,299.29,380c-63.62,74.82-98.1,95.55-98.1,95.55a16.31,16.31,0,0,1-6.8.13,15.81,15.81,0,0,0,8.4.31s34.48-20.73,98.1-95.55l-11.08-23.77Z" transform="translate(52.85 41.8)"/><path class="cls-61" d="M393.05,256.67q-17.48,25.21-33.46,46.84l1.53.53q16.29-22.08,34.1-47.77C394.64,256.36,393.9,256.5,393.05,256.67Z" transform="translate(52.85 41.8)"/><path class="cls-61" d="M347.05,299.27l8.56,9.6c-17.11,23-32.89,43-47.32,60.39l1.23.89C324,352.66,340,332.5,357.21,309.31l-8.41-9.43Z" transform="translate(52.85 41.8)"/><path class="cls-59" d="M342.54,319.73l7.67-9.7-16.68-17.6s-7.91,5.47-12,8.77C328.58,307.32,335.39,313.74,342.54,319.73Z" transform="translate(52.85 41.8)"/><path class="cls-59" d="M315,306.68c-16.38,14.18-31.38,30.51-31.38,30.51l25.7,24.6,28-35.48C329.7,320,322.15,313.55,315,306.68Z" transform="translate(52.85 41.8)"/><path class="cls-61" d="M213.69,422.3c5-9.3,10.45-18.33,16.06-27.26s11.5-17.67,17.64-26.23,12.57-16.93,19.38-25a267.92,267.92,0,0,1,21.67-23c7.78-7.11,15.68-14.06,23.8-20.78a300.81,300.81,0,0,1,25.22-19,162.33,162.33,0,0,1,27.75-15,200.5,200.5,0,0,1,30-9.73,201.34,201.34,0,0,0-29.91,10,162.59,162.59,0,0,0-27.57,15.2,301.4,301.4,0,0,0-25,19.18c-8,6.77-15.9,13.79-23.6,20.93a267.12,267.12,0,0,0-21.39,23.1c-6.72,8.07-13.05,16.47-19.12,25.05S236.77,387,231.24,396s-10.85,18-15.78,27.26Z" transform="translate(52.85 41.8)"/><path class="cls-92" d="M160.15,473.55c-8.72-32.92-24-72.68-50.47-116.75L72.41,344.2l21.77-11.74c-10.35-15.37-22.09-31.18-35.36-47.33l-20.42-.49,9.67-12.28C36.56,259,24,245.51,10.3,231.83l-.13.27L111,476.3Z" transform="translate(52.85 41.8)"/><path class="cls-61" d="M37,286.42l20.42.49c13.06,15.89,24.62,31.44,34.84,46.57l1.9-1c-10.35-15.37-22.09-31.18-35.36-47.33l-20.39-.49Z" transform="translate(52.85 41.8)"/><path class="cls-61" d="M158.31,473.65l1.84-.1c-8.72-32.92-24-72.68-50.47-116.75L73.59,344.6,71,346l37.27,12.6C134.33,401.91,149.53,441.07,158.31,473.65Z" transform="translate(52.85 41.8)"/><path class="cls-61" d="M46.67,274.13l1.4-1.77C36.56,259,24,245.51,10.3,231.83l-.13.27,2,4.79Q30.81,255.73,46.67,274.13Z" transform="translate(52.85 41.8)"/><path class="cls-93" d="M15.73,407l39.72-33.31-34.64,46a410.63,410.63,0,0,0,31.66,59.89L111,476.3,10.17,232.1c-1.53,3.15-16.34,35.4-13.45,88.06l27.64-10.83L-1.26,341.22A302.59,302.59,0,0,0,15.73,407Z" transform="translate(52.85 41.8)"/><path class="cls-94" d="M38.73,328.32l-6.56-20L4.65,344.88,7.1,355.29A402.23,402.23,0,0,1,38.73,328.32Z" transform="translate(52.85 41.8)"/><path class="cls-94" d="M8.94,363.1l7.56,29.16,33.78-29.88-8.66-25.26C36.71,341.06,14.58,358,8.94,363.1Z" transform="translate(52.85 41.8)"/><path class="cls-94" d="M1,309.22l27-9.6L12.2,248.32S1.26,276.59,1,309.22Z" transform="translate(52.85 41.8)"/><path class="cls-59" d="M68.74,305.58l-8.46-11-17.21,1.12,6.76,14.14C56.05,308,62.41,306.88,68.74,305.58Z" transform="translate(52.85 41.8)"/><path class="cls-59" d="M55.37,321.41l8.92,18.67L87,329.4,75.63,314.56C68.88,316.86,62.18,319.28,55.37,321.41Z" transform="translate(52.85 41.8)"/><line class="cls-95" x1="63.01" y1="273.89" x2="148.63" y2="480.39"/><polygon class="cls-59" points="125.36 395.36 158.14 403.94 174.52 434.76 134.34 424.23 125.36 395.36"/><polygon class="cls-59" points="137.85 434.37 174.91 441 192.86 481.97 158.92 488.99 137.85 434.37"/><path class="cls-96" d="M345.59,451.4c55.49-6.59,125.63-8.8,209.57.25l43.35,38.45,3.58-32.38c30,4.51,61.58,10.46,94.66,18.09l14,24.39,12.29-18c27.66,7,56.29,15.08,85.94,24.53l-.31.3-435.26,5.18Z" transform="translate(52.85 41.8)"/><path class="cls-61" d="M709,502.8l-14-24.4c-32.54-7.5-63.61-13.37-93.18-17.86l.32-2.82c30,4.51,61.58,10.46,94.66,18.09l14,24.37Z" transform="translate(52.85 41.8)"/><path class="cls-61" d="M346.63,453.66l-1-2.26c55.49-6.59,125.63-8.8,209.57.25l42,37.23-.42,3.81-43.35-38.44C470.84,445.34,401.67,447.33,346.63,453.66Z" transform="translate(52.85 41.8)"/><path class="cls-61" d="M721.31,484.76l1.77-2.6c27.66,7,56.29,15.08,85.94,24.53,0,0-.11.12-.31.3l-8.55.1Q759.48,494.36,721.31,484.76Z" transform="translate(52.85 41.8)"/><path class="cls-97" d="M540.42,591.14,565,525.89l-47.08,65.72a842.55,842.55,0,0,1-111.28-7.1l-33.15-72.34L808.71,507c-3.79,3.48-43,38.12-124.51,62l-1.63-39L651,577.49A616.46,616.46,0,0,1,540.42,591.14Z" transform="translate(52.85 41.8)"/><path class="cls-94" d="M644.47,522.51,679,520.05l-37.38,52.2-17.36,2.45A452.53,452.53,0,0,0,644.47,522.51Z" transform="translate(52.85 41.8)"/><path class="cls-94" d="M611.24,576.54l-49.06,6,23.22-56.3,43.87-2.67C626.51,531.56,615.29,567.08,611.24,576.54Z" transform="translate(52.85 41.8)"/><path class="cls-94" d="M698,558.13l-3.05-37.55L782.83,513S747.18,540.87,698,558.13Z" transform="translate(52.85 41.8)"/><path class="cls-59" d="M659.33,474.46,681.55,479l9.51,21.36-25.81-.81C663.88,491.07,661.49,482.78,659.33,474.46Z" transform="translate(52.85 41.8)"/><path class="cls-59" d="M644.09,498.83,610,497.76l1.36-33,29.87,6C642.18,480.15,642.88,489.51,644.09,498.83Z" transform="translate(52.85 41.8)"/><line class="cls-95" x1="861.55" y1="548.79" x2="493.27" y2="552.72"/><polygon class="cls-59" points="637.11 536.63 602.77 501.53 545.45 497.76 587.57 540.8 637.11 536.63"/><polygon class="cls-59" points="569.93 541.83 535.75 500.53 462.06 500.15 473.55 544.78 569.93 541.83"/><path class="cls-98" d="M373.45,512.17l86.07-1a721.83,721.83,0,0,0,62.2-62.56,941.39,941.39,0,0,0-137.11-.84q-15.64,9.11-31.77,19.47Z" transform="translate(52.85 41.8)"/><path class="cls-99" d="M-3.38,411.15v96H109.9C69.07,448.14,17.41,420.47-3.38,411.15Z" transform="translate(52.85 41.8)"/><path class="cls-100" d="M146,476.65S83.87,372.67-3.38,361.32v49.83c20.79,9.32,72.45,37,113.28,96h37.31Z" transform="translate(52.85 41.8)"/><path class="cls-101" d="M146.33,484.78l-.32-8.13S83.87,372.67-3.38,361.32v4.83C76.42,381.35,135,467.15,146.33,484.78Z" transform="translate(52.85 41.8)"/><path class="cls-101" d="M171.76,481.62s-67.64-82.2-119.5-68.87c0,0-8.27,4.58-19.52,9.81,0,0,59.92-22.07,110.75,70.9Z" transform="translate(52.85 41.8)"/><path class="cls-102" d="M51.07,414.56s-1.93,1.07-5.18,2.76c50-2.41,92,47.34,109.87,72.32l14.82-6.21S102.94,401.23,51.07,414.56Z" transform="translate(52.85 41.8)"/><path class="cls-103" d="M45.89,417.32c-3.49,1.81-8.5,4.34-14.33,7.05,0,0,59.92-22.07,110.75,70.91l13.45-5.64C137.92,464.66,95.92,414.91,45.89,417.32Z" transform="translate(52.85 41.8)"/><path class="cls-104" d="M46.86,441.51l-.9,7.06,8.09-6.25A236.61,236.61,0,0,1,133.61,468L129,480.77l12.72-8.35q6.91,3.94,13.92,8.49c55.2,36,71,56.58,73,68.15L224.46,545C56.46,426.54-39,450.71-52.81,455.17l0,0S-12,435.7,46.86,441.51Z" transform="translate(52.85 41.8)"/><path class="cls-105" d="M86.69,495.4,75.33,517.58c-20.89-9-44.24-19.67-70.15-32.47l3.25-12.45L-.7,482.19q-24.55-12.26-52.11-27C-39,450.71,56.46,426.54,224.46,545l4.15,4.06c2,11.65-10.09,14.19-10.09,14.19s-40.13-2.77-130.83-40.45Z" transform="translate(52.85 41.8)"/><path class="cls-59" d="M5.82,457.67s-14.93-4.53-47.72-2.83l39.55,20.23Z" transform="translate(52.85 41.8)"/><path class="cls-56" d="M70.23,449.12a94.16,94.16,0,0,0-10.8-1.88,32.73,32.73,0,0,1-4.69,6c2.62,1.23,33.08,11.69,32.67,12.7,1.29-3.17,1.62-6.56,2.18-9.93A94.1,94.1,0,0,0,70.23,449.12Z" transform="translate(52.85 41.8)"/><path class="cls-56" d="M40,445.06a52.72,52.72,0,0,0-1.56,5.43C24.4,448,10.15,446.88-4,445.41-.52,445.77,12.94,441.76,40,445.06Z" transform="translate(52.85 41.8)"/><path class="cls-106" d="M87.92,494.29l1,27.39c90.7,37.68,130.84,40.45,130.84,40.45a16.3,16.3,0,0,0,6.1-3,15.75,15.75,0,0,1-7.33,4.1s-40.13-2.77-130.83-40.45l-1-26.21Z" transform="translate(52.85 41.8)"/><path class="cls-106" d="M-50.69,454.53Q-23.66,469,.42,481L-.7,482.19q-24.55-12.26-52.11-27C-52.24,455-51.53,454.77-50.69,454.53Z" transform="translate(52.85 41.8)"/><path class="cls-106" d="M9.66,471.54,6.4,484C32.1,496.68,55.26,507.32,76,516.23l-.69,1.35c-20.89-9-44.24-19.67-70.15-32.47l3.2-12.24Z" transform="translate(52.85 41.8)"/><path class="cls-59" d="M23,487.71l-11.24-5.15,6.84-23.26s9.54,1.27,14.69,2.35C29.77,470.31,26.62,479.12,23,487.71Z" transform="translate(52.85 41.8)"/><path class="cls-59" d="M41.59,463.55c21,5.18,41.83,12.89,41.83,12.89L71.72,510,30.6,491.2C34.52,482.09,38.33,472.92,41.59,463.55Z" transform="translate(52.85 41.8)"/><path class="cls-106" d="M183.24,522.05c-8.6-6-17.47-11.65-26.45-17.1s-18.14-10.61-27.44-15.51-18.76-9.47-28.42-13.6A266.73,266.73,0,0,0,71.37,465c-10.11-2.86-20.3-5.54-30.54-7.91a302.17,302.17,0,0,0-31-5.69,163.09,163.09,0,0,0-31.47-1,201.44,201.44,0,0,0-31.17,4.75,202.32,202.32,0,0,1,31.15-5,164.71,164.71,0,0,1,31.55.74A306.21,306.21,0,0,1,41,456.37c10.28,2.29,20.48,4.89,30.64,7.68a268.4,268.4,0,0,1,29.78,10.64c9.72,4.07,19.25,8.61,28.62,13.42s18.58,10,27.64,15.34,18,11,26.71,17Z" transform="translate(52.85 41.8)"/><path class="cls-98" d="M141.74,472.42,129,480.77,133.61,468c-2.25-1.19-4.49-2.31-6.72-3.4l-6,1.89a263,263,0,0,0-33.48,47.47l.32,8.88c4.47,1.86,8.78,3.6,13,5.29,14.33-20.36,28.64-38.64,42.4-54.89Z" transform="translate(52.85 41.8)"/><path class="cls-107" d="M312.64,347.4a52.31,52.31,0,0,0-11.93,2.41C249.17,364.34,232,469.4,232,469.4L243.94,468l.28-3.11C263.37,372.67,299.66,351.93,312.64,347.4Z" transform="translate(52.85 41.8)"/><path class="cls-108" d="M322.52,348.48a23.6,23.6,0,0,0-9.88-1.08c-13,4.53-49.27,25.27-68.42,117.44l-.28,3.11,15.9-1.94C258.73,371.11,322.52,348.48,322.52,348.48Z" transform="translate(52.85 41.8)"/><path class="cls-109" d="M298.63,363.84c12.83-11.43,23.89-15.36,23.89-15.36a23.6,23.6,0,0,0-9.88-1.08,52.31,52.31,0,0,0-11.93,2.41,44.29,44.29,0,0,0-4.34,1.47C298.64,354.83,298.89,359.55,298.63,363.84Z" transform="translate(52.85 41.8)"/><path class="cls-110" d="M309.9,347.24a39.89,39.89,0,0,0-9.19,2.53s36.34,18.27,33.7,44.37C339.13,364.4,319.37,351.6,309.9,347.24Z" transform="translate(52.85 41.8)"/><path class="cls-111" d="M322.52,348.46s-4.19-2.52-12.14-1.3l-.48.08c9.47,4.36,29.23,17.16,24.51,46.9C334.41,394.14,343.66,364.78,322.52,348.46Z" transform="translate(52.85 41.8)"/><path class="cls-101" d="M159,465.82S129.28,363.61,76.36,355.4c0,0-9.41,1-21.8,1.32,0,0,63.76,3.35,73.8,108.84Z" transform="translate(52.85 41.8)"/><path class="cls-112" d="M74.56,356.6s-2.2.22-5.86.49c46.92,17.52,65.9,79.8,72.44,109.79l16.07.14S127.47,364.81,74.56,356.6Z" transform="translate(52.85 41.8)"/><path class="cls-113" d="M68.7,357.09c-3.92.29-9.53.64-16,.83,0,0,63.77,3.35,73.81,108.84l14.58.12C134.6,436.89,115.62,374.61,68.7,357.09Z" transform="translate(52.85 41.8)"/><path class="cls-114" d="M76.36,355.4l-12.58.76c-7.89,6.15-21.56,21.11-15.45,47.91C42.52,378.15,76.36,355.4,76.36,355.4Z" transform="translate(52.85 41.8)"/><path class="cls-115" d="M63.78,356.16l-9.22.56c-19,18.95-6.23,47.35-6.23,47.35C42.22,377.27,55.89,362.31,63.78,356.16Z" transform="translate(52.85 41.8)"/><path class="cls-116" d="M260.9,319.33l-5.3-3.11-1,.3s-71,50-95.65,130.26l21.81-3.42C186.12,386.2,260.9,319.33,260.9,319.33Z" transform="translate(52.85 41.8)"/><path class="cls-117" d="M254.6,316.52l1-.3L246.68,311c-70.25,41-107,138.83-107,138.83l19.32-3C183.64,366.56,254.6,316.52,254.6,316.52Z" transform="translate(52.85 41.8)"/><path class="cls-109" d="M255.6,316.22,246.68,311c-1,.6-2.06,1.22-3.08,1.85A87.05,87.05,0,0,1,246,333.89c8.82-9.11,14.91-14.56,14.91-14.56Z" transform="translate(52.85 41.8)"/><path class="cls-118" d="M267.21,320.74,246.68,311s29.41,37.09,30.9,77.38C281.17,352,272.92,330.72,267.21,320.74Z" transform="translate(52.85 41.8)"/><path class="cls-119" d="M276.84,325.31l-9.63-4.57c5.71,10,14,31.27,10.37,67.61C277.58,388.35,286.91,341.72,276.84,325.31Z" transform="translate(52.85 41.8)"/><path class="cls-120" d="M223.08,506.37C218.41,483.65,209.53,456,193.2,425l-24.87-10,15.26-7.16c-6.46-10.85-13.84-22.05-22.25-33.54l-13.87-1.11,7-8c-7.32-9.5-15.34-19.17-24.15-29l-.1.18,59.28,170Z" transform="translate(52.85 41.8)"/><path class="cls-61" d="M146.46,374.39l13.87,1.11q12.4,17,21.93,33l1.33-.63c-6.46-10.85-13.84-22.05-22.25-33.54l-13.86-1.11Z" transform="translate(52.85 41.8)"/><path class="cls-61" d="M221.83,506.37h1.25C218.41,483.65,209.53,456,193.2,425l-24.08-9.68-1.8.85,24.87,10C208.25,456.65,217.1,483.87,221.83,506.37Z" transform="translate(52.85 41.8)"/><path class="cls-61" d="M153.49,366.39l1-1.15c-7.32-9.5-15.34-19.17-24.15-29l-.1.18,1.16,3.34Q143.41,353.28,153.49,366.39Z" transform="translate(52.85 41.8)"/><path class="cls-121" d="M127.38,455.58l28.29-21.14-25.32,30a279,279,0,0,0,19.26,41.95h39.93l-59.28-170c-1.16,2.09-12.46,23.46-12.5,59.39L137,389.49,118.33,410.2A205.81,205.81,0,0,0,127.38,455.58Z" transform="translate(52.85 41.8)"/><path class="cls-94" d="M146,403l-3.7-13.84-20.11,23.81,1.27,7.18A275.83,275.83,0,0,1,146,403Z" transform="translate(52.85 41.8)"/><path class="cls-94" d="M124.44,425.48l4,20.12,24.12-19-4.94-17.51C144.17,411.54,128.47,422.22,124.44,425.48Z" transform="translate(52.85 41.8)"/><path class="cls-94" d="M121.09,388.52,139.8,383,131,347.52A131.45,131.45,0,0,0,121.09,388.52Z" transform="translate(52.85 41.8)"/><path class="cls-59" d="M167.31,388.63,162,380.8l-11.75.11,4.06,9.88C158.58,389.82,163,389.27,167.31,388.63Z" transform="translate(52.85 41.8)"/><path class="cls-59" d="M157.61,398.89l5.36,13,15.86-6.4L171.65,395C167,396.31,162.32,397.7,157.61,398.89Z" transform="translate(52.85 41.8)"/><line class="cls-95" x1="183.11" y1="378.21" x2="233.48" y2="521.93"/><path class="cls-62" d="M194.84,428.21c-.54-1.06-1.08-2.11-1.64-3.18l-8.75-3.52-6.06.6A349.48,349.48,0,0,0,141,455.76l18.32,1.39-27.44,8.57c-.25.29-.48.57-.73.85q4,10.81,9.44,22.34A737.66,737.66,0,0,1,194.84,428.21Z" transform="translate(52.85 41.8)"/><path class="cls-122" d="M311.7,421.1l80,2.81-102.93,6.75c-77.84,33.91-125,69.78-140.74,82.71H267.07l4.13-6.06C419,392.31,562.82,362.82,562.82,362.82,460.78,371.74,377,395.11,311.7,421.1Z" transform="translate(52.85 41.8)"/><polygon class="cls-56" points="422.78 473.67 342.19 478.31 259.27 524.42 333.67 529.85 422.78 473.67"/><g class="cls-123"><path class="cls-69" d="M261.51,443.17l9,4.47c1.42-3.65,2.61-7.13,3.62-10.42Q267.65,440.19,261.51,443.17Z" transform="translate(52.85 41.8)"/><path class="cls-69" d="M229.24,510l-35.19-29.44a464.79,464.79,0,0,0-46,32.84h77.84C227,512.23,228.14,511.1,229.24,510Z" transform="translate(52.85 41.8)"/><path class="cls-69" d="M257.21,445.27a672.22,672.22,0,0,0-62.72,35l40.73,23.33c15.83-17.59,26-34.65,32.57-49.48Z" transform="translate(52.85 41.8)"/></g><path class="cls-124" d="M562.82,362.82S419,392.31,271.2,507.31l-3.55,5.2H433.53a723.44,723.44,0,0,0,72.74-73.63L420,427.3l94,1.23C543.57,392.23,562.82,362.82,562.82,362.82Z" transform="translate(52.85 41.8)"/><path class="cls-61" d="M263.79,513.85c5-5.09,10.31-9.74,15.7-14.33s10.89-9,16.5-13.27c11.2-8.59,22.8-16.64,34.63-24.31s23.93-14.92,36.22-21.82,24.83-13.33,37.49-19.51l9.53-4.55c3.19-1.51,6.41-2.92,9.61-4.39,6.39-3,12.9-5.65,19.36-8.46,13-5.38,26.1-10.61,39.36-15.34q39.72-14.39,80.63-25.05-40.76,11.06-80.37,25.76c-13.21,4.84-26.23,10.18-39.18,15.66-6.42,2.87-12.9,5.6-19.25,8.62-3.18,1.5-6.39,2.94-9.55,4.47L405,422c-12.58,6.28-25,12.83-37.23,19.8s-24.19,14.32-35.91,22.06-23.19,15.87-34.25,24.51c-5.55,4.29-11,8.75-16.28,13.32S270.78,511,266,515.91Z" transform="translate(52.85 41.8)"/><path class="cls-56" d="M473.06,457.82c5-4.88,10.71-10.48,12.77-12.75-15.65-1.42-79.68-7.41-85.81-7.73-8,3.31-16,7.18-24,11.41C399.81,451.23,464.59,456.71,473.06,457.82Z" transform="translate(52.85 41.8)"/><path class="cls-56" d="M357.77,459c-24.58,14.62-47.73,31.4-65.57,44.61H428.9c12.49-14.73,19-20.71,33.92-35.64Z" transform="translate(52.85 41.8)"/><path class="cls-56" d="M425.76,419.3l17.45-8a738,738,0,0,1,90.33-33.1l11.34-3.29-42.66,44.4Z" transform="translate(52.85 41.8)"/><path class="cls-56" d="M408.61,414.51,503.43,376S452.24,379,346.08,412.53Z" transform="translate(52.85 41.8)"/><path class="cls-61" d="M311.7,421.1l3.09.11c63.63-24.3,143.88-45.69,240.45-54.12,0,0-17.75,27.1-45.37,61.38l4.08.06c29.62-36.3,48.87-65.71,48.87-65.71C460.78,371.74,377,395.11,311.7,421.1Z" transform="translate(52.85 41.8)"/><path class="cls-61" d="M502.14,440a800,800,0,0,1-71.37,72.51h2.76a723.44,723.44,0,0,0,72.74-73.63L456,432.13Z" transform="translate(52.85 41.8)"/><path class="cls-62" d="M463.8,414.37l-1,13.48,2,0Zm-51.38,16-24.72,6.08L413,432.76ZM464.91,453l-10.13-7.9-12.13-5.69,2.54-3.71c-2.16-1.27-1-5.11-1-5.11.72-1.64,1.79-3.76,3-6.08l8.26-.81,4.15-6.69-4.7,4.29-5.68-.5c4.69-8.4,10.41-17.72,10.41-17.72l1.28-16.71-2.49,15.06-12.78,16.87c-.35.5-.72,1-1.08,1.43l-4.65-3,1.45-5.36L437,418l4.49,5a21.89,21.89,0,0,1-13.36,5.81L420.78,434l.16.06c-1.74.7-3.41,1.52-5,2.35-3.14,1.61-6.24,3.11-8.91,4.82l-5.53-1.17-18,31.21,18-27.76,1.84.54a15.48,15.48,0,0,0-1.36,1.46,11.81,11.81,0,0,0-2.31,4.53c-1.26,4.94-1.12,11.1,5.2,14.08,6.56,3.09,17.67.36,23.68-2.44a21.16,21.16,0,0,0,8.61-6.76l2,2.16L417.28,479l24.14-21,.38-10.23-2.07,1.61a18.47,18.47,0,0,0,1.13-7.34l12.5,4.49Z" transform="translate(52.85 41.8)"/><path class="cls-125" d="M442.47,443.82,442.13,458v.33l-.23.2-26.43,22.53,25.48-23.6-.23.53-.24-14.21a1,1,0,0,1,1-1,1,1,0,0,1,1,1Z" transform="translate(52.85 41.8)"/><path class="cls-125" d="M382.21,471.69l17.5-34.92.07-.13.13,0,15.41-2.74L400,437.18l.2-.16L384,472.55a1,1,0,1,1-1.82-.83Z" transform="translate(52.85 41.8)"/><path class="cls-125" d="M419.27,430.2l-16.09-7.94.6-.09-17.06,15.31L403,421.39l.25-.25.34.15,16.48,7.1a1,1,0,0,1,.52,1.31,1,1,0,0,1-1.32.53Z" transform="translate(52.85 41.8)"/><path class="cls-125" d="M444.82,434l12.34,1.54.41.05.14.34,7.46,17.32-8.71-16.73.56.39-12.4-.92a1,1,0,0,1-.92-1.08,1,1,0,0,1,1.07-.92Z" transform="translate(52.85 41.8)"/><path class="cls-125" d="M445.14,422.52l17.8,3.72-.53.41,1.46-12.79-.56,12.86,0,.48-.51-.07-18-2.64a1,1,0,0,1,.29-2Z" transform="translate(52.85 41.8)"/><path class="cls-125" d="M423.45,418.55l-13.19-4-1.85-.56,1.82-.52,17.06-4.85-16.71,5.92,0-1.08L424,416.61a1,1,0,0,1-.46,1.95Z" transform="translate(52.85 41.8)"/><path class="cls-126" d="M426.78,416l7.24-7.11s10.11,0,17.17-14.25l12.27-23,2-20.55-.78,22.79s-11.37,26.57-14.64,37.5c0,0-1,5.25,1.18,7l-4.27,8.9Z" transform="translate(52.85 41.8)"/><path class="cls-125" d="M438.52,408.56c.63-.24,1.26-.49,1.87-.78s1-.52,1.54-.81c0,0,0,0,0-.07a2.12,2.12,0,1,0-3.42,1.66Z" transform="translate(52.85 41.8)"/><path class="cls-3" d="M440,405.23a1.35,1.35,0,0,1,1,1,1.18,1.18,0,0,1-1.14,0c-.25-.1-1-.34-.94-.72S439.74,405.16,440,405.23Z" transform="translate(52.85 41.8)"/><path class="cls-127" d="M445.38,404.62a4.45,4.45,0,0,1,1.87.56,10.31,10.31,0,0,0,.6,8.9,39.1,39.1,0,0,0-3.8,7.53,63,63,0,0,1-14.62-6.06,45.3,45.3,0,0,0,4.66-5.85,22.42,22.42,0,0,0,6.3-1.92,23.73,23.73,0,0,0,2.94-1.68c.53-.37.94-.93,1.49-1.27A1.49,1.49,0,0,1,445.38,404.62Z" transform="translate(52.85 41.8)"/><path class="cls-128" d="M407.77,431.34s-6.85,18.8,4,25.69c7.69,4.88,33.73-1.22,34-21,.11-10.1-12.06-18.17-21.76-16.74C414.64,420.64,407.77,431.34,407.77,431.34Z" transform="translate(52.85 41.8)"/><path class="cls-125" d="M445.73,436c.11-10.1-12.06-18.17-21.76-16.74-9.33,1.39-16.2,12.09-16.2,12.09a40.77,40.77,0,0,0-2.11,11.19c1.22,5,5.94,11.91,5.94,11.91s17.95,1.13,24.5-2.19a22,22,0,0,0,5.7-4.46A19.88,19.88,0,0,0,445.73,436Z" transform="translate(52.85 41.8)"/><polygon class="cls-129" points="504.23 439.63 511.33 440.49 515.89 434.63 511.95 443.75 502.7 445 504.23 439.63"/><polygon class="cls-130" points="503.64 438.92 498.25 434.22 499.55 426.92 495.41 435.95 500.68 443.65 503.64 438.92"/><path class="cls-131" d="M448.61,422c-1.26-4.61-6.65-7.08-9.49-8.09a35.55,35.55,0,0,0-18.67,12.87c-4.83,6.32-8.47,17.43-8.57,25.38,0,0,17.95,1.14,24.5-2.19S452.26,435.3,448.61,422Z" transform="translate(52.85 41.8)"/><path class="cls-132" d="M420.45,426.75a35.55,35.55,0,0,1,18.67-12.87c-1.07-.38-1.78-.55-1.78-.55-15-5.41-32.17,10.59-31.69,25,.16,4.86,6.23,13.78,6.23,13.78C412,444.18,415.62,433.07,420.45,426.75Z" transform="translate(52.85 41.8)"/><g class="cls-133"><g class="cls-134"><path class="cls-135" d="M439.12,413.88a36.76,36.76,0,0,0-11.1,5.66,36.38,36.38,0,0,0-8.53,9,47.26,47.26,0,0,0-5.23,11.31,54.34,54.34,0,0,0-1.59,6.05,36,36,0,0,0-.79,6.21,42.81,42.81,0,0,1,2-12.38,46.21,46.21,0,0,1,5.18-11.46,35.94,35.94,0,0,1,8.72-9.06A34.29,34.29,0,0,1,439.12,413.88Z" transform="translate(52.85 41.8)"/></g><g class="cls-134"><path class="cls-135" d="M440.24,414.37a40.94,40.94,0,0,0-10.07,6.78,50.27,50.27,0,0,0-7.93,9.18,65.63,65.63,0,0,0-5.61,10.78q-1.2,2.81-2.14,5.71a44.05,44.05,0,0,0-1.57,5.89A53.61,53.61,0,0,1,416.27,441a63.16,63.16,0,0,1,5.55-10.9,48.57,48.57,0,0,1,8.09-9.19,40.7,40.7,0,0,1,4.9-3.68A37.27,37.27,0,0,1,440.24,414.37Z" transform="translate(52.85 41.8)"/></g><g class="cls-134"><path class="cls-135" d="M441.36,414.86a54.22,54.22,0,0,0-8.94,7.9,78.49,78.49,0,0,0-7.42,9.35,109.23,109.23,0,0,0-6,10.33c-.93,1.76-1.82,3.55-2.66,5.35s-1.68,3.63-2.39,5.49a88.32,88.32,0,0,1,4.7-11,101.35,101.35,0,0,1,5.93-10.43,72.8,72.8,0,0,1,7.55-9.33A48.53,48.53,0,0,1,441.36,414.86Z" transform="translate(52.85 41.8)"/></g><g class="cls-134"><path class="cls-135" d="M442.48,415.35a108.12,108.12,0,0,0-7.71,9c-1.22,1.55-2.37,3.15-3.55,4.73s-2.38,3.15-3.41,4.84l-3.26,4.94c-1.11,1.64-2.09,3.35-3.17,5q-3.15,5-6.38,10,3-5.13,6.05-10.2c2-3.41,4.19-6.71,6.34-10,1.05-1.68,2.28-3.24,3.46-4.83s2.35-3.19,3.62-4.7A86.19,86.19,0,0,1,442.48,415.35Z" transform="translate(52.85 41.8)"/></g><g class="cls-134"><path class="cls-135" d="M443.6,415.84c-2.11,3.34-4.25,6.68-6.41,10s-4.46,6.54-6.66,9.82-4.45,6.55-6.83,9.71a86.22,86.22,0,0,1-7.66,9.07c1.35-1.45,2.59-3,3.8-4.55s2.39-3.14,3.55-4.75c2.31-3.2,4.5-6.5,6.73-9.76Z" transform="translate(52.85 41.8)"/></g><g class="cls-134"><path class="cls-135" d="M444.72,416.33a69.43,69.43,0,0,1-5,10.92c-.95,1.76-2.09,3.41-3.15,5.12s-2.11,3.4-3.31,5a112.64,112.64,0,0,1-7.29,9.56,45.67,45.67,0,0,1-8.88,8.07,31.94,31.94,0,0,0,4.53-3.92c1.42-1.4,2.77-2.88,4.06-4.4,2.64-3,4.84-6.35,7.17-9.59,1.21-1.6,2.26-3.3,3.34-5s2.2-3.34,3.2-5.07A83,83,0,0,0,444.72,416.33Z" transform="translate(52.85 41.8)"/></g><g class="cls-134"><path class="cls-135" d="M445.84,416.82a41.22,41.22,0,0,1-1.33,6,45.34,45.34,0,0,1-2.24,5.73,79.34,79.34,0,0,1-6.2,10.62,61.82,61.82,0,0,1-7.91,9.41,33.22,33.22,0,0,1-10,7,24.16,24.16,0,0,0,5.18-3.23,47.53,47.53,0,0,0,4.58-4.05,64.87,64.87,0,0,0,7.77-9.41,83.21,83.21,0,0,0,6.26-10.51A44.32,44.32,0,0,0,445.84,416.82Z" transform="translate(52.85 41.8)"/></g><g class="cls-134"><path class="cls-135" d="M447,417.31a34.32,34.32,0,0,1-.42,6.32,34,34,0,0,1-1.7,6.11,55.17,55.17,0,0,1-6,11.18,45.5,45.5,0,0,1-8.58,9.32c-3.29,2.64-7,5-11.11,5.92a21.57,21.57,0,0,0,5.75-2.53A37.84,37.84,0,0,0,430,450a46.36,46.36,0,0,0,8.42-9.32,57.06,57.06,0,0,0,6-11A33.53,33.53,0,0,0,447,417.31Z" transform="translate(52.85 41.8)"/></g><g class="cls-134"><path class="cls-135" d="M448.09,417.8a31.94,31.94,0,0,1,.45,6.55,28.1,28.1,0,0,1-1.12,6.5,43.2,43.2,0,0,1-5.78,11.81,36.3,36.3,0,0,1-9.32,9.26c-3.62,2.44-7.71,4.46-12.11,4.81a20.65,20.65,0,0,0,6.25-1.84,33.49,33.49,0,0,0,5.64-3.29,36.57,36.57,0,0,0,9.13-9.23,43.77,43.77,0,0,0,5.82-11.64A29.28,29.28,0,0,0,448.09,417.8Z" transform="translate(52.85 41.8)"/></g></g><g class="cls-136"><g class="cls-134"><path class="cls-135" d="M435.34,411.29a16.72,16.72,0,0,0-8,.48,30.41,30.41,0,0,0-7.39,3.24,40.18,40.18,0,0,0-11.88,10.79c-3.17,4.31-5.41,9.51-5.28,14.92s.23,10.83.3,16.25c-.25-5.41-.49-10.83-.69-16.24a20.79,20.79,0,0,1,1.37-8,29.52,29.52,0,0,1,3.89-7.18,39.93,39.93,0,0,1,12.1-10.83,30.49,30.49,0,0,1,7.52-3.15A16.83,16.83,0,0,1,435.34,411.29Z" transform="translate(52.85 41.8)"/></g><g class="cls-134"><path class="cls-135" d="M404.9,457.24c-.06-5.38-.13-10.77.06-16.16a26.37,26.37,0,0,1,.42-4.05,25,25,0,0,1,1.13-3.91,30.8,30.8,0,0,1,3.84-7.15,38.38,38.38,0,0,1,12-10.78,29,29,0,0,1,7.49-3.08,16.49,16.49,0,0,1,8-.09,16.38,16.38,0,0,0-8,.33,29.1,29.1,0,0,0-7.36,3.17,38.58,38.58,0,0,0-11.79,10.74,26.7,26.7,0,0,0-5.41,14.83C405.08,446.47,405,451.86,404.9,457.24Z" transform="translate(52.85 41.8)"/></g><g class="cls-134"><path class="cls-135" d="M406.71,457.51c0-5.36.17-10.73.69-16.08a28.15,28.15,0,0,1,1.77-7.87,33.7,33.7,0,0,1,3.83-7.12A37.08,37.08,0,0,1,425,415.72a27.4,27.4,0,0,1,7.47-3,16.25,16.25,0,0,1,8,.07,16.25,16.25,0,0,0-7.93.16,27.62,27.62,0,0,0-7.33,3.13,42.71,42.71,0,0,0-6.46,4.71,35.72,35.72,0,0,0-5.28,6,33.62,33.62,0,0,0-3.82,7,29.45,29.45,0,0,0-1.81,7.75c-.31,2.66-.5,5.34-.67,8S406.8,454.83,406.71,457.51Z" transform="translate(52.85 41.8)"/></g><g class="cls-134"><path class="cls-135" d="M408.53,457.78a108.41,108.41,0,0,1,1.18-16,33.68,33.68,0,0,1,5.91-14.86,36.36,36.36,0,0,1,5.34-6,40.66,40.66,0,0,1,6.57-4.65,28.78,28.78,0,0,1,3.61-1.78,20.87,20.87,0,0,1,3.84-1.21,16.24,16.24,0,0,1,8,.23,16.25,16.25,0,0,0-7.9,0,26.21,26.21,0,0,0-7.32,3.09,43,43,0,0,0-6.45,4.66,35.49,35.49,0,0,0-5.25,6,33.8,33.8,0,0,0-5.93,14.63c-.46,2.62-.78,5.28-1,7.94S408.62,455.11,408.53,457.78Z" transform="translate(52.85 41.8)"/></g><g class="cls-134"><path class="cls-135" d="M410.34,458.05a78.3,78.3,0,0,1,1.56-15.93,38.53,38.53,0,0,1,6.28-14.69,35.9,35.9,0,0,1,5.34-6,27,27,0,0,1,3.17-2.48,39.67,39.67,0,0,1,3.4-2.14,24.84,24.84,0,0,1,7.45-2.95,16.29,16.29,0,0,1,7.94.39,16.09,16.09,0,0,0-7.89-.15,24.67,24.67,0,0,0-7.31,3,40,40,0,0,0-6.46,4.63,35.36,35.36,0,0,0-5.23,6,38.87,38.87,0,0,0-3.91,6.91,42.29,42.29,0,0,0-2.4,7.58,71.81,71.81,0,0,0-1.33,7.87Q410.47,454,410.34,458.05Z" transform="translate(52.85 41.8)"/></g><g class="cls-134"><path class="cls-135" d="M412.16,458.32a79.19,79.19,0,0,1,.38-8,54.3,54.3,0,0,1,1.44-7.88,43.93,43.93,0,0,1,6.71-14.51,37.22,37.22,0,0,1,5.34-6,38.64,38.64,0,0,1,6.59-4.58,24.35,24.35,0,0,1,7.47-2.91,16.27,16.27,0,0,1,4-.22A18.73,18.73,0,0,1,448,415a18.87,18.87,0,0,0-3.93-.65,15.83,15.83,0,0,0-3.95.34,24,24,0,0,0-7.32,3,40.11,40.11,0,0,0-6.48,4.59,36.69,36.69,0,0,0-5.24,6,43.11,43.11,0,0,0-4,6.85,49.44,49.44,0,0,0-2.73,7.47A66,66,0,0,0,412.16,458.32Z" transform="translate(52.85 41.8)"/></g></g><path class="cls-127" d="M437.74,415.84s-4.17,1.23-10.68,7.7l16.73,9.84a20.77,20.77,0,0,0,2-12.91S440.56,417.2,437.74,415.84Z" transform="translate(52.85 41.8)"/><path class="cls-137" d="M425.43,426.3l17.16,10.09s-5,10.34-9,11c-5.25.82-17.42-.85-17.42-.85S420.25,430,425.43,426.3Z" transform="translate(52.85 41.8)"/><path class="cls-138" d="M422,439.23c-5.41-3-9.92-7.72-11.18-13.88-.11-.51-.16-1-.22-1.53-3.2,4.41-5.13,9.56-5,14.53s6.23,13.78,6.23,13.78,17.95,1.14,24.5-2.19c3.31-1.68,7.4-5.52,10.12-10.65C438.83,443,429.9,443.54,422,439.23Z" transform="translate(52.85 41.8)"/><path class="cls-127" d="M418.89,425.45c6.54-7.4,16-11,16-11L432.33,413c-9.45.44-14.4,4.55-18.06,8.71A41.12,41.12,0,0,0,418.89,425.45Z" transform="translate(52.85 41.8)"/><path class="cls-127" d="M413.36,422.72l-1.71,2.11c-.84,2.24.69,5.73,2.65,7.83a25.09,25.09,0,0,1,3.68-6.14A45.65,45.65,0,0,1,413.36,422.72Z" transform="translate(52.85 41.8)"/><polygon class="cls-73" points="499.55 426.92 497.5 435.49 502.2 439.78 503.07 438.35 498.34 434.13 499.55 426.92"/><polygon class="cls-73" points="518.34 392.86 516.72 415.41 507.65 439.8 517.56 415.65 518.34 392.86"/><polygon class="cls-73" points="505.59 439.8 504.71 441.77 510.62 442.1 515.89 434.63 511.33 440.49 505.59 439.8"/><path class="cls-73" d="M410.61,423.82a27.82,27.82,0,0,1,8.36-8.41,22.3,22.3,0,0,1,11.31-3.68l1.51,0c.5,0,1,.09,1.5.13l1.5.16a14.81,14.81,0,0,1,1.47.32,24.49,24.49,0,0,1,2.91.78,23.16,23.16,0,0,1,2.74,1.23,17.59,17.59,0,0,1,4.8,3.59,8.86,8.86,0,0,1,2.4,5.37,9,9,0,0,0-2.67-5.12,16.92,16.92,0,0,0-4.79-3.32,29.09,29.09,0,0,0-2.7-1.14,22.55,22.55,0,0,0-2.83-.72,14.55,14.55,0,0,0-1.43-.3l-1.46-.13c-.49,0-1-.12-1.46-.12l-1.45.05a22.35,22.35,0,0,0-11.05,3.43,28.71,28.71,0,0,0-4.69,3.54A30,30,0,0,0,410.61,423.82Z" transform="translate(52.85 41.8)"/><path class="cls-73" d="M447.25,405.18a14.82,14.82,0,0,0-.34,4.49,14,14,0,0,0,.32,2.22c.15.74.4,1.45.62,2.19a8.9,8.9,0,0,1-1-2.09,9.31,9.31,0,0,1-.45-2.28,9.08,9.08,0,0,1,.12-2.33A7,7,0,0,1,447.25,405.18Z" transform="translate(52.85 41.8)"/><circle class="cls-125" cx="502.13" cy="451.99" r="2.11"/><path class="cls-3" d="M449.89,409.78c.05.19.07.41.23.53a.44.44,0,0,0,.62-.19.84.84,0,0,0,0-.71,1.58,1.58,0,0,0-.87-.85C448.67,408.08,449.8,409.44,449.89,409.78Z" transform="translate(52.85 41.8)"/><path class="cls-139" d="M195.76,420.41l10.25,3L189.78,425a349.48,349.48,0,0,0-37.39,33.65L170.71,460l-27.44,8.57c-42.42,48.4-49.74,88-49.74,88s-3.42,10.52,2.34,15c82.61-134.55,175.9-197.06,175.9-197.06A461.21,461.21,0,0,0,195.76,420.41Z" transform="translate(52.85 41.8)"/><path class="cls-140" d="M271.77,374.62s-93.29,62.51-175.9,197.06c7,5.49,27.48,2.15,84-39.56,22-16.26,38.83-32.77,51.65-48.67L191.59,456l45.26,20.57c14.13-19,22.68-36.93,27.81-52.31l-25-17.13,27,10.45C274.1,391.71,271.77,374.62,271.77,374.62Z" transform="translate(52.85 41.8)"/><path class="cls-61" d="M95.45,571.41c11.91-18.49,24.61-36.44,37.76-54s26.89-34.78,41.2-51.46q10.77-12.48,22-24.55c7.54-8,15.22-15.85,23.14-23.47s16.07-15,24.48-22.07,17.13-13.77,26.13-20.07c-9,6.33-17.64,13.1-26.05,20.17s-16.47,14.54-24.39,22.15-15.53,15.53-23,23.55-14.75,16.27-21.9,24.61q-21.36,25.09-41,51.59c-13.07,17.65-25.7,35.64-37.52,54.13Z" transform="translate(52.85 41.8)"/><path class="cls-59" d="M251.75,436.74c2.53-6.31,3.9-10.73,3.9-10.73l-21.41-15.55-8.09,8.84C234.13,425.87,243,431.27,251.75,436.74Z" transform="translate(52.85 41.8)"/><path class="cls-59" d="M221,424.93,199.91,448,234,468.36c6.2-7.31,11.3-16.95,15-25.19C239.57,437.25,229.92,431.65,221,424.93Z" transform="translate(52.85 41.8)"/><path class="cls-59" d="M263.46,409.29l-19.7-7.61,23.41-20.07S268.38,391.81,263.46,409.29Z" transform="translate(52.85 41.8)"/><path class="cls-59" d="M210.78,498.45c5.68-6.54,9.49-11.92,9.49-11.92l-36.09-23.08-7.87,10S199.48,489.83,210.78,498.45Z" transform="translate(52.85 41.8)"/><polygon class="cls-94" points="195.82 514.65 221.88 507.54 198.87 531.91 181.27 536.31 195.82 514.65"/><path class="cls-94" d="M173.44,443.08a.61.61,0,0,1-.53-.23l-12,10.71,17.61-.34,9.27-10.85C183,442.49,178.22,442.87,173.44,443.08Z" transform="translate(52.85 41.8)"/><path class="cls-94" d="M190.9,438.73l9.62-11.24L186,431.22l-9.42,8.4C181.32,439.2,186.11,438.93,190.9,438.73Z" transform="translate(52.85 41.8)"/><path class="cls-94" d="M203.05,418.82s18.09-14.33,33.7-23.33L211.08,420.1Z" transform="translate(52.85 41.8)"/><path class="cls-61" d="M190,457l39.91,27.49c-12.82,15.9-29.62,32.41-51.65,48.67-8.42,6.22-16,11.56-22.92,16.17,7.32-4.84,15.46-10.55,24.54-17.25,22-16.26,38.83-32.77,51.65-48.67L199.35,461.3Z" transform="translate(52.85 41.8)"/><path class="cls-61" d="M271.77,374.62s-.55.37-1.61,1.12c.1.79,2,17-4.62,41.34l1.19.46C274.1,391.71,271.77,374.62,271.77,374.62Z" transform="translate(52.85 41.8)"/><path class="cls-61" d="M238.08,408.17l25,17.14a186.31,186.31,0,0,1-26.81,50.94l.62.28c14.13-19,22.68-36.93,27.81-52.31L245.4,411Z" transform="translate(52.85 41.8)"/><path class="cls-141" d="M52.26,412.75l-11.6,5.64C33.15,427,20,445.63,24.42,467,20.19,446.3,52.26,412.75,52.26,412.75Z" transform="translate(52.85 41.8)"/><path class="cls-142" d="M40.66,418.39l-8.5,4.13C13.9,446.84,24.42,467,24.42,467,20,445.63,33.15,427,40.66,418.39Z" transform="translate(52.85 41.8)"/></g></g></g></svg>