<?xml version="1.0" encoding="UTF-8"?>
<svg width="142px" height="46px" viewBox="0 0 142 46" version="1.1" xmlns="http://www.w3.org/2000/svg" xmlns:xlink="http://www.w3.org/1999/xlink">
    <!-- Generator: Sketch 59.1 (86144) - https://sketch.com -->
    <title>Logo</title>
    <desc>Created with Sketch.</desc>
    <defs>
        <radialGradient cx="85.7081538%" cy="35.308137%" fx="85.7081538%" fy="35.308137%" r="148.282809%" gradientTransform="translate(0.857082,0.353081),scale(1.000000,0.493080),rotate(136.634564),translate(-0.857082,-0.353081)" id="radialGradient-1">
            <stop stop-color="#06A27E" offset="0%"></stop>
            <stop stop-color="#28BE95" stop-opacity="0.65" offset="38.9348167%"></stop>
            <stop stop-color="#42D5A8" stop-opacity="0.37" offset="71%"></stop>
            <stop stop-color="#55E5B5" stop-opacity="0.17" offset="83%"></stop>
            <stop stop-color="#61EEBD" stop-opacity="0.04" offset="93%"></stop>
            <stop stop-color="#65F2C0" stop-opacity="0" offset="100%"></stop>
        </radialGradient>
        <path d="M3.75790055,34.9229081 L16.9027072,21.7480363 L16.9027072,0.643076974 L3.75790055,0.643076974 C2.76160424,0.642035587 1.80575722,1.03798677 1.10090118,1.74371754 C0.396045128,2.44944831 0,3.40706752 0,4.40564313 L0,31.1406859 C0,33.220864 1.68246939,34.9071816 3.75790055,34.9071816 L3.75790055,34.9229081 Z" id="path-2"></path>
        <path d="M13.1722652,-3.24529704 L13.1722652,16.4442756 C13.1730951,17.9411827 14.0591504,19.2952107 15.4286512,19.8923786 C16.7981521,20.4895466 18.3905643,20.2162492 19.4838122,19.1964124 L19.4838122,19.1964124 L39.4383425,-0.8076902 L39.501105,-0.878459431 C40.0570793,-1.53648279 40.3541936,-2.37533873 40.3366298,-3.23743379 C40.3376722,-4.23564773 39.9424996,-5.19327775 39.2382661,-5.89912199 C38.5340326,-6.60496622 37.5785879,-7.0010426 36.5826519,-7 L16.9301657,-7 C14.8584299,-7.0021722 13.1765937,-5.32176806 13.1722652,-3.24529704" id="path-4"></path>
        <filter x="-71.8%" y="-60.7%" width="243.6%" height="243.4%" filterUnits="objectBoundingBox" id="filter-5">
            <feOffset dx="0" dy="3" in="SourceAlpha" result="shadowOffsetOuter1"></feOffset>
            <feGaussianBlur stdDeviation="6" in="shadowOffsetOuter1" result="shadowBlurOuter1"></feGaussianBlur>
            <feColorMatrix values="0 0 0 0 0   0 0 0 0 0   0 0 0 0 0  0 0 0 0.354758523 0" type="matrix" in="shadowBlurOuter1"></feColorMatrix>
        </filter>
    </defs>
    <g id="Desktop-" stroke="none" stroke-width="1" fill="none" fill-rule="evenodd">
        <g id="Kafene---For-Merchant-Partner" transform="translate(-80.000000, -45.000000)">
            <g id="Top-menu" transform="translate(80.000000, 42.000000)">
                <g id="Logo" transform="translate(0.000000, 3.000000)">
                    <g id="Full-color---light-background---horizontal">
                        <path d="M17.0831492,7.82 L17.0831492,38.3333333 C17.0831492,40.4135115 15.4006798,42.0998291 13.3252486,42.0998291 L3.92265193,42.0998291 C1.84722077,42.0998291 0.164751381,40.4135115 0.164751381,38.3333333 L0.164751381,11.5982906 C0.164751381,10.599715 0.56079651,9.64209577 1.26565256,8.936365 C1.9705086,8.23063423 2.92635562,7.83468305 3.92265193,7.8357265 L17.0831492,7.82 Z" id="Path" fill="#65F2C0" fill-rule="nonzero"></path>
                        <path d="M29.4669613,29.4478632 C29.2754031,29.2455939 29.0623082,29.0649718 28.8314917,28.9092308 C28.2143815,28.490456 27.4859675,28.2671858 26.7407182,28.2683713 C24.6652871,28.2683713 22.9828177,29.9546936 22.9828177,32.0348718 L22.9828177,42.0998291 C22.9849825,44.1784716 24.666818,45.8623932 26.7407182,45.8623932 L36.7356354,45.8623932 C38.1240906,45.8613849 39.398855,45.0931188 40.0507965,43.8644351 C40.7027379,42.6357514 40.6256115,41.1468849 39.850221,39.9924786 C39.7326181,39.8185366 39.6014528,39.654205 39.4579558,39.5010256 L39.4579558,39.5010256 L29.4669613,29.4478632" id="Path" fill="#65F2C0" fill-rule="nonzero"></path>
                        <g id="Path" transform="translate(0.164751, 7.176921)">
                            <mask id="mask-3" fill="white">
                                <use xlink:href="#path-2"></use>
                            </mask>
                            <use id="Mask" fill="url(#radialGradient-1)" fill-rule="nonzero" opacity="0.295819382" xlink:href="#path-2"></use>
                            <g fill-rule="nonzero" mask="url(#mask-3)">
                                <use fill="black" fill-opacity="1" filter="url(#filter-5)" xlink:href="#path-4"></use>
                                <use fill="#65F2C0" xlink:href="#path-4"></use>
                            </g>
                        </g>
                        <path d="M13.3370166,3.93162393 L13.3370166,23.6211966 C13.3378465,25.1181037 14.2239017,26.4721316 15.5934026,27.0692996 C16.9629035,27.6664676 18.5553157,27.3931701 19.6485635,26.3733333 L19.6485635,26.3733333 L39.6030939,6.36923077 L39.6658564,6.29846154 C40.2218307,5.64043817 40.5189449,4.80158224 40.5013812,3.93948718 C40.5024235,2.94127323 40.107251,1.98364322 39.4030175,1.27779898 C38.698784,0.571954747 37.7433393,0.175878373 36.7474033,0.176920969 L17.0949171,0.176920969 C15.0231812,0.174748769 13.3413451,1.85515291 13.3370166,3.93162393" id="Path" fill="#65F2C0" fill-rule="nonzero"></path>
                        <polygon id="Path" fill="#FFFFFF" fill-rule="nonzero" points="66.2810497 12.5890598 63.0330939 12.5890598 53.7874033 23.1729915 53.7874033 12.5890598 51.1553039 12.5890598 51.1553039 32.5302564 53.7874033 32.5302564 53.7874033 26.7822222 57.3883978 22.7641026 63.2959116 32.5302564 66.3673481 32.5302564 59.200663 20.7393162"></polygon>
                        <path d="M80.0220994,20.9123077 C78.8688398,19.3396581 77.0095028,18.4589744 74.7735912,18.4589744 C70.8117127,18.4589744 67.8226519,21.5335043 67.8226519,25.6145299 C67.8226519,29.6955556 70.8117127,32.8526496 74.7735912,32.8526496 C77.0055801,32.8526496 78.8609945,31.9798291 80.0220994,30.3875214 L80.0220994,32.5695726 L82.3756906,32.5695726 L82.3756906,18.7459829 L80.0220994,18.7459829 L80.0220994,20.9123077 Z M75.0050276,30.7139043 C72.239558,30.7139043 70.1566298,28.52 70.1566298,25.602735 C70.1566298,22.6854701 72.239558,20.5859829 75.0050276,20.5859829 C76.3440503,20.5578331 77.6365455,21.0785804 78.5835858,22.0277867 C79.5306261,22.9769931 80.0501851,24.2724446 80.0220994,25.6145299 C80.042136,26.9641366 79.5195818,28.2650713 78.5721464,29.2242881 C77.624711,30.1835049 76.3320748,30.7203324 74.9854144,30.7139043 L75.0050276,30.7139043 Z" id="Shape" fill="#FFFFFF" fill-rule="nonzero"></path>
                        <path d="M93.8337569,12.4789744 C93.1225365,12.184809 92.359348,12.0377063 91.59,12.0464957 C88.400884,12.0464957 86.4238674,13.9729915 86.4238674,17.0789744 L86.4238674,32.5695726 L88.7774586,32.5695726 L88.7774586,20.7747009 L93.0060773,20.7747009 L93.0060773,18.734188 L88.7264641,18.734188 L88.7264641,17.2244444 C88.7264641,15.1249573 89.7228177,14.0791453 91.6880663,14.0791453 C92.327609,14.0708034 92.9628039,14.1855869 93.5591713,14.417265 L93.6062431,14.4369231 L93.8847514,12.5418803 L93.8612155,12.4986325 L93.8337569,12.4789744 Z" id="Path" fill="#FFFFFF" fill-rule="nonzero"></path>
                        <path d="M101.53,18.4786325 C97.4190608,18.4786325 94.4339227,21.5059829 94.4339227,25.6774359 C94.4339227,29.9157265 97.6583425,32.8723077 102.279227,32.8723077 C104.104729,32.8972823 105.902661,32.4243477 107.480663,31.5041026 L107.504199,31.5041026 L107.088398,29.3495726 L107.041326,29.3731624 C105.567447,30.2265864 103.891016,30.66533 102.189006,30.6430769 C99.3529282,30.6430769 97.2856906,29.0271795 96.9051934,26.5266667 L108.108287,26.5266667 L108.108287,26.4952137 C108.519767,24.4583145 108.013021,22.3432418 106.723591,20.7157265 C105.414255,19.2277602 103.508172,18.4067317 101.53,18.4786325 L101.53,18.4786325 Z M105.946906,24.6080342 L96.9444199,24.6080342 C97.1758564,22.2883761 99.0861878,20.6764103 101.600608,20.6764103 C104.115028,20.6764103 105.766464,22.1979487 105.946906,24.5883761 L105.946906,24.6080342 Z" id="Shape" fill="#FFFFFF" fill-rule="nonzero"></path>
                        <path d="M118.742597,18.4786325 C116.945757,18.4162792 115.2378,19.2626106 114.196243,20.731453 L114.196243,18.765641 L111.842652,18.765641 L111.842652,32.5892308 L114.196243,32.5892308 L114.196243,24.7692308 C114.196243,22.4102564 115.965359,20.6842735 118.401326,20.6842735 C120.837293,20.6842735 122.249448,22.1193162 122.249448,24.7259829 L122.249448,32.5695726 L124.583425,32.5695726 L124.583425,24.1676923 C124.567735,20.5938462 122.38674,18.4786325 118.742597,18.4786325 Z" id="Path" fill="#FFFFFF" fill-rule="nonzero"></path>
                        <path d="M140.262265,20.7157265 C138.960843,19.2238819 137.060512,18.3956359 135.084365,18.4589744 C130.973425,18.4589744 127.988287,21.4863248 127.988287,25.6577778 C127.988287,29.8960684 131.212707,32.8526496 135.833591,32.8526496 C137.654515,32.8813745 139.44922,32.4153687 141.027182,31.5041026 L141.050718,31.5041026 L140.634917,29.3652991 L140.587845,29.3888889 C139.108819,30.2385165 137.428242,30.6718474 135.723757,30.6430769 C132.88768,30.6430769 130.816519,29.0271795 130.439945,26.5266667 L141.639116,26.5266667 L141.639116,26.4952137 C142.054435,24.4594519 141.550424,22.3438094 140.262265,20.7157265 L140.262265,20.7157265 Z M139.501271,24.5883761 L130.479171,24.5883761 C130.710608,22.2687179 132.620939,20.6567521 135.135359,20.6567521 C137.649779,20.6567521 139.320829,22.1979487 139.501271,24.5883761 Z" id="Shape" fill="#FFFFFF" fill-rule="nonzero"></path>
                    </g>
                </g>
            </g>
        </g>
    </g>
</svg>