<svg width="48" height="48" viewBox="0 0 24 24" fill="none" xmlns="http://www.w3.org/2000/svg" data-reactroot="">
<path fill="#7D55FF" d="M4.49998 21.33C2.10998 19.95 1.28998 16.89 2.66998 14.5L5.66998 9.30003C7.04998 6.91003 10.11 6.09003 12.5 7.47003C14.89 8.85003 15.71 11.91 14.33 14.3L11.33 19.5C9.94998 21.89 6.88998 22.71 4.49998 21.33Z" clip-rule="evenodd" fill-rule="evenodd" undefined="0" transform="translate(2,2)"></path><path fill="#C4B6FF" d="M4.49998 21.33C2.10998 19.95 1.28998 16.89 2.66998 14.5L5.66998 9.30003C7.04998 6.91003 10.11 6.09003 12.5 7.47003C14.89 8.85003 15.71 11.91 14.33 14.3L11.33 19.5C9.94998 21.89 6.88998 22.71 4.49998 21.33Z" clip-rule="evenodd" fill-rule="evenodd" undefined="1"></path>
<path fill="#7D55FF" d="M9.50004 12.67L12.5 7.47003C10.11 6.09003 7.05004 6.91003 5.67004 9.30003L5.17004 10.17L9.50004 12.67Z" undefined="0" transform="translate(2,2)"></path><path fill="#C4B6FF" d="M9.50004 12.67L12.5 7.47003C10.11 6.09003 7.05004 6.91003 5.67004 9.30003L5.17004 10.17L9.50004 12.67Z" undefined="1"></path>
<path fill="#7D55FF" d="M9.5 12.67L12.5 7.46997C14.89 8.84997 15.71 11.91 14.33 14.3L13.83 15.17L9.5 12.67Z" undefined="0" transform="translate(2,2)"></path><path fill="#C4B6FF" d="M9.5 12.67L12.5 7.46997C14.89 8.84997 15.71 11.91 14.33 14.3L13.83 15.17L9.5 12.67Z" undefined="1"></path>
<path fill="#7D55FF" d="M22.2889 3.49986C22.565 3.02153 22.401 2.40996 21.9227 2.13389C21.4444 1.85781 20.8328 2.02178 20.5567 2.50011L18.6874 5.73896C18.4927 6.07356 18.0133 6.07366 17.8184 5.73926L17.8179 5.73827L17.2495 4.75102L17.2479 4.74827C16.2825 3.08389 13.8831 3.08389 12.9178 4.74827L12.093 6.17611C12.4018 6.29138 12.7051 6.43374 13 6.604C13.2952 6.77445 13.5705 6.96626 13.8249 7.17634L14.6482 5.75112C14.8429 5.41642 15.3223 5.41627 15.5172 5.75067L15.5178 5.7517L16.0862 6.73895L16.0878 6.7417C17.0531 8.40608 19.4525 8.40608 20.4179 6.7417L20.4189 6.73986L22.2889 3.49986Z" undefined="0" transform="translate(2,2)"></path><path fill="#C4B6FF" d="M22.2889 3.49986C22.565 3.02153 22.401 2.40996 21.9227 2.13389C21.4444 1.85781 20.8328 2.02178 20.5567 2.50011L18.6874 5.73896C18.4927 6.07356 18.0133 6.07366 17.8184 5.73926L17.8179 5.73827L17.2495 4.75102L17.2479 4.74827C16.2825 3.08389 13.8831 3.08389 12.9178 4.74827L12.093 6.17611C12.4018 6.29138 12.7051 6.43374 13 6.604C13.2952 6.77445 13.5705 6.96626 13.8249 7.17634L14.6482 5.75112C14.8429 5.41642 15.3223 5.41627 15.5172 5.75067L15.5178 5.7517L16.0862 6.73895L16.0878 6.7417C17.0531 8.40608 19.4525 8.40608 20.4179 6.7417L20.4189 6.73986L22.2889 3.49986Z" undefined="1"></path>
<path stroke-miterlimit="10" stroke-width="1" stroke="#221b38" d="M9.5 12.67L12.5 7.46997"></path>
<path stroke-miterlimit="10" stroke-width="1" stroke="#221b38" d="M5.16992 10.17L13.8299 15.17"></path>
</svg>
