<svg width="164" height="158" xmlns="http://www.w3.org/2000/svg"><g fill="#5AD9AC" fill-rule="nonzero" opacity=".6"><path d="M19.806 136.587a19.354 19.354 0 0 1-13.684-33.062l97.402-97.4A18.825 18.825 0 0 1 117.067.413a19.966 19.966 0 0 1 13.486 5.327 19.014 19.014 0 0 1 6.014 14.052v97.441c-.015 10.675-8.66 19.329-19.334 19.354H19.806zm0 .413h97.427c10.916-.002 19.765-8.85 19.767-19.767V19.808C137 7.894 127.25 0 117.088 0a19.375 19.375 0 0 0-13.836 5.831L5.829 103.252C-6.623 115.708 2.196 137 19.806 137z"/><path d="M22.941 141.85c-8.09-.39-15.146-5.612-17.863-13.223a19.886 19.886 0 0 1 5.464-21.502l106.091-94.842a19.603 19.603 0 0 1 14.34-5.138 20.791 20.791 0 0 1 13.669 6.217 19.525 19.525 0 0 1 5.47 14.797l-5.246 100.107c-.614 11.011-10.05 19.448-21.093 18.856L22.93 141.837l.011.014zm-.033.4l100.844 5.284a20.472 20.472 0 0 0 14.762-5.175 20.36 20.36 0 0 0 6.765-14.071l5.246-100.115c.642-12.25-9.021-20.89-19.54-21.44a20.129 20.129 0 0 0-14.634 5.242L10.26 106.817c-13.562 12.126-5.579 34.49 12.647 35.445l.001-.012z"/><path d="M23.86 144.683c-8.557-1.05-15.282-6.805-17.555-15.029a20.004 20.004 0 0 1 7.238-21.536l116.305-89.583a20.363 20.363 0 0 1 15.18-4.232c5.332.671 10.221 3.3 13.71 7.368a20.03 20.03 0 0 1 4.596 15.59L150.768 139.6c-1.378 11.222-11.764 19.22-23.146 17.823l-103.75-12.739-.012-.002zm-.038.411l103.738 12.738c11.629 1.427 22.198-6.714 23.606-18.182l12.566-102.34c1.537-12.52-7.827-22.087-18.653-23.416a20.92 20.92 0 0 0-15.488 4.327l-116.315 89.59c-14.874 11.463-8.224 34.978 10.533 37.282l.013.001z"/></g></svg>