<svg width="164" height="87" viewBox="0 0 164 87" fill="none" xmlns="http://www.w3.org/2000/svg">
<rect x="91.619" y="0.618963" width="26.7621" height="48.7621" rx="6.38104" stroke="#BCE0FD" stroke-width="1.23793"/>
<rect x="91.619" y="0.618963" width="26.7621" height="48.7621" rx="6.38104" stroke="#BCE0FD" stroke-width="1.23793"/>
<rect x="127.619" y="32.619" width="13.7621" height="16.7621" rx="3.38104" stroke="#BCE0FD" stroke-width="1.23793"/>
<rect x="68.619" y="42.619" width="11.7621" height="6.76207" rx="3.38104" stroke="#BCE0FD" stroke-width="1.23793"/>
<path d="M1 77.2866C7.75208 66.2378 23.7115 66.2378 30.4636 77.2866C37.2157 88.3355 53.1752 88.3355 59.9273 77.2866C66.6793 66.2378 82.6388 66.2378 89.3909 77.2866C96.143 88.3355 112.102 88.3355 118.855 77.2866C125.607 66.2378 141.566 66.2378 148.318 77.2866C151.65 82.7234 157.175 85.4418 162.787 85.5295" stroke="#33C5FF" stroke-miterlimit="10" stroke-linecap="round"/>
</svg>
