<svg width="48" height="48" viewBox="0 0 24 24" fill="none" xmlns="http://www.w3.org/2000/svg" data-reactroot="">
<path fill="#7D55FF" d="M13.5854 15.7019C13.1949 15.3114 13.1949 14.6782 13.5854 14.2877L14.2925 13.5806C14.6831 13.1901 15.3162 13.1901 15.7067 13.5806L21.71 19.5839C22.1005 19.9744 22.1005 20.6076 21.71 20.9981L21.0029 21.7052C20.6124 22.0957 19.9792 22.0957 19.5887 21.7052L13.5854 15.7019Z" clip-rule="evenodd" fill-rule="evenodd" undefined="0" transform="translate(2,2)"></path><path fill="#C4B6FF" d="M13.5854 15.7019C13.1949 15.3114 13.1949 14.6782 13.5854 14.2877L14.2925 13.5806C14.6831 13.1901 15.3162 13.1901 15.7067 13.5806L21.71 19.5839C22.1005 19.9744 22.1005 20.6076 21.71 20.9981L21.0029 21.7052C20.6124 22.0957 19.9792 22.0957 19.5887 21.7052L13.5854 15.7019Z" clip-rule="evenodd" fill-rule="evenodd" undefined="1"></path>
<path fill="#7D55FF" d="M10 18C14.4183 18 18 14.4183 18 10C18 5.58172 14.4183 2 10 2C5.58172 2 2 5.58172 2 10C2 14.4183 5.58172 18 10 18Z" undefined="0" transform="translate(2,2)"></path><path fill="#C4B6FF" d="M10 18C14.4183 18 18 14.4183 18 10C18 5.58172 14.4183 2 10 2C5.58172 2 2 5.58172 2 10C2 14.4183 5.58172 18 10 18Z" undefined="1"></path>
</svg>
