<svg width="48" height="48" viewBox="0 0 24 24" fill="none" xmlns="http://www.w3.org/2000/svg" data-reactroot="">
<path stroke-linejoin="round" stroke-linecap="round" stroke-width="0" stroke="#221b38" fill="#7D55FF" d="M3 7H20V4.2626C20 3.61775 19.3987 3.14149 18.771 3.28919L3 7Z" transform="translate(2,2)"></path><path stroke-linejoin="round" stroke-linecap="round" stroke-width="1" stroke="#221b38" fill="none" d="M3 7H20V4.2626C20 3.61775 19.3987 3.14149 18.771 3.28919L3 7Z"></path>
<path stroke-linejoin="round" stroke-linecap="round" stroke-width="0" stroke="#221b38" fill="#C4B6FF" d="M21 21H3C2.45 21 2 20.55 2 20V8C2 7.45 2.45 7 3 7H21C21.55 7 22 7.45 22 8V20C22 20.55 21.55 21 21 21Z" transform="translate(2,2)"></path><path stroke-linejoin="round" stroke-linecap="round" stroke-width="1" stroke="#221b38" fill="none" d="M21 21H3C2.45 21 2 20.55 2 20V8C2 7.45 2.45 7 3 7H21C21.55 7 22 7.45 22 8V20C22 20.55 21.55 21 21 21Z"></path>
<path stroke-linejoin="round" stroke-linecap="round" stroke-width="0" stroke="#221b38" fill="#7D55FF" d="M22 16H18C16.9 16 16 15.1 16 14C16 12.9 16.9 12 18 12H22V16Z" transform="translate(2,2)"></path><path stroke-linejoin="round" stroke-linecap="round" stroke-width="1" stroke="#221b38" fill="none" d="M22 16H18C16.9 16 16 15.1 16 14C16 12.9 16.9 12 18 12H22V16Z"></path>
</svg>
