<?xml version="1.0" standalone="no"?>
<!DOCTYPE svg PUBLIC "-//W3C//DTD SVG 20010904//EN"
 "http://www.w3.org/TR/2001/REC-SVG-20010904/DTD/svg10.dtd">
<svg version="1.0" xmlns="http://www.w3.org/2000/svg"
 width="867.000000pt" height="867.000000pt" viewBox="0 0 867.000000 867.000000"
 preserveAspectRatio="xMidYMid meet">
<metadata>
Created by potrace 1.11, written by Peter Selinger 2001-2013
</metadata>
<g transform="translate(0.000000,867.000000) scale(0.100000,-0.100000)"
fill="#000000" stroke="none">
<path d="M4660 8639 c0 -11 -12 -71 -26 -132 -14 -62 -28 -123 -30 -137 -3
-14 -16 -70 -30 -125 -13 -55 -26 -109 -29 -120 -2 -11 -11 -47 -20 -80 -9
-33 -36 -136 -61 -230 -25 -93 -57 -208 -70 -255 -14 -47 -27 -92 -29 -100
-26 -108 -275 -887 -305 -955 -5 -11 -25 -67 -45 -125 -19 -58 -38 -112 -42
-120 -3 -8 -7 -17 -8 -20 -1 -3 -4 -12 -8 -20 -3 -8 -25 -67 -48 -130 -23 -63
-47 -128 -54 -145 -7 -16 -41 -102 -76 -190 -255 -649 -627 -1426 -944 -1970
-29 -49 -62 -106 -73 -125 -138 -244 -433 -689 -642 -971 -124 -167 -378 -488
-420 -529 -3 -3 -34 -39 -70 -80 -140 -161 -455 -484 -630 -644 -60 -55 -78
-76 -60 -72 14 4 32 8 40 10 8 2 44 12 80 21 36 9 72 18 81 20 8 2 44 10 80
19 123 30 358 80 479 102 14 2 36 7 50 10 14 3 34 8 45 10 11 1 34 6 50 9 164
29 317 56 350 60 22 2 51 7 65 10 13 2 42 7 65 10 22 3 51 8 65 10 14 2 45 7
70 10 25 3 56 8 70 10 40 7 82 14 130 20 25 3 59 7 75 9 17 2 59 7 95 11 36 4
73 9 82 10 9 2 49 6 90 10 40 3 84 8 98 10 41 7 266 29 410 41 194 15 200 15
650 40 242 13 876 18 1160 9 183 -5 399 -15 450 -20 25 -2 95 -7 155 -10 61
-3 121 -8 135 -10 14 -2 61 -6 105 -10 101 -8 167 -14 230 -21 28 -4 64 -7 80
-9 48 -4 169 -17 185 -20 8 -1 44 -6 80 -10 36 -4 74 -9 85 -11 11 -3 38 -7
60 -9 43 -5 76 -10 140 -20 151 -24 339 -55 365 -60 47 -9 145 -27 175 -32 17
-3 65 -13 109 -23 l78 -18 -6 52 c-3 29 -7 59 -10 67 -3 8 -7 28 -10 44 -2 17
-12 68 -21 115 -9 47 -19 96 -22 110 -2 14 -18 88 -34 165 -17 77 -33 154 -35
170 -3 17 -12 55 -19 85 -8 30 -16 66 -19 80 -2 14 -14 66 -26 115 -12 50 -23
97 -25 105 -2 8 -13 58 -26 110 -13 52 -23 97 -24 100 -1 3 -4 14 -8 25 -3 11
-8 31 -11 45 -6 32 -50 202 -78 300 -11 41 -21 80 -23 85 -3 17 -26 99 -36
130 -5 17 -25 84 -43 150 -110 390 -387 1212 -487 1442 -11 26 -22 55 -24 63
-3 15 -56 144 -157 385 -46 109 -96 222 -165 375 -14 30 -32 71 -40 90 -80
176 -380 767 -444 873 -16 26 -29 49 -29 52 0 6 -168 294 -230 395 -276 448
-535 813 -822 1156 -69 83 -201 224 -209 224 -5 0 -9 -9 -9 -21z m955 -4234
c13 -33 45 -121 70 -195 26 -74 51 -144 56 -155 11 -24 167 -502 174 -530 2
-11 18 -63 34 -115 37 -121 38 -125 26 -124 -5 1 -55 7 -111 13 -56 7 -112 14
-125 16 -38 6 -108 14 -179 20 -36 3 -75 8 -88 11 -12 2 -55 7 -95 10 -40 3
-82 7 -95 9 -21 4 -191 18 -219 18 -7 0 -13 6 -13 12 0 6 35 110 79 231 43
120 90 257 105 304 15 47 30 92 33 100 3 8 7 20 9 25 1 6 32 102 67 215 36
113 82 265 102 338 l38 134 54 -139 c30 -76 65 -165 78 -198z"/>
</g>
</svg>
