<?xml version="1.0" encoding="utf-8"?>
<!-- Generator: Adobe Illustrator 24.1.2, SVG Export Plug-In . SVG Version: 6.00 Build 0)  -->
<svg version="1.1" id="Layer_1" xmlns="http://www.w3.org/2000/svg" xmlns:xlink="http://www.w3.org/1999/xlink" x="0px" y="0px"
	 viewBox="0 0 120 100" style="enable-background:new 0 0 120 100;" xml:space="preserve">
<style type="text/css">
	.st0{fill:#E3F1FD;}
	.st1{fill:#4951A6;}
</style>
<g>
	<path class="st0" d="M66.4,31.8c-9.6,26.6-12.2,34.5-36.3,28.6c-24.1-6-15.4,13.5,0,25.9c15.4,12.3,78.4-1,78.4-35.1
		C108.5,17,76,5.1,66.4,31.8z"/>
	<path class="st0" d="M45.6,39.8c-3.2-12.1-7.7-18.6-11.2-3.2C30.9,52,48.8,51.8,45.6,39.8z"/>
	<path class="st1" d="M54.8,56.1l2.5,2.5c0.6,0.6,0.6,1.5,0,2.1L41.4,76.6c-0.6,0.6-1.5,0.6-2.1,0l-6.4-6.4c-0.6-0.6-0.6-1.5,0-2.1
		l15.9-15.9c0.6-0.6,1.5-0.6,2.1,0l2.5,2.5L68,40.1l-0.6-4.2c-0.1-0.9,0.2-1.8,1-2.3l7-5.3c1-0.8,2.4-0.7,3.3,0.2l2.4,2.4
		c0.9,0.9,1,2.3,0.2,3.3l-5.3,7c-0.5,0.7-1.4,1.1-2.3,1l-4.2-0.6L54.8,56.1L54.8,56.1z M73.9,40.2c0.2,0,0.4,0,0.5-0.2l5.3-7
		c0.2-0.2,0.1-0.5,0-0.7l-2.4-2.4c-0.2-0.2-0.5-0.2-0.7,0l-7,5.3c-0.1,0.1-0.2,0.3-0.2,0.5l0.6,3.9C69.9,39.6,73.9,40.2,73.9,40.2z
		 M49.9,54L34.7,69.2l5.7,5.7l15.2-15.2C55.5,59.6,49.9,54,49.9,54z"/>
	<g>
		<path class="st1" d="M84.8,62.6L81.3,59c-1.9-1.9-5-2-7-0.1l-0.7,0.7L51.8,37.9l0.7-0.7c1.9-2,1.9-5.1-0.1-7l-3.5-3.5
			c-1.4-1.4-3.5-1.6-5.1-0.7l6.3,6.3l-5.7,5.7l-6.3-6.3c-1,1.7-0.7,3.8,0.7,5.1l3.5,3.5c1.9,1.9,5,2,7,0.1l0.7-0.7l21.7,21.7
			l-0.7,0.7c-1.9,2-1.9,5.1,0.1,7l3.5,3.5c1.4,1.4,3.5,1.6,5.1,0.7l-6.3-6.3l5.7-5.7l6.3,6.3C86.4,66,86.2,63.9,84.8,62.6L84.8,62.6
			z M54.6,37.9l19,19c2.8-2,6.6-1.7,9,0.7l3.5,3.5c2.4,2.4,2.4,6.3,0.1,8.7l-0.7,0.7l-6.4-6.4l-2.8,2.8l6.4,6.4L82,74.2
			c-2.5,2.3-6.3,2.3-8.7-0.1l-3.5-3.5c-2.4-2.4-2.7-6.3-0.7-9l-19-19c-2.8,2-6.6,1.7-9-0.7l-3.5-3.5c-2.4-2.4-2.4-6.3-0.1-8.7
			l0.7-0.7l6.4,6.4l2.8-2.8l-6.4-6.4l0.7-0.7c2.5-2.3,6.3-2.3,8.7,0.1l3.5,3.5C56.3,31.2,56.6,35.1,54.6,37.9z"/>
	</g>
</g>
</svg>
