<?xml version="1.0" encoding="utf-8"?>
<!-- Generator: Adobe Illustrator 24.1.2, SVG Export Plug-In . SVG Version: 6.00 Build 0)  -->
<svg version="1.1" id="Layer_1" xmlns="http://www.w3.org/2000/svg" xmlns:xlink="http://www.w3.org/1999/xlink" x="0px" y="0px"
	 viewBox="0 0 120 100" style="enable-background:new 0 0 120 100;" xml:space="preserve">
<style type="text/css">
	.st0{fill:#E3F1FD;}
	.st1{fill:#4B5AB8;}
	.st2{fill:none;stroke:#4B5AB8;stroke-width:2;stroke-linecap:round;stroke-linejoin:round;}
</style>
<g>
	<path class="st0" d="M52.3,68c4-3,17.2-10,35.7-10s26.9-25,11.3-39C86.4,7.5,10.1-7,10.1,52C10.1,85,48.3,71,52.3,68z M72,90
		c24.4-6.3,17.9-20,4.4-23S47.6,96.3,72,90z"/>
	<g>
		<path class="st1" d="M38.1,85.6c-3.5-1-5.4-4.6-4.5-8s4.6-5.4,8-4.5s5.4,4.6,4.5,8S41.5,86.6,38.1,85.6L38.1,85.6z M38.6,83.7
			c2.4,0.7,4.9-0.7,5.6-3s-0.7-4.9-3-5.6c0,0,0,0-0.1,0c-2.4-0.7-4.9,0.8-5.5,3.1C34.9,80.5,36.3,83,38.6,83.7L38.6,83.7z"/>
		<path class="st1" d="M47.2,71.7c0.4,0.4,0.4,1,0,1.4c-0.4,0.4-1,0.4-1.4,0c-0.9-0.9-2.1-1.5-3.6-1.9c-4.5-1.3-9.2,1.3-10.5,5.8
			s1.3,9.2,5.8,10.5c4.5,1.3,9.2-1.3,10.5-5.8l0.7-2.4c0.2-0.5,0.7-0.8,1.2-0.7c0.5,0.2,0.8,0.7,0.7,1.2l-0.7,2.4
			c-1.6,5.6-7.4,8.8-13,7.2c-5.6-1.6-8.8-7.4-7.2-13c1.6-5.6,7.4-8.8,13-7.2C44.6,69.8,46.1,70.5,47.2,71.7z"/>
		<path class="st1" d="M63.8,15.7c-0.2,0.5-0.7,0.8-1.2,0.7c-0.2,0-0.3-0.1-0.4-0.3l1.2,1.2C63.3,17.4,63.8,15.7,63.8,15.7z
			 M63.3,17.4l0.4,0.4c1.2,1.3,1.7,3.1,1.2,4.8L48.6,79.7l1.2,3l17.1-59.6c0.7-2.4,0-5-1.7-6.8l-1.6-1.7c-0.4-0.4-1-0.4-1.4,0
			c-0.1,0.1-0.2,0.3-0.3,0.4l-16.3,57l1.9,0.6C47.5,72.7,63.3,17.4,63.3,17.4z M63.8,15.7c-0.2,0.5-0.7,0.8-1.2,0.7
			c-0.2,0-0.3-0.1-0.4-0.3l1.2,1.2C63.3,17.4,63.8,15.7,63.8,15.7z M63.8,17.8c1.2,1.3,1.7,3.1,1.2,4.8L48.6,79.7l1.2,3l17.1-59.6
			c0.7-2.4,0-5-1.7-6.8l-1.6-1.7c-0.4-0.4-1-0.4-1.4,0c-0.1,0.1-0.2,0.3-0.3,0.4l-16.3,57l1.9,0.6l15.9-55.3L63.8,17.8z"/>
	</g>
	<path class="st1" d="M45.5,17.8c-1.3,1.2-1.8,3-1.4,4.8l8,32l-1.2,3.3L42.2,23c-0.6-2.4,0.1-5,1.9-6.7l1.7-1.6c0.4-0.4,1-0.4,1.4,0
		c0.1,0.1,0.2,0.3,0.2,0.4C50,25.5,52.6,35.8,55.2,46l-1.9,0.5c-2.4-9.7-4.9-19.4-7.3-29.1C45.9,17.4,45.5,17.8,45.5,17.8z
		 M45.5,17.8c-1.3,1.2-1.8,3-1.4,4.8l8,32l-1.2,3.3L42.2,23c-0.6-2.4,0.1-5,1.9-6.7l1.7-1.6c0.4-0.4,1-0.4,1.4,0
		c0.1,0.1,0.2,0.3,0.2,0.4C50,25.5,52.6,35.8,55.2,46l-1.9,0.5c-2.4-9.7-4.9-19.4-7.3-29.1C45.9,17.4,45.5,17.8,45.5,17.8z
		 M68.8,85.6c3.5-0.8,5.7-4.3,4.8-7.8s-4.3-5.7-7.8-4.8c0,0-0.1,0-0.1,0c-3.5,0.9-5.6,4.5-4.6,7.9C61.9,84.4,65.4,86.5,68.8,85.6z
		 M68.3,83.7c-2.4,0.6-4.9-0.9-5.5-3.3s0.9-4.9,3.3-5.5l0,0c2.4-0.6,4.9,0.9,5.5,3.3S70.8,83.1,68.3,83.7z"/>
	<path class="st2" d="M60.8,72.2c1.1-1.1,2.5-1.7,4.1-2.1c5.1-1.3,10.2,1.8,11.5,6.9c1.3,5.1-1.8,10.2-6.9,11.5
		c-5.1,1.3-10.2-1.8-11.5-6.9C57.9,81.1,54.2,68,54,67"/>
	<path class="st1" d="M54.7,65.9l-0.2,0.5l0-1.1L54.7,65.9L54.7,65.9z M54.7,65.9l3.7,13.6l-1.3,2.9l-4.5-16.5l2.8-9.7l1,3.7
		L54.7,65.9L54.7,65.9z M59.9,72.5l1.9-0.5l-4.5-16.8l-1,3.9L59.9,72.5L59.9,72.5z"/>
	<g>
		<path class="st1" d="M84.6,43.2v41c0,2.2,1.8,4,4,4s4-1.8,4-4v-41H84.6z M83.6,41.2h10c0.6,0,1,0.4,1,1v42c0,3.3-2.7,6-6,6
			s-6-2.7-6-6v-42C82.6,41.6,83.1,41.2,83.6,41.2z"/>
		<path class="st1" d="M83.1,54.7v-2h11.5v2H83.1z M88.6,43.2c-6.1,0-11-6.1-11-13.5c0-5,3.6-9.5,10.5-13.4c0.3-0.2,0.7-0.2,1,0
			c6.9,3.9,10.5,8.3,10.5,13.4C99.6,37.1,94.8,43.2,88.6,43.2z M79.6,29.7c0,6.4,4.1,11.5,9,11.5c4.9,0,9-5.1,9-11.5
			c0-4.1-2.9-7.9-9-11.4C82.6,21.8,79.6,25.6,79.6,29.7z"/>
		<path class="st1" d="M89.1,18.2h2v17.5h-2V18.2z M93.1,21.2h2v12.5h-2V21.2z"/>
	</g>
	<g>
		<path class="st1" d="M24,34v7h8v-7H24z M23,32h10c0.6,0,1,0.4,1,1v9c0,0.6-0.4,1-1,1H23c-0.6,0-1-0.4-1-1v-9
			C22,32.4,22.4,32,23,32z"/>
		<path class="st1" d="M23,43v22h10V43H23z M22,41h12c0.6,0,1,0.4,1,1v24c0,0.6-0.4,1-1,1H22c-0.6,0-1-0.4-1-1V42
			C21,41.4,21.4,41,22,41z M25,32h6V17.7l-2.4,0.7C26.5,19.1,25,21,25,23.2V32z M31.7,15.4c0.5-0.2,1.1,0.1,1.2,0.7
			c0,0.1,0,0.2,0,0.3V33c0,0.6-0.4,1-1,1h-8c-0.6,0-1-0.4-1-1v-9.8c0-3.1,2-5.8,5-6.7C28,16.5,31.7,15.4,31.7,15.4z"/>
		<path class="st1" d="M29.4,44.3h2v17.1h-2V44.3z"/>
	</g>
</g>
</svg>
