<?xml version="1.0" encoding="utf-8"?>
<!-- Generator: Adobe Illustrator 24.1.2, SVG Export Plug-In . SVG Version: 6.00 Build 0)  -->
<svg version="1.1" id="Layer_1" xmlns="http://www.w3.org/2000/svg" xmlns:xlink="http://www.w3.org/1999/xlink" x="0px" y="0px"
	 viewBox="0 0 120 100" style="enable-background:new 0 0 120 100;" xml:space="preserve">
<style type="text/css">
	.st0{fill:#E3F1FD;}
	.st1{fill:#4B5AB8;}
</style>
<g>
	<path class="st0" d="M31.2,76C42.5,72,63.5,53,82,53s26.9-25,11.3-39C80.4,2.5,56.4,9.9,42,15C29.6,19.4,5.1,20.9,4.1,47
		C2.9,80,20,80,31.2,76z M81.1,78.1c24.4-6.3,15.5-10.8,2-13.7C69.6,61.4,56.7,84.4,81.1,78.1L81.1,78.1z"/>
	<g>
		<path class="st1" d="M29,29v55h84V29H29z M28,27h86c0.6,0,1,0.4,1,1v57c0,0.6-0.4,1-1,1H28c-0.6,0-1-0.4-1-1V28
			C27,27.4,27.4,27,28,27z"/>
		<path class="st1" d="M8,65v1c0-0.6-0.4-1-1-1H8z M8,65V10h39v18h2V9c0-0.6-0.4-1-1-1H7C6.4,8,6,8.4,6,9v57c0,0.6,0.4,1,1,1h21v-2
			H8z M47,10V9c0,0.6,0.4,1,1,1H47z M47,10v18h2V9c0-0.6-0.4-1-1-1H7C6.4,8,6,8.4,6,9v57c0,0.6,0.4,1,1,1h21v-2H8V10H47z M8,10H7
			c0.6,0,1-0.4,1-1V10z"/>
		<path class="st1" d="M12.5,56.5c-0.6,0-1-0.4-1-1s0.4-1,1-1H28c0.6,0,1,0.4,1,1s-0.4,1-1,1H12.5z M12.5,46.5c-0.6,0-1-0.4-1-1
			s0.4-1,1-1H28c0.6,0,1,0.4,1,1s-0.4,1-1,1H12.5z M12.5,36.5c-0.6,0-1-0.4-1-1s0.4-1,1-1H28c0.6,0,1,0.4,1,1s-0.4,1-1,1H12.5z
			 M12.5,26.5c-0.6,0-1-0.4-1-1s0.4-1,1-1H35c0.6,0,1,0.4,1,1s-0.4,1-1,1H12.5z M12.5,16.5c-0.6,0-1-0.4-1-1c0-0.6,0.4-1,1-1H41
			c0.6,0,1,0.4,1,1c0,0.6-0.4,1-1,1H12.5z M56,19v8h32v-8H56z M55,17h34c0.6,0,1,0.4,1,1v10c0,0.6-0.4,1-1,1H55c-0.6,0-1-0.4-1-1V18
			C54,17.4,54.4,17,55,17z"/>
		<path class="st1" d="M62,57v2H34l-7-31h88l-7,31H82v-2h24.4l6.1-28h-83l6.1,28H62z"/>
		<path class="st1" d="M64,54v8h16v-8H64z M63,52h18c0.6,0,1,0.4,1,1v10c0,0.6-0.4,1-1,1H63c-0.6,0-1-0.4-1-1V53
			C62,52.4,62.4,52,63,52z"/>
	</g>
</g>
</svg>
