<?xml version="1.0" encoding="utf-8"?>
<!-- Generator: Adobe Illustrator 24.1.2, SVG Export Plug-In . SVG Version: 6.00 Build 0)  -->
<svg version="1.1" id="Layer_1" xmlns="http://www.w3.org/2000/svg" xmlns:xlink="http://www.w3.org/1999/xlink" x="0px" y="0px"
	 viewBox="0 0 120 100" style="enable-background:new 0 0 120 100;" xml:space="preserve">
<style type="text/css">
	.st0{fill:#E3F1FD;}
	.st1{fill:#4B5AB8;}
</style>
<g>
	<path class="st0" d="M50.3,34.2c-9.6,26.6-2.8,27.9-20.2,26.1c-17.4-1.8-15.4,13.5,0,25.9c15.4,12.3,78.4-1,78.4-35.1
		C108.5,17,59.9,7.6,50.3,34.2z"/>
	<path class="st0" d="M35.5,48.3c-2.2-8-4.6-8-11.2-3.2S37.7,56.4,35.5,48.3z"/>
	<g>
		<path class="st1" d="M48,80V68H19c-0.6,0-1-0.4-1-1V16c0-0.6,0.4-1,1-1h78c0.6,0,1,0.4,1,1v51c0,0.6-0.4,1-1,1H68v12h6
			c0.6,0,1,0.4,1,1s-0.4,1-1,1H43c-0.6,0-1-0.4-1-1s0.4-1,1-1H48z M50,80h16V68H50V80z M49,66h47v-9H20v9H49z M20,55h76V17H20V55z"
			/>
		<path class="st1" d="M42,53v2h8V29h-8v2h4v2h-4v2h4v2h-4v2h4v2h-4v2h4v2h-4v2h4v2h-4v2h4v2H42z M41,27h10c0.6,0,1,0.4,1,1v28
			c0,0.6-0.4,1-1,1H41c-0.6,0-1-0.4-1-1V28C40,27.4,40.4,27,41,27z M67,34v21h6V34H67z M66,32h8c0.6,0,1,0.4,1,1v23c0,0.6-0.4,1-1,1
			h-8c-0.6,0-1-0.4-1-1V33C65,32.4,65.4,32,66,32z"/>
		<path class="st1" d="M67.9,32h4.3L70,28.8L67.9,32z M70.8,26.4l4,6c0.3,0.5,0.2,1.1-0.3,1.4C74.4,33.9,74.2,34,74,34h-8
			c-0.6,0-1-0.4-1-1c0-0.2,0.1-0.4,0.2-0.6l4-6c0.3-0.5,0.9-0.6,1.4-0.3C70.7,26.2,70.8,26.3,70.8,26.4z"/>
		<path class="st1" d="M69,33h2v20h-2V33z"/>
	</g>
</g>
</svg>
