<?xml version="1.0" encoding="utf-8"?>
<!-- Generator: Adobe Illustrator 24.1.2, SVG Export Plug-In . SVG Version: 6.00 Build 0)  -->
<svg version="1.1" id="Layer_1" xmlns="http://www.w3.org/2000/svg" xmlns:xlink="http://www.w3.org/1999/xlink" x="0px" y="0px"
	 viewBox="0 0 120 100" style="enable-background:new 0 0 120 100;" xml:space="preserve">
<style type="text/css">
	.st0{fill:#E3F1FD;}
	.st1{fill:#4B5AB8;}
</style>
<g>
	<path class="st0" d="M52.3,68c4-3,17.2-10,35.7-10s26.9-25,11.3-39C86.4,7.5,10.1-7,10.1,52C10.1,85,48.3,71,52.3,68z M72,90
		c24.4-6.3,17.9-20,4.4-23S47.6,96.3,72,90z"/>
	<g>
		<path class="st1" d="M35,86V19h47.1v24c0,1,0.8,1.9,1.8,2l0.2-2V18.4c0-0.8-0.6-1.4-1.4-1.4H34.4c-0.8,0-1.4,0.6-1.4,1.4v68.2
			c0,0.8,0.6,1.4,1.4,1.4h45l0.2-2c-0.1,0-0.1,0-0.2,0L35,86L35,86z M82.1,19v24c0,1,0.8,1.9,1.8,2l0.2-2V18.4
			c0-0.8-0.6-1.4-1.4-1.4H34.4c-0.8,0-1.4,0.6-1.4,1.4v68.2c0,0.8,0.6,1.4,1.4,1.4h45l0.2-2c-0.1,0-0.1,0-0.2,0H35V19H82.1z"/>
		<path class="st1" d="M41,26v10h36V26H41z M40,24h38c0.6,0,1,0.4,1,1v12c0,0.6-0.4,1-1,1H40c-0.6,0-1-0.4-1-1V25
			C39,24.4,39.4,24,40,24z M41,43v7h7v-7H41z M40,41h9c0.6,0,1,0.4,1,1v9c0,0.6-0.4,1-1,1h-9c-0.6,0-1-0.4-1-1v-9
			C39,41.4,39.4,41,40,41z M41,58v7h7v-7H41z M40,56h9c0.6,0,1,0.4,1,1v9c0,0.6-0.4,1-1,1h-9c-0.6,0-1-0.4-1-1v-9
			C39,56.4,39.4,56,40,56z M55,43v7h7v-7H55z M54,41h9c0.6,0,1,0.4,1,1v9c0,0.6-0.4,1-1,1h-9c-0.6,0-1-0.4-1-1v-9
			C53,41.4,53.4,41,54,41z M55,58v7h7v-7H55z M54,56h9c0.6,0,1,0.4,1,1v9c0,0.6-0.4,1-1,1h-9c-0.6,0-1-0.4-1-1v-9
			C53,56.4,53.4,56,54,56z M69,43v7h7v-7H69z M68,41h9c0.6,0,1,0.4,1,1v9c0,0.6-0.4,1-1,1h-9c-0.6,0-1-0.4-1-1v-9
			C67,41.4,67.4,41,68,41z M69,58v7h7v-7H69z M68,56h9c0.6,0,1,0.4,1,1v9c0,0.6-0.4,1-1,1h-9c-0.6,0-1-0.4-1-1v-9
			C67,56.4,67.4,56,68,56z M41,72v7h7v-7H41z M40,70h9c0.6,0,1,0.4,1,1v9c0,0.6-0.4,1-1,1h-9c-0.6,0-1-0.4-1-1v-9
			C39,70.4,39.4,70,40,70z M55,72v7h7v-7H55z M54,70h9c0.6,0,1,0.4,1,1v9c0,0.6-0.4,1-1,1h-9c-0.6,0-1-0.4-1-1v-9
			C53,70.4,53.4,70,54,70z M69,72h7.1l0.5-2h-8.3c-0.8,0-1.4,0.6-1.4,1.4v8.3c0,0.8,0.6,1.4,1.4,1.4H74v-2h-5V72z M76.1,72l0.5-2
			h-8.3c-0.8,0-1.4,0.6-1.4,1.4v8.3c0,0.8,0.6,1.4,1.4,1.4H74v-2h-5v-7H76.1z"/>
		<path class="st1" d="M87.2,33.2L73.4,84.4l9.7,2.6l13.7-51.2L87.2,33.2L87.2,33.2z M86.7,31l11.6,3.1c0.5,0.1,0.9,0.7,0.7,1.2
			c0,0,0,0,0,0L84.8,88.4c-0.1,0.5-0.7,0.9-1.2,0.7c0,0,0,0,0,0L72,86c-0.5-0.1-0.9-0.7-0.7-1.2c0,0,0,0,0,0l14.2-53.1
			C85.6,31.2,86.2,30.8,86.7,31C86.7,31,86.7,31,86.7,31L86.7,31z"/>
		<path class="st1" d="M91.4,32.8l1.9,0.5l-11.3,42l-1.9-0.5L91.4,32.8z"/>
		<path class="st1" d="M88.5,31.5l8,2.1l-2.4-7.1C94.1,26.6,88.5,31.5,88.5,31.5z M95.5,24.5L99,34.7c0.2,0.5-0.1,1.1-0.6,1.3
			c-0.2,0.1-0.4,0.1-0.6,0l-11.6-3.1c-0.5-0.1-0.8-0.7-0.7-1.2c0.1-0.2,0.2-0.4,0.3-0.5l8.1-7.1c0.4-0.4,1-0.3,1.4,0.1
			C95.4,24.3,95.5,24.4,95.5,24.5z"/>
	</g>
</g>
</svg>
