<?xml version="1.0" encoding="utf-8"?>
<!-- Generator: Adobe Illustrator 24.1.2, SVG Export Plug-In . SVG Version: 6.00 Build 0)  -->
<svg version="1.1" id="Layer_1" xmlns="http://www.w3.org/2000/svg" xmlns:xlink="http://www.w3.org/1999/xlink" x="0px" y="0px"
	 viewBox="0 0 120 100" style="enable-background:new 0 0 120 100;" xml:space="preserve">
<style type="text/css">
	.st0{fill:#E3F1FD;}
	.st1{fill:#4B5AB8;}
</style>
<g>
	<path class="st0" d="M46.4,62.1c3.7-13.4,27.4-4.5,41.6-4c14.2,0.6,25.9-25.5-2.5-43.4C57-3.3,10.8,18.9,11.2,50.6
		C11.7,82.2,42.7,75.5,46.4,62.1z"/>
	<path class="st0" d="M86.4,69.7c-3.2-12.1-33.8-7.6-37.2,7.8C45.6,92.9,89.6,81.8,86.4,69.7L86.4,69.7z"/>
	<g>
		<path class="st1" d="M64,29c0-5-4-9-9-9H30c-5,0-9,4-9,9v44h2.4c0.6,0,1,0.4,1,1s-0.4,1-1,1H21c-1.1,0-2-0.9-2-2V29
			c0-6.1,4.9-11,11-11h25c6.1,0,11,4.9,11,11v44c0,1.6-0.4,2-2,2H50.4c-0.6,0-1-0.4-1-1s0.4-1,1-1H64V29z M81,84
			c-6.1,0-11-4.9-11-11s4.9-11,11-11s11,4.9,11,11S87.1,84,81,84z M81,82c5,0,9-4,9-9s-4-9-9-9s-9,4-9,9S76,82,81,82z"/>
		<path class="st1" d="M37,84c-6.1,0-11-4.9-11-11s4.9-11,11-11s11,4.9,11,11S43.1,84,37,84z M37,82c5,0,9-4,9-9s-4-9-9-9s-9,4-9,9
			S32,82,37,82z M33,39v16h18V39H33z M32,37h20c0.6,0,1,0.4,1,1v18c0,0.6-0.4,1-1,1H32c-0.6,0-1-0.4-1-1V38C31,37.4,31.4,37,32,37z"
			/>
		<path class="st1" d="M30.7,37h22.6L42,27.3L30.7,37z M42.7,25.2l14,12c0.7,0.6,0.3,1.8-0.7,1.8H28c-0.9,0-1.4-1.2-0.6-1.8l14-12
			C41.7,24.9,42.3,24.9,42.7,25.2L42.7,25.2z M66,43v30c0,0.6-0.4,1-1,1s-1-0.4-1-1V43c0-1.1,0.9-2,2-2h16.5c9.7,0,17.5,7.6,17.5,17
			v15c0,1.1-0.9,2-2,2h-3c-0.6,0-1-0.4-1-1s0.4-1,1-1h3V58c0-8.3-6.9-15-15.5-15H66z"/>
		<path class="st1" d="M63.5,75c-0.6,0-1-0.4-1-1s0.4-1,1-1H68c0.6,0,1,0.4,1,1s-0.4,1-1,1H63.5z"/>
	</g>
	<path class="st1" d="M79,57h19.7c0.6,0,1,0.4,1,1s-0.4,1-1,1H78c-0.6,0-1-0.4-1-1V42c0-0.6,0.4-1,1-1s1,0.4,1,1V57z"/>
</g>
</svg>
