<svg xmlns="http://www.w3.org/2000/svg" viewBox="0 0 500 500"><g id="freepik--background-complete--inject-152"><rect x="331.77" y="275.76" width="108.18" height="61.27" rx="17.23" transform="translate(771.72 612.79) rotate(180)" style="fill:#f5f5f5"></rect><path d="M349.14,332.48h13.7l.62,1.51s-1.88,12.78-18.29,15.42C345.17,349.41,352.32,341.21,349.14,332.48Z" style="fill:#f5f5f5"></path><path d="M382.5,299.35V317h-5v-6.88h-6.8V317h-5V299.35h5V306h6.8v-6.62Z" style="fill:#e0e0e0"></path><path d="M399.69,311.37h-9.93a3.16,3.16,0,0,0,3.36,2.19,4.42,4.42,0,0,0,3.15-1.18l2.52,2.62a7.41,7.41,0,0,1-5.83,2.22c-4.86,0-8-3-8-7.09s3.2-7,7.51-7c4,0,7.31,2.57,7.31,7.08C399.77,310.54,399.72,311,399.69,311.37Zm-10-2.52h5.59a2.84,2.84,0,0,0-5.59,0Z" style="fill:#e0e0e0"></path><path d="M398.08,321.4l1.21-3.4a2.85,2.85,0,0,0,1.49.4c.83,0,1.41-.55,1.41-1.79V303.33H407v13.31c0,3.33-2,5.47-5.57,5.47A7,7,0,0,1,398.08,321.4Zm3.58-22.13a2.65,2.65,0,0,1,2.92-2.55c1.77,0,2.93,1,2.93,2.47a2.95,2.95,0,0,1-5.85.08Z" style="fill:#e0e0e0"></path><rect x="334.74" y="44.92" width="82.87" height="46.94" rx="17.23" transform="translate(752.35 136.77) rotate(180)" style="fill:#f5f5f5"></rect><path d="M348.05,88.37h10.49l.48,1.15s-1.45,9.79-14,11.82C345,101.34,350.48,95.06,348.05,88.37Z" style="fill:#f5f5f5"></path><path d="M334.56,173h16.29l.74,1.8s-2.23,15.2-21.75,18.34C329.84,193.13,338.34,183.38,334.56,173Z" style="fill:#f5f5f5"></path><rect x="308.83" y="125.11" width="134.69" height="56.09" rx="13.55" transform="translate(752.35 306.31) rotate(180)" style="fill:#f5f5f5"></rect><path d="M345.75,158.28c0,2.8-2.31,4.43-6.64,4.43h-8.72V146.56h8.26c4.24,0,6.32,1.73,6.32,4.23a3.81,3.81,0,0,1-2.17,3.5A4.08,4.08,0,0,1,345.75,158.28Zm-10.84-8.42V153h3.14c1.52,0,2.3-.53,2.3-1.57s-.78-1.55-2.3-1.55Zm6.23,7.92c0-1.11-.83-1.64-2.4-1.64h-3.83v3.27h3.83C340.31,159.41,341.14,158.88,341.14,157.78Z" style="fill:#e0e0e0"></path><path d="M347.14,156.44c0-3.76,3-6.44,7.06-6.44s7.06,2.68,7.06,6.44-2.93,6.48-7.06,6.48S347.14,160.22,347.14,156.44Zm9.69,0a2.65,2.65,0,1,0-5.26,0c0,1.91,1.15,3,2.63,3S356.83,158.35,356.83,156.44Z" style="fill:#e0e0e0"></path><path d="M376.6,155.56v7.15h-4.38v-6.43c0-1.8-.78-2.56-2.05-2.56s-2.49.87-2.49,2.95v6h-4.39v-12.5h4.18v1.36a5.36,5.36,0,0,1,4-1.57C374.37,150,376.6,151.69,376.6,155.56Z" style="fill:#e0e0e0"></path><path d="M375.78,166.75l1.1-3.11a2.63,2.63,0,0,0,1.36.37c.77,0,1.3-.51,1.3-1.64V150.21h4.38v12.18c0,3.05-1.87,5-5.1,5A6.36,6.36,0,0,1,375.78,166.75Zm3.27-20.26a2.43,2.43,0,0,1,2.68-2.33,2.37,2.37,0,0,1,2.67,2.27,2.7,2.7,0,0,1-5.35.06Z" style="fill:#e0e0e0"></path><path d="M386,156.44c0-3.76,3-6.44,7.06-6.44s7.06,2.68,7.06,6.44-2.93,6.48-7.06,6.48S386,160.22,386,156.44Zm9.69,0a2.65,2.65,0,1,0-5.26,0c0,1.91,1.15,3,2.63,3S395.64,158.35,395.64,156.44Z" style="fill:#e0e0e0"></path><path d="M415.25,150.21v12.5h-4.17v-1.33a5,5,0,0,1-3.72,1.54c-3.07,0-5.3-1.75-5.3-5.72v-7h4.38v6.27c0,1.94.76,2.7,2.08,2.7s2.35-.85,2.35-3v-6Z" style="fill:#e0e0e0"></path><path d="M426.45,150V154a7.43,7.43,0,0,0-1-.07c-1.77,0-3,.9-3,3.09v5.74h-4.38v-12.5h4.18v1.5A5.12,5.12,0,0,1,426.45,150Z" style="fill:#e0e0e0"></path><path d="M141.55,267.21H126.39l-.7,1.67S127.78,283,145.94,286C145.94,286,138,276.88,141.55,267.21Z" style="fill:#f5f5f5"></path><rect x="35.5" y="219.6" width="125.35" height="52.2" rx="13.55" style="fill:#f5f5f5"></rect><path d="M167.59,85.87H156.48l-.5,1.34s1.52,11.33,14.82,13.68C170.8,100.89,165,93.61,167.59,85.87Z" style="fill:#f5f5f5"></path><rect x="89.91" y="47.71" width="91.81" height="41.83" rx="13.55" style="fill:#f5f5f5"></rect><path d="M69.24,246.13c0,2.57-2,4.05-5.76,4.05H56.31v-15h6.74c3.46,0,5.39,1.46,5.39,3.88a3.55,3.55,0,0,1-2,3.35A3.63,3.63,0,0,1,69.24,246.13Zm-10.78-9.24v4.81h4.4c2.19,0,3.44-.81,3.44-2.4s-1.25-2.41-3.44-2.41ZM67.07,246c0-1.73-1.29-2.51-3.67-2.51H58.46v5H63.4C65.78,248.44,67.07,247.69,67.07,246Z" style="fill:#e0e0e0"></path><path d="M71.22,244.49a5.92,5.92,0,1,1,5.92,5.82A5.66,5.66,0,0,1,71.22,244.49Zm9.74,0a3.83,3.83,0,1,0-3.82,4A3.73,3.73,0,0,0,81,244.49Z" style="fill:#e0e0e0"></path><path d="M96.7,243.64v6.54H94.64v-6.31c0-2.23-1.11-3.33-3.07-3.33-2.19,0-3.6,1.31-3.6,3.78v5.86H85.9V238.81h2v1.71A4.88,4.88,0,0,1,92,238.7C94.75,238.7,96.7,240.29,96.7,243.64Z" style="fill:#e0e0e0"></path><path d="M96.6,253.79l.67-1.59a2.54,2.54,0,0,0,1.67.54c1.09,0,1.7-.69,1.7-2V238.81h2.06V250.7c0,2.32-1.29,3.78-3.63,3.78A4.06,4.06,0,0,1,96.6,253.79Zm3.67-18.51a1.36,1.36,0,0,1,1.4-1.35,1.33,1.33,0,0,1,1.39,1.31,1.4,1.4,0,0,1-2.79,0Z" style="fill:#e0e0e0"></path><path d="M105.58,244.49a5.91,5.91,0,1,1,5.92,5.82A5.66,5.66,0,0,1,105.58,244.49Zm9.74,0a3.83,3.83,0,1,0-3.82,4A3.73,3.73,0,0,0,115.32,244.49Z" style="fill:#e0e0e0"></path><path d="M130.87,238.81v11.37h-2v-1.71a4.64,4.64,0,0,1-3.87,1.84c-2.94,0-4.89-1.61-4.89-5v-6.54h2.06v6.31c0,2.23,1.11,3.35,3.07,3.35,2.14,0,3.52-1.34,3.52-3.78v-5.88Z" style="fill:#e0e0e0"></path><path d="M140.92,238.7v2a3.86,3.86,0,0,0-.47,0c-2.21,0-3.59,1.36-3.59,3.85v5.66H134.8V238.81h2v1.91C137.51,239.38,138.92,238.7,140.92,238.7Z" style="fill:#e0e0e0"></path></g><g id="freepik--Table--inject-152"><path d="M477.4,458.38c0,.15-101.82.26-227.39.26s-227.41-.11-227.41-.26,101.8-.26,227.41-.26S477.4,458.24,477.4,458.38Z" style="fill:#263238"></path></g><g id="freepik--Books--inject-152"><rect x="357.09" y="420.16" width="19.09" height="36.16" transform="translate(733.26 876.49) rotate(180)" style="fill:#f5f5f5"></rect><rect x="376.17" y="418.89" width="89.59" height="39.21" transform="translate(841.94 877) rotate(180)" style="fill:#455a64"></rect><path d="M355.6,458.1h23v-2.54h-23a1.27,1.27,0,0,0-1.28,1.27h0A1.27,1.27,0,0,0,355.6,458.1Z" style="fill:#455a64"></path><path d="M354.32,418.89h23.2a1.1,1.1,0,0,1,1.1,1.1v.34a1.1,1.1,0,0,1-1.1,1.1h-23.2a0,0,0,0,1,0,0v-2.54A0,0,0,0,1,354.32,418.89Z" transform="translate(732.95 840.33) rotate(180)" style="fill:#455a64"></path><path d="M357.09,425c0,.06,4.27.11,9.54.11s9.54-.05,9.54-.11-4.27-.11-9.54-.11S357.09,425,357.09,425Z" style="fill:#e0e0e0"></path><path d="M357.09,429.65c0,.06,4.27.11,9.54.11s9.54-.05,9.54-.11-4.27-.11-9.54-.11S357.09,429.59,357.09,429.65Z" style="fill:#e0e0e0"></path><path d="M357.09,434.29c0,.06,4.27.11,9.54.11s9.54,0,9.54-.11-4.27-.11-9.54-.11S357.09,434.23,357.09,434.29Z" style="fill:#e0e0e0"></path><path d="M357.09,438.93c0,.06,4.27.11,9.54.11s9.54-.05,9.54-.11-4.27-.11-9.54-.11S357.09,438.87,357.09,438.93Z" style="fill:#e0e0e0"></path><path d="M357.09,443.57c0,.06,4.27.1,9.54.1s9.54,0,9.54-.1-4.27-.11-9.54-.11S357.09,443.5,357.09,443.57Z" style="fill:#e0e0e0"></path><path d="M357.09,448.2c0,.06,4.27.11,9.54.11s9.54-.05,9.54-.11-4.27-.11-9.54-.11S357.09,448.14,357.09,448.2Z" style="fill:#e0e0e0"></path><path d="M357.09,452.84c0,.06,4.27.11,9.54.11s9.54-.05,9.54-.11-4.27-.11-9.54-.11S357.09,452.78,357.09,452.84Z" style="fill:#e0e0e0"></path><rect x="441.93" y="381.31" width="18.42" height="21.89" style="fill:#f5f5f5"></rect><rect x="359.34" y="379.89" width="83.23" height="24.7" style="fill:#92E3A9"></rect><path d="M460.91,382H440.34v-2.07h20.57a1,1,0,0,1,1,1h0A1,1,0,0,1,460.91,382Z" style="fill:#92E3A9"></path><path d="M460.91,404.58H440.34v-2.07h20.57a1,1,0,0,1,1,1h0A1,1,0,0,1,460.91,404.58Z" style="fill:#92E3A9"></path><g style="opacity:0.4"><rect x="426.19" y="379.89" width="9.83" height="24.7"></rect></g><g style="opacity:0.4"><rect x="366.72" y="379.89" width="9.83" height="24.7"></rect></g><path d="M460.35,384.94c0,.06-4,.1-8.9.1s-8.9,0-8.9-.1,4-.11,8.9-.11S460.35,384.87,460.35,384.94Z" style="fill:#e0e0e0"></path><path d="M460.35,388.22c0,.06-4,.11-8.9.11s-8.9-.05-8.9-.11,4-.11,8.9-.11S460.35,388.16,460.35,388.22Z" style="fill:#e0e0e0"></path><path d="M460.35,392.26c0,.06-4,.11-8.9.11s-8.9-.05-8.9-.11,4-.11,8.9-.11S460.35,392.2,460.35,392.26Z" style="fill:#e0e0e0"></path><path d="M460.35,396.3c0,.06-4,.11-8.9.11s-8.9-.05-8.9-.11,4-.11,8.9-.11S460.35,396.24,460.35,396.3Z" style="fill:#e0e0e0"></path><path d="M460.35,400.35c0,.06-4,.11-8.9.11s-8.9,0-8.9-.11,4-.11,8.9-.11S460.35,400.29,460.35,400.35Z" style="fill:#e0e0e0"></path><g style="opacity:0.2"><rect x="383.46" y="390.04" width="37.44" height="4.45"></rect></g><rect x="441.46" y="405.07" width="18.7" height="13.34" style="fill:#fafafa"></rect><rect x="362.1" y="404.58" width="79.58" height="14.31" style="fill:#263238"></rect><path d="M441.09,405.55h20.1a.48.48,0,0,0,.49-.48h0a.49.49,0,0,0-.49-.49h-20.1Z" style="fill:#263238"></path><path d="M441.09,417.93h20.16a.42.42,0,0,1,.42.42v.13a.42.42,0,0,1-.42.42H441.09a0,0,0,0,1,0,0v-1A0,0,0,0,1,441.09,417.93Z" style="fill:#263238"></path><path d="M460.16,407.6c0,.06-4.14.11-9.24.11s-9.25,0-9.25-.11,4.14-.11,9.25-.11S460.16,407.54,460.16,407.6Z" style="fill:#e0e0e0"></path><path d="M460.16,410.13c0,.06-4.14.11-9.24.11s-9.25-.05-9.25-.11,4.14-.11,9.25-.11S460.16,410.07,460.16,410.13Z" style="fill:#e0e0e0"></path><path d="M460.16,412.65c0,.06-4.14.11-9.24.11s-9.25-.05-9.25-.11,4.14-.11,9.25-.11S460.16,412.59,460.16,412.65Z" style="fill:#e0e0e0"></path><path d="M460.16,415.17c0,.07-4.14.11-9.24.11s-9.25,0-9.25-.11,4.14-.1,9.25-.1S460.16,415.11,460.16,415.17Z" style="fill:#e0e0e0"></path><path d="M386.55,436H390c2.51,0,4.23,1.49,4.23,3.77s-1.72,3.78-4.23,3.78h-3.49Zm3.4,6.11a2.34,2.34,0,1,0,0-4.67h-1.62v4.67Z" style="fill:#fff"></path><path d="M395.61,436h1.77v7.55h-1.77Z" style="fill:#fff"></path><path d="M398.72,439.77a3.91,3.91,0,0,1,4.16-3.9,4,4,0,0,1,3.16,1.34l-1.14,1a2.49,2.49,0,0,0-1.93-.88,2.42,2.42,0,1,0,0,4.83,2.45,2.45,0,0,0,1.93-.9l1.14,1a4,4,0,0,1-3.17,1.34A3.9,3.9,0,0,1,398.72,439.77Z" style="fill:#fff"></path><path d="M408.75,437.43h-2.46V436H413v1.43h-2.46v6.12h-1.77Z" style="fill:#fff"></path><path d="M413.93,436h1.77v7.55h-1.77Z" style="fill:#fff"></path><path d="M417,439.77a4.21,4.21,0,1,1,4.2,3.9A3.94,3.94,0,0,1,417,439.77Zm6.6,0a2.4,2.4,0,1,0-2.4,2.42A2.32,2.32,0,0,0,423.64,439.77Z" style="fill:#fff"></path><path d="M433.81,436v7.55h-1.46L428.53,439v4.58h-1.76V436h1.47l3.81,4.58V436Z" style="fill:#fff"></path><path d="M440.68,441.93h-3.56l-.68,1.62h-1.82L438,436h1.75l3.43,7.55h-1.86Zm-.56-1.33-1.21-2.88-1.22,2.88Z" style="fill:#fff"></path><path d="M448.91,443.55l-1.48-2.11H445.8v2.11H444V436h3.32c2.05,0,3.33,1.05,3.33,2.74a2.45,2.45,0,0,1-1.57,2.38l1.72,2.43Zm-1.67-6.12H445.8v2.62h1.44c1.09,0,1.64-.49,1.64-1.31S448.33,437.43,447.24,437.43Z" style="fill:#fff"></path><path d="M455.65,440.87v2.68h-1.78v-2.7l-3-4.85h1.88l2,3.35,2.05-3.35h1.74Z" style="fill:#fff"></path><path d="M386.28,409.18l-.54,2.69h3.35l-.09.42h-3.34l-.56,2.78h-.46l1.26-6.3h4.21l-.09.41Z" style="fill:#fff"></path><path d="M393.25,410.33l-.08.44H393c-1.06,0-1.76.63-2,1.89l-.49,2.41h-.45l.94-4.7h.44l-.2,1A2.13,2.13,0,0,1,393.25,410.33Z" style="fill:#fff"></path><path d="M393.88,412.82a2.83,2.83,0,0,0,0,.29c0,1,.59,1.59,1.74,1.59a2.21,2.21,0,0,0,1.61-.63l.2.31a2.51,2.51,0,0,1-1.85.72,1.9,1.9,0,0,1-2.14-2,2.62,2.62,0,0,1,2.56-2.8,1.83,1.83,0,0,1,2,2,4.15,4.15,0,0,1-.05.53Zm.05-.35h3.62a2,2,0,0,0,0-.24,1.44,1.44,0,0,0-1.59-1.51A2.07,2.07,0,0,0,393.93,412.47Z" style="fill:#fff"></path><path d="M403.67,411.84a3.14,3.14,0,0,1-.05.51l-.54,2.72h-.45l.54-2.72a2.42,2.42,0,0,0,0-.45c0-.73-.44-1.16-1.32-1.16a2,2,0,0,0-2.06,1.77l-.51,2.56h-.45l.93-4.7h.44l-.18.89a2.28,2.28,0,0,1,1.95-.93A1.45,1.45,0,0,1,403.67,411.84Z" style="fill:#fff"></path><path d="M404.86,413.15a2.66,2.66,0,0,1,2.7-2.82,1.9,1.9,0,0,1,1.78.89l-.37.22a1.54,1.54,0,0,0-1.44-.7,2.23,2.23,0,0,0-2.22,2.38,1.49,1.49,0,0,0,1.7,1.58,2,2,0,0,0,1.55-.69l.32.26a2.42,2.42,0,0,1-1.91.83A1.89,1.89,0,0,1,404.86,413.15Z" style="fill:#fff"></path><path d="M414.64,411.84a3.14,3.14,0,0,1-.05.51l-.54,2.72h-.45l.54-2.72a1.79,1.79,0,0,0,0-.45c0-.73-.44-1.16-1.32-1.16a2,2,0,0,0-2.06,1.77l-.51,2.56h-.45l1.33-6.68h.45l-.57,2.85a2.27,2.27,0,0,1,1.93-.91A1.45,1.45,0,0,1,414.64,411.84Z" style="fill:#fff"></path><path d="M387.12,388.38h1.17L387,394.67h-1.17Z" style="fill:#fff"></path><path d="M390.21,393.06a1.83,1.83,0,0,0,0,.21.49.49,0,0,0,.56.54,1.11,1.11,0,0,0,.63-.19l.2.83a2.13,2.13,0,0,1-1.16.29,1.25,1.25,0,0,1-1.38-1.29,1.76,1.76,0,0,1,0-.38l.46-2.26h-.78l.18-.9h.78l.22-1.1h1.12l-.22,1.1h1.29l-.18.9h-1.3Z" style="fill:#fff"></path><path d="M397.92,389.87l-.95,4.8H395.9l.1-.49a2.32,2.32,0,0,1-1.57.56,2,2,0,0,1-2.11-2.12,2.68,2.68,0,0,1,2.71-2.8,1.8,1.8,0,0,1,1.63.76l.14-.71ZM396.38,392a1.14,1.14,0,0,0-1.27-1.21,1.67,1.67,0,0,0-1.66,1.8,1.14,1.14,0,0,0,1.27,1.21A1.67,1.67,0,0,0,396.38,392Z" style="fill:#fff"></path><path d="M399.77,388h1.13l-1.33,6.67h-1.13Z" style="fill:#fff"></path><path d="M402,389.87h1.13l-.95,4.8H401Zm.15-1.42a.71.71,0,0,1,.76-.72.62.62,0,0,1,.68.6.72.72,0,0,1-.77.75A.64.64,0,0,1,402.14,388.45Z" style="fill:#fff"></path><path d="M409.29,389.87l-1,4.8h-1.08l.1-.49a2.27,2.27,0,0,1-1.56.56,2,2,0,0,1-2.12-2.12,2.68,2.68,0,0,1,2.71-2.8,1.81,1.81,0,0,1,1.64.76l.13-.71ZM407.74,392a1.14,1.14,0,0,0-1.27-1.21,1.67,1.67,0,0,0-1.65,1.8,1.14,1.14,0,0,0,1.27,1.21A1.67,1.67,0,0,0,407.74,392Z" style="fill:#fff"></path><path d="M415.13,391.44a2.91,2.91,0,0,1-.06.57l-.53,2.66h-1.12l.52-2.63a2.62,2.62,0,0,0,0-.37c0-.56-.3-.87-1-.87a1.51,1.51,0,0,0-1.57,1.38l-.51,2.49h-1.12l.95-4.8h1.07l-.11.53a2.47,2.47,0,0,1,1.66-.58A1.55,1.55,0,0,1,415.13,391.44Z" style="fill:#fff"></path></g><g id="freepik--speech-bubble-4--inject-152"><path d="M342.73,205h83.83a9.38,9.38,0,0,1,9.38,9.38v27.44a9.38,9.38,0,0,1-9.38,9.38H415.35c.37,6.37,4.75,11.4,4.75,11.4-10.39-1.67-15-7.42-16.9-11.4H342.73a9.38,9.38,0,0,1-9.38-9.38V214.35A9.38,9.38,0,0,1,342.73,205Z" style="fill:#fafafa"></path><path d="M342.73,205a15.23,15.23,0,0,0-2.25.33,9.32,9.32,0,0,0-7,8c-.08.86-.06,1.78-.06,2.73s0,2,0,3c0,4.11,0,8.81,0,14q0,3.93,0,8.23a9.8,9.8,0,0,0,.78,4.22,9.2,9.2,0,0,0,6.92,5.36,13.54,13.54,0,0,0,2.4.13h12.79l46.78,0h.16l.07.14a19.14,19.14,0,0,0,6.76,7.58,22.76,22.76,0,0,0,4.74,2.35,31.58,31.58,0,0,0,5.21,1.33l-.23.42a22.93,22.93,0,0,1-3.24-5.31,18.62,18.62,0,0,1-1.58-6.24l0-.28h8.47c1.28,0,2.6,0,3.84,0a9.1,9.1,0,0,0,8-6.71,13,13,0,0,0,.32-3.65v-3.72c0-4.93,0-9.78,0-14.52v-7.05a9.52,9.52,0,0,0-1.81-6.33,9.13,9.13,0,0,0-5.38-3.47,14.38,14.38,0,0,0-3.22-.22H409.54l-22.43,0-32.48-.09-8.83,0-2.29,0c-.52,0-.78,0-.78,0s.26,0,.78,0l2.29,0,8.83,0,32.48-.08,22.43,0,12.49,0h3.25a15,15,0,0,1,3.32.22,9.55,9.55,0,0,1,5.66,3.65,10,10,0,0,1,1.92,6.61c0,2.33,0,4.67,0,7.05v18.24a13.15,13.15,0,0,1-.33,3.78,9.64,9.64,0,0,1-8.43,7.1c-1.33.08-2.59,0-3.89,0h-8.19l.26-.28a20.7,20.7,0,0,0,4.69,11.25l.44.55-.68-.12a34.14,34.14,0,0,1-5.31-1.35,24,24,0,0,1-4.84-2.41,19.66,19.66,0,0,1-6.94-7.79l.23.14-46.78,0H343.63a13.54,13.54,0,0,1-2.46-.14,9.46,9.46,0,0,1-4.39-1.94,9.77,9.77,0,0,1-2.82-3.67,10.06,10.06,0,0,1-.79-4.36c0-2.87,0-5.61,0-8.23,0-5.23,0-9.93,0-14,0-1,0-2,0-3a24.82,24.82,0,0,1,.08-2.75,9.42,9.42,0,0,1,7.15-8,7.74,7.74,0,0,1,1.69-.23Z" style="fill:#263238"></path><path d="M351.27,234.5l1.38-3.07a10.43,10.43,0,0,0,5.83,1.84c2.42,0,3.4-.81,3.4-1.89,0-3.3-10.26-1-10.26-7.59,0-3,2.42-5.49,7.44-5.49a11.85,11.85,0,0,1,6.12,1.56l-1.26,3.1a10,10,0,0,0-4.89-1.39c-2.42,0-3.35.91-3.35,2,0,3.25,10.26,1,10.26,7.49,0,2.95-2.45,5.47-7.49,5.47A12.55,12.55,0,0,1,351.27,234.5Z" style="fill:#92E3A9"></path><path d="M380.46,228.51v7.73h-3.68v-1.68c-.73,1.23-2.14,1.89-4.14,1.89-3.17,0-5.06-1.77-5.06-4.11s1.69-4.06,5.82-4.06h3.13c0-1.69-1-2.67-3.13-2.67a6.55,6.55,0,0,0-3.91,1.26l-1.41-2.75a10.42,10.42,0,0,1,5.85-1.64C378.06,222.48,380.46,224.4,380.46,228.51ZM376.53,232v-1.39h-2.7c-1.84,0-2.42.68-2.42,1.59s.83,1.64,2.22,1.64A2.91,2.91,0,0,0,376.53,232Z" style="fill:#92E3A9"></path><path d="M384,217.54h3.93v18.7H384Z" style="fill:#92E3A9"></path><path d="M405.26,222.68v13.56h-3.73v-1.61a5.46,5.46,0,0,1-4.21,1.82c-3.4,0-5.8-1.92-5.8-6.1v-7.67h3.94v7.09c0,2.26,1,3.27,2.74,3.27s3.13-1.16,3.13-3.65v-6.71Z" style="fill:#92E3A9"></path><path d="M417.66,235.59a5.6,5.6,0,0,1-3.2.86c-3.2,0-5.06-1.64-5.06-4.87V226h-2.1v-3h2.1v-3.31h3.93V223h3.38v3h-3.38v5.52a1.58,1.58,0,0,0,1.69,1.79,2.71,2.71,0,0,0,1.59-.5Z" style="fill:#92E3A9"></path></g><g id="freepik--speech-bubble-3--inject-152"><path d="M287.71,63h-58.3a14.92,14.92,0,0,0-14.92,14.92v26.35a14.91,14.91,0,0,0,14.92,14.91H267c0,7.62-5.38,13.77-5.38,13.77,12.54-2,17.53-9.3,19.45-13.77h6.69a14.91,14.91,0,0,0,14.92-14.91V77.87A14.92,14.92,0,0,0,287.71,63Z" style="fill:#fafafa"></path><path d="M287.71,63a3.64,3.64,0,0,1,.38,0l1.11,0a15.46,15.46,0,0,1,4.2,1,15,15,0,0,1,9.3,12.56c0,.44.05.89.07,1.34v1.37c0,.92,0,1.87,0,2.84,0,1.93,0,4,0,6.07,0,4.21,0,8.77,0,13.63,0,1.21,0,2.44-.06,3.71a17.77,17.77,0,0,1-.28,1.9,13.61,13.61,0,0,1-.54,1.86,15.06,15.06,0,0,1-12.17,9.92,30,30,0,0,1-4.34.16H281l.21-.14a21.87,21.87,0,0,1-7.68,9.33,26.61,26.61,0,0,1-5.65,2.95,36.78,36.78,0,0,1-6.29,1.64l-.66.12.43-.53a26,26,0,0,0,3.72-6.24,19.84,19.84,0,0,0,1.59-7.37l.26.26H229.41c-.61,0-1.24,0-1.85-.12a15.19,15.19,0,0,1-6.8-2.59,15.67,15.67,0,0,1-4.76-5.36,15.49,15.49,0,0,1-1.75-6.83c0-2.3,0-4.59,0-6.86q0-6.78,0-13.27V78a15,15,0,0,1,1.28-6.15,15.24,15.24,0,0,1,8.54-8.09,15.89,15.89,0,0,1,5.62-1h5.46l10.25,0,31,.08,8.42,0,2.18,0c.5,0,.75,0,.75,0L287,63l-2.18,0-8.42,0-31,.08-10.25,0h-5.46a15.22,15.22,0,0,0-5.47,1A14.76,14.76,0,0,0,216,72c-1.78,3.71-1.08,8.07-1.22,12.36s0,8.75,0,13.27c0,2.27,0,4.55,0,6.86a14.89,14.89,0,0,0,1.69,6.59,15.12,15.12,0,0,0,4.6,5.18,14.85,14.85,0,0,0,6.57,2.5c.59.08,1.2.07,1.79.12h37.8v.26a20.28,20.28,0,0,1-1.63,7.55,26.57,26.57,0,0,1-3.81,6.38l-.23-.41a37.61,37.61,0,0,0,6.2-1.61,25.79,25.79,0,0,0,5.54-2.89,21.46,21.46,0,0,0,7.54-9.12l.06-.14h4.56a33.49,33.49,0,0,0,4.28-.15,14.66,14.66,0,0,0,11.85-9.61,14.55,14.55,0,0,0,.53-1.82c.11-.61.22-1.23.28-1.84.09-1.23.06-2.47.07-3.68,0-4.86,0-9.42,0-13.63,0-2.11,0-4.14,0-6.07V79.27c0-.46,0-.92,0-1.37l-.06-1.32a14.88,14.88,0,0,0-9.09-12.44A16.4,16.4,0,0,0,287.71,63Z" style="fill:#263238"></path><path d="M248.65,82.64V97.93h-2.18V91.11h-8.78v6.82h-2.18V82.64h2.18v6.57h8.78V82.64Z" style="fill:#92E3A9"></path><path d="M251.86,92.14a6,6,0,1,1,6,5.92A5.76,5.76,0,0,1,251.86,92.14Zm9.91,0a3.9,3.9,0,1,0-3.89,4.08A3.8,3.8,0,0,0,261.77,92.14Z" style="fill:#92E3A9"></path><path d="M266.79,81.73h2.1v16.2h-2.1Z" style="fill:#92E3A9"></path><path d="M282.05,90.94v7h-2V96.4a4.29,4.29,0,0,1-3.8,1.66c-2.62,0-4.28-1.4-4.28-3.41,0-1.85,1.21-3.38,4.66-3.38H280v-.42c0-1.77-1-2.79-3.1-2.79a5.85,5.85,0,0,0-3.66,1.24l-.88-1.57a7.72,7.72,0,0,1,4.78-1.49C280.26,86.24,282.05,87.77,282.05,90.94ZM280,94.39V92.77h-3.23c-2.07,0-2.66.81-2.66,1.79,0,1.16,1,1.88,2.55,1.88A3.35,3.35,0,0,0,280,94.39Z" style="fill:#92E3A9"></path></g><g id="freepik--speech-bubble-2--inject-152"><path d="M83.69,294.62H137.1a8.94,8.94,0,0,1,8.94,8.94v22.51A8.93,8.93,0,0,1,137.1,335H99.49c-2.3,3.82-6.93,8.47-16.12,10A22.08,22.08,0,0,0,88,335H83.69a8.93,8.93,0,0,1-8.94-8.93V303.56A8.94,8.94,0,0,1,83.69,294.62Z" style="fill:#fafafa"></path><path d="M83.69,294.62a10.32,10.32,0,0,0-3.78.93,9,9,0,0,0-3.51,3,9.09,9.09,0,0,0-1.22,2.69,11.21,11.21,0,0,0-.3,3.34c0,4.8,0,10.63.05,17.31v2.55c0,.86,0,1.74.07,2.6a8.76,8.76,0,0,0,7,7.57,15.76,15.76,0,0,0,2.94.17h3.32l0,.26a21.87,21.87,0,0,1-4.64,10.07l-.22-.39a26.4,26.4,0,0,0,8.91-3,19.5,19.5,0,0,0,7-6.81l.07-.12h36.93a11.2,11.2,0,0,0,2.79-.23,8.66,8.66,0,0,0,6.69-7.74c.08-7.35,0-14.52.05-21.3a12.78,12.78,0,0,0-.53-4.89,8.7,8.7,0,0,0-6.94-5.64,17.4,17.4,0,0,0-2.29-.1h-2.29l-16.8,0-24.34-.08L86,294.68l-1.72,0c-.39,0-.58,0-.58,0l.58,0,1.72,0,6.62-.05,24.34-.08,16.8,0H136a15.59,15.59,0,0,1,2.35.09,9.16,9.16,0,0,1,7.32,5.92,8.53,8.53,0,0,1,.54,2.5c.06.87,0,1.69,0,2.55,0,6.8.05,13.9,0,21.34a9.2,9.2,0,0,1-7.08,8.21,12,12,0,0,1-2.91.24H99.49l.21-.13a19.85,19.85,0,0,1-7.22,7,27,27,0,0,1-9.07,3.08l-.61.1.39-.49A21.5,21.5,0,0,0,87.75,335l.22.26H84.91a14.55,14.55,0,0,1-3-.18,9.16,9.16,0,0,1-5-2.91,9,9,0,0,1-2.24-5,26.44,26.44,0,0,1-.06-2.65c0-.86,0-1.71,0-2.55,0-6.68,0-12.51.05-17.31a11.36,11.36,0,0,1,.34-3.4,9.24,9.24,0,0,1,1.28-2.74,9,9,0,0,1,3.61-3,9.15,9.15,0,0,1,2.83-.77C83.34,294.61,83.69,294.62,83.69,294.62Z" style="fill:#263238"></path><path d="M100.05,309.32V321H97.36v-4.77H92.07V321H89.38V309.32h2.69v4.58h5.29v-4.58Z" style="fill:#92E3A9"></path><path d="M111.33,317.21h-6.76a2.37,2.37,0,0,0,2.55,1.8,3.06,3.06,0,0,0,2.25-.87l1.38,1.5a4.67,4.67,0,0,1-3.69,1.44c-3.09,0-5.1-1.94-5.1-4.6a4.55,4.55,0,0,1,4.77-4.6,4.42,4.42,0,0,1,4.65,4.63C111.38,316.71,111.35,317,111.33,317.21Zm-6.8-1.51h4.41a2.24,2.24,0,0,0-4.41,0Z" style="fill:#92E3A9"></path><path d="M113.1,308.62h2.6V321h-2.6Z" style="fill:#92E3A9"></path><path d="M118.1,308.62h2.6V321h-2.6Z" style="fill:#92E3A9"></path><path d="M122.44,316.48a4.92,4.92,0,1,1,4.92,4.6A4.6,4.6,0,0,1,122.44,316.48Zm7.2,0a2.29,2.29,0,1,0-2.28,2.48A2.26,2.26,0,0,0,129.64,316.48Z" style="fill:#92E3A9"></path></g><g id="freepik--speech-bubble-1--inject-152"><path d="M159.86,121.44H71.28a17.22,17.22,0,0,0-17.22,17.22v28.2a17.23,17.23,0,0,0,17.22,17.23h74.36c1.59,4.72,6.85,15,23.14,17.64,0,0-7.16-8.21-6.11-17.89a17.22,17.22,0,0,0,14.41-17v-28.2A17.22,17.22,0,0,0,159.86,121.44Z" style="fill:#fafafa"></path><path d="M159.86,121.44s.49,0,1.44,0a16.38,16.38,0,0,1,4.11.82,16.84,16.84,0,0,1,5.88,3.37l.76.69c.25.25.48.52.73.79a19.5,19.5,0,0,1,1.4,1.75,18.7,18.7,0,0,1,2.18,4.41,19.16,19.16,0,0,1,.86,5.42c0,1.92,0,3.92,0,6q0,6.28,0,13.58c0,2.43,0,4.93,0,7.52a24.1,24.1,0,0,1-.25,3.95,17.51,17.51,0,0,1-6.25,10.63,18.62,18.62,0,0,1-3.75,2.31,19.14,19.14,0,0,1-4.32,1.32l.18-.19c-.6,6.08,1.91,12.55,6.07,17.72l.38.48-.59-.1a33.85,33.85,0,0,1-13.89-5.35,26,26,0,0,1-5.66-5.39,25,25,0,0,1-3.78-7.06l.23.17-57.86,0H73.36a30.55,30.55,0,0,1-4.77-.23A17.44,17.44,0,0,1,60,180.23a18.87,18.87,0,0,1-3.15-3.47,17.57,17.57,0,0,1-2.09-4.15,18.75,18.75,0,0,1-.63-2.22,19.91,19.91,0,0,1-.29-2.29c-.12-1.54,0-3-.06-4.53V146c0-1.44,0-2.87,0-4.28s0-2.82.06-4.25a16.93,16.93,0,0,1,2.55-7.93,16.92,16.92,0,0,1,5.73-5.72,17.26,17.26,0,0,1,7.47-2.5c1.31-.09,2.59-.09,3.86-.08h3.77l27.72,0,40.16.08,10.91,0,2.84,0,1,0-1,0-2.84,0-10.91.05-40.16.08-27.72,0H73.49c-1.27,0-2.55,0-3.81.09a16.81,16.81,0,0,0-7.28,2.45,17.63,17.63,0,0,0-3.11,2.43,18.07,18.07,0,0,0-2.47,3.15,16.5,16.5,0,0,0-2.46,7.71c-.1,1.37,0,2.8-.06,4.22V146c0,2.87,0,5.77,0,8.7v8.89c0,3-.15,6,1,8.87a17.16,17.16,0,0,0,2,4,17.78,17.78,0,0,0,3.06,3.37,16.78,16.78,0,0,0,8.3,3.76,28,28,0,0,0,4.69.23h72.46l.06.17a24.69,24.69,0,0,0,3.69,6.91,25.79,25.79,0,0,0,5.55,5.3,33.32,33.32,0,0,0,13.69,5.29l-.21.37a29.41,29.41,0,0,1-4.88-8.67,21.34,21.34,0,0,1-1.26-9.4v-.15l.16,0a18.25,18.25,0,0,0,4.22-1.28,18.06,18.06,0,0,0,3.67-2.25,17.13,17.13,0,0,0,5-6.55,17.45,17.45,0,0,0,1.14-3.82,23.18,23.18,0,0,0,.25-3.89c0-2.59,0-5.09,0-7.52q0-7.29,0-13.58,0-3.13,0-6a18.66,18.66,0,0,0-.83-5.34A18.28,18.28,0,0,0,174,129a18.78,18.78,0,0,0-1.37-1.74c-.24-.26-.47-.53-.71-.78l-.75-.69a16.82,16.82,0,0,0-5.8-3.39,17.74,17.74,0,0,0-4.08-.88Z" style="fill:#263238"></path><path d="M80.35,159.23,82,155.55a11.15,11.15,0,0,0,5.82,1.74c2.07,0,2.87-.58,2.87-1.44,0-2.8-10-.75-10-7.31,0-3.15,2.57-5.72,7.81-5.72a13.21,13.21,0,0,1,6.41,1.54l-1.54,3.7a10.39,10.39,0,0,0-4.89-1.36c-2.09,0-2.85.71-2.85,1.59,0,2.7,10,.68,10,7.18,0,3.08-2.57,5.7-7.82,5.7A13.86,13.86,0,0,1,80.35,159.23Z" style="fill:#263238"></path><path d="M110.47,153.23v7.59H106v-1.77c-.68,1.31-2,2-4,2-3.27,0-5.09-1.84-5.09-4.21,0-2.52,1.84-4.08,6.08-4.08h2.72c-.08-1.39-1-2.17-2.9-2.17a6.35,6.35,0,0,0-3.7,1.19l-1.62-3.25a11.44,11.44,0,0,1,6-1.59C107.92,146.93,110.47,148.89,110.47,153.23Zm-4.79,3.2v-1.18h-2.07c-1.53,0-2.09.55-2.09,1.38s.66,1.39,1.79,1.39A2.36,2.36,0,0,0,105.68,156.43Z" style="fill:#263238"></path><path d="M113.49,142.11h4.79v18.71h-4.79Z" style="fill:#263238"></path><path d="M135.78,147.15l-5.65,13.67h-4.94l-5.62-13.67h4.91l3.28,8.35,3.45-8.35Z" style="fill:#263238"></path><path d="M150.52,155.2h-9.93a3.16,3.16,0,0,0,3.35,2.19,4.39,4.39,0,0,0,3.16-1.19l2.52,2.63a7.41,7.41,0,0,1-5.83,2.21c-4.86,0-8-3-8-7.08s3.2-7,7.51-7c4,0,7.31,2.57,7.31,7.08C150.6,154.36,150.55,154.82,150.52,155.2Zm-10-2.52h5.59a2.84,2.84,0,0,0-5.59,0Z" style="fill:#263238"></path></g><g id="freepik--Character--inject-152"><path d="M303.88,265.3a7.78,7.78,0,0,1-7.29-3.26c1.88.29,3.91.56,5.6-.31s2.66-3.36,1.33-4.72c-1-1.06-2.75-.88-4.23-1a9.14,9.14,0,0,1-7.78-6c-1.25-3.6-.1-7.53.35-11.32A31.18,31.18,0,0,0,278.8,210l-23.72-13.71c-8.61,11-11.29,25.86-9.51,39.72s7.67,26.89,14.74,39a45.91,45.91,0,0,0,7.16,9.85,18.27,18.27,0,0,0,10.66,5.48,11,11,0,0,0-1.76-9.93A24,24,0,0,0,294,274l-5.09-3.9A18.56,18.56,0,0,0,303.88,265.3Z" style="fill:#263238"></path><path d="M212.5,226.6c.42-9.92,6.59-18.22,16.13-20.95l29.75-8.5c12.91-1.77,22,13.92,23.23,26.89,1.36,14.42,2.37,29.64,1,40.47-2.77,21.77-19.29,25-19.29,25s.55,19.62.72,25.95L248.9,347.14l-29.32-40.47-7.15-79.81C212.41,226.49,212.48,227.09,212.5,226.6Z" style="fill:#ffbf9d"></path><path d="M272.71,243a2.79,2.79,0,0,1-2.6,2.89,2.66,2.66,0,0,1-2.94-2.42,2.8,2.8,0,0,1,2.59-2.89A2.67,2.67,0,0,1,272.71,243Z" style="fill:#263238"></path><path d="M278.6,232.62c-.33.38-2.48-1.12-5.47-1s-5.14,1.67-5.47,1.31c-.17-.16.16-.82,1.1-1.55a7.63,7.63,0,0,1,4.36-1.49,7.3,7.3,0,0,1,4.37,1.26C278.44,231.81,278.77,232.46,278.6,232.62Z" style="fill:#263238"></path><path d="M246.33,243a2.79,2.79,0,0,1-2.6,2.89,2.66,2.66,0,0,1-2.94-2.42,2.79,2.79,0,0,1,2.59-2.89A2.67,2.67,0,0,1,246.33,243Z" style="fill:#263238"></path><path d="M250.2,233.43c-.33.38-2.49-1.11-5.47-1s-5.14,1.67-5.48,1.31c-.16-.16.17-.82,1.11-1.55a7.61,7.61,0,0,1,4.36-1.49,7.33,7.33,0,0,1,4.37,1.26C250,232.62,250.37,233.27,250.2,233.43Z" style="fill:#263238"></path><path d="M260.22,256.65c0-.16,1.83-.54,4.83-1,.76-.1,1.48-.28,1.59-.8a3.88,3.88,0,0,0-.57-2.25l-2.44-5.74c-3.39-8.19-5.87-14.92-5.54-15.06s3.35,6.39,6.74,14.57c.81,2,1.6,4,2.34,5.79a4.42,4.42,0,0,1,.49,3,1.94,1.94,0,0,1-1.22,1.16,5.8,5.8,0,0,1-1.29.22C262.12,256.75,260.24,256.82,260.22,256.65Z" style="fill:#263238"></path><path d="M234.35,282.66s7.47,14.68,29.1,12l-.14-5.1A54.66,54.66,0,0,1,234.35,282.66Z" style="fill:#ff9a6c"></path><path d="M249,223.79c-.27.82-3.27.53-6.77,1.06s-6.3,1.57-6.79.86c-.22-.34.25-1.12,1.37-2a11.93,11.93,0,0,1,10.33-1.46C248.4,222.78,249.07,223.4,249,223.79Z" style="fill:#263238"></path><path d="M277.37,223.5c-.51.7-2.59.06-5.07.1s-4.56.6-5.06-.1c-.23-.34.08-1,1-1.7a7,7,0,0,1,4.08-1.24,7.11,7.11,0,0,1,4.08,1.24C277.28,222.48,277.59,223.17,277.37,223.5Z" style="fill:#263238"></path><path d="M249,262.49a3.89,3.89,0,0,1,3.94-3.07,4,4,0,0,1,3.2,2.14,5,5,0,0,1,.29,3.9l-.05.28a4.45,4.45,0,0,1-5,1.2A4.14,4.14,0,0,1,249,262.49Z" style="fill:#ff9a6c"></path><path d="M258.56,265.74c0-.46-3-.23-5.38-2.64s-2.26-5.66-2.69-5.65c-.19,0-.53.76-.46,2.13a7.53,7.53,0,0,0,2.08,4.72,6.51,6.51,0,0,0,4.49,2C257.87,266.34,258.59,265.94,258.56,265.74Z" style="fill:#263238"></path><path d="M222.5,192.08c3.35-5.32,11.25-10.87,17.44-12,7.06-1.23,11.31,0,15.95,4.21,0,0,3.61,3.48,7,4.14s6.21.1,10.25,2.17c5.51,2.82,7.93,10.19,10.48,15.83,3.18,7,7.7,13.46,9.77,20.87s1,16.52-5.27,21c1.07-5.68,2-11.93-.38-17.07a14.85,14.85,0,0,1-.38,6.15c-1.17-3.33-2.4-6.77-4.82-9.35-2.28-2.43-5.44-3.88-7.8-6.24-3.45-3.47-5-8.76-9.25-11.27-4.37-2.62-9.89-1.32-15-1.29a28.74,28.74,0,0,1-22.33-10.76l1.26-.11A35.88,35.88,0,0,1,222.5,192.08Z" style="fill:#263238"></path><path d="M190.63,245.09c2-6.38,5.36-12.21,7.5-18.52,2.08-6.15,2.94-12.72,5.7-18.59,3.72-7.9,10.67-18.13,21.49-17.57l.74.65a23.27,23.27,0,0,1,10.91,1.3l.17,8.44,2.07,1.83c-.87,1.67-1.69,3.29-2.49,4.88A52.25,52.25,0,0,1,234,216.8a24,24,0,0,1-5.19,7.9c-18.65,44.65-1.74,47.47-10.14,73.06l-5.28-14.65a26.13,26.13,0,0,1-10.45-11.26c-.31,1.54-.63,3.09-.94,4.64a26.94,26.94,0,0,1-7.28-16.63l-2.42,4.45C188.42,258.87,188.69,251.46,190.63,245.09Z" style="fill:#263238"></path><path d="M222.45,243.46c-.29-.73-13.77-5.16-13.54,9,.22,13.78,14,10.68,14.06,10.28S222.45,243.46,222.45,243.46Z" style="fill:#ffbf9d"></path><path d="M218.62,257.62c-.06,0-.24.17-.64.37a2.41,2.41,0,0,1-1.79.07c-1.47-.51-2.74-2.8-2.85-5.28a8,8,0,0,1,.6-3.45,2.78,2.78,0,0,1,1.77-1.88,1.22,1.22,0,0,1,1.43.63c.19.39.11.66.18.69s.3-.24.17-.81a1.56,1.56,0,0,0-.55-.85,1.87,1.87,0,0,0-1.34-.33,3.39,3.39,0,0,0-2.47,2.19,8.18,8.18,0,0,0-.75,3.86c.14,2.77,1.61,5.34,3.61,5.88a2.56,2.56,0,0,0,2.19-.41C218.6,258,218.67,257.64,218.62,257.62Z" style="fill:#ff9a6c"></path><path d="M217.12,260.1a2.73,2.73,0,1,0,.65.19" style="fill:#fff"></path><path d="M217.77,260.29a3.7,3.7,0,0,1,1.29,1.81,2.34,2.34,0,0,1-.47,2.18,2.41,2.41,0,0,1-4.28-1.23,2.37,2.37,0,0,1,.75-2.1,3.72,3.72,0,0,1,2.06-.85s-.21-.14-.65-.13a2.81,2.81,0,0,0-1.7.65,2.74,2.74,0,0,0-1,2.51,3,3,0,0,0,5.29,1.52,2.74,2.74,0,0,0,.46-2.68,2.77,2.77,0,0,0-1.1-1.45C218,260.28,217.78,260.25,217.77,260.29Z" style="fill:#263238"></path><path d="M238.12,206.08c-.28.11-1.55-4.56-5.39-8.89s-8.23-6.29-8.09-6.54a7.69,7.69,0,0,1,2.91,1.16,22.39,22.39,0,0,1,9.81,11.24A7.82,7.82,0,0,1,238.12,206.08Z" style="fill:#455a64"></path><path d="M285.39,306.16c-1.31-.34,15.19,76.89,15.19,76.89l27,39h25.81l7.42-5.74S347,388.83,340.48,378.91,308.43,312.08,285.39,306.16Z" style="fill:#455a64"></path><path d="M285.39,306.16,264.47,302c-5,19.18-31.59,17.49-46,0l-11.54,3.13c-15.42,4.54-19,6.27-19,6.27-11.23,4.39-18.22,16.45-21,24.81l27.53,76.34-7,46,118.66-.13-10.79-39,2.36-12.55L301.18,396c3.48-11.17-1.21-31.66-4.63-42.86l-3.72-16.24Z" style="fill:#455a64"></path><g style="opacity:0.30000000000000004"><path d="M202,338.45s1.34,16,0,24-4.55,47.45-4.55,47.45l40.05,11.92,22-7.67L246.69,445l-23.39,3.35L196.84,420,190,399.66l3.76-11Z"></path></g><path d="M284.06,433.28l-21.32-10.63,3.47-2,6.64,2.12c0,.3,6.19,3,8.47,2.41a6,6,0,0,0,3.53-2.62c.32-.62-7.84-4.79-7.84-4.79l-10.28-5.26-11,2.89-19.62,12.24-14.71-4.58c-.37.61-5.63,23.86-5.63,23.86s14.45,4.73,22.75,4c5.64-.47,10.48-4.39,13.29-7.18l2.52,1.35s9.22,4.49,13.14,4.67,1.38-3.51,1.38-3.51L262,441.82l-2.79-2.46,4.24,1.51s7.19,3.68,8.65,4.09c1.87.52,3.35.11,4.06-2.5s-14-11.23-14-11.23l14.33,6a8.09,8.09,0,0,0,4.23.61,3.42,3.42,0,0,0,2.93-1.83C284.71,433.38,284.06,433.28,284.06,433.28Z" style="fill:#ffbf9d"></path><path d="M250.64,424.6a4.79,4.79,0,0,1,1.45-1.25,11.22,11.22,0,0,1,9-1.35,4.51,4.51,0,0,1,1.75.77,17.59,17.59,0,0,1-1.84-.41,12.92,12.92,0,0,0-8.68,1.3A16.78,16.78,0,0,1,250.64,424.6Z" style="fill:#ff9a6c"></path><path d="M264.68,432.66a9.78,9.78,0,0,1-1.89-1.16,19.65,19.65,0,0,0-4.68-2.39A8.75,8.75,0,0,0,253,429a16.12,16.12,0,0,0-2,.92,3.79,3.79,0,0,1,1.86-1.26,8.33,8.33,0,0,1,5.4-.05A16,16,0,0,1,263,431.2,8.59,8.59,0,0,1,264.68,432.66Z" style="fill:#ff9a6c"></path><path d="M256.09,435.8c0,.07-.45-.19-1.16-.43a6.58,6.58,0,0,0-2.84-.32,6.42,6.42,0,0,0-2.71.93c-.64.39-1,.73-1,.67s.2-.47.82-1a5.74,5.74,0,0,1,5.91-.65C255.79,435.38,256.13,435.76,256.09,435.8Z" style="fill:#ff9a6c"></path><path d="M261.85,442.14a13.73,13.73,0,0,1-4.78-4.64,15.34,15.34,0,0,1,2.47,2.24A14.69,14.69,0,0,1,261.85,442.14Z" style="fill:#ff9a6c"></path><path d="M204.12,351.56c5.92-31.49-28.28-40.64-36.47-17.42,0,0-8.19,23.67-11.65,36.85-3.22,12.27-7,28-9.47,43.24-1.71,10.52,1.16,23,7.13,25.53,15.59,6.62,77.44,16.52,77.44,16.52l3.84-31.53L189.1,413.91s1.91-5.16-1.62-5.64L198.53,370Z" style="fill:#455a64"></path><path d="M187.48,408.27l.41.2a2.24,2.24,0,0,1,.47.3,2.72,2.72,0,0,1,.58.52,3,3,0,0,1,.77,2,5.25,5.25,0,0,1-.89,2.8l-.09-.22c3.73.67,8.86,1.79,14.88,3.24l20.38,5c3.82.91,7.52,1.74,11,2.41l.24,0,0,.23-2.84,22.58c-.37,2.76-.66,5-.87,6.56-.11.73-.2,1.31-.26,1.76a2.59,2.59,0,0,1-.12.6,4.64,4.64,0,0,1,0-.61c.05-.45.1-1,.18-1.77.17-1.58.42-3.81.72-6.58.67-5.65,1.59-13.52,2.66-22.6l.2.28c-3.48-.66-7.2-1.49-11-2.39-7.42-1.77-14.35-3.56-20.36-5.05s-11.12-2.66-14.83-3.4l-.2,0,.11-.18a5.06,5.06,0,0,0,.9-2.64,2.92,2.92,0,0,0-.66-1.91,3.3,3.3,0,0,0-.53-.53,2.67,2.67,0,0,0-.45-.33A1.93,1.93,0,0,1,187.48,408.27Z" style="fill:#263238"></path><path d="M201.49,361.1a1.54,1.54,0,0,1-.09.49L201,363l-1.43,5.08c-1.22,4.28-2.94,10.19-4.88,16.7s-3.71,12.4-5,16.66c-.65,2.06-1.19,3.76-1.58,5-.19.54-.34,1-.46,1.36a2.08,2.08,0,0,1-.19.46,1.54,1.54,0,0,1,.09-.49l.36-1.39c.36-1.28.84-3,1.42-5.08,1.23-4.28,3-10.19,4.88-16.7s3.72-12.4,5-16.66c.65-2.06,1.19-3.76,1.58-5,.18-.54.33-1,.46-1.36S201.47,361.09,201.49,361.1Z" style="fill:#263238"></path><path d="M203.26,341.42a41.33,41.33,0,0,0-.89-5,22,22,0,0,0-17-16,39.11,39.11,0,0,0-5.08-.58,6.12,6.12,0,0,1,1.38-.11,19.53,19.53,0,0,1,3.77.33,21.6,21.6,0,0,1,17.27,16.26,19.56,19.56,0,0,1,.55,3.75A6.7,6.7,0,0,1,203.26,341.42Z" style="fill:#263238"></path><path d="M187.48,408.67c0,.08-.71-.11-1.83-.17a9.53,9.53,0,0,0-7.74,3.19c-.75.84-1.1,1.45-1.17,1.41a4,4,0,0,1,.89-1.64,8.66,8.66,0,0,1,3.58-2.74,8.85,8.85,0,0,1,4.48-.59A3.86,3.86,0,0,1,187.48,408.67Z" style="fill:#263238"></path><path d="M188.65,413.1c0,.16-1.81.32-3.85,1.19s-3.44,2.06-3.54,1.94a9.16,9.16,0,0,1,7.39-3.13Z" style="fill:#263238"></path><path d="M291.38,339.65a3.17,3.17,0,0,1,.36.6c.25.45.56,1,.95,1.76s.91,1.71,1.42,2.84,1.16,2.38,1.73,3.82,1.27,3,1.87,4.74c.3.86.65,1.74,1,2.67s.59,1.89.89,2.88a86.6,86.6,0,0,1,2.83,13.09,79.3,79.3,0,0,1,.56,13.38c-.17,2.05-.27,4-.58,5.82-.14.91-.24,1.79-.4,2.62s-.35,1.63-.51,2.4c-.28,1.53-.73,2.87-1.05,4.06-.18.6-.32,1.15-.49,1.66s-.35.94-.5,1.36l-.71,1.87a3.68,3.68,0,0,1-.27.64,2.84,2.84,0,0,1,.18-.67c.15-.49.35-1.12.61-1.91.14-.41.29-.87.45-1.37s.29-1.06.45-1.66c.3-1.19.71-2.53,1-4.06.15-.76.31-1.56.47-2.39s.24-1.7.37-2.61c.29-1.8.37-3.74.53-5.78a81.84,81.84,0,0,0-.6-13.3,91.56,91.56,0,0,0-2.77-13c-.29-1-.59-1.93-.87-2.86s-.62-1.81-.92-2.67c-.58-1.73-1.23-3.3-1.8-4.74s-1.17-2.72-1.66-3.85-.95-2.09-1.33-2.87-.64-1.34-.86-1.8A4.61,4.61,0,0,1,291.38,339.65Z" style="fill:#263238"></path><path d="M292.66,332.74c.13.08-.57,1.49-.93,3.38s-.26,3.46-.41,3.47a6.14,6.14,0,0,1-.1-3.57A6.23,6.23,0,0,1,292.66,332.74Z" style="fill:#263238"></path><g style="opacity:0.30000000000000004"><path d="M306,361.71c-1.29-5.08-3.71-9.77-6.11-14.42Q296.94,341.62,294,336c-.38-.72-.85-1.52-1.65-1.68-1-.19-1.86.77-2,1.75a5.45,5.45,0,0,0,.71,2.84A207.6,207.6,0,0,1,300,362c2.45,7.68,4.21,17.94,2.84,25.88C307.45,380.13,308.2,370.49,306,361.71Z"></path></g><path d="M269.56,382.5a1.34,1.34,0,0,1-.06.46c-.06.29-.12.73-.27,1.29a31,31,0,0,1-1.52,4.62,34.78,34.78,0,0,1-23.43,20.44,32.28,32.28,0,0,1-4.78.88c-.57.07-1,.07-1.32.09a1.57,1.57,0,0,1-.47,0,16.63,16.63,0,0,1,1.76-.28,38.18,38.18,0,0,0,4.72-1,35.73,35.73,0,0,0,23.18-20.22A37.86,37.86,0,0,0,269,384.2,15.16,15.16,0,0,1,269.56,382.5Z" style="fill:#263238"></path><path d="M392.85,397.88,390.23,395s-19.17,8.61-25.69,12.26c-9.41,5.26-10.61,7.94-10.61,7.94l-1.24,6,4.43,3Z" style="fill:#fff"></path><path d="M357.12,424.17h0l-4.44-3v0l1.24-6a7.31,7.31,0,0,1,1.78-2,50.12,50.12,0,0,1,8.83-5.95c6.45-3.61,25.5-12.18,25.7-12.27h0l2.65,2.95,0,0Zm-4.4-3,4.39,3,35.7-26.24L390.22,395c-.66.29-19.31,8.69-25.67,12.25a50,50,0,0,0-8.82,5.94,7.86,7.86,0,0,0-1.77,2Z" style="fill:#263238"></path><path d="M356.28,423.57s-1.31-12.75-9.61-16.36-33.62,9.35-34.16,9.53-51.91,33.43-51.91,33.43l2.85,3.5L310.14,448Z" style="fill:#fff"></path><path d="M262.31,451.59l50.73-33s26.9-13.59,34.39-9.23,6.68,12.72,6.68,12.72l-48.9,28.05-40.51,4.91Z" style="fill:#e0e0e0"></path><path d="M353.75,417.7s-4.16-6.84-22.05-3.77a112.11,112.11,0,0,0-19.81,5.44l-48.51,33.09,1.68,2,77-28.68,12.09-2.4,1-2.12Z" style="fill:#fff"></path><polygon points="259.46 456.36 304.05 426.33 349.24 419.49 356.07 422.76 393.8 396.01 395.61 398.09 335.66 446.51 322.8 443.42 308.79 453.28 260.6 458.38 259.46 456.36" style="fill:#92E3A9"></polygon><path d="M260.6,458.38l-.3-.47c-.19-.35-.48-.85-.88-1.53l0,0,0,0c4.92-3.38,21.15-14.38,44.51-30.16l0,0h0l45.18-6.88h.07l.07,0,6.84,3.27-.25,0,37.72-26.77.19-.13.16.18.49.56,1.32,1.52.19.21-.23.17-38.31,28.19-.13.09-.14-.07-7.51-4,.15,0-44.35,7.22.08,0-32.84,21-9,5.71-2.34,1.48-.81.48s.26-.19.77-.53l2.32-1.52,8.91-5.8,32.75-21.17,0,0h0L349.75,422h.08l.08,0,7.52,4h-.27l38.3-28.21,0,.38-1.33-1.52-.49-.56.35,0L356.22,423l-.12.09L356,423l-6.84-3.28.14,0-45.19,6.8.08,0c-23.4,15.71-39.7,26.61-44.68,29.89v-.06c.39.7.66,1.21.85,1.55Z" style="fill:#263238"></path><path d="M303.54,427.06c.12-.08.57.4,1,1.06s.69,1.27.57,1.35-.57-.4-1-1.06S303.42,427.14,303.54,427.06Z" style="fill:#263238"></path><path d="M350,422.63a2.1,2.1,0,0,1-.38.36c-.32.25-.7.57-1.16.95l-4.33,3.4c-3.66,2.86-8.75,6.79-14.39,11.09-2.83,2.14-5.47,4.25-8,6l-6.71,4.66-4.55,3.1-1.25.82c-.29.19-.45.28-.46.26a2.42,2.42,0,0,1,.4-.34l1.19-.9,4.46-3.24,6.64-4.75c2.5-1.78,5.13-3.9,8-6,5.64-4.3,10.76-8.17,14.48-11l4.42-3.27,1.22-.87A2,2,0,0,1,350,422.63Z" style="fill:#263238"></path><path d="M365.93,424.38c-1.22,1.67-4.66,7.14-4.66,7.14a60.06,60.06,0,0,1-2.7,9.77A17.53,17.53,0,0,1,345,451.59c-6.87.86-18.33-3.54-18.33-3.54L312,442.57s-3.3-2.83-.56-4.54c0,0-2.43-2.74,2.38-3.95s18,5,18,5-5.49-4.63-8.76-5.83-1.88-4,.86-4.3,4.79.68,9.42,2.22,8.78,4.65,10.67,4.65.71-3.06-1-4.26c-6.95-4.79-4.64-6.38-4.64-6.38s.69-2.4,4.29-.86a92.49,92.49,0,0,1,9.84,5.54c4-.26,5.27-1.25,6.17-3.61a8.47,8.47,0,0,1,2.62-3.48l1.75-1.42a2.12,2.12,0,0,1,3.09,2.84Z" style="fill:#ffbf9d"></path><path d="M329.23,446.27a97.3,97.3,0,0,1-9.23-4,95.57,95.57,0,0,1-9-4.46,99.13,99.13,0,0,1,9.23,4A95.69,95.69,0,0,1,329.23,446.27Z" style="fill:#ff9a6c"></path><path d="M336.31,443.07a11.14,11.14,0,0,1-2.85-1.93A11.41,11.41,0,0,1,331,438.8a11.73,11.73,0,0,1,2.84,1.93A11.62,11.62,0,0,1,336.31,443.07Z" style="fill:#ff9a6c"></path><path d="M354,435.67c.06,0,.23.33.18.94a2.85,2.85,0,0,1-3.42,2.5c-.59-.14-.87-.4-.84-.45s.36.06.89.08a3,3,0,0,0,1.91-.54,3,3,0,0,0,1.09-1.66C353.91,436,353.88,435.68,354,435.67Z" style="fill:#ff9a6c"></path><path d="M344.57,444.12c.05,0,0,.32-.26.7a2.68,2.68,0,0,1-1.49,1,2.72,2.72,0,0,1-1.78-.12c-.42-.2-.6-.44-.56-.48a5.42,5.42,0,0,0,2.21.1C343.9,445,344.44,444.05,344.57,444.12Z" style="fill:#ff9a6c"></path><path d="M336,448.53c.08.11-.67.63-1.71.47s-1.61-.86-1.5-.95.71.32,1.57.44S335.93,448.4,336,448.53Z" style="fill:#ff9a6c"></path><path d="M358.27,427c.05,0,0,.49-.42,1.12a4.59,4.59,0,0,1-2.36,1.62,5.28,5.28,0,0,1-2.86.14c-.73-.2-1.08-.55-1-.59s.43.14,1.11.23a6.1,6.1,0,0,0,2.63-.28,5.15,5.15,0,0,0,2.23-1.35C358,427.41,358.18,427,358.27,427Z" style="fill:#ff9a6c"></path><path d="M353.52,417.17a.88.88,0,0,1-.12-.21c-.07-.17-.17-.37-.29-.63a20.67,20.67,0,0,0-1.23-2.36,11.57,11.57,0,0,0-2.76-3.15,9.84,9.84,0,0,0-2.29-1.27,13.11,13.11,0,0,0-2.87-.67,20.72,20.72,0,0,0-3.28-.12c-.56.06-1.15.06-1.73.18s-1.18.2-1.79.34a61.51,61.51,0,0,0-7.58,2.37,178.8,178.8,0,0,0-16.9,7.44h0l-5.58,3.49c-12.51,7.86-23.78,15.07-31.88,20.37l-9.57,6.32L263.08,451l-.68.44-.24.13s.06-.07.21-.18l.65-.48,2.54-1.81c2.22-1.55,5.45-3.77,9.48-6.45,8-5.39,19.29-12.65,31.8-20.51l5.59-3.49h0a171.9,171.9,0,0,1,17-7.41,61,61,0,0,1,7.65-2.34c.62-.14,1.23-.22,1.82-.34s1.2-.1,1.78-.16a20.1,20.1,0,0,1,3.33.16,12.17,12.17,0,0,1,2.94.73,9.85,9.85,0,0,1,2.35,1.33,11.57,11.57,0,0,1,2.75,3.27A16.63,16.63,0,0,1,353.52,417.17Z" style="fill:#263238"></path><path d="M353.31,418.63a1.89,1.89,0,0,1-.3-.36,6.17,6.17,0,0,0-.83-1,12,12,0,0,0-4-2.67,22.18,22.18,0,0,0-6.95-1.65,51.07,51.07,0,0,0-8.82.45,73.09,73.09,0,0,0-15.52,4.11c-1.92.74-3.46,1.4-4.51,1.87l-1.22.54a2.53,2.53,0,0,1-.43.17,8.32,8.32,0,0,1,1.56-.9c1-.52,2.55-1.23,4.47-2a66.12,66.12,0,0,1,15.58-4.28,48.22,48.22,0,0,1,8.91-.42,21.69,21.69,0,0,1,7.08,1.79,11.74,11.74,0,0,1,4,2.87,5.94,5.94,0,0,1,.77,1.1C353.25,418.47,353.33,418.62,353.31,418.63Z" style="fill:#263238"></path><path d="M313,424.87c-.12.11-1-.83-1.59-2.19a4.68,4.68,0,0,1-.71-2.61,112.88,112.88,0,0,1,2.3,4.8Z" style="fill:#263238"></path></g><g id="freepik--Device--inject-152"><path d="M46.56,384.73l15.06,73.95H192.37a2.61,2.61,0,0,0,2.61-2.61h0a2.61,2.61,0,0,0-2.61-2.61H166.05l-14-68.77a2.84,2.84,0,0,0-2.76-2.29l-99.93-1.09A2.85,2.85,0,0,0,46.56,384.73Z" style="fill:#e0e0e0"></path><path d="M46.56,384.73a1.73,1.73,0,0,1,0-.22,2.8,2.8,0,0,1,0-.67,2.91,2.91,0,0,1,2.24-2.51,5,5,0,0,1,1-.06l2.36,0,5.88,0,37.78.36,26.34.26,14.76.15,7.74.08,4,0c.34,0,.66,0,1,0a3.17,3.17,0,0,1,1,.29,3,3,0,0,1,1.44,1.51,4.13,4.13,0,0,1,.27,1l.21,1c.13.66.27,1.33.4,2,.27,1.34.55,2.69.82,4q.83,4.07,1.68,8.23,1.69,8.32,3.46,17c2.36,11.6,4.81,23.66,7.34,36.08l-.18-.14h25.88a4.47,4.47,0,0,1,1,.06,2.8,2.8,0,0,1,.75,5.19,2.93,2.93,0,0,1-1.23.33H123l-61.39,0h-.11l0-.11c-4.6-22.73-8.35-41.22-11-54-1.28-6.41-2.29-11.39-3-14.78-.33-1.69-.59-3-.76-3.85s-.25-1.32-.25-1.32.11.45.29,1.31l.8,3.85c.7,3.38,1.73,8.36,3.05,14.76,2.62,12.8,6.41,31.29,11.06,54l-.14-.12,61.39,0h69.45a2.67,2.67,0,0,0,1.07-.29,2.44,2.44,0,0,0-.65-4.52,4.87,4.87,0,0,0-.95-.05h-26l0-.14c-2.53-12.43-5-24.49-7.32-36.09-1.18-5.79-2.33-11.48-3.46-17q-.84-4.15-1.66-8.22c-.28-1.36-.55-2.7-.82-4-.14-.67-.27-1.34-.41-2l-.2-1a4.63,4.63,0,0,0-.25-.94,2.76,2.76,0,0,0-1.28-1.35,2.7,2.7,0,0,0-.91-.26c-.3,0-.65,0-1,0l-4-.05-7.74-.09-14.75-.17-26.34-.31L58,381.47l-5.89-.08-2.35,0a4.69,4.69,0,0,0-1,.06,3.19,3.19,0,0,0-.85.32,2.86,2.86,0,0,0-1.38,2.11A3.76,3.76,0,0,0,46.56,384.73Z" style="fill:#263238"></path><path d="M106.81,418.58a4.32,4.32,0,1,1-4.32-4.32A4.31,4.31,0,0,1,106.81,418.58Z" style="fill:#fff"></path><path d="M46.68,385.33h6.86l18.69.09,61.68.43,8.92.07,2.19,0a5.35,5.35,0,0,1,1.12.07,2.89,2.89,0,0,1,1.06.43,3.1,3.1,0,0,1,1.33,1.8c.16.72.28,1.41.43,2.11,1.1,5.57,2.17,10.94,3.18,16.06,2,10.24,3.85,19.45,5.38,27.2s2.74,14,3.59,18.35c.42,2.15.74,3.83,1,5,.11.56.19,1,.24,1.3a3.64,3.64,0,0,1,.07.44s0-.14-.1-.43-.16-.74-.28-1.3c-.24-1.15-.58-2.82-1-5-.88-4.33-2.15-10.59-3.71-18.32l-5.45-27.19c-1-5.11-2.1-10.49-3.21-16-.14-.69-.27-1.41-.43-2.09a2.72,2.72,0,0,0-1.17-1.59,3,3,0,0,0-.94-.38,5.94,5.94,0,0,0-1-.06l-2.19,0-8.92-.07-61.68-.54-18.69-.2-5.09-.08-1.32,0Z" style="fill:#263238"></path></g></svg>