<?xml version="1.0" encoding="utf-8"?>
<!-- Generator: Adobe Illustrator 24.1.2, SVG Export Plug-In . SVG Version: 6.00 Build 0)  -->
<svg version="1.1" id="Layer_1" xmlns="http://www.w3.org/2000/svg" xmlns:xlink="http://www.w3.org/1999/xlink" x="0px" y="0px"
	 viewBox="0 0 120 100" style="enable-background:new 0 0 120 100;" xml:space="preserve">
<style type="text/css">
	.st0{fill:#E3F1FD;}
	.st1{fill:#4B5AB8;}
</style>
<g>
	<path class="st0" d="M52,63.9c-1.3-24.2,7.3-33,16.8-30.3c9.5,2.7,41.6-14.6,9.7-25.1C46.4-2-11.6,30.9,13.7,65
		C38.9,99.1,53.2,88.1,52,63.9z"/>
	<path class="st0" d="M93.3,62.3c-3.2-12.1-21.4-10.2-24.9,5.2C64.9,82.9,96.5,74.4,93.3,62.3L93.3,62.3z"/>
	<g>
		<path class="st1" d="M27,39c0.4-9.7,8.4-17,18.5-17c5.2,0,9.4,1.9,12.9,5.7l3.1,3.3c3,3.2,7.4,4.9,12.3,4.8
			c9.1-0.2,16.4-7.7,16.2-16.8c0-0.6,0.4-1,1-1s1,0.4,1,1c0.2,10.2-8,18.6-18.2,18.8C68.4,38,63.5,36,60,32.4l-3.1-3.3
			c-3.1-3.4-6.8-5.1-11.4-5.1c-9,0-16,6.4-16.5,15h69c1.1,0,2,0.9,2,2v29c0,1.1-0.9,2-2,2h-1c-0.6,0-1-0.4-1-1s0.4-1,1-1h1V41H21v29
			h50c0.6,0,1,0.4,1,1s-0.4,1-1,1H21c-1.1,0-2-0.9-2-2V41c0-1.1,0.9-2,2-2H27z M91.5,58.2c1.6-0.6,3.3,0.3,3.8,1.8
			c0.1,0.3,0.2,0.7,0.2,1v20h-2V61c0-0.6-0.4-1-1-1s-1,0.4-1,1v6h-2V57c0-0.6-0.4-1-1-1s-1,0.4-1,1v10h-2V55c0-0.6-0.4-1-1-1
			s-1,0.4-1,1v12h-2V57c0-0.6-0.4-1-1-1s-1,0.4-1,1v15l0,0.9l-2,0.2l-0.7-3.4L75.6,65c-0.1-0.5-0.7-0.9-1.2-0.7c0,0,0,0,0,0l-1,0.3
			L77.3,79c0.2,0.7,0.5,1,1.2,1v2c-1.6,0-2.7-0.9-3.1-2.5L71,63.1l2.9-0.8c1.5-0.4,3.1,0.4,3.6,1.9V57c0-1.7,1.3-3,3-3
			c0.4,0,0.8,0.1,1.1,0.2c0.4-1.6,2.1-2.5,3.7-2.1c1,0.3,1.8,1.1,2.1,2.1c1.5-0.6,3.3,0.1,3.9,1.7c0.1,0.4,0.2,0.7,0.2,1.1V58.2z
			 M35,66c-0.6,0-1-0.4-1-1s0.4-1,1-1h34.6c0.6,0,1,0.4,1,1s-0.4,1-1,1H35z M36,60c-0.6,0-1-0.4-1-1s0.4-1,1-1h3c0.6,0,1,0.4,1,1
			s-0.4,1-1,1H36z M27,54c-0.6,0-1-0.4-1-1s0.4-1,1-1h3c0.6,0,1,0.4,1,1s-0.4,1-1,1H27z M36,54c-0.6,0-1-0.4-1-1s0.4-1,1-1h3
			c0.6,0,1,0.4,1,1s-0.4,1-1,1H36z M27,48c-0.6,0-1-0.4-1-1s0.4-1,1-1h3c0.6,0,1,0.4,1,1s-0.4,1-1,1H27z M36,48c-0.6,0-1-0.4-1-1
			s0.4-1,1-1h3c0.6,0,1,0.4,1,1s-0.4,1-1,1H36z M45,60c-0.6,0-1-0.4-1-1s0.4-1,1-1h3c0.6,0,1,0.4,1,1s-0.4,1-1,1H45z M45,54
			c-0.6,0-1-0.4-1-1s0.4-1,1-1h3c0.6,0,1,0.4,1,1s-0.4,1-1,1H45z M45,48c-0.6,0-1-0.4-1-1s0.4-1,1-1h3c0.6,0,1,0.4,1,1s-0.4,1-1,1
			H45z M54,60c-0.6,0-1-0.4-1-1s0.4-1,1-1h3c0.6,0,1,0.4,1,1s-0.4,1-1,1H54z M54,54c-0.6,0-1-0.4-1-1s0.4-1,1-1h3c0.6,0,1,0.4,1,1
			s-0.4,1-1,1H54z M54,48c-0.6,0-1-0.4-1-1s0.4-1,1-1h3c0.6,0,1,0.4,1,1s-0.4,1-1,1H54z M63,60c-0.6,0-1-0.4-1-1s0.4-1,1-1h3
			c0.6,0,1,0.4,1,1s-0.4,1-1,1H63z M63,54c-0.6,0-1-0.4-1-1s0.4-1,1-1h3c0.6,0,1,0.4,1,1s-0.4,1-1,1H63z M63,48c-0.6,0-1-0.4-1-1
			s0.4-1,1-1h3c0.6,0,1,0.4,1,1s-0.4,1-1,1H63z M72,60c-0.6,0-1-0.4-1-1s0.4-1,1-1h3c0.6,0,1,0.4,1,1s-0.4,1-1,1H72z M72,54
			c-0.6,0-1-0.4-1-1s0.4-1,1-1h3c0.6,0,1,0.4,1,1s-0.4,1-1,1H72z M72,48c-0.6,0-1-0.4-1-1s0.4-1,1-1h3c0.6,0,1,0.4,1,1s-0.4,1-1,1
			H72z M81,48c-0.6,0-1-0.4-1-1s0.4-1,1-1h3c0.6,0,1,0.4,1,1s-0.4,1-1,1H81z M90,54c-0.6,0-1-0.4-1-1s0.4-1,1-1h3c0.6,0,1,0.4,1,1
			s-0.4,1-1,1H90z M90,48c-0.6,0-1-0.4-1-1s0.4-1,1-1h3c0.6,0,1,0.4,1,1s-0.4,1-1,1H90z"/>
		<path class="st1" d="M91.5,58.2c1.6-0.6,3.3,0.3,3.8,1.8c0.1,0.3,0.2,0.7,0.2,1v20h-2V61c0-0.6-0.4-1-1-1s-1,0.4-1,1v6h-2V57
			c0-0.6-0.4-1-1-1s-1,0.4-1,1v10h-2V55c0-0.6-0.4-1-1-1s-1,0.4-1,1v12h-2V57c0-0.6-0.4-1-1-1s-1,0.4-1,1v15l0,0.9l-2,0.2l-0.7-3.4
			L75.6,65c-0.1-0.5-0.7-0.9-1.2-0.7c0,0,0,0,0,0l-1,0.3L77.3,79c0.2,0.7,0.5,1,1.2,1v2c-1.6,0-2.7-0.9-3.1-2.5L71,63.1l2.9-0.8
			c1.5-0.4,3.1,0.4,3.6,1.9V57c0-1.7,1.3-3,3-3c0.4,0,0.8,0.1,1.1,0.2c0.4-1.6,2.1-2.5,3.7-2.1c1,0.3,1.8,1.1,2.1,2.1
			c1.5-0.6,3.3,0.1,3.9,1.7c0.1,0.4,0.2,0.7,0.2,1.1V58.2z"/>
	</g>
</g>
</svg>
