<?xml version="1.0" encoding="utf-8"?>
<!-- Generator: Adobe Illustrator 24.1.2, SVG Export Plug-In . SVG Version: 6.00 Build 0)  -->
<svg version="1.1" id="Layer_1" xmlns="http://www.w3.org/2000/svg" xmlns:xlink="http://www.w3.org/1999/xlink" x="0px" y="0px"
	 viewBox="0 0 120 100" style="enable-background:new 0 0 120 100;" xml:space="preserve">
<style type="text/css">
	.st0{fill:#E3F1FD;}
	.st1{fill:#4951A6;}
</style>
<g>
	<path class="st0" d="M62.1,28.7c8.7-5,12.8-9.9,0.2-9.4C49.6,19.8,53.4,33.8,62.1,28.7z"/>
	<path class="st0" d="M47.1,49.4c9.6,24.4,16.5-7.7,40.6-13.1c24.1-5.5,33.3,15.9-1.4,45.3C51.5,111.1-0.4,61.8,12.3,31.6
		C25.1,1.3,37.4,25,47.1,49.4z"/>
	<path class="st1" d="M74,45.8v-9.4H36.6v24.8H74v-8.7l1.7,1.4l8.2,2.5V41.2l-8.2,3.1L74,45.8L74,45.8z M76,42.1l7.1-2.7
		c1-0.4,2.2,0.1,2.6,1.1c0.1,0.2,0.1,0.5,0.1,0.7v15.2c0,1.1-0.9,2-2,2c-0.2,0-0.4,0-0.6-0.1L76,56.1v5.1c0,1.1-0.9,2-2,2H36.6
		c-1.1,0-2-0.9-2-2V36.4c0-1.1,0.9-2,2-2H74c1.1,0,2,0.9,2,2V42.1z M45.8,34.4c3.7,0,6.7-3,6.7-6.7s-3-6.7-6.7-6.7s-6.7,3-6.7,6.7
		S42.1,34.4,45.8,34.4z M45.8,36.4c-4.8,0-8.7-3.9-8.7-8.7s3.9-8.7,8.7-8.7c0,0,0,0,0,0c4.8,0,8.7,3.9,8.7,8.7
		C54.5,32.5,50.6,36.4,45.8,36.4z M61.3,34c3.3,0,6-2.7,6-6c0-3.3-2.7-6-6-6c0,0,0,0,0,0c-3.3,0-6,2.7-6,6C55.3,31.4,58,34,61.3,34z
		 M61.3,36c-4.4,0-8-3.6-8-8s3.6-8,8-8c0,0,0,0,0,0c4.4,0,8,3.6,8,8C69.3,32.5,65.7,36,61.3,36z M60.3,63.2l1.8-0.9l8.3,17.1
		l-1.8,0.9C68.6,80.4,60.3,63.2,60.3,63.2z M62.1,62.4l8.3,17.1l-1.8,0.9l-8.3-17.1C60.3,63.2,62.1,62.4,62.1,62.4z M48.6,62.4
		l1.8,0.9l-8.3,17.1l-1.8-0.9L48.6,62.4z M50.4,63.2l-8.3,17.1l-1.8-0.9l8.3-17.1L50.4,63.2L50.4,63.2z M51.9,54.9
		c-1,0.5-2.2,0.1-2.7-0.9c-0.1-0.3-0.2-0.6-0.2-0.9v-8.8c0-1.1,0.9-2,2-2c0.3,0,0.6,0.1,0.9,0.2l8.8,4.4c1,0.5,1.4,1.7,0.9,2.7
		c-0.2,0.4-0.5,0.7-0.9,0.9C60.7,50.6,51.9,54.9,51.9,54.9z M59.8,48.8L51,44.4v8.8L59.8,48.8L59.8,48.8z"/>
</g>
</svg>
