<?xml version="1.0" encoding="utf-8"?>
<!-- Generator: Adobe Illustrator 24.1.2, SVG Export Plug-In . SVG Version: 6.00 Build 0)  -->
<svg version="1.1" id="Layer_1" xmlns="http://www.w3.org/2000/svg" xmlns:xlink="http://www.w3.org/1999/xlink" x="0px" y="0px"
	 viewBox="0 0 120 100" style="enable-background:new 0 0 120 100;" xml:space="preserve">
<style type="text/css">
	.st0{fill:#E3F1FD;}
	.st1{fill:#4B5AB8;}
</style>
<g>
	<path class="st0" d="M32.2,57.1c12,0.3,28.5,7.3,54.7,16.1c26.1,8.9,30.7-12.9,22.7-32.3c-6.5-16-53.1-59.8-94.6-9.4
		C5.1,43.5,20.2,56.9,32.2,57.1z M32.2,80.9C40.6,98.1,70,92.3,64,80S23.8,63.8,32.2,80.9z"/>
	<g>
		<path class="st1" d="M88,60c-5.5,0-10-4.5-10-10s4.5-10,10-10s10,4.5,10,10S93.5,60,88,60z M88,58c4.4,0,8-3.6,8-8s-3.6-8-8-8
			s-8,3.6-8,8S83.6,58,88,58z M60,60c-5.5,0-10-4.5-10-10s4.5-10,10-10s10,4.5,10,10S65.5,60,60,60z M60,58c4.4,0,8-3.6,8-8
			s-3.6-8-8-8s-8,3.6-8,8S55.6,58,60,58z M32,60c-5.5,0-10-4.5-10-10s4.5-10,10-10s10,4.5,10,10S37.5,60,32,60z M32,58
			c4.4,0,8-3.6,8-8s-3.6-8-8-8s-8,3.6-8,8S27.6,58,32,58z"/>
	</g>
</g>
</svg>
