<?xml version="1.0" encoding="utf-8"?>
<!-- Generator: Adobe Illustrator 24.1.2, SVG Export Plug-In . SVG Version: 6.00 Build 0)  -->
<svg version="1.1" id="Layer_1" xmlns="http://www.w3.org/2000/svg" xmlns:xlink="http://www.w3.org/1999/xlink" x="0px" y="0px"
	 viewBox="0 0 120 100" style="enable-background:new 0 0 120 100;" xml:space="preserve">
<style type="text/css">
	.st0{fill:#E3F1FD;}
	.st1{fill:#4951A6;}
</style>
<g>
	<path class="st0" d="M8.2,34.2C5.1,21.4,24.5-11.7,47.8,17c23.3,28.8,105.1,67.7,39.4,67.7S11.4,47.1,8.2,34.2L8.2,34.2z
		 M81.5,18.2c0,0,15.1,32.2,19.5,19.5C105.4,24.9,81.5,18.2,81.5,18.2L81.5,18.2z"/>
	<g>
		<path class="st1" d="M59.5,35.3c-18,0-32.7,14.1-33.8,31.8h67.5C92.2,49.4,77.5,35.3,59.5,35.3L59.5,35.3z M95.3,69.1H23.7
			c0-19.8,16-35.8,35.8-35.8S95.3,49.3,95.3,69.1z"/>
		<path class="st1" d="M75.6,45.5c-0.5-0.2-0.7-0.8-0.5-1.3s0.8-0.7,1.3-0.5c3.5,1.7,6,3.9,7.4,6.6c0.3,0.5,0.1,1.1-0.4,1.4
			c-0.5,0.3-1.1,0.1-1.4-0.4c0,0,0,0,0,0C80.9,48.9,78.7,47,75.6,45.5z M59.5,35.1c-2.2,0-4.1-1.7-4.1-4s1.7-4.1,4-4.1
			c0,0,0.1,0,0.1,0c2.2,0,4,1.9,4,4.1C63.5,33.3,61.7,35.1,59.5,35.1z M59.5,33.1c1.1,0,2.1-0.9,2.1-2c0-1.1-0.9-2.1-2-2.1
			c0,0-0.1,0-0.1,0c-1.1,0-2,1-2,2.1C57.5,32.2,58.4,33.1,59.5,33.1z"/>
		<g>
			<path class="st1" d="M46.8,9.2c0.5-0.3,1.1-0.2,1.4,0.3s0.2,1.1-0.3,1.4c-3.9,2.5-6.4,4.6-7.3,6c-0.6,1-0.5,1.3,0.9,1.7
				c4.7,1.2,6.1,5,4.2,10.6c-0.2,0.5-0.7,0.8-1.3,0.6c-0.5-0.2-0.8-0.7-0.6-1.3c1.6-4.7,0.6-7.2-2.8-8.1c-2.6-0.7-3.5-2.5-2.1-4.7
				C40,14,42.7,11.9,46.8,9.2z M90.4,9.2c0.5-0.3,1.1-0.2,1.4,0.3c0.3,0.5,0.2,1.1-0.3,1.4l0,0c-3.9,2.5-6.4,4.6-7.3,6
				c-0.6,1-0.5,1.3,0.9,1.7c4.7,1.2,6.1,5,4.2,10.6c-0.2,0.5-0.7,0.8-1.3,0.6c-0.5-0.2-0.8-0.7-0.6-1.3c1.6-4.7,0.6-7.2-2.8-8.1
				c-2.6-0.7-3.5-2.5-2.1-4.7C83.7,14,86.3,11.9,90.4,9.2z M35.9,9.2C36.4,8.9,37,9,37.3,9.5s0.2,1.1-0.3,1.4
				c-3.9,2.5-6.4,4.6-7.3,6c-0.6,1-0.5,1.3,0.9,1.7c4.7,1.2,6.1,5,4.2,10.6c-0.2,0.5-0.7,0.8-1.3,0.6c-0.5-0.2-0.8-0.7-0.6-1.3
				c1.6-4.7,0.6-7.2-2.8-8.1c-2.6-0.7-3.5-2.5-2.1-4.7C29.1,14,31.8,11.9,35.9,9.2z M79.5,9.2C80,8.9,80.6,9,80.9,9.4
				s0.2,1.1-0.3,1.4c0,0,0,0,0,0c-3.9,2.5-6.4,4.6-7.3,6c-0.6,1-0.5,1.3,0.9,1.7c4.7,1.2,6.1,5,4.2,10.6c-0.2,0.5-0.7,0.8-1.3,0.6
				c-0.5-0.2-0.8-0.7-0.6-1.3c1.6-4.7,0.6-7.2-2.8-8.1c-2.6-0.7-3.5-2.5-2.1-4.7C72.8,14,75.4,11.9,79.5,9.2z"/>
		</g>
	</g>
	<path class="st1" d="M24.3,73c0-0.6,0.4-1,1-1h68.9c0.6,0,1,0.4,1,1s-0.4,1-1,1H25.3C24.7,74,24.3,73.6,24.3,73z"/>
</g>
</svg>
