<?xml version="1.0" encoding="utf-8"?>
<!-- Generator: Adobe Illustrator 24.1.2, SVG Export Plug-In . SVG Version: 6.00 Build 0)  -->
<svg version="1.1" id="Layer_1" xmlns="http://www.w3.org/2000/svg" xmlns:xlink="http://www.w3.org/1999/xlink" x="0px" y="0px"
	 viewBox="0 0 120 100" style="enable-background:new 0 0 120 100;" xml:space="preserve">
<style type="text/css">
	.st0{fill:#E3F1FD;}
	.st1{fill:#4B5AB8;}
</style>
<g>
	<path class="st0" d="M40.7,65.7c11.8-9,49.3-2.6,63.5-1.3c14.2,1.3,10.1-29-17.4-48.4s-60.7-25.8-76,32
		C-4.4,105.8,29,74.7,40.7,65.7L40.7,65.7z"/>
	<path class="st0" d="M50.5,86.8c12.5,1.1,4.2-11,2-13.7S38.1,85.7,50.5,86.8L50.5,86.8z"/>
	<g>
		<path class="st1" d="M86.1,30.5L86.1,30.5l-52.1,0c0,0-0.1,0-0.1,0l-1.8,3h55.7C87.8,33.5,86.1,30.5,86.1,30.5z M84.9,28.5l-2-3.5
			H37.1l-2.1,3.5H84.9L84.9,28.5z M88.9,35.5H31c0,0,0,0-0.1,0l-1.8,3h61.5L88.9,35.5L88.9,35.5z M91.8,40.5H28L25.9,44h67.9
			L91.8,40.5L91.8,40.5z M68,76h22V46H30v30h22V54c0-0.6,0.4-1,1-1h14c0.6,0,1,0.4,1,1V76z M92,46v31c0,0.6-0.4,1-1,1H29
			c-0.6,0-1-0.4-1-1V46h-3.9c-0.6,0-1-0.4-1-1c0-0.2,0-0.4,0.1-0.5l12.4-21c0.2-0.3,0.5-0.5,0.9-0.5h46.9c0.4,0,0.7,0.2,0.9,0.5
			l12,21c0.3,0.5,0.1,1.1-0.4,1.4C95.9,46,95.7,46,95.5,46H92z M54,55v21h12V55H54z M34,55v10h13V55H34z M33,53h15c0.6,0,1,0.4,1,1
			v12c0,0.6-0.4,1-1,1H33c-0.6,0-1-0.4-1-1V54C32,53.4,32.4,53,33,53z M73,55v10h13V55H73z M72,53h15c0.6,0,1,0.4,1,1v12
			c0,0.6-0.4,1-1,1H72c-0.6,0-1-0.4-1-1V54C71,53.4,71.4,53,72,53z"/>
		<path class="st1" d="M100.5,70.9c-3.3-1-5.5-6.6-5.5-13.4c0-7.4,2.7-13.5,6.5-13.5s6.5,6.1,6.5,13.5c0,6.7-2.2,12.4-5.5,13.4V77
			c0,0.6-0.4,1-1,1s-1-0.4-1-1V70.9z M101.5,69c2.3,0,4.5-5.1,4.5-11.5S103.8,46,101.5,46S97,51.1,97,57.5S99.2,69,101.5,69z M15,75
			c-3,0-4.9-0.3-6.5-1c-2.3-1-3.5-3-3.5-6c0-6.1,4.9-11,11-11s11,4.9,11,11c0,3-1.2,4.9-3.5,6c-1.6,0.7-3.5,1-6.5,1v2
			c0,0.6-0.4,1-1,1c-0.6,0-1-0.4-1-1V75z M16,73c6.7,0,9-1,9-5c0-5-4-9-9-9s-9,4-9,9C7,72,9.3,73,16,73z"/>
	</g>
</g>
</svg>
