<?xml version="1.0" encoding="utf-8"?>
<!-- Generator: Adobe Illustrator 24.1.2, SVG Export Plug-In . SVG Version: 6.00 Build 0)  -->
<svg version="1.1" id="Layer_1" xmlns="http://www.w3.org/2000/svg" xmlns:xlink="http://www.w3.org/1999/xlink" x="0px" y="0px"
	 viewBox="0 0 120 100" style="enable-background:new 0 0 120 100;" xml:space="preserve">
<style type="text/css">
	.st0{fill:#E3F1FD;}
	.st1{fill:#4B5AB8;}
	.st2{fill:none;stroke:#4B5AB8;stroke-width:2;stroke-linecap:round;stroke-linejoin:round;}
</style>
<g>
	<path class="st0" d="M41.2,70.2c12,0.3,10.9-24.7,46.5-4c35.5,20.7,30.7-12.9,22.7-32.3c-6.5-16-29.3-43.2-94.6-9.4
		C-17,41.4,29.3,69.9,41.2,70.2z"/>
	<path class="st0" d="M59.6,95c19.1,0,12.9-23-0.8-23S40.6,95,59.6,95z"/>
	<path class="st1" d="M29,93c-9.9,0-18-8.1-18-18s8.1-18,18-18s18,8.1,18,18S38.9,93,29,93z M29,91c8.8,0,16-7.2,16-16
		s-7.2-16-16-16s-16,7.2-16,16S20.2,91,29,91z M83,93c-9.9,0-18-8.1-18-18s8.1-18,18-18s18,8.1,18,18S92.9,93,83,93z M83,91
		c8.8,0,16-7.2,16-16s-7.2-16-16-16s-16,7.2-16,16S74.2,91,83,91z M56,81c-3.3,0-6-2.7-6-6s2.7-6,6-6s6,2.7,6,6S59.3,81,56,81z
		 M56,79c2.2,0,4-1.8,4-4s-1.8-4-4-4s-4,1.8-4,4S53.8,79,56,79z"/>
	<path class="st1" d="M30.6,74H51c0.6,0,1,0.4,1,1s-0.4,1-1,1H29c-0.6,0-1-0.4-1-1c0-0.1,0-0.3,0.1-0.4L41.4,46l-3-6.6
		c-0.2-0.5,0-1.1,0.5-1.3c0.5-0.2,1.1,0,1.3,0.5c0,0,0,0,0,0l3.2,7c0.1,0.3,0.1,0.6,0,0.8L30.6,74z"/>
	<path class="st1" d="M55,69.9c0.2,0.5,0,1.1-0.5,1.3c-0.5,0.2-1.1,0-1.3-0.5l-11.1-24c-0.2-0.5,0-1.1,0.5-1.3
		c0.1-0.1,0.3-0.1,0.4-0.1h27c0.6,0,1,0.4,1,1c0,0.1,0,0.3-0.1,0.4l-11.2,24c-0.2,0.5-0.8,0.7-1.3,0.5c-0.5-0.2-0.7-0.8-0.5-1.3
		l10.5-22.6H44.6L55,69.9L55,69.9z M38.5,40c-5.2,0-9.5-1.8-9.5-4.5c0-3.2,2.3-4.5,9.5-4.5s9.5,1.3,9.5,4.5C48,38.2,43.7,40,38.5,40
		z M38.5,38c4.2,0,7.5-1.4,7.5-2.5c0-1.8-1.2-2.5-7.5-2.5S31,33.7,31,35.5C31,36.6,34.3,38,38.5,38z"/>
	<path class="st2" d="M82,75L66,35h13.8l-2.5,6"/>
	<g>
		<path class="st1" d="M85,17.5h-2c0-5.2-4.3-9.5-9.5-9.5S64,12.3,64,17.5s4.3,9.5,9.5,9.5v2C67.1,29,62,23.9,62,17.5S67.1,6,73.5,6
			S85,11.1,85,17.5z"/>
		<path class="st1" d="M73.5,29c-0.6,0-1-0.4-1-1s0.4-1,1-1H93c4.4,0,8-3.6,8-8s-3.6-8-8-8c-4.7,0-8,2.8-8,7c0,0.6-0.4,1-1,1
			s-1-0.4-1-1c0-5.4,4.3-9,10-9c5.5,0,10,4.5,10,10s-4.5,10-10,10H73.5z"/>
	</g>
	<path class="st1" d="M18,27c-5.5,0-10-4.5-10-10S12.5,7,18,7s10,4.5,10,10S23.5,27,18,27z M18,25c4.4,0,8-3.6,8-8s-3.6-8-8-8
		s-8,3.6-8,8S13.6,25,18,25z M18.1,88.4l-1.5-1.3l8.3-9.5l1.5,1.3L18.1,88.4z M23.2,91.4l-1.6-1.3l5.3-6.6l1.6,1.3L23.2,91.4z"/>
</g>
</svg>
