<?xml version="1.0" encoding="utf-8"?>
<!-- Generator: Adobe Illustrator 24.1.2, SVG Export Plug-In . SVG Version: 6.00 Build 0)  -->
<svg version="1.1" id="Layer_1" xmlns="http://www.w3.org/2000/svg" xmlns:xlink="http://www.w3.org/1999/xlink" x="0px" y="0px"
	 viewBox="0 0 120 100" style="enable-background:new 0 0 120 100;" xml:space="preserve">
<style type="text/css">
	.st0{fill:#E3F1FD;}
	.st1{fill:#4B5AB8;}
</style>
<g>
	<path class="st0" d="M40.7,65.7c11.8-9,49.3-2.6,63.5-1.3c14.2,1.3,16.6-31-10.9-50.4C78.5,3.5,63.4,32.9,49,38
		C36.7,42.4,8,21,4.1,47C-4.6,105.4,29,74.7,40.7,65.7z"/>
	<path class="st0" d="M50.5,86.8C63,87.8,66,76,52.5,73C39,70.1,38.1,85.7,50.5,86.8L50.5,86.8z"/>
	<g>
		<path class="st1" d="M28.4,50.7C24,48.6,21,44.2,21,39c0-7.2,5.8-13,13-13s13,5.8,13,13c0,5.2-3,9.6-7.4,11.7
			c7.4,2,13.3,7.7,15.5,15c0.2,0.5-0.1,1.1-0.7,1.2c-0.5,0.2-1.1-0.1-1.2-0.7C50.7,57.8,42.9,52,34,52c-11,0-20,9-20,20
			c0,0.6-0.4,1-1,1s-1-0.4-1-1C12,61.8,19,53.2,28.4,50.7z M34,50c6.1,0,11-4.9,11-11s-4.9-11-11-11s-11,4.9-11,11S27.9,50,34,50z
			 M80.4,50.7C76,48.6,73,44.2,73,39c0-7.2,5.8-13,13-13s13,5.8,13,13c0,5.2-3,9.6-7.4,11.7C101,53.2,108,61.8,108,72
			c0,0.6-0.4,1-1,1s-1-0.4-1-1c0-11-9-20-20-20c-8.9,0-16.7,5.9-19.2,14.4c-0.2,0.5-0.7,0.8-1.2,0.7c-0.5-0.2-0.8-0.7-0.7-1.2
			C67.1,58.3,73,52.7,80.4,50.7z M86,50c6.1,0,11-4.9,11-11s-4.9-11-11-11s-11,4.9-11,11S79.9,50,86,50z"/>
		<path class="st1" d="M54.9,64.8C51.3,62.9,49,59.1,49,55c0-6.1,4.9-11,11-11s11,4.9,11,11c0,4.2-2.4,7.9-5.9,9.8
			C72,66.9,77,73.4,77,81c0,0.6-0.4,1-1,1s-1-0.4-1-1c0-8.3-6.7-15-15-15s-15,6.7-15,15c0,0.6-0.4,1-1,1s-1-0.4-1-1
			C43,73.4,48,66.9,54.9,64.8z M60,64c5,0,9-4,9-9s-4-9-9-9s-9,4-9,9S55,64,60,64z"/>
		<g>
			<path class="st1" d="M64.4,34.3c0.6-0.6,0.6-1.5,0-2.1c-0.6-0.6-1.5-0.6-2.1,0l-2.5,2.5l-2.5-2.5c-0.6-0.6-1.5-0.6-2.1,0
				c-0.6,0.6-0.6,1.5,0,2.1l4.6,4.6C59.8,38.8,64.4,34.3,64.4,34.3z M58.7,30.7l1.1,1.1l1.1-1.1c1.4-1.4,3.6-1.4,4.9,0
				c1.4,1.4,1.4,3.6,0,4.9l-6,6l-6-6c-1.4-1.4-1.4-3.6,0-5S57.4,29.4,58.7,30.7z"/>
		</g>
	</g>
</g>
</svg>
