<svg xmlns="http://www.w3.org/2000/svg" width="120" height="100" viewBox="0 0 120 100">
    <g fill="none" fill-rule="evenodd">
        <path fill="#D3FFEE" fill-rule="nonzero" d="M66.361 31.763C56.73 58.407 54.126 66.29 30.066 60.333c-24.06-5.956-15.398 13.536 0 25.862 15.397 12.325 78.45-1.033 78.45-35.108 0-34.074-32.522-45.968-42.155-19.324z"/>
        <path fill="#D3FFEE" fill-rule="nonzero" d="M45.594 39.773c-3.235-12.072-7.702-18.576-11.194-3.197-3.493 15.379 14.428 15.27 11.194 3.197z"/>
        <path fill="#4951A6" fill-rule="nonzero" d="M54.821 56.087l2.475 2.475a1.5 1.5 0 0 1 0 2.121l-15.91 15.91a1.5 1.5 0 0 1-2.12 0L32.9 70.229a1.5 1.5 0 0 1 0-2.121l15.91-15.91a1.5 1.5 0 0 1 2.121 0l2.475 2.475 14.556-14.557-.602-4.194a2.5 2.5 0 0 1 .964-2.348l7.024-5.324a2.5 2.5 0 0 1 3.278.224l2.393 2.393a2.5 2.5 0 0 1 .224 3.278L75.92 41.17a2.5 2.5 0 0 1-2.348.964l-4.194-.602L54.82 56.087zm19.035-15.933a.5.5 0 0 0 .47-.193l5.325-7.024a.5.5 0 0 0-.045-.656l-2.393-2.393a.5.5 0 0 0-.656-.045l-7.024 5.325a.5.5 0 0 0-.192.47l.567 3.948 3.948.568zM49.872 53.965L34.669 69.168l5.657 5.657 15.203-15.203-5.657-5.657z"/>
        <g fill="#4951A6" fill-rule="nonzero">
            <path d="M84.803 62.572l-3.547-3.546a5 5 0 0 0-7-.069l-.707.68L51.84 37.93l.68-.707a5 5 0 0 0-.069-7l-3.546-3.547a4.252 4.252 0 0 0-5.115-.685l6.26 6.259-5.658 5.657-6.259-6.26a4.252 4.252 0 0 0 .686 5.116l3.546 3.546a5 5 0 0 0 7 .069l.707-.68 21.709 21.708-.68.707a5 5 0 0 0 .069 7.001l3.546 3.546a4.252 4.252 0 0 0 5.115.685l-6.259-6.259 5.657-5.657 6.259 6.26a4.252 4.252 0 0 0-.685-5.116zm-30.21-24.718l19.031 19.03a7.002 7.002 0 0 1 9.047.728l3.546 3.546a6.25 6.25 0 0 1 .097 8.74l-.706.738-6.38-6.38-2.828 2.83 6.38 6.378-.74.707a6.25 6.25 0 0 1-8.738-.098l-3.547-3.546a7.002 7.002 0 0 1-.727-9.046L49.997 42.45a7.002 7.002 0 0 1-9.047-.728l-3.546-3.546a6.25 6.25 0 0 1-.097-8.739l.707-.738 6.378 6.378 2.829-2.828-6.379-6.379.739-.707a6.25 6.25 0 0 1 8.739.098l3.546 3.546a7.002 7.002 0 0 1 .727 9.047z"/>
        </g>
    </g>
</svg>
